<svg width="24" height="24" viewBox="0 0 24 24" fill="none" xmlns="http://www.w3.org/2000/svg">
<path d="M16 0.75C20.0041 0.75 23.25 3.99594 23.25 8V16C23.25 20.0041 20.0041 23.25 16 23.25H8C3.99594 23.25 0.75 20.0041 0.75 16V8C0.75 3.99594 3.99594 0.75 8 0.75H16ZM8 3.25C5.37665 3.25 3.25 5.37665 3.25 8V16C3.25 18.6234 5.37665 20.75 8 20.75H16C18.6234 20.75 20.75 18.6234 20.75 16V8C20.75 5.37665 18.6234 3.25 16 3.25H8ZM12 7C12.7594 7 13.375 7.61561 13.375 8.375V10.625H15.625C16.3844 10.625 17 11.2406 17 12C17 12.7594 16.3844 13.375 15.625 13.375H13.375V15.625C13.375 16.3844 12.7594 17 12 17C11.2406 17 10.625 16.3844 10.625 15.625V13.375H8.375C7.61561 13.375 7 12.7594 7 12C7 11.2406 7.61561 10.625 8.375 10.625H10.625V8.375C10.625 7.61561 11.2406 7 12 7Z" fill="#EFEFEF"/>
</svg>
