<svg width="24" height="24" viewBox="0 0 24 24" fill="none" xmlns="http://www.w3.org/2000/svg">
<path fill-rule="evenodd" clip-rule="evenodd" d="M9.924 7.5C13.2181 8.45192 16.0416 11.3077 16.924 15C17.8064 11.3077 20.6299 8.45197 23.924 7.5C20.6299 6.54808 17.8064 3.69231 16.924 0C16.0416 3.66346 13.2181 6.51921 9.924 7.5ZM18.17 17.987C18.17 17.197 18.8043 16.5584 19.5857 16.5584C20.3671 16.5584 21 17.197 21 17.987V19.57C21 21.4929 19.4457 23 17.4614 23H4.53857C2.55429 23 1 21.4929 1 19.57V6.57143C1 4.60143 2.58714 3 4.53857 3H7.93636C8.71779 3 9.35065 3.63857 9.35065 4.42857C9.35065 5.21857 8.71779 5.85714 7.93636 5.85714H4.53857C4.14714 5.85714 3.83143 6.17857 3.83143 6.57143V19.57C3.83143 20.1257 4.46571 20.1429 4.53857 20.1429H17.4614C17.5343 20.1429 18.17 20.1257 18.17 19.57V17.987Z" fill="#EFEFEF"/>
</svg>
