<svg width="24" height="24" viewBox="0 0 24 24" fill="none" xmlns="http://www.w3.org/2000/svg">
<rect y="3" width="24" height="18" rx="2" fill="#0079C1"/>
<path fill-rule="evenodd" clip-rule="evenodd" d="M23.9994 18.8307V18.029L23.9994 16.8512L22.4628 15.2169L23.9994 13.5958L23.9994 12.4319L23.9994 12.0753L23.9994 11.6197H22.4883V7.69374L21.0489 11.6197H19.7056L18.2662 7.70207V11.6197H16.7552V6.02268H19.1457L20.3928 9.50869L21.6484 6.02268H23.9994L23.9994 5.22159H21.0528L20.3884 7.08209L19.7284 5.22159H15.9269V7.69096L14.8302 5.22159H11.7586L8.57373 12.4292H11.1414V18.8307H19.0962L20.3445 17.4574L21.5867 18.8307H23.9994ZM16.7552 11.6197L14.2847 6.02268H12.3175L9.84647 11.6197H11.5259L11.9897 10.5003H14.5641L15.0358 11.6197H15.0363H16.7552ZM16.7563 12.4319H18.7629L20.3862 14.223L22.025 12.4319H23.9994L21.3456 15.2146L23.9994 18.029H21.9934L21.9939 18.0285L20.3545 16.2213L18.7073 18.0285H16.7563L19.3945 15.2302L16.7563 12.4319ZM16.7563 12.4319V12.4314H11.9909V18.0285H16.7563V16.7329H13.518V15.8618H16.6763V14.5985H13.518V13.7269H16.7563V12.4319ZM13.2769 7.41375L12.5175 9.24481H14.0364L13.2769 7.41375Z" fill="white"/>
</svg>
