<?xml version="1.0" encoding="UTF-8"?>
<svg width="24px" height="24px" viewBox="0 0 24 24" version="1.1" xmlns="http://www.w3.org/2000/svg" xmlns:xlink="http://www.w3.org/1999/xlink">
    <title>icon/analytics</title>
    <g id="icon/analytics" stroke="none" stroke-width="1" fill="none" fill-rule="evenodd">
        <path d="M4,12 L6.43333333,12 C6.98561808,12 7.43333333,12.4477153 7.43333333,13 L7.43333333,22 L7.43333333,22 L3,22 L3,13 C3,12.4477153 3.44771525,12 4,12 Z M10.9666667,5 L13.4,5 C13.9522847,5 14.4,5.44771525 14.4,6 L14.4,22 L14.4,22 L9.96666667,22 L9.96666667,6 C9.96666667,5.44771525 10.4143819,5 10.9666667,5 Z M17.9333333,8 L20.3666667,8 C20.9189514,8 21.3666667,8.44771525 21.3666667,9 L21.3666667,22 L21.3666667,22 L16.9333333,22 L16.9333333,9 C16.9333333,8.44771525 17.3810486,8 17.9333333,8 Z" id="Combined-Shape" fill="#FFFFFF"></path>
    </g>
</svg>