<svg width="24" height="24" viewBox="0 0 24 24" fill="none" xmlns="http://www.w3.org/2000/svg">
<path fill-rule="evenodd" clip-rule="evenodd" d="M10.9502 20.5142L10.7284 20.6904L10.5009 20.89L10.2849 21.0982L10.0807 21.3128L9.8426 21.5868L9.62406 21.8631L9.46369 22.083L9.31651 22.2996L9.18281 22.5107L9.06289 22.7141L8.9095 23C9.32716 19.4589 6.86863 16.9236 2.46933 19.7479L2.24292 19.8957L2.56338 19.6502L2.94032 19.3444L3.37981 18.9721L3.82229 18.5773L4.02604 18.3853L4.20821 18.2043L4.36135 18.0396C4.56557 17.8078 4.64669 17.65 4.49165 17.65C4.02897 17.65 2.85368 17.9659 2.20599 18.4974C2.47395 18.2753 2.72375 18.0269 2.9503 17.7578L3.14097 17.5193C4.95598 15.1252 4.9685 11.3492 0 9.73721L0.250223 9.76628L0.650523 9.79817L0.992413 9.81133L1.23661 9.81258L1.49159 9.80631L1.75547 9.79125C1.84469 9.78462 1.93508 9.77631 2.02632 9.76611L2.30225 9.72961L2.44152 9.7067L2.72149 9.65076L2.95607 9.59282C4.79156 9.09708 6.54445 7.59399 5.80049 3.46032L5.88982 3.57362L6.05401 3.7696C6.56906 4.35497 6.76134 4.26239 6.61877 3.52284L6.56594 3.28159L6.49294 3.00171L6.39971 2.68339L6.28617 2.3268L6.07762 1.72059C8.11528 5.60652 10.2749 5.34047 11.7689 3.79988L11.96 3.59194L12.1431 3.37097L12.3602 3.07858L12.5635 2.7708L12.7158 2.51537L12.8584 2.25329L12.9909 1.98598L13.1129 1.71485L13.2241 1.44133L13.3241 1.16683L13.4124 0.892771L13.4521 0.756352L13.5222 0.485621L13.5798 0.218881L13.6169 0L13.6005 0.200646C13.5637 0.70167 13.5553 1.17981 13.5737 1.63029L13.5959 2.00953C13.8495 5.29773 15.6096 6.92243 18.156 4.81372C17.8673 5.33945 17.6242 5.86675 17.4266 6.39562C17.3772 6.52783 17.4356 6.55264 17.6018 6.47004L17.7286 6.39906L17.8873 6.29626L18.1853 6.08238L18.4239 5.90001L18.8416 5.56679L19.3313 5.16197L20.2634 4.57252C16.8834 7.87631 19.2034 11.9824 24 11.7982C20.8502 11.9192 19.9757 14.2281 21.6119 16.219L21.0541 15.9964L20.7402 15.8786L20.4726 15.7851L20.3562 15.7475L20.1581 15.6907C19.8957 15.6238 19.7897 15.6392 19.84 15.7371C19.8825 15.8197 19.9751 15.934 20.1029 16.0683L20.3192 16.2832L20.4438 16.3993L20.7186 16.6429L21.0184 16.8949L21.3323 17.1463C21.438 17.2291 21.5442 17.3104 21.649 17.3886C18.5937 15.481 15.9788 17.8236 18.4563 21.5257L18.668 21.829L18.4786 21.5727C17.9834 20.9256 17.4006 20.2902 16.7302 19.6664L16.6866 19.7479L16.6136 20.104L16.8122 20.7257L16.9294 21.0698L17.0344 21.3574L17.1273 21.5887C17.1418 21.6226 17.1557 21.6541 17.1692 21.6832L17.2423 21.8289L17.0754 21.6428C14.781 19.151 12.7584 19.3316 11.2685 20.2917L11.0544 20.4376C11.0193 20.4627 10.9846 20.4883 10.9502 20.5142ZM12.7045 5.28L12.5649 5.40425C11.0463 6.71443 9.31673 6.93693 7.70302 6.05781L7.65337 6.02915L7.6466 6.1108C7.43387 8.31455 6.38667 9.86843 4.71944 10.7366L4.65423 10.7691L4.69219 10.8156C5.96579 12.4215 6.29488 14.3856 5.74841 16.2346L5.7008 16.3851L5.73457 16.4156C5.84711 16.5224 5.94421 16.6434 6.02417 16.7749L6.06851 16.8531L6.11053 16.8543C7.71714 16.916 9.02697 17.6776 9.82448 18.9478L9.93423 19.1323L10.0859 19.0225C11.7186 17.8621 13.5504 17.5836 15.3744 18.3227L15.4799 18.3669L16.0988 17.208L16.1303 17.1331C16.5162 16.2379 17.2133 15.5594 18.1105 15.2154L18.1894 15.186L18.213 15.1142C18.3541 14.7116 18.64 14.3636 19.0338 14.152L19.0791 14.1291L19.0824 14.0491C19.1086 13.4985 19.252 12.9722 19.5024 12.4931L19.5505 12.4029L19.4304 12.3254C17.9525 11.3443 17.0541 9.85235 16.9481 8.21071L16.9448 8.16L16.9117 8.1494L16.7631 8.09125C16.4804 7.9712 16.2511 7.79126 16.0785 7.57506L16.0062 7.47686L15.8429 7.47348C14.9777 7.43333 14.169 7.07512 13.492 6.37973L13.3584 6.23615C13.1219 5.97045 12.9136 5.66911 12.7332 5.33598L12.7045 5.28ZM10.3584 9.5V15.1921C10.3584 15.302 10.3946 15.4088 10.4614 15.496C10.6292 15.7153 10.943 15.757 11.1623 15.5892L14.8807 12.7431C14.9157 12.7163 14.9471 12.685 14.9739 12.65C15.1417 12.4307 15.1 12.1169 14.8807 11.949L11.1623 9.10295C11.0751 9.03618 10.9683 9 10.8584 9C10.5823 9 10.3584 9.22386 10.3584 9.5Z" fill="#EFEFEF"/>
</svg>
