<svg width="24" height="24" viewBox="0 0 24 24" fill="none" xmlns="http://www.w3.org/2000/svg">
<path fill-rule="evenodd" clip-rule="evenodd" d="M19.7242 2C20.3137 2 20.7711 2.44014 20.8295 2.99178L20.8358 3.11158V17.1579C20.8358 17.7238 20.3956 18.2017 19.844 18.2629L19.7242 18.2695L17.629 18.269L19.1002 21.5657C19.3252 22.0701 19.0987 22.6614 18.5944 22.8864C18.126 23.0953 17.5827 22.915 17.3274 22.4843L17.2737 22.3805L15.439 18.269H8.843L7.0089 22.3805C6.7839 22.8849 6.19262 23.1114 5.68825 22.8864C5.21991 22.6774 4.99118 22.1527 5.14104 21.675L5.18241 21.5657L6.652 18.269L4.11158 18.2695C3.54568 18.2695 3.06782 17.8293 3.00662 17.2777L3 17.1579V3.11158C3 2.54568 3.44014 2.06782 3.99178 2.00662L4.11158 2H19.7242ZM18.6379 4.22316H5.22316V16.0463H18.6379V4.22316ZM10.9457 8.97326L11.0084 9.04842L12.6758 11.4737L13.5853 10.1853C13.769 9.90967 14.2241 9.88461 14.4572 10.1101L14.52 10.1853L16.7179 13.3937C16.8189 13.5705 16.8442 13.7979 16.7432 13.9747C16.6565 14.1263 16.4957 14.2408 16.3242 14.2704L16.2379 14.2779H7.59789C7.39579 14.2779 7.19368 14.1516 7.09263 13.9495C7.00602 13.7979 6.99364 13.6092 7.07142 13.447L7.11789 13.3684L10.0737 9.04842C10.2574 8.77282 10.7126 8.74777 10.9457 8.97326ZM13.6611 5.81474C14.4842 5.81474 15.1516 6.48207 15.1516 7.30526C15.1516 8.12846 14.4842 8.79579 13.6611 8.79579C12.8379 8.79579 12.1705 8.12846 12.1705 7.30526C12.1705 6.48207 12.8379 5.81474 13.6611 5.81474Z" fill="#EFEFEF"/>
</svg>
