<svg width="24" height="24" viewBox="0 0 24 24" fill="none" xmlns="http://www.w3.org/2000/svg">
<g clip-path="url(#clip0_10568_27267)">
<path d="M12 0C18.6462 0 24 5.35385 24 12C24 15.3231 22.6153 18.3691 20.3076 20.6768L19.6611 21.2305L18.7383 21.9688V21.877C16.7075 23.1692 14.3999 23.9072 12 23.9072C9.60006 23.9072 7.20016 23.1692 5.26172 21.877V21.9688L4.33887 21.2305L3.69238 20.6768C1.38472 18.3691 0 15.3231 0 12C6.00207e-09 5.35385 5.35385 6.00188e-09 12 0ZM12 2.03125C6.46154 2.03125 2.03125 6.46154 2.03125 12C2.03125 14.6769 3.04638 17.0772 5.07715 19.0156L6.09277 18C6.27731 17.8155 6.46195 17.7226 6.64648 17.5381C6.73891 17.4459 6.92343 17.3539 7.01562 17.2617C7.20019 17.1694 7.38477 16.9849 7.56934 16.8926C7.66163 16.8925 7.84615 16.8002 7.93848 16.708L8.49219 16.4307C8.58447 16.3384 8.67681 16.3383 8.86133 16.2461C9.04594 16.1538 9.3232 16.1538 9.50781 16.0615C9.60008 16.0614 9.69242 15.9688 9.87695 15.9688C10.1537 15.8765 10.3385 15.7842 10.6152 15.7842C10.7075 15.6921 10.892 15.6924 10.9844 15.6924C11.3536 15.6001 11.7235 15.5996 12.0928 15.5996C12.4618 15.5997 12.8311 15.6924 13.2002 15.6924C13.2926 15.6925 13.4771 15.7842 13.5693 15.7842C13.8462 15.8765 14.0308 15.8765 14.3076 15.9688C14.3999 15.9688 14.5844 16.0614 14.6768 16.0615C14.8614 16.0615 15.1386 16.1538 15.3232 16.2461C15.4156 16.3383 15.6001 16.3384 15.6924 16.4307L16.2461 16.708C16.3384 16.708 16.5229 16.8003 16.6152 16.8926C16.7998 16.9849 16.9844 17.1694 17.1689 17.2617C17.2611 17.3539 17.4457 17.4459 17.5381 17.5381C17.7227 17.7227 17.9082 17.8154 18.0928 18L18.3691 18.2773C18.646 18.462 18.9228 18.7387 19.1074 19.0156C20.9536 17.0772 21.9688 14.6769 21.9688 12C21.9687 6.46154 17.5385 2.03125 12 2.03125ZM12 5.53809C14.5846 5.53809 16.708 7.56968 16.708 10.1543C16.7078 12.7387 14.5845 14.8613 12 14.8613C9.41538 14.8613 7.29199 12.8307 7.29199 10.2461C7.29203 7.66151 9.4154 5.53809 12 5.53809Z" fill="#EFEFEF"/>
</g>
<defs>
<clipPath id="clip0_10568_27267">
<rect width="24" height="24" fill="white"/>
</clipPath>
</defs>
</svg>
