<svg width="24" height="24" viewBox="0 0 24 24" fill="none" xmlns="http://www.w3.org/2000/svg">
<path fill-rule="evenodd" clip-rule="evenodd" d="M3.0698 2.25H20.9302C21.7443 2.25 22.5252 2.57342 23.1008 3.14916C23.6766 3.72481 24 4.50564 24 5.3198V18.4827C24 19.2968 23.6766 20.0777 23.1008 20.6533C22.5252 21.2291 21.7444 21.5525 20.9302 21.5525H3.0698C2.25567 21.5525 1.47481 21.2291 0.899162 20.6533C0.323423 20.0777 0 19.2968 0 18.4827V5.3198C0 4.50567 0.323423 3.72481 0.899162 3.14916C1.47481 2.57342 2.25564 2.25 3.0698 2.25ZM21.8777 19.5092C22.15 19.2578 22.311 18.9086 22.3255 18.5384L22.3256 9.90122H1.67448V18.5385C1.68897 18.9087 1.85013 19.2578 2.12236 19.5092C2.39451 19.7604 2.75551 19.8931 3.12568 19.878H20.8744C21.2446 19.8931 21.6056 19.7604 21.8777 19.5092ZM1.67448 6.59887H22.3256V5.26396C22.3111 4.89379 22.15 4.54462 21.8777 4.2933C21.6056 4.04206 21.2446 3.90932 20.8744 3.92446H3.12568C2.75551 3.90932 2.39451 4.04208 2.12236 4.2933C1.85013 4.54464 1.68899 4.89379 1.67448 5.26396V6.59887ZM11.1626 13.3997H4.28351C3.98438 13.3997 3.70796 13.2402 3.5584 12.9811C3.40892 12.7221 3.40892 12.403 3.5584 12.1439C3.70795 11.8849 3.98438 11.7253 4.28351 11.7253H11.1626C11.4617 11.7253 11.7381 11.8849 11.8876 12.1439C12.0372 12.403 12.0372 12.7221 11.8876 12.9811C11.7381 13.2402 11.4617 13.3997 11.1626 13.3997Z" fill="#EFEFEF"/>
</svg>
