<svg width="24" height="24" viewBox="0 0 24 24" fill="none" xmlns="http://www.w3.org/2000/svg">
<path d="M12.0012 0.0410156C14.3527 0.0410543 16.6427 0.869274 18.4592 2.37109L18.4641 2.37402L18.4915 2.39648C20.3041 3.92274 21.5317 6.04337 21.9612 8.37793L21.9622 8.38086L23.4319 16.6973L23.4358 16.7236V16.9619C23.4136 17.8267 23.1027 18.6634 22.5432 19.3359V19.3369C21.8151 20.2116 20.7486 20.7129 19.6086 20.7129H16.4309C15.8294 22.592 14.0686 23.9578 12.0012 23.958C9.93382 23.9579 8.1721 22.5922 7.57056 20.7129H4.39282C3.26733 20.7128 2.19741 20.217 1.46899 19.3496L1.46509 19.3457L1.4563 19.334C0.731656 18.4535 0.425437 17.3099 0.626221 16.1777V16.1768L2.04126 8.3877C2.91003 3.55122 7.1034 0.0410875 12.0012 0.0410156ZM12.0012 2.86328C8.45892 2.86348 5.43198 5.39812 4.80396 8.89258V8.89355L3.38989 16.6758L3.39087 16.6768C3.33977 16.982 3.42201 17.2909 3.61548 17.5283L3.69165 17.6094C3.87986 17.7886 4.13062 17.8905 4.39282 17.8906H19.6096C19.91 17.8906 20.1955 17.7571 20.3889 17.5273L20.4075 17.5049C20.5937 17.2722 20.6678 16.9765 20.6135 16.6846V16.6836L19.1985 8.88867C18.8839 7.19879 17.9933 5.65971 16.6877 4.56641V4.56543C15.3715 3.47037 13.7029 2.86328 12.0012 2.86328Z" fill="#EFEFEF"/>
</svg>
