<svg width="24" height="24" viewBox="0 0 24 24" fill="none" xmlns="http://www.w3.org/2000/svg">
<path d="M18.3138 5.68606C18.1384 5.51414 18.0391 5.27991 18.0391 5.03416C18.0391 4.7884 18.1384 4.553 18.3138 4.38109L19.1757 3.51917L19.1757 3.52032C19.3476 3.34609 19.583 3.24803 19.8276 3.24916C20.0734 3.24339 20.3099 3.34147 20.4795 3.52032C20.656 3.69109 20.7553 3.92647 20.7553 4.17223C20.7553 4.41799 20.656 4.65338 20.4795 4.82414L19.6176 5.68606L19.6187 5.68606C19.4468 5.86144 19.2114 5.96067 18.9657 5.96067C18.7199 5.96067 18.4857 5.86144 18.3138 5.68606ZM4.38108 5.68606C4.74568 6.02528 5.31222 6.0149 5.66299 5.66299C6.01491 5.31222 6.0253 4.74568 5.68606 4.38108L4.82414 3.51915L4.82414 3.52031C4.65222 3.34608 4.41683 3.24801 4.17223 3.24915C3.92646 3.24338 3.68992 3.34145 3.52032 3.52031C3.34379 3.69108 3.24456 3.92646 3.24456 4.17221C3.24456 4.41797 3.34379 4.65337 3.52032 4.82412L4.38108 5.68606ZM21.8455 12.9229L23.0767 12.9229C23.5867 12.9229 23.9998 12.5099 23.9998 11.9999C23.9998 11.4899 23.5867 11.0768 23.0767 11.0768L21.8455 11.0768C21.3367 11.0768 20.9225 11.4899 20.9225 11.9999C20.9225 12.5099 21.3367 12.9229 21.8455 12.9229ZM0.923141 12.9229L2.15429 12.9229C2.66314 12.9229 3.07736 12.5099 3.07736 11.9999C3.07736 11.4898 2.66314 11.0768 2.15429 11.0768L0.923141 11.0768C0.413139 11.0768 7.16656e-05 11.4898 7.1621e-05 11.9999C7.15764e-05 12.5099 0.413139 12.9229 0.923141 12.9229ZM12 3.07735C12.5065 3.07043 12.9161 2.66081 12.923 2.15428L12.923 0.923129C12.923 0.413128 12.51 6.00307e-05 12 5.99861e-05C11.49 5.99415e-05 11.0769 0.413127 11.0769 0.923129L11.0769 2.15428C11.0838 2.66081 11.4934 3.07043 12 3.07735ZM4.9236 11.9999C4.91321 9.5179 6.20435 7.21146 8.32517 5.92261C10.4471 4.63379 13.0882 4.55071 15.2873 5.70339C17.4854 6.85722 18.9185 9.07714 19.065 11.5547C19.2104 14.0332 18.0473 16.4066 16.0004 17.8096L16.0004 19.9996C16.0004 22.2092 14.2097 24.0001 12 24.0001C9.79026 24.0001 7.99951 22.2093 7.99951 19.9996L7.99951 17.8096C6.08528 16.4931 4.93763 14.3225 4.9236 11.9999ZM14.1543 19.0762L9.84712 19.0762L9.84597 19.9993C9.84597 21.1889 10.8106 22.1535 12.0002 22.1535C13.1898 22.1535 14.1544 21.1889 14.1544 19.9993L14.1543 19.0762ZM6.76973 11.9999C6.76743 12.916 7.00858 13.816 7.46895 14.6076C7.92933 15.3992 8.59278 16.0545 9.39125 16.5045C9.64739 16.6579 9.8101 16.9314 9.82162 17.2302L14.1785 17.2302C14.19 16.9314 14.3527 16.6579 14.6089 16.5045C15.4073 16.0545 16.0708 15.3991 16.5312 14.6076C16.9915 13.8161 17.2327 12.9161 17.2304 11.9999C17.2304 10.1306 16.2335 8.40456 14.6158 7.46992C12.9969 6.53531 11.0032 6.53531 9.38431 7.46992C7.76662 8.40454 6.76973 10.1306 6.76973 11.9999Z" fill="#EFEFEF"/>
</svg>
