<svg width="24" height="24" viewBox="0 0 24 24" fill="none" xmlns="http://www.w3.org/2000/svg">
<path fill-rule="evenodd" clip-rule="evenodd" d="M12.7675 21.1102L11.7115 21.1159L11.0003 21.1102L10.3161 21.093L9.65806 21.0638L9.02532 21.0219L8.43708 20.9688C2.90677 20.3956 0.999723 16.5901 0.999756 11.1727L1.00242 10.8534L1.02053 10.2714C1.24898 5.49646 3.52061 1.92506 8.77729 1.39086L9.43105 1.33416C9.77254 1.30919 10.1285 1.28991 10.5149 1.27567L11.2649 1.25595L11.9996 1.25C12.5326 1.25 13.0361 1.25879 13.529 1.27735L14.2226 1.31113C14.4555 1.32519 14.6818 1.34173 14.9226 1.36273L15.5528 1.42664C20.597 2.01497 22.7802 5.61908 22.9835 10.375L22.998 10.9098L22.9998 11.1813C22.9998 15.8343 21.7988 19.5914 17.3456 20.6739L16.1469 24L12.7675 21.1102ZM15.1208 20.1226L13.6041 18.8256L11.7145 18.8358L11.038 18.8304L10.3952 18.8143L9.78393 18.7872L9.20335 18.7487L8.65792 18.6994C6.44034 18.4667 5.24545 17.6467 4.52379 16.5963C3.72956 15.4402 3.28084 13.6724 3.27976 11.1818L3.28212 10.8983L3.29881 10.3621C3.4006 8.29082 3.93506 6.73133 4.78905 5.67096C5.60266 4.66072 6.88521 3.87816 8.99189 3.66081L9.61238 3.60699C9.91578 3.585 10.2356 3.56763 10.587 3.55456L11.3041 3.5357L12.0087 3.53C12.5084 3.5301 12.9763 3.53832 13.4308 3.55527L14.0982 3.58777C14.3018 3.60017 14.4993 3.6146 14.7088 3.63275L15.3047 3.69318C17.2778 3.92675 18.4917 4.70367 19.2734 5.72432C20.099 6.80227 20.6137 8.38103 20.7048 10.4553L20.7182 10.9482L20.7198 11.1885C20.7191 13.3677 20.4279 15.0392 19.8176 16.2188C19.2681 17.281 18.4014 18.0709 16.8071 18.4585L15.6162 18.7479L15.1208 20.1226Z" fill="#EFEFEF"/>
</svg>
