<svg width="24" height="24" viewBox="0 0 24 24" fill="none" xmlns="http://www.w3.org/2000/svg">
<path fill-rule="evenodd" clip-rule="evenodd" d="M22 12C22 17.5228 17.5228 22 12 22C6.47715 22 2 17.5228 2 12C2 6.47715 6.47715 2 12 2C17.5228 2 22 6.47715 22 12ZM24 12C24 18.6274 18.6274 24 12 24C5.37258 24 0 18.6274 0 12C0 5.37258 5.37258 0 12 0C18.6274 0 24 5.37258 24 12ZM11.0136 16.4006L18.4142 9L17 7.58578L10.3065 14.2793L7 10.9727L5.58578 12.387L9.59941 16.4006C9.78695 16.5881 10.0413 16.6935 10.3065 16.6935C10.5717 16.6935 10.8261 16.5881 11.0136 16.4006Z" fill="#EFEFEF"/>
</svg>
