<?xml version="1.0" encoding="UTF-8"?>
<svg width="24px" height="24px" viewBox="0 0 24 24" version="1.1" xmlns="http://www.w3.org/2000/svg" xmlns:xlink="http://www.w3.org/1999/xlink">
    <title>icon/attachment</title>
    <g id="icon/attachment" stroke="none" stroke-width="1" fill="none" fill-rule="evenodd">
        <path d="M16.9980377,7.53268124 C17.261747,7.30684638 17.376615,6.95225202 17.2954148,6.61468648 C17.2142145,6.27712094 16.9506507,6.01355707 16.6130851,5.93235683 C16.2755196,5.85115659 15.9209252,5.9660246 15.6950904,6.2297339 L8.76451943,13.1603049 C8.22335981,13.7003043 7.91924178,14.4333974 7.91924178,15.1978927 C7.91924178,15.962388 8.22335981,16.6954811 8.76451943,17.2354806 C9.90420021,18.3256098 11.7000144,18.3256098 12.8396951,17.2354806 L19.7702661,10.3049096 C21.0167286,9.08647621 21.5121306,7.29213123 21.0673789,5.60676932 C20.6226273,3.92140741 19.3063642,2.60514433 17.6210023,2.16039267 C15.9356404,1.71564102 14.1412954,2.21104298 12.922862,3.45750552 L5.99229105,10.3880765 C3.33590296,13.0444646 3.33590299,17.3513207 5.99229112,20.0077089 C8.64867925,22.664097 12.9555354,22.664097 15.6119235,20.007709 L20.6943422,14.9252903 C20.9580515,14.6994554 21.0729195,14.344861 20.9917193,14.0072955 C20.9105191,13.66973 20.6469552,13.4061661 20.3093896,13.3249659 C19.9718241,13.2437656 19.6172297,13.3586336 19.3913949,13.6223429 L14.3089762,18.7047616 C12.372186,20.6415518 9.2320286,20.6415518 7.29523839,18.7047616 C5.35844817,16.7679714 5.35844817,13.627814 7.29523839,11.6910238 L14.2258093,4.76045285 C14.983482,4.00278013 16.087814,3.70687524 17.1228142,3.98420268 C18.1578143,4.26153013 18.9662415,5.06995728 19.2435689,6.10495743 C19.5208964,7.13995759 19.2249915,8.2442896 18.4673188,9.00196228 L11.5367478,15.9325332 C11.1271375,16.3142121 10.488832,16.3029499 10.0929411,15.9070589 C9.6970501,15.511168 9.68578794,14.8728625 10.0674668,14.4632522 L16.9980377,7.53268124 Z" id="Path" fill="#FFFFFF"></path>
    </g>
</svg>