<?xml version="1.0" encoding="UTF-8"?>
<svg width="24px" height="24px" viewBox="0 0 24 24" version="1.1" xmlns="http://www.w3.org/2000/svg" xmlns:xlink="http://www.w3.org/1999/xlink">
    <title>icon/collection</title>
    <g id="icon/collection" stroke="none" stroke-width="1" fill="none" fill-rule="evenodd">
        <g id="rectangle" transform="translate(1.000000, 1.000000)" fill="#FFFFFF" fill-rule="nonzero">
            <g id="ol">
                <path d="M18,0 L4,0 C1.790861,0 0,1.790861 0,4 L0,18 C0,20.209139 1.790861,22 4,22 L18,22 C20.209139,22 22,20.209139 22,18 L22,4 C22,1.790861 20.209139,0 18,0 Z M18,2 C19.1045695,2 20,2.8954305 20,4 L20,18 C20,19.1045695 19.1045695,20 18,20 L4,20 C2.8954305,20 2,19.1045695 2,18 L2,4 C2,2.8954305 2.8954305,2 4,2 L18,2 Z" id="Rectangle"></path>
            </g>
        </g>
    </g>
</svg>