<svg width="24" height="24" viewBox="0 0 24 24" fill="none" xmlns="http://www.w3.org/2000/svg">
<mask id="mask0_28934_72380" style="mask-type:luminance" maskUnits="userSpaceOnUse" x="0" y="0" width="24" height="24">
<path d="M0 0H24V24H0V0Z" fill="white"/>
</mask>
<g mask="url(#mask0_28934_72380)">
<path fill-rule="evenodd" clip-rule="evenodd" d="M17.7535 18.9225C14.2172 21.8677 8.95424 21.6817 5.63646 18.3645C2.31836 15.0474 2.13226 9.78311 5.07847 6.24747C5.36268 5.90619 5.87951 5.87926 6.19373 6.1935L17.8068 17.8075C18.121 18.1217 18.0939 18.6385 17.7535 18.9227M20.4857 3.51556C15.7998 -1.17132 8.20133 -1.17132 3.5154 3.51556C-1.17148 8.20212 -1.17148 15.8 3.5154 20.4859C8.20133 25.1728 15.7998 25.1728 20.4857 20.4859C25.1726 15.8 25.1726 8.20212 20.4857 3.51556Z" fill="#EFEFEF"/>
</g>
</svg>
