<svg width="48" height="48" viewBox="0 0 48 48" fill="none" xmlns="http://www.w3.org/2000/svg">
<g id="commentFill">
<path id="Combined Shape" fill-rule="evenodd" clip-rule="evenodd" d="M24 44L18.4118 38.296H14.4C9.76081 38.296 6 34.4573 6 29.722V12.574C6 7.83871 9.76081 4 14.4 4H33.6C38.2392 4 42 7.83871 42 12.574V29.722C42 34.4573 38.2392 38.296 33.6 38.296H29.5882L24 44ZM13.2 18.0859C13.2 17.0712 14.0226 16.2486 15.0373 16.2486H30.5627C31.5774 16.2486 32.4 17.0712 32.4 18.0859C32.4 19.1006 31.5774 19.9232 30.5627 19.9232H15.0373C14.0226 19.9232 13.2 19.1006 13.2 18.0859ZM15.0373 23.5977C14.0226 23.5977 13.2 24.4203 13.2 25.435C13.2 26.4497 14.0226 27.2723 15.0373 27.2723H20.9627C21.9774 27.2723 22.8 26.4497 22.8 25.435C22.8 24.4203 21.9774 23.5977 20.9627 23.5977H15.0373Z" fill="white"/>
</g>
</svg>
