<svg width="24" height="24" viewBox="0 0 24 24" fill="none" xmlns="http://www.w3.org/2000/svg">
<path fill-rule="evenodd" clip-rule="evenodd" d="M11.2322 20.3602L12.2882 20.3659L12.9995 20.3602L13.6837 20.343L14.3417 20.3138L14.9744 20.2719L15.5627 20.2188C21.093 19.6456 23 15.8401 23 10.4227L22.9973 10.1034L22.9792 9.52139C22.7508 4.74646 20.4791 1.17506 15.2225 0.640862L14.5687 0.584162C14.2272 0.559187 13.8713 0.539908 13.4849 0.525667L12.7349 0.505946L12.0002 0.5C11.4671 0.5 10.9636 0.50879 10.4708 0.527345L9.77711 0.561134C9.5443 0.575192 9.31792 0.591731 9.07717 0.612731L8.447 0.676639C3.40274 1.26497 1.21955 4.86908 1.01629 9.625L1.00176 10.1598L1 10.4313C1 15.0843 2.20098 18.8414 6.65411 19.9239L7.85289 23.25L11.2322 20.3602ZM8.97797 18.9985L10.3149 17.8552L12.2849 17.8658L12.9582 17.8604L13.5969 17.8444L14.2037 17.8175L14.7792 17.7794L15.3204 17.7305C17.4851 17.5029 18.616 16.7096 19.2946 15.7217C20.0528 14.6181 20.4988 12.9021 20.5 10.4327L20.4977 10.1527L20.4811 9.6208C20.3805 7.58024 19.8549 6.07155 19.0394 5.05895C18.2681 4.10132 17.0433 3.34234 14.9871 3.12983L14.3699 3.07631C14.0702 3.05459 13.7538 3.03741 13.4057 3.02445L12.6919 3.00568L11.9902 3C11.4937 3.00011 11.0293 3.00828 10.5784 3.02507L9.91362 3.05745C9.71279 3.06969 9.51807 3.08392 9.31151 3.10179L8.71906 3.16187C6.79906 3.38954 5.64229 4.14026 4.90103 5.10809C4.11164 6.13876 3.60488 7.66828 3.51482 9.71309L3.50154 10.2019L3.5 10.4392C3.50071 12.6041 3.79099 14.234 4.37755 15.3677C4.89742 16.3725 5.7113 17.1219 7.24466 17.4947L8.55038 17.8121L8.97797 18.9985Z" fill="#EFEFEF"/>
</svg>
