<svg width="24" height="24" viewBox="0 0 24 24" fill="none" xmlns="http://www.w3.org/2000/svg">
<g clip-path="url(#clip0_4637_57832)">
<path fill-rule="evenodd" clip-rule="evenodd" d="M24 12C24 18.6696 18.7484 24 11.9768 24C5.24554 24 0 18.6635 0 12C0 5.33653 5.24554 0 11.9768 0C18.7484 0 24 5.33043 24 12ZM11.9768 22C17.6381 22 22 17.5708 22 12C22 6.42922 17.6381 2 11.9768 2C6.36195 2 2 6.42922 2 12C2 17.5708 6.36195 22 11.9768 22Z" fill="#EFEFEF"/>
<path d="M12.305 18.54C8.61769 18.54 5.76001 15.6823 5.76001 11.995C5.76001 8.30769 8.61769 5.45001 12.305 5.45001C14.333 5.45001 16.0845 6.27966 17.1446 7.66241C17.2829 7.84677 17.329 8.03114 17.1446 8.21551L15.5775 9.69043C15.3931 9.8748 15.1627 9.8748 14.9783 9.69043C14.2869 9.09124 13.5956 8.67642 12.4894 8.67642C10.5535 8.67642 9.21688 10.1053 9.21688 11.995C9.21688 13.8848 10.5535 15.3136 12.4894 15.3136C13.5956 15.3136 14.2869 14.8988 14.9783 14.2996C15.1627 14.1152 15.3931 14.1152 15.5775 14.2996L17.1446 15.7745C17.329 15.9589 17.2829 16.1433 17.1446 16.3276C16.0845 17.7104 14.333 18.54 12.305 18.54Z" fill="white"/>
</g>
<defs>
<clipPath id="clip0_4637_57832">
<rect width="24" height="24" fill="white"/>
</clipPath>
</defs>
</svg>
