<svg width="24" height="24" viewBox="0 0 24 24" fill="none" xmlns="http://www.w3.org/2000/svg">
<path fill-rule="evenodd" clip-rule="evenodd" d="M10.0002 0H20.0002C22.2094 0 24.0002 1.79086 24.0002 4V14C24.0002 16.2091 22.2094 18 20.0002 18H20V16H20.0002C21.1048 16 22.0002 15.1046 22.0002 14V4C22.0002 2.89543 21.1048 2 20.0002 2H10.0002C8.89567 2 8.00024 2.89543 8.00024 4H6.00024C6.00024 1.79086 7.79111 0 10.0002 0ZM14 6H4C1.79086 6 0 7.79086 0 10V20C0 22.2091 1.79086 24 4 24H14C16.2091 24 18 22.2091 18 20V10C18 7.79086 16.2091 6 14 6ZM2 10C2 8.89543 2.89543 8 4 8H14C15.1046 8 16 8.89543 16 10V20C16 21.1046 15.1046 22 14 22H4C2.89543 22 2 21.1046 2 20V10Z" fill="#EFEFEF"/>
</svg>
