<svg width="24" height="24" viewBox="0 0 24 24" fill="none" xmlns="http://www.w3.org/2000/svg">
<path fill-rule="evenodd" clip-rule="evenodd" d="M20.9302 2.25H3.0698C2.25564 2.25 1.47481 2.57342 0.899162 3.14916C0.323423 3.72481 0 4.50567 0 5.3198V18.4827C0 19.2968 0.323423 20.0777 0.899162 20.6533C1.47481 21.2291 2.25567 21.5525 3.0698 21.5525H20.9302C21.7444 21.5525 22.5252 21.2291 23.1008 20.6533C23.6766 20.0777 24 19.2968 24 18.4827V5.3198C24 4.50564 23.6766 3.72481 23.1008 3.14916C22.5252 2.57342 21.7443 2.25 20.9302 2.25ZM22.3255 18.5384C22.311 18.9086 22.15 19.2578 21.8777 19.5092C21.6056 19.7604 21.2446 19.8931 20.8744 19.878H3.12568C2.75551 19.8931 2.39451 19.7604 2.12236 19.5092C1.85013 19.2578 1.68897 18.9087 1.67448 18.5385V9.90122H1.67578V6.59887H1.67448V5.26396C1.68899 4.89379 1.85013 4.54464 2.12236 4.2933C2.39451 4.04208 2.75551 3.90932 3.12568 3.92446H20.8744C21.2446 3.90932 21.6056 4.04206 21.8777 4.2933C22.15 4.54462 22.3111 4.89379 22.3256 5.26396V6.59887H22.3242V9.90122H22.3256L22.3255 18.5384ZM12.8372 18.0871H19.7163C20.0154 18.0871 20.2918 17.9276 20.4413 17.6685C20.5909 17.4095 20.5909 17.0904 20.4413 16.8313C20.2918 16.5723 20.0154 16.4127 19.7163 16.4127H12.8372C12.5381 16.4127 12.2617 16.5723 12.1121 16.8313C11.9626 17.0904 11.9626 17.4095 12.1121 17.6685C12.2617 17.9276 12.5381 18.0871 12.8372 18.0871Z" fill="#EFEFEF"/>
</svg>
