<svg width="24" height="24" viewBox="0 0 24 24" fill="none" xmlns="http://www.w3.org/2000/svg">
<path fill-rule="evenodd" clip-rule="evenodd" d="M6 0H4V4H0V6H4H6H18V18V20V24H20V20H24V18H20V6V4H18H6V0ZM6 18H16V20H6H4V18V8H6V18ZM14.1465 9.71828C14.1465 10.3911 13.6011 10.9366 12.9283 10.9366C12.2554 10.9366 11.71 10.3911 11.71 9.71828C11.71 9.04544 12.2554 8.5 12.9283 8.5C13.6011 8.5 14.1465 9.04544 14.1465 9.71828ZM7.97256 15.4173H15.0344C15.1996 15.4173 15.3648 15.3141 15.4474 15.1696C15.53 15.025 15.5094 14.8392 15.4268 14.6946L13.6303 12.0722C13.4651 11.8245 13.0315 11.8245 12.8663 12.0722L12.123 13.1253L10.7601 11.143C10.595 10.8953 10.1613 10.8953 9.99614 11.143L7.58023 14.674C7.47699 14.8185 7.47699 15.0044 7.55958 15.1489C7.64218 15.3141 7.80737 15.4173 7.97256 15.4173Z" fill="white"/>
</svg>
