<?xml version="1.0" encoding="UTF-8"?>
<svg width="24px" height="24px" viewBox="0 0 24 24" version="1.1" xmlns="http://www.w3.org/2000/svg" xmlns:xlink="http://www.w3.org/1999/xlink">
    <title>icon/crossCircle</title>
    <g id="icon/crossCircle" stroke="none" stroke-width="1" fill="none" fill-rule="evenodd">
        <path d="M12,0 C18.627417,0 24,5.372583 24,12 C24,18.627417 18.627417,24 12,24 C5.372583,24 0,18.627417 0,12 C0,5.372583 5.372583,0 12,0 Z M16.6278175,7.37218254 C16.22085,6.96521512 15.5743338,6.94379578 15.1421507,7.30792453 L15.0721825,7.37218254 L12,10.445 L8.92781746,7.37218254 L8.85784934,7.30792453 C8.42566625,6.94379578 7.77914996,6.96521512 7.37218254,7.37218254 C6.94260582,7.80175926 6.94260582,8.49824074 7.37218254,8.92781746 L10.445,12 L7.37218254,15.0721825 C6.94260582,15.5017593 6.94260582,16.1982407 7.37218254,16.6278175 C7.77914996,17.0347849 8.42566625,17.0562042 8.85784934,16.6920755 L8.92781746,16.6278175 L12,13.555 L15.0721825,16.6278175 L15.1421507,16.6920755 C15.5743338,17.0562042 16.22085,17.0347849 16.6278175,16.6278175 C17.0573942,16.1982407 17.0573942,15.5017593 16.6278175,15.0721825 L13.555,12 L16.6278175,8.92781746 C17.0573942,8.49824074 17.0573942,7.80175926 16.6278175,7.37218254 Z" id="Combined-Shape" fill="#FFFFFF"></path>
    </g>
</svg>