<?xml version="1.0" encoding="UTF-8"?>
<svg width="24px" height="24px" viewBox="0 0 24 24" version="1.1" xmlns="http://www.w3.org/2000/svg" xmlns:xlink="http://www.w3.org/1999/xlink">
    <title>icon/cross</title>
    <g id="icon/cross" stroke="none" stroke-width="1" fill="none" fill-rule="evenodd">
        <path d="M6.28699879,3.46895369 L6.41421356,3.58578644 L12,9.171 L17.5857864,3.58578644 L17.7130012,3.46895369 C18.4987886,2.80690142 19.6742728,2.84584567 20.4142136,3.58578644 C21.1952621,4.36683502 21.1952621,5.63316498 20.4142136,6.41421356 L20.4142136,6.41421356 L14.829,12 L20.4142136,17.5857864 C21.1952621,18.366835 21.1952621,19.633165 20.4142136,20.4142136 C19.6742728,21.1541543 18.4987886,21.1930986 17.7130012,20.5310463 L17.5857864,20.4142136 L12,14.829 L6.41421356,20.4142136 L6.28699879,20.5310463 C5.50121136,21.1930986 4.3257272,21.1541543 3.58578644,20.4142136 C2.80473785,19.633165 2.80473785,18.366835 3.58578644,17.5857864 L3.58578644,17.5857864 L9.171,12 L3.58578644,6.41421356 C2.80473785,5.63316498 2.80473785,4.36683502 3.58578644,3.58578644 C4.3257272,2.84584567 5.50121136,2.80690142 6.28699879,3.46895369 Z" id="Combined-Shape" fill="#FFFFFF"></path>
    </g>
</svg>