<svg width="24" height="24" viewBox="0 0 24 24" fill="none" xmlns="http://www.w3.org/2000/svg">
<path d="M18.8751 1.17188H5.12493C4.0309 1.17188 2.98174 1.60649 2.20818 2.38005C1.43462 3.15373 1 4.20289 1 5.2968V18.7032C1 19.7972 1.43462 20.8464 2.20818 21.6199C2.98185 22.3935 4.03102 22.8281 5.12493 22.8281H18.8751C19.9691 22.8281 21.0183 22.3935 21.7918 21.6199C22.5654 20.8463 23 19.7971 23 18.7032V5.2968C23 4.20278 22.5654 3.15361 21.7918 2.38005C21.0181 1.60649 19.969 1.17188 18.8751 1.17188ZM5.12493 3.9219H18.8751C19.2397 3.9219 19.5895 4.06681 19.8474 4.32464C20.1052 4.58257 20.2501 4.93225 20.2501 5.29692V7.70319H3.74991V5.29692C3.74991 4.93225 3.89482 4.58254 4.15265 4.32464C4.41058 4.06682 4.76026 3.9219 5.12493 3.9219ZM3.74991 18.7033V10.4532H8.21871V20.0783H5.12493C4.76026 20.0783 4.41055 19.9334 4.15265 19.6756C3.89483 19.4177 3.74991 19.068 3.74991 18.7033ZM18.8751 20.0783H10.9687V10.4532H20.2501V18.7033C20.2501 19.068 20.1052 19.4177 19.8474 19.6756C19.5894 19.9334 19.2397 20.0783 18.8751 20.0783Z" fill="#EFEFEF"/>
</svg>
