<svg width="24" height="24" viewBox="0 0 24 24" fill="none" xmlns="http://www.w3.org/2000/svg">
<path fill-rule="evenodd" clip-rule="evenodd" d="M18.5556 2C19.7829 2 20.7778 2.99492 20.7778 4.22222V19.7778C20.7778 21.0051 19.7829 22 18.5556 22H5.22222C3.99492 22 3 21.0051 3 19.7778V4.22222C3 2.99492 3.99492 2 5.22222 2H18.5556ZM18.5556 4.22222H5.22222V19.7778H18.5556V4.22222ZM11.8889 15.3333C12.5025 15.3333 13 15.8308 13 16.4444C13 17.0581 12.5025 17.5556 11.8889 17.5556H8.55556C7.94191 17.5556 7.44444 17.0581 7.44444 16.4444C7.44444 15.8308 7.94191 15.3333 8.55556 15.3333H11.8889ZM15.2222 10.8889C15.8359 10.8889 16.3333 11.3864 16.3333 12C16.3333 12.6136 15.8359 13.1111 15.2222 13.1111H8.55556C7.94191 13.1111 7.44444 12.6136 7.44444 12C7.44444 11.3864 7.94191 10.8889 8.55556 10.8889H15.2222ZM15.2222 6.44444C15.8359 6.44444 16.3333 6.94191 16.3333 7.55556C16.3333 8.16921 15.8359 8.66667 15.2222 8.66667H8.55556C7.94191 8.66667 7.44444 8.16921 7.44444 7.55556C7.44444 6.94191 7.94191 6.44444 8.55556 6.44444H15.2222Z" fill="#EFEFEF"/>
</svg>
