<svg width="24" height="24" viewBox="0 0 24 24" fill="none" xmlns="http://www.w3.org/2000/svg">
<path fill-rule="evenodd" clip-rule="evenodd" d="M10.6672 3.33336C10.6672 2.59637 11.2636 2 12.0006 2L12.0007 2.00003C12.7376 2.00003 13.334 2.5964 13.334 3.33339V13.1136L15.8028 10.6435C16.3263 10.124 17.1701 10.124 17.6896 10.6435C18.2091 11.167 18.2091 12.0107 17.6896 12.5303L12.9434 17.2765C12.6842 17.5369 12.3405 17.6671 12.0006 17.6671C11.6608 17.6671 11.317 17.5369 11.0527 17.2726L6.30647 12.5264C5.78693 12.0029 5.78693 11.1591 6.30647 10.6396C6.82993 10.12 7.6737 10.12 8.19324 10.6396L10.6672 13.1136V3.33336ZM21.3341 15.667C21.3341 14.93 21.9305 14.3336 22.6675 14.3336H22.6666C23.4036 14.3336 24 14.93 24 15.667V18.4898C24 21.1603 21.827 23.3335 19.1577 23.3335H4.84372C2.17322 23.3335 0 21.1605 0 18.4898V15.667C0 14.93 0.596375 14.3336 1.33336 14.3336C2.07035 14.3336 2.66673 14.93 2.66673 15.667V18.4898C2.66673 19.6904 3.64331 20.667 4.84386 20.667H19.157C20.3575 20.667 21.3341 19.6904 21.3341 18.4898V15.667Z" fill="#EFEFEF"/>
</svg>
