<?xml version="1.0" encoding="UTF-8"?>
<svg width="24px" height="24px" viewBox="0 0 24 24" version="1.1" xmlns="http://www.w3.org/2000/svg" xmlns:xlink="http://www.w3.org/1999/xlink">
    <title>icon/earth</title>
    <g id="icon/earth" stroke="none" stroke-width="1" fill="none" fill-rule="evenodd">
        <path d="M9.18186667,16.4554667 C9.1704,16.9890667 8.81626667,18.1045333 8.40453333,18.444 C8.3464,18.4917333 8.16826667,18.5437333 8.1088,18.4981333 C7.77706667,18.2432 7.82106667,17.2181333 7.97626667,16.8296 C8.04373333,16.6602667 8.4624,16.3922667 8.53253333,16.3586667 C8.60266667,16.3248 8.73546667,15.9904 8.85333333,15.9250667 C8.8856,15.9072 8.9704,15.9037333 9.00026667,15.9250667 C9.11413333,16.0061333 9.1848,16.3152 9.18186667,16.4554667 Z M24,12 C24,18.6168 18.6168,24 12,24 C5.3832,24 0,18.6168 0,12 C0,5.3832 5.3832,0 12,0 C18.6168,0 24,5.3832 24,12 Z M3.39386667,5.35973333 C3.45786667,5.3696 3.516,5.37546667 3.56053333,5.37093333 C3.71733333,5.3552 4.07573333,5.34826667 4.17333333,5.22453333 C4.25866667,5.11626667 4.07573333,4.7704 4.17333333,4.6728 C4.30506667,4.54106667 4.7352,4.70426667 4.9192,4.6728 C5.1784,4.62853333 5.65386667,4.14773333 5.91146667,4.09493333 C6.0784,4.0608 6.46506667,4.16426667 6.59093333,4.04986667 C6.80853333,3.85226667 6.30693333,3.4408 6.50346667,3.2224 C6.85493333,2.83253333 7.91333333,1.8648 8.6248,2.0016 C8.82586667,2.04026667 9.26213333,2.23786667 9.44986667,2.31946667 C10.0477333,2.57946667 10.8570667,2.64693333 11.3133333,2.51466667 C11.9997333,2.316 12.2773333,1.94186667 12.5957333,1.7712 C12.832,1.64453333 13.3421333,1.40346667 13.6096,1.42213333 C13.7816,1.43413333 14.052,1.73466667 14.2242667,1.73413333 C14.4994667,1.73333333 15.0109333,1.88506667 15.2029333,1.688 C15.2202667,1.67013333 15.236,1.64666667 15.2506667,1.62106667 C14.2237333,1.29893333 13.132,1.12506667 12,1.12506667 C8.50186667,1.12506667 5.38453333,2.7856 3.39386667,5.35973333 Z M7.37066667,7.6344 C7.28053333,7.41786667 6.6544,7.57573333 6.4472,7.46533333 C6.2424,7.35626667 6.00933333,6.90026667 5.79973333,6.8008 C5.7504,6.77733333 5.62453333,6.81653333 5.5824,6.78186667 C5.39146667,6.62346667 5.50426667,5.98693333 5.31493333,5.82666667 C5.12586667,5.6664 4.57013333,5.66266667 4.32906667,5.71973333 C3.95466667,5.80826667 3.40986667,6.46693333 3.03493333,6.55306667 C2.9352,6.576 2.70666667,6.5888 2.6048,6.52826667 C2.47093333,6.75733333 2.34506667,6.99173333 2.228,7.23093333 C2.32293333,7.19653333 2.41093333,7.16933333 2.4872,7.15146667 C2.94133333,7.04533333 4.06853333,6.89253333 4.34906667,7.26506667 C4.45866667,7.41066667 4.13973333,7.8016 4.19066667,7.97653333 C4.248,8.17226667 4.5728,8.49733333 4.76933333,8.552 C4.89146667,8.58586667 5.13493333,8.43733333 5.2616,8.4312 C5.6208,8.41333333 6.496,8.32906667 6.68533333,8.63466667 C6.7112,8.3328 7.4872,7.9144 7.37066667,7.6344 Z M12,22.8749333 C14.8144,22.8749333 17.3824,21.8002667 19.3154667,20.0397333 C19.2168,19.656 19.1802667,19.1021333 18.9762667,18.8970667 C18.7792,18.6992 18.1882667,18.5224 17.9112,18.5589333 C17.7808,18.5762667 17.5978667,18.8213333 17.468,18.8426667 C17.1957333,18.8874667 16.5562667,18.8010667 16.3965333,18.5762667 C16.1453333,18.2224 16.4064,17.2549333 16.5562667,16.8477333 C16.6344,16.6357333 16.8789333,16.2184 17.0765333,16.1088 C17.2832,15.9944 17.7901333,16.1114667 18.0202667,16.0573333 C18.3712,15.9749333 19.0290667,15.6608 19.3450667,15.4872 C19.4794667,15.4133333 19.6992,15.1546667 19.8522667,15.1418667 C19.9786667,15.1312 20.2506667,15.2429333 20.3133333,15.3533333 C20.3672,15.4482667 20.2552,15.6786667 20.2653333,15.7872 C20.2816,15.9589333 20.3538667,16.3173333 20.4682667,16.4461333 C20.5002667,16.4821333 20.5984,16.5386667 20.6442667,16.5242667 C20.8858667,16.4482667 20.9173333,15.6938667 21.168,15.6576 C21.2357333,15.6477333 21.3418667,15.7797333 21.3706667,15.8418667 C21.4904,16.0992 21.3714667,16.696 21.4144,16.9765333 C21.4277333,17.0642667 21.46,17.1714667 21.4997333,17.2885333 C21.8082667,16.7365333 22.0701333,16.1552 22.28,15.5496 C22.2448,15.5477333 22.2069333,15.5386667 22.1869333,15.5301333 C22.0072,15.4530667 21.8384,15.0037333 21.6466667,14.9642667 C21.5584,14.9461333 21.4048,15.1109333 21.3146667,15.1053333 C21.2154667,15.0992 21.0410667,14.9762667 20.9712,14.9056 C20.7458667,14.6778667 20.2573333,14.1008 20.3389333,13.7909333 C20.3722667,13.6645333 20.6568,13.5304 20.7874667,13.5221333 C21.0165333,13.5072 21.4437333,13.7536 21.6290667,13.8888 C21.7946667,14.0096 22.1122667,14.3082667 22.1706667,14.5048 C22.1994667,14.6018667 22.1010667,14.8050667 22.1125333,14.9056 C22.1256,15.0197333 22.2792,15.2058667 22.3442667,15.356 C22.6882667,14.2984 22.8749333,13.1706667 22.8749333,11.9997333 C22.8749333,8.42133333 21.1373333,5.2416 18.4621333,3.25866667 C18.4397333,3.3832 18.4570667,3.5312 18.5477333,3.68853333 C18.7365333,4.01573333 18.9362667,3.93253333 19.1466667,4.24613333 C19.2592,4.41386667 19.4013333,5.11626667 19.4445333,5.3136 C19.5533333,5.8112 19.604,6.50853333 18.9109333,6.66746667 C18.7685333,6.7 18.2602667,6.96693333 18.4032,7.34853333 C18.4981333,7.60213333 18.6317333,7.71973333 18.7304,7.972 C18.8365333,8.24346667 18.8570667,8.8728 18.7357333,9.1376 C18.5936,9.4472 18.0322667,9.9528 17.6986667,10.0216 C17.6330667,10.0352 17.5069333,9.92453333 17.4424,9.94266667 C17.3202667,9.97733333 17.1098667,10.1984 17.1082667,10.3256 C17.1056,10.5304 17.5402667,10.7730667 17.632,10.9562667 C17.7176,11.1272 17.88,11.5216 17.8101333,11.6994667 C17.7530667,11.8448 17.4464,12.0576 17.2909333,12.0458667 C16.8498667,12.0125333 16.4088,10.9746667 15.9832,10.8549333 C15.8685333,10.8226667 15.6213333,10.9994667 15.5152,10.9450667 C15.2557333,10.812 15.2954667,9.99546667 15.0250667,9.8864 C14.8810667,9.82826667 14.5752,10.0256 14.4456,10.1117333 C14.1221333,10.3264 13.5056,10.8648 13.3648,11.2266667 C13.2922667,11.4130667 13.4776,11.848 13.3872,12.0261333 C13.3338667,12.1312 13.1138667,12.3192 12.9989333,12.2933333 C12.6557333,12.2154667 12.4152,11.4050667 12.2965333,11.0738667 C12.2330667,10.8965333 12.2714667,10.4909333 12.1725333,10.3304 C12.0202667,10.0834667 11.5042667,9.756 11.236,9.64533333 C10.8117333,9.47013333 9.81253333,9.608 9.4208,9.36853333 C9.27866667,9.2816 9.18506667,8.89066667 9.03093333,8.828 C8.95493333,8.79706667 8.7448,8.8112 8.70773333,8.88426667 C8.60986667,9.07813333 8.91626667,9.54 9.09653333,9.66133333 C9.21493333,9.74106667 9.46933333,9.69706667 9.6008,9.64133333 C9.66133333,9.61573333 9.76746667,9.50506667 9.83306667,9.50373333 C10.0176,9.50026667 10.3162667,9.8712 10.3232,10.0554667 C10.3325333,10.2992 9.92266667,10.6794667 9.7328,10.8325333 C9.39066667,11.1085333 8.57066667,11.4936 8.13866667,11.5754667 C8.04853333,11.5925333 7.83493333,11.62 7.772,11.5530667 C7.67653333,11.4514667 7.80186667,11.1317333 7.772,10.9957333 C7.64533333,10.4173333 6.80213333,9.46986667 6.6952,8.81626667 C6.6312,9.0568 6.35866667,9.3912 6.37093333,9.58426667 C6.41546667,10.2877333 6.99013333,11.7546667 7.58826667,12.1274667 C7.80293333,12.2613333 8.43493333,11.9258667 8.59946667,12.1176 C8.67733333,12.2082667 8.55733333,12.4749333 8.52266667,12.5893333 C8.46933333,12.7658667 8.3184,13.1064 8.21813333,13.2610667 C8.0096,13.5824 7.4032,14.0821333 7.2016,14.408 C7.1464,14.4970667 7.05466667,14.6925333 7.04533333,14.7968 C7.01813333,15.0989333 7.37146667,15.6930667 7.2896,15.9850667 C7.20933333,16.2722667 6.61093333,16.5922667 6.4784,16.8594667 C6.36613333,17.0858667 6.27173333,17.6045333 6.30453333,17.8549333 C6.32213333,17.9898667 6.5552,18.2146667 6.53306667,18.3488 C6.4768,18.6914667 5.90453333,19.2410667 5.5768,19.3562667 C5.40293333,19.4173333 4.99973333,19.3589333 4.84613333,19.2568 C4.24746667,18.8586667 3.42053333,16.8370667 3.48346667,16.7242667 C3.54666667,16.6114667 3.548,15.9645333 3.50853333,15.7154667 C3.42986667,15.2194667 3.004,14.2816 2.9688,13.7808 C2.95946667,13.6488 3.03226667,13.3026667 2.9176,13.2538667 C2.80293333,13.2050667 1.82266667,13.3165333 1.4688,13.2392 C1.39546667,13.2232 1.29546667,13.1853333 1.18426667,13.1365333 C1.75466667,18.6010667 6.38746667,22.8749333 12,22.8749333 Z M13.5186667,12.1698667 C13.3256,12.2898667 13.2557333,12.9282667 13.4298667,13.0744 C13.4978667,13.1314667 13.7056,13.0376 13.7722667,12.9789333 C13.8293333,12.9288 13.8906667,12.7754667 13.8904009,12.6997333 C13.8901333,12.5733333 13.7821333,12.3224 13.6906667,12.2349333 C13.6576,12.2032 13.5576,12.1456 13.5186667,12.1698667 Z M17.9456,14.4869333 C18.0498667,14.56 18.3330667,14.3882667 18.452,14.4338667 C18.5264,14.4624 18.6533333,14.6565333 18.6994667,14.6352 C18.7458667,14.6138667 18.9482667,14.4701333 18.9837333,14.3816 C19.0016,14.3373333 18.9704,14.2384 18.9773333,14.1914667 C19.0021333,14.0224 19.1776,13.7141333 19.1965333,13.5445333 C19.2072,13.4482667 19.1386667,13.2544 19.1557333,13.1589333 C19.1754667,13.0498667 19.3688,12.8712 19.3530667,12.7613333 C19.3437333,12.6962667 19.2194667,12.6162667 19.1746667,12.5682667 C19.1373333,12.528 19.0792,12.4088 19.0245333,12.408253 C18.5685333,12.4034667 17.7637333,13.6634667 17.7530667,13.716 C17.7133333,13.9104 17.7826667,14.3730667 17.9456,14.4869333 Z M19.8293333,11.768 C19.9085333,11.844 20.1354667,11.9778667 20.236,11.9336 C20.3034667,11.904 20.34,11.7314667 20.3389333,11.6581333 C20.3365333,11.5069333 20.2002667,11.2192 20.1093333,11.0981333 C20.0397333,11.0053333 19.7794667,10.9205333 19.7461333,10.8093333 C19.7266667,10.7453333 19.8466667,10.6189333 19.8288,10.5544 C19.8045333,10.4672 19.6429333,10.2928 19.5557333,10.3170667 C19.4688,10.3413333 19.4493333,10.5709333 19.4448,10.6613333 C19.4384,10.7901333 19.5128,11.0432 19.5536,11.1656 C19.6056,11.3226667 19.7096,11.6533333 19.8293333,11.768 Z" id="Shape" fill="#FFFFFF"></path>
    </g>
</svg>