<svg width="24" height="24" viewBox="0 0 24 24" fill="none" xmlns="http://www.w3.org/2000/svg">
<path d="M17.5 1.00011C17.1352 0.999779 16.7853 1.14446 16.5271 1.40227L8.51441 9.41499C7.87358 10.0521 7.36558 10.8101 7.0198 11.6451C6.67394 12.48 6.49737 13.3752 6.50003 14.2789V16.1249C6.50003 16.4895 6.64494 16.8392 6.90276 17.0971C7.16068 17.3549 7.51036 17.4998 7.87501 17.4998H9.72096C10.6241 17.5021 11.5187 17.3252 12.353 16.9794C13.1873 16.6337 13.9447 16.1259 14.5815 15.4855L22.5977 7.47277C22.8555 7.21462 23.0002 6.86471 22.9998 6.49994C22.9998 5.5345 22.7457 4.58608 22.263 3.74997C21.7803 2.91386 21.086 2.21955 20.2499 1.73685C19.4138 1.25411 18.4653 1 17.4999 1L17.5 1.00011ZM12.6394 13.54C11.8674 14.3171 10.8164 14.7529 9.72099 14.7499H9.25003V14.2789C9.24701 13.1836 9.68283 12.1325 10.46 11.3605L18.0224 3.79812C18.5618 3.90219 19.0577 4.16536 19.4461 4.55376C19.8345 4.94225 20.0977 5.43808 20.2018 5.97753L12.6394 13.54Z" fill="#EFEFEF"/>
<path d="M6.50005 22.9999H14.75C15.7154 22.9999 16.6638 22.7458 17.4999 22.263C18.336 21.7803 19.0303 21.086 19.5131 20.2499C19.9958 19.4138 20.2499 18.4654 20.2499 17.4999V16.4687C20.2499 15.9775 19.9878 15.5235 19.5624 15.2779C19.137 15.0323 18.6129 15.0323 18.1874 15.2779C17.762 15.5235 17.4999 15.9775 17.4999 16.4687V17.4999C17.4999 18.2293 17.2102 18.9287 16.6945 19.4445C16.1788 19.9602 15.4793 20.2499 14.75 20.2499H6.50005C5.77071 20.2499 5.07124 19.9602 4.55551 19.4445C4.03978 18.9287 3.75008 18.2293 3.75008 17.4999V9.25003C3.75008 8.52069 4.03978 7.82122 4.55551 7.30549C5.07124 6.78975 5.77071 6.50006 6.50005 6.50006H7.53129C8.02251 6.50006 8.47648 6.238 8.72209 5.81257C8.9677 5.38713 8.9677 4.86303 8.72209 4.43758C8.47647 4.01214 8.02251 3.75009 7.53129 3.75009H6.50005C5.04137 3.75009 3.64243 4.3295 2.61085 5.36094C1.57927 6.39238 1 7.79134 1 9.25015V17.5001C1 18.4655 1.25412 19.4139 1.73685 20.25C2.21958 21.0861 2.91389 21.7804 3.74997 22.2631C4.58608 22.7459 5.5345 23 6.49994 23L6.50005 22.9999Z" fill="#EFEFEF"/>
</svg>
