<svg width="24" height="24" viewBox="0 0 24 24" fill="none" xmlns="http://www.w3.org/2000/svg">
<path d="M14.5638 11.2488C14.7631 11.4481 14.8751 11.7183 14.8751 12.0001C14.8751 12.2819 14.7631 12.5521 14.5638 12.7513L11.3763 15.9388C11.1074 16.2044 10.7176 16.3071 10.3527 16.2085C9.98785 16.1099 9.70281 15.8248 9.60418 15.46C9.50565 15.0951 9.60833 14.7053 9.87387 14.4363L11.2476 13.0626H1.06252C0.682936 13.0626 0.332141 12.86 0.142379 12.5313C-0.0474597 12.2026 -0.0474597 11.7975 0.142379 11.4688C0.332135 11.1401 0.682936 10.9376 1.06252 10.9376H11.2476L9.87387 9.5638C9.60956 9.2946 9.50779 8.90547 9.60659 8.54131C9.70528 8.17723 9.98974 7.89276 10.3538 7.79408C10.718 7.6953 11.1071 7.79706 11.3763 8.06136L14.5638 11.2488ZM20.1876 17.3125V6.68753C20.1867 5.84241 19.8506 5.0322 19.2531 4.4346C18.6555 3.83703 17.8452 3.50092 17.0001 3.50003H6.37514C5.53003 3.50094 4.71981 3.83703 4.12222 4.4346C3.52465 5.03217 3.18854 5.84241 3.18765 6.68753V7.75002C3.18765 8.12961 3.39019 8.48041 3.7189 8.67017C4.04761 8.86001 4.45268 8.86001 4.7814 8.67017C5.11011 8.48041 5.31265 8.12961 5.31265 7.75002V6.68753C5.3129 6.40579 5.42496 6.13577 5.62417 5.93655C5.82339 5.73733 6.09341 5.62528 6.37514 5.62503H17.0001C17.2819 5.62528 17.5519 5.73734 17.7511 5.93655C17.9503 6.13577 18.0624 6.40579 18.0626 6.68753V17.3125C18.0624 17.5942 17.9503 17.8643 17.7511 18.0635C17.5519 18.2627 17.2819 18.3748 17.0001 18.375H6.37514C6.09341 18.3748 5.82339 18.2627 5.62417 18.0635C5.42495 17.8643 5.3129 17.5942 5.31265 17.3125V16.25C5.31265 15.8704 5.11011 15.5196 4.7814 15.3299C4.45268 15.14 4.04761 15.14 3.7189 15.3299C3.39018 15.5196 3.18765 15.8704 3.18765 16.25V17.3125C3.18856 18.1576 3.52465 18.9678 4.12222 19.5654C4.71979 20.163 5.53003 20.4991 6.37514 20.5H17.0001C17.8452 20.4991 18.6555 20.163 19.2531 19.5654C19.8506 18.9679 20.1867 18.1576 20.1876 17.3125Z" fill="white"/>
</svg>
