<svg width="24" height="24" viewBox="0 0 24 24" fill="none" xmlns="http://www.w3.org/2000/svg">
<path d="M23.9999 11.7589C24.0074 11.0079 23.7123 10.2854 23.1811 9.7544L16.3206 2.89394C15.7917 2.36816 15.0761 2.07297 14.3302 2.07297C13.5843 2.07297 12.8688 2.36816 12.3398 2.89394L0.820973 14.4127C0.295099 14.9417 0 15.6573 0 16.4032C0 17.149 0.295099 17.8645 0.820973 18.3935L4.09593 21.6685L4.71875 22.2292C5.10156 22.6042 4.98666 22.5078 5.29688 22.7761C5.58594 23.0261 5.70312 23.1667 5.9375 23.3933C6.37421 23.8154 6.62781 23.927 7.03125 23.927H20.6028C21.0063 23.927 21.379 23.7118 21.5807 23.3624C21.7825 23.013 21.7825 22.5825 21.5807 22.2331C21.379 21.8837 21.0063 21.6685 20.6028 21.6685H15.2476L23.1809 13.7352C23.7051 13.2111 23.9998 12.5002 23.9999 11.7589ZM7.2863 21.6684L2.4021 16.8125C2.29862 16.707 2.24072 16.565 2.24072 16.4172C2.24072 16.2694 2.29862 16.1275 2.4021 16.0219L6.07231 12.3517L13.7233 20.0309L12.0575 21.6966L7.2863 21.6684ZM21.6001 12.1541L15.3043 18.4217L7.65332 10.7707L13.9209 4.50316C14.0264 4.39968 14.1683 4.34169 14.3161 4.34169C14.464 4.34169 14.6058 4.39968 14.7114 4.50316L21.6001 11.3636C21.7035 11.4692 21.7614 11.6111 21.7614 11.7589C21.7614 11.9067 21.7036 12.0486 21.6001 12.1541Z" fill="#EFEFEF"/>
</svg>
