<svg width="24" height="24" viewBox="0 0 24 24" fill="none" xmlns="http://www.w3.org/2000/svg">
<g clip-path="url(#clip0_46_78103)">
<path fill-rule="evenodd" clip-rule="evenodd" d="M12 24C18.6274 24 24 18.6274 24 12C24 5.37258 18.6274 0 12 0C5.37258 0 0 5.37258 0 12C0 18.6274 5.37258 24 12 24ZM14.3334 5.01201L13.5443 14.2748C13.4757 15.1325 12.7209 15.75 11.8632 15.6813C11.1085 15.6128 10.5252 14.9952 10.4567 14.2748L9.66757 5.01201C9.5646 3.74272 10.5252 2.61054 11.7945 2.50756C13.0638 2.4046 14.196 3.36523 14.299 4.63452C14.3334 4.73748 14.3334 4.87476 14.3334 5.01201ZM14 19C14 20.1046 13.1046 21 12 21C10.8954 21 10 20.1046 10 19C10 17.8954 10.8954 17 12 17C13.1046 17 14 17.8954 14 19Z" fill="#EFEFEF"/>
</g>
<defs>
<clipPath id="clip0_46_78103">
<rect width="24" height="24" fill="white"/>
</clipPath>
</defs>
</svg>
