<svg width="24" height="24" viewBox="0 0 24 24" fill="none" xmlns="http://www.w3.org/2000/svg">
<path d="M22.5273 7.52344C23.3407 7.52344 24 8.18277 24 8.99609C24 9.00524 23.9982 9.01433 23.998 9.02344C23.9938 9.5304 23.8699 10.0366 23.6211 10.4961C22.6986 12.1681 21.4893 13.6652 20.0488 14.9189L22.0762 16.9473C22.455 17.3262 22.6033 17.8779 22.4648 18.3955C22.3263 18.9131 21.9219 19.3182 21.4043 19.457C20.8866 19.5957 20.3341 19.4473 19.9551 19.0684L17.5332 16.6475C16.2756 17.3047 14.9089 17.7276 13.5 17.8955V20.9912C13.5 21.3889 13.3417 21.7705 13.0605 22.0518C12.7793 22.3328 12.3976 22.4912 12 22.4912C11.6026 22.4911 11.2216 22.3327 10.9404 22.0518C10.6593 21.7705 10.501 21.3889 10.501 20.9912V17.8955C9.09713 17.7196 7.73695 17.2897 6.48633 16.6279L4.06445 19.0498C3.68546 19.4286 3.13289 19.5772 2.61523 19.4385C2.09765 19.2997 1.69339 18.8946 1.55469 18.377C1.41604 17.8594 1.5644 17.3067 1.94336 16.9277L3.9707 14.9004C2.52524 13.6538 1.30985 12.163 0.379883 10.4961C0.127201 10.0295 0.000547194 9.51478 0 9C-3.37968e-06 8.9987 0 8.9974 0 8.99609C0 8.18277 0.659331 7.52344 1.47266 7.52344C2.0649 7.52344 2.5738 7.87383 2.80762 8.37793L2.8125 8.36719L2.83594 8.44238C2.86419 8.51188 2.88682 8.58389 2.9043 8.6582L3.0127 9H3.02148C3.02245 9.0234 3.02872 9.04664 3.04102 9.06738C3.40842 9.74581 6.37751 14.9939 12 14.9941C17.6223 14.9941 20.5913 9.74665 20.959 9.07129C20.9721 9.04935 20.9792 9.02471 20.9795 9H20.9873L21.0957 8.6582C21.1132 8.58392 21.1358 8.51186 21.1641 8.44238L21.1875 8.36719L21.1924 8.37793C21.4262 7.8739 21.9352 7.52353 22.5273 7.52344Z" fill="#EFEFEF"/>
</svg>
