<svg width="24" height="24" viewBox="0 0 24 24" fill="none" xmlns="http://www.w3.org/2000/svg">
<path d="M12 0C12.3976 0 12.7793 0.15837 13.0605 0.439453C13.3417 0.720684 13.5 1.10235 13.5 1.5V4.5957C14.9089 4.76361 16.2756 5.1865 17.5332 5.84375L19.9551 3.42285C20.3341 3.04392 20.8866 2.89547 21.4043 3.03418C21.9219 3.173 22.3263 3.57809 22.4648 4.0957C22.6033 4.61325 22.4549 5.16506 22.0762 5.54395L20.0488 7.57227C21.4893 8.82606 22.6986 10.3231 23.6211 11.9951C24.1276 12.9304 24.1275 14.0588 23.6211 14.9941C22.9314 16.2349 19.2384 22.4912 12 22.4912C4.76191 22.491 1.05085 16.2461 0.379883 14.9941C-0.126524 14.0588 -0.126597 12.9305 0.379883 11.9951C1.30984 10.3282 2.52525 8.83742 3.9707 7.59082L1.94336 5.56348C1.5644 5.18452 1.41604 4.6318 1.55469 4.11426C1.69339 3.59663 2.09765 3.19155 2.61523 3.05273C3.13289 2.91404 3.68546 3.06257 4.06445 3.44141L6.48633 5.86328C7.73695 5.20155 9.09713 4.77166 10.501 4.5957V1.5C10.501 1.10235 10.6593 0.720712 10.9404 0.439453C11.2216 0.15851 11.6026 0.000103806 12 0ZM12 7.49707C6.3775 7.49731 3.40842 12.7454 3.04102 13.4238C3.01435 13.4688 3.01423 13.5254 3.04102 13.5703C3.4087 14.2456 6.3779 19.4919 12 19.4922C17.6218 19.4922 20.5907 14.2463 20.959 13.5664C20.9858 13.5214 20.9858 13.4649 20.959 13.4199C20.5913 12.7446 17.6223 7.49707 12 7.49707ZM14.249 10.6973C14.7129 10.4295 15.2842 10.4296 15.748 10.6973C16.212 10.9651 16.498 11.4604 16.498 11.9961C16.4979 13.1887 16.024 14.3322 15.1807 15.1758C14.39 15.9665 13.3352 16.433 12.2236 16.4883L12 16.4941C10.8071 16.4941 9.663 16.0193 8.81934 15.1758C7.97603 14.3324 7.50207 13.1888 7.50195 11.9961C7.50195 11.4604 7.78801 10.9651 8.25195 10.6973C8.71584 10.4296 9.28713 10.4295 9.75098 10.6973C10.2148 10.9651 10.501 11.4605 10.501 11.9961C10.5011 12.5315 10.7864 13.0261 11.25 13.2939C11.7139 13.5618 12.2861 13.5618 12.75 13.2939C13.2136 13.0261 13.4989 12.5315 13.499 11.9961C13.499 11.4605 13.7852 10.9651 14.249 10.6973Z" fill="#EFEFEF"/>
</svg>
