<svg width="24" height="24" viewBox="0 0 24 24" fill="none" xmlns="http://www.w3.org/2000/svg">
<path fill-rule="evenodd" clip-rule="evenodd" d="M23.5 18.8121C23.5 20.7614 21.9197 22.3392 19.9717 22.3392H4.0283C2.07967 22.3392 0.5 20.7596 0.5 18.8109V5.18831C0.5 3.23968 2.07967 1.66 4.0283 1.66H16.1445C16.5927 1.66 17.0218 1.84118 17.3344 2.16235L23.0295 8.01409C23.3312 8.32408 23.5 8.73956 23.5 9.17212V18.8121ZM2.57547 5.18831C2.57547 4.38593 3.22593 3.73548 4.0283 3.73548H15.1981V8.30151C15.1981 9.21851 15.9415 9.96189 16.8585 9.96189H21.4245V18.8121C21.4245 19.6139 20.7747 20.2638 19.9717 20.2638H4.0283C3.22593 20.2638 2.57547 19.6133 2.57547 18.8109V5.18831Z" fill="#EFEFEF"/>
</svg>
