<svg width="24" height="24" viewBox="0 0 24 24" fill="none" xmlns="http://www.w3.org/2000/svg">
<path fill-rule="evenodd" clip-rule="evenodd" d="M19.9717 22.3392C21.9197 22.3392 23.5 20.7614 23.5 18.8121V9.17212C23.5 8.73956 23.3312 8.32408 23.0295 8.01409L17.3344 2.16235C17.0218 1.84118 16.5927 1.66 16.1445 1.66H4.0283C2.07967 1.66 0.5 3.23968 0.5 5.18831V18.8109C0.5 20.7596 2.07967 22.3392 4.0283 22.3392H19.9717ZM4.0283 3.73548C3.22593 3.73548 2.57547 4.38593 2.57547 5.18831V18.8109C2.57547 19.6133 3.22593 20.2638 4.0283 20.2638H19.9717C20.7747 20.2638 21.4245 19.6139 21.4245 18.8121V9.96189H16.8585C15.9415 9.96189 15.1981 9.21851 15.1981 8.30151V3.73548H4.0283ZM6.93043 17C6.87193 17 6.83293 16.9545 6.83293 16.896V12.554C6.83293 12.4955 6.87193 12.45 6.93043 12.45H8.36043C9.47843 12.45 10.0049 13.061 10.0049 13.958C10.0049 14.855 9.47843 15.466 8.36043 15.466H7.96393V16.896C7.96393 16.9545 7.91843 17 7.85993 17H6.93043ZM7.96393 14.465H8.33443C8.63343 14.465 8.92593 14.387 8.92593 13.958C8.92593 13.529 8.63343 13.451 8.33443 13.451H7.96393V14.465ZM10.7136 17C10.6551 17 10.6161 16.9545 10.6161 16.896V12.554C10.6161 12.4955 10.6551 12.45 10.7136 12.45H12.1436C13.2616 12.45 13.7881 13.061 13.7881 13.958C13.7881 14.855 13.2616 15.466 12.1436 15.466H11.7471V16.896C11.7471 16.9545 11.7016 17 11.6431 17H10.7136ZM11.7471 14.465H12.1176C12.4166 14.465 12.7091 14.387 12.7091 13.958C12.7091 13.529 12.4166 13.451 12.1176 13.451H11.7471V14.465ZM15.2183 16.896C15.2183 16.9545 15.2573 17 15.3158 17H16.2453C16.3038 17 16.3493 16.9545 16.3493 16.896V13.451H17.1943C17.2528 13.451 17.2983 13.4055 17.2983 13.347V12.554C17.2983 12.4955 17.2528 12.45 17.1943 12.45H14.3668C14.3083 12.45 14.2693 12.4955 14.2693 12.554V13.347C14.2693 13.4055 14.3083 13.451 14.3668 13.451H15.2183V16.896Z" fill="#F9BC2D"/>
</svg>
