<svg width="24" height="24" viewBox="0 0 24 24" fill="none" xmlns="http://www.w3.org/2000/svg">
<path fill-rule="evenodd" clip-rule="evenodd" d="M19.9717 22.3392C21.9197 22.3392 23.5 20.7614 23.5 18.8121V9.17212C23.5 8.73956 23.3312 8.32408 23.0295 8.01409L17.3344 2.16235C17.0218 1.84118 16.5927 1.66 16.1445 1.66H4.0283C2.07967 1.66 0.5 3.23968 0.5 5.18831V18.8109C0.5 20.7596 2.07967 22.3392 4.0283 22.3392H19.9717ZM4.0283 3.73548C3.22593 3.73548 2.57547 4.38593 2.57547 5.18831V18.8109C2.57547 19.6133 3.22593 20.2638 4.0283 20.2638H19.9717C20.7747 20.2638 21.4245 19.6139 21.4245 18.8121V9.96189H16.8585C15.9415 9.96189 15.1981 9.21851 15.1981 8.30151V3.73548H4.0283ZM6.69874 17C6.64024 17 6.60124 16.9545 6.60124 16.896V12.554C6.60124 12.4955 6.64024 12.45 6.69874 12.45H8.12874C9.24674 12.45 9.77324 13.061 9.77324 13.958C9.77324 14.855 9.24674 15.466 8.12874 15.466H7.73224V16.896C7.73224 16.9545 7.68674 17 7.62824 17H6.69874ZM7.73224 14.465H8.10274C8.40174 14.465 8.69424 14.387 8.69424 13.958C8.69424 13.529 8.40174 13.451 8.10274 13.451H7.73224V14.465ZM10.4819 17C10.4234 17 10.3844 16.9545 10.3844 16.896V12.554C10.3844 12.4955 10.4234 12.45 10.4819 12.45H11.9769C13.4719 12.45 14.2974 13.4575 14.2974 14.725C14.2974 15.9925 13.4719 17 11.9769 17H10.4819ZM11.5154 15.999H11.9574C12.7309 15.999 13.1534 15.5635 13.1534 14.725C13.1534 13.8865 12.7309 13.451 11.9574 13.451H11.5154V15.999ZM14.9421 16.896C14.9421 16.9545 14.9811 17 15.0396 17H15.9691C16.0276 17 16.0731 16.9545 16.0731 16.896V15.1865H17.3146C17.3731 15.1865 17.4186 15.141 17.4186 15.0825V14.2895C17.4186 14.231 17.3731 14.1855 17.3146 14.1855H16.0731V13.451H17.3991C17.4576 13.451 17.5031 13.4055 17.5031 13.347V12.554C17.5031 12.4955 17.4576 12.45 17.3991 12.45H15.0396C14.9811 12.45 14.9421 12.4955 14.9421 12.554V16.896Z" fill="#F25540"/>
</svg>
