<svg width="24" height="24" viewBox="0 0 24 24" fill="none" xmlns="http://www.w3.org/2000/svg">
<path fill-rule="evenodd" clip-rule="evenodd" d="M19.9717 22.3392C21.9197 22.3392 23.5 20.7614 23.5 18.8121V9.17212C23.5 8.73956 23.3312 8.32408 23.0295 8.01409L17.3344 2.16235C17.0218 1.84118 16.5927 1.66 16.1445 1.66H4.0283C2.07967 1.66 0.5 3.23968 0.5 5.18831V18.8109C0.5 20.7596 2.07967 22.3392 4.0283 22.3392H19.9717ZM4.0283 3.73548C3.22593 3.73548 2.57547 4.38593 2.57547 5.18831V18.8109C2.57547 19.6133 3.22593 20.2638 4.0283 20.2638H19.9717C20.7747 20.2638 21.4245 19.6139 21.4245 18.8121V9.96189H16.8585C15.9415 9.96189 15.1981 9.21851 15.1981 8.30151V3.73548H4.0283ZM18.1207 16.896C18.1207 16.9545 18.1662 17 18.2247 17H19.1152C19.1737 17 19.2192 16.9545 19.2192 16.896V12.4565C19.2192 12.398 19.1737 12.3525 19.1152 12.3525H18.2247C18.1662 12.3525 18.1207 12.398 18.1207 12.4565V16.896ZM4.94044 17C4.88194 17 4.84294 16.9545 4.84294 16.896V12.554C4.84294 12.4955 4.88194 12.45 4.94044 12.45H7.31944C7.37794 12.45 7.41694 12.4955 7.41694 12.554V13.347C7.41694 13.4055 7.37794 13.451 7.31944 13.451H5.97394V14.2115H7.23494C7.29344 14.2115 7.33894 14.257 7.33894 14.3155V15.115C7.33894 15.1735 7.29344 15.2125 7.23494 15.2125H5.97394V15.999H7.31294C7.37144 15.999 7.41694 16.0445 7.41694 16.103V16.896C7.41694 16.9545 7.37144 17 7.31294 17H4.94044ZM7.98742 17C7.90292 17 7.87692 16.9415 7.91592 16.8765L8.85842 15.362L7.94842 13.9385C7.90942 13.8735 7.94192 13.815 8.01992 13.815H8.98842C9.04042 13.815 9.07942 13.8345 9.10542 13.88L9.51492 14.5885L9.91792 13.88C9.94392 13.8345 9.98942 13.815 10.0414 13.815H11.0034C11.0879 13.815 11.1269 13.8735 11.0749 13.9385L10.1714 15.362L11.1139 16.8765C11.1594 16.9415 11.1204 17 11.0424 17H10.0739C10.0219 17 9.98292 16.9805 9.95692 16.935L9.51492 16.1485L9.07292 16.935C9.04692 16.9805 9.00142 17 8.94942 17H7.98742ZM11.2551 15.388C11.2551 16.3435 11.9701 17.078 12.9516 17.078C13.4651 17.078 13.9006 16.844 14.1736 16.4865C14.2126 16.441 14.1996 16.3825 14.1606 16.3435L13.6601 15.8625C13.6146 15.817 13.5301 15.8105 13.4846 15.856C13.3221 16.012 13.1661 16.077 12.9906 16.077C12.5421 16.077 12.3016 15.739 12.3016 15.388C12.3016 15.037 12.5421 14.738 12.9711 14.738C13.1596 14.738 13.3156 14.803 13.4781 14.9525C13.5236 15.0045 13.6081 14.998 13.6536 14.9525L14.1541 14.4715C14.1931 14.4325 14.2061 14.374 14.1671 14.3285C13.8941 13.971 13.4586 13.737 12.9191 13.737C11.9571 13.737 11.2551 14.452 11.2551 15.388ZM17.6077 15.2645C17.6077 15.609 17.5232 15.8235 17.2047 15.8235H15.5017C15.6122 16.0965 15.8787 16.2265 16.2752 16.2265C16.4572 16.2265 16.6652 16.22 16.9317 16.077C16.9837 16.051 17.0162 16.064 17.0487 16.116L17.3477 16.532C17.3737 16.571 17.3802 16.623 17.3152 16.6815C17.0487 16.9545 16.6392 17.078 16.1842 17.078C15.1377 17.078 14.4162 16.376 14.4162 15.3945C14.4162 14.4585 15.0727 13.737 16.0672 13.737C17.0422 13.737 17.6077 14.4455 17.6077 15.2645ZM16.0737 14.6275C15.7877 14.6275 15.5472 14.7575 15.4692 15.076H16.6392C16.5742 14.751 16.3532 14.6275 16.0737 14.6275Z" fill="#57C155"/>
</svg>
