<svg width="24" height="24" viewBox="0 0 24 24" fill="none" xmlns="http://www.w3.org/2000/svg">
<path fill-rule="evenodd" clip-rule="evenodd" d="M19.9717 22.3392C21.9197 22.3392 23.5 20.7614 23.5 18.8121V9.17212C23.5 8.73956 23.3312 8.32408 23.0295 8.01409L17.3344 2.16235C17.0218 1.84118 16.5927 1.66 16.1445 1.66H4.0283C2.07967 1.66 0.5 3.23968 0.5 5.18831V18.8109C0.5 20.7596 2.07967 22.3392 4.0283 22.3392H19.9717ZM4.0283 3.73548C3.22593 3.73548 2.57547 4.38593 2.57547 5.18831V18.8109C2.57547 19.6133 3.22593 20.2638 4.0283 20.2638H19.9717C20.7747 20.2638 21.4245 19.6139 21.4245 18.8121V9.96189H16.8585C15.9415 9.96189 15.1981 9.21851 15.1981 8.30151V3.73548H4.0283ZM20.004 12.4565C20.004 12.398 19.9585 12.3525 19.9 12.3525H19.0095C18.951 12.3525 18.9055 12.398 18.9055 12.4565V14.0945C18.704 13.8735 18.418 13.737 18.0215 13.737C17.144 13.737 16.5395 14.4715 16.5395 15.4075C16.5395 16.35 17.144 17.078 18.0215 17.078C18.457 17.078 18.7625 16.909 18.9705 16.6295L18.99 16.896C18.99 16.9545 19.0355 17 19.094 17H19.8935C19.952 17 20.004 16.9545 20.004 16.896V12.4565ZM18.9185 15.401C18.9185 15.817 18.652 16.09 18.2685 16.09C17.8915 16.09 17.6055 15.8235 17.6055 15.4075C17.6055 14.998 17.8915 14.725 18.2685 14.725C18.652 14.725 18.9185 14.9915 18.9185 15.401ZM10.5005 12.5605C10.52 12.4955 10.494 12.45 10.4225 12.45H9.45401C9.40201 12.45 9.35651 12.4695 9.34351 12.528L8.57651 15.4335L7.72501 12.528C7.70551 12.4695 7.67301 12.45 7.60801 12.45H6.73051C6.66551 12.45 6.63301 12.4695 6.61351 12.528L5.76201 15.4335L4.99501 12.528C4.98851 12.4695 4.93651 12.45 4.88451 12.45H3.91601C3.84451 12.45 3.81851 12.4955 3.83801 12.5605L5.11201 16.922C5.11851 16.9675 5.17701 17 5.24201 17H6.20401C6.26251 17 6.32751 16.9675 6.33401 16.922L7.17251 13.893L8.00451 16.922C8.01101 16.9675 8.07601 17 8.13451 17H9.09651C9.16151 17 9.22001 16.9675 9.22651 16.922L10.5005 12.5605ZM10.2744 15.4075C10.2744 16.3435 10.9829 17.078 11.9579 17.078C12.9264 17.078 13.6349 16.3435 13.6349 15.4075C13.6349 14.4715 12.9264 13.737 11.9579 13.737C10.9829 13.737 10.2744 14.4715 10.2744 15.4075ZM12.5884 15.4075C12.5884 15.83 12.3024 16.077 11.9579 16.077C11.6069 16.077 11.3209 15.83 11.3209 15.4075C11.3209 14.985 11.6069 14.738 11.9579 14.738C12.3024 14.738 12.5884 14.985 12.5884 15.4075ZM16.1978 13.8215C16.2498 13.8605 16.2628 13.906 16.2628 13.9645V14.6665C16.2628 14.751 16.2173 14.7705 16.1263 14.751C16.1145 14.7487 16.1027 14.7461 16.0907 14.7435C16.0363 14.7316 15.9763 14.7185 15.8858 14.7185C15.5023 14.7185 15.2423 14.9395 15.2423 15.4335V16.896C15.2423 16.9545 15.1968 17 15.1383 17H14.2543C14.1958 17 14.1503 16.9545 14.1503 16.896V13.919C14.1503 13.8605 14.1958 13.815 14.2543 13.815H15.1123C15.1643 13.815 15.2098 13.841 15.2098 13.9255L15.2423 14.3415V14.3545C15.3463 13.9905 15.5413 13.737 15.9053 13.737C16.0678 13.737 16.1523 13.7825 16.1978 13.8215Z" fill="#3F92F1"/>
</svg>
