<svg width="24" height="24" viewBox="0 0 24 24" fill="none" xmlns="http://www.w3.org/2000/svg">
<path fill-rule="evenodd" clip-rule="evenodd" d="M19.9717 22.3392C21.9197 22.3392 23.5 20.7614 23.5 18.8121V9.17212C23.5 8.73956 23.3312 8.32408 23.0295 8.01409L17.3344 2.16235C17.0218 1.84118 16.5927 1.66 16.1445 1.66H4.0283C2.07967 1.66 0.5 3.23968 0.5 5.18831V18.8109C0.5 20.7596 2.07967 22.3392 4.0283 22.3392H19.9717ZM4.0283 3.73548C3.22593 3.73548 2.57547 4.38593 2.57547 5.18831V18.8109C2.57547 19.6133 3.22593 20.2638 4.0283 20.2638H19.9717C20.7747 20.2638 21.4245 19.6139 21.4245 18.8121V9.96189H16.8585C15.9415 9.96189 15.1981 9.21851 15.1981 8.30151V3.73548H4.0283ZM8.78382 17C8.72622 17 8.68782 16.9552 8.68782 16.8976V13.5056H7.84942C7.79182 13.5056 7.75342 13.4608 7.75342 13.4032V12.6224C7.75342 12.5648 7.79182 12.52 7.84942 12.52H10.6334C10.691 12.52 10.7358 12.5648 10.7358 12.6224V13.4032C10.7358 13.4608 10.691 13.5056 10.6334 13.5056H9.80142V16.8976C9.80142 16.9552 9.75662 17 9.69902 17H8.78382ZM16.3818 16.2768C16.3818 16.2128 16.3242 16.1808 16.273 16.1808C16.1834 16.1872 16.1322 16.1872 16.0746 16.1872C15.921 16.1872 15.8058 16.0976 15.8058 15.944V14.6896H16.273C16.3306 14.6896 16.3754 14.6448 16.3754 14.5872V13.9664C16.3754 13.9088 16.3306 13.864 16.273 13.864H15.8058V13.1344C15.8058 13.0768 15.761 13.032 15.7034 13.032H14.8202C14.7626 13.032 14.7178 13.0768 14.7178 13.1344V13.864H14.3274C14.2698 13.864 14.2314 13.9088 14.2314 13.9664V14.5872C14.2314 14.6448 14.2698 14.6896 14.3274 14.6896H14.7178V16.0592C14.7178 16.84 15.2618 17.0768 15.793 17.0768C16.0234 17.0768 16.3818 17.032 16.3818 16.8656V16.2768ZM10.8446 16.8784C10.8062 16.9424 10.8318 17 10.915 17H11.8622C11.9134 17 11.9582 16.9808 11.9838 16.936L12.419 16.1616L12.8542 16.936C12.8798 16.9808 12.9182 17 12.9694 17H13.923C13.9998 17 14.0382 16.9424 13.9934 16.8784L13.0654 15.3872L13.955 13.9856C14.0062 13.9216 13.9678 13.864 13.8846 13.864H12.9374C12.8862 13.864 12.8414 13.8832 12.8158 13.928L12.419 14.6256L12.0158 13.928C11.9902 13.8832 11.9518 13.864 11.9006 13.864H10.947C10.8702 13.864 10.8382 13.9216 10.8766 13.9856L11.7726 15.3872L10.8446 16.8784Z" fill="#EFEFEF"/>
</svg>
