<svg width="24" height="24" viewBox="0 0 24 24" fill="none" xmlns="http://www.w3.org/2000/svg">
<g clip-path="url(#clip0_60_93200)">
<path fill-rule="evenodd" clip-rule="evenodd" d="M18.2931 15.2158C18.2931 15.2158 16.1116 13.9243 11.8512 16.1455C7.97869 18.1646 5.50278 16.9075 4.4385 16.5673C4.42818 16.564 4.41516 16.5603 4.40419 16.5567V22.8255C4.40419 23.376 3.94733 24 3.39677 24H2.99667C2.44614 24 2 23.5539 2 23.0033V1.4322C2 0.881663 2.44614 0.435526 2.99667 0.435526H3.39677C3.9473 0.435526 4.40419 0.667601 4.40419 1.21815V2.00977H4.42221C5.58192 2.00977 6.95081 3.40993 11.8322 0.992371C15.6022 -0.874959 19.2388 0.46612 19.2388 0.46612C20.2872 0.778958 21.2395 1.53185 21.2395 2.63695V13.2495C21.2395 14.3539 20.038 15.6777 18.2931 15.2158ZM18.8502 12.053V3.61986C18.8502 3.17776 18.4634 3.01798 18.0499 2.81954C18.0499 2.81954 15.4673 1.45901 11.8523 3.61681C9.00991 5.31341 5.77816 4.82256 4.40432 4.49516V13.7166C4.43634 14.1035 4.75242 14.2125 5.19822 14.4539C5.19822 14.4539 7.5868 15.7756 11.7418 13.6219C15.6724 11.5841 18.0505 12.8533 18.0505 12.8533C18.8295 13.0148 18.8753 12.2948 18.8502 12.053Z" fill="#EFEFEF"/>
</g>
<defs>
<clipPath id="clip0_60_93200">
<rect width="24" height="24" fill="white"/>
</clipPath>
</defs>
</svg>
