<?xml version="1.0" encoding="UTF-8"?>
<svg width="24px" height="24px" viewBox="0 0 24 24" version="1.1" xmlns="http://www.w3.org/2000/svg" xmlns:xlink="http://www.w3.org/1999/xlink">
    <title>icon/folder</title>
    <g id="icon/folder" stroke="none" stroke-width="1" fill="none" fill-rule="evenodd">
        <path d="M9,1 L3,1 C1.34314575,1 0,2.34314575 0,4 L0,19 C0,20.6568542 1.34314575,22 3,22 L21,22 C22.6568542,22 24,20.6568542 24,19 L24,7 L23.9949073,6.82372721 C23.9036609,5.24891996 22.5976809,4 21,4 L13.582,4 L13.5437765,3.91009984 C12.74391,2.170769 10.9888947,1 9,1 Z M3,3 L9,3 C10.3768065,3 11.5675583,3.93574155 11.9055924,5.24944061 C12.0193056,5.6913632 12.417757,6.00025714 12.8740751,6.00024347 L21.00003,6 C21.5522847,6 22,6.44771525 22,7 L22,19 C22,19.5522847 21.5522847,20 21,20 L3,20 C2.44771525,20 2,19.5522847 2,19 L2,4 C2,3.44771525 2.44771525,3 3,3 Z" id="Combined-Shape" fill="#FFFFFF"></path>
    </g>
</svg>