<svg width="24" height="24" viewBox="0 0 24 24" fill="none" xmlns="http://www.w3.org/2000/svg">
<path fill-rule="evenodd" clip-rule="evenodd" d="M18.7218 21.7495C19.6656 21.398 20.5186 20.624 20.8463 19.7316L23.8633 11.5415C24.3135 10.3173 23.6145 9.31827 22.3114 9.31827H20.1395V7.34381C20.1395 6.47505 19.4287 5.76424 18.5599 5.76424H13.0433C12.1745 5.76424 11.0017 5.22719 10.433 4.56772L10.1132 4.19652C9.54454 3.53705 8.37171 3 7.50295 3H1.57957C0.710805 3 0 3.71081 0 4.57957V19.5855C0 20.2528 0.280373 20.857 0.726601 21.2871C0.726601 21.2914 0.73055 21.2953 0.73055 21.2953C1.01882 21.7021 1.52033 21.9548 2.17191 21.9548H17.6596C17.7267 21.9548 17.7978 21.9509 17.8653 21.9426C17.8886 21.9426 17.9162 21.9426 17.9399 21.9386C18.1729 21.9153 18.4099 21.8596 18.6428 21.7807C18.6542 21.776 18.6655 21.7718 18.6765 21.7677C18.6923 21.7619 18.7076 21.7562 18.7218 21.7495ZM8.91666 5.22719L9.23652 5.59839C10.1092 6.60931 11.7085 7.34381 13.0433 7.34381H18.5599V9.31827H6.62629C5.32314 9.31827 3.90548 10.3252 3.4711 11.5534L2.44833 14.4519L1.57957 16.9199V4.57957H7.50295C7.90969 4.57957 8.65208 4.91917 8.91666 5.22719Z" fill="white"/>
</svg>
