<?xml version="1.0" encoding="UTF-8"?>
<svg width="24px" height="24px" viewBox="0 0 24 24" version="1.1" xmlns="http://www.w3.org/2000/svg" xmlns:xlink="http://www.w3.org/1999/xlink">
    <title>icon/funding</title>
    <g id="icon/funding" stroke="none" stroke-width="1" fill="none" fill-rule="evenodd">
        <path d="M13.8864042,-1.5 L13.867275,-1.2659126 C13.824325,-0.681384629 13.8145216,-0.123557416 13.8359289,0.402005283 L13.8618763,0.844456315 C14.1577981,4.68068451 16.2112204,6.57617117 19.1819651,4.11600164 C18.845176,4.7293544 18.5615142,5.34453791 18.3309797,5.96155219 C18.2733461,6.11580575 18.34149,6.14474894 18.5354115,6.04838174 L18.6833261,5.96557243 L18.8685082,5.84563413 L19.2161577,5.59610979 L19.4945083,5.38334898 L19.9819106,4.99459088 L20.5531646,4.52229252 L21.6406599,3.83460238 C17.6972746,7.68902547 20.4040187,12.4795069 26,12.2645918 C22.3251855,12.405724 21.3050229,15.0994407 23.2138451,17.4221638 L22.5631595,17.1624904 L22.19693,17.024979 L21.8847493,16.915951 L21.7489272,16.8721182 L21.5178195,16.8058152 C21.2116946,16.7277231 21.0879842,16.7457624 21.1466883,16.859933 C21.1962606,16.9563437 21.3042591,17.0896493 21.4533885,17.2463041 L21.7057688,17.4971049 L21.8510415,17.6324645 L22.1716447,17.9167527 L22.5215154,18.2106666 L22.8876822,18.5040472 C23.0110125,18.600623 23.134897,18.6954167 23.2571736,18.7867351 C19.6926236,16.561221 16.6418769,19.2941672 19.5323311,23.6132927 L19.7793333,23.9671667 L19.5583223,23.6681247 C18.9806439,22.9132581 18.3007065,22.1719118 17.5185101,21.444086 L17.4677097,21.5391667 L17.3825025,21.9546391 L17.6141971,22.6800074 L17.7509282,23.0813801 L17.8734737,23.4169879 L17.9818337,23.6868308 C17.9987115,23.7263242 18.0149983,23.7630774 18.0306941,23.7970904 L18.116,23.967 L17.9213445,23.7499751 C15.2444635,20.8428746 12.8848107,21.0535511 11.1466398,22.1736691 L10.8967452,22.3438247 C10.8558473,22.3731805 10.8153279,22.4030133 10.7751915,22.4332909 L10.516461,22.6387726 L10.2509945,22.8716862 L9.99899443,23.1145876 L9.760809,23.3649508 L9.4830342,23.6845492 L9.22806829,24.0069253 L9.04097479,24.2635106 L8.86926208,24.5161896 L8.71327822,24.7624363 L8.57337125,24.9997245 L8.39441632,25.3333333 C8.88168698,21.2020136 6.01339734,18.2442146 0.880882189,21.5391667 L0.6167375,21.7116557 L0.990605216,21.4252705 L1.43037086,21.068466 L1.94310794,20.6340806 L2.45933693,20.1735475 L2.69704853,19.9495485 L2.90957828,19.7383002 L3.08824123,19.5462316 C3.32649309,19.2757281 3.42113284,19.0916549 3.24025792,19.0916549 C2.69763315,19.0916549 1.31485806,19.464126 0.561792807,20.090099 C0.878903086,19.8284966 1.17437469,19.535316 1.44201447,19.2174663 L1.66445958,18.9391435 C3.78197217,16.146064 3.79658381,11.7407092 -2,9.86007899 L-1.70807263,9.89399532 L-1.24105675,9.93119957 L-0.842185342,9.94655096 L-0.557291577,9.94800591 L-0.259807561,9.94069376 L0.0480438368,9.92311998 C0.152141881,9.91538571 0.257597344,9.90569209 0.364039747,9.89379 L0.685957302,9.8512093 L0.848442049,9.82448287 L1.17507419,9.75922379 L1.44875166,9.69162835 C3.5901578,9.1132634 5.63519421,7.35965271 4.76723276,2.53703495 L4.87145497,2.66922134 L5.06300674,2.89786613 C5.66390293,3.58080062 5.88823186,3.47279144 5.72189328,2.60997659 L5.66025758,2.32852411 L5.57509723,2.00200011 L5.46632763,1.63062143 L5.33386417,1.21460489 L5.09055794,0.507358418 C7.46782654,5.04093532 9.98736863,4.73054641 11.7304205,2.93319331 L11.953296,2.69059917 L12.1669114,2.43279511 L12.4202183,2.09167309 L12.6574634,1.73260556 L12.8351003,1.43460356 L13.0014382,1.12884123 L13.156024,0.816974023 L13.2984047,0.500657405 L13.4281271,0.181546838 L13.5447383,-0.138702216 L13.6477851,-0.458434294 L13.6940802,-0.617589135 L13.7759309,-0.933441758 L13.8430846,-1.24463875 L13.8864042,-1.5 Z M12.822,4.66 L12.6590767,4.80495921 C10.8874507,6.33349755 8.86958871,6.59307948 6.98692923,5.5674436 L6.929,5.534 L6.92110444,5.62926319 C6.67292242,8.2003015 5.45118911,10.0131679 3.50607662,11.0260243 L3.43,11.064 L3.47429451,11.1181634 C4.96015114,12.9917835 5.34409448,15.2831797 4.70654375,17.4403393 L4.651,17.616 L4.6904021,17.6515686 C4.82169622,17.7761657 4.93498518,17.9173408 5.02827228,18.0706749 L5.08,18.162 L5.12901632,18.1633542 C7.00339926,18.2353482 8.53153249,19.123839 9.46195827,20.605733 L9.59,20.821 L9.76694298,20.6929274 C11.6717515,19.3390757 13.8088209,19.0142022 15.9368183,19.8765357 L16.06,19.928 L16.782,18.576 L16.818765,18.4886053 C17.2689619,17.4441803 18.0822234,16.6526719 19.1289477,16.2512759 L19.221,16.217 L19.2485197,16.1332867 C19.4131799,15.6635181 19.7466784,15.2575099 20.2061821,15.0106756 L20.259,14.984 L20.2628511,14.8906248 C20.29339,14.2482683 20.4607851,13.634208 20.7529118,13.0753159 L20.809,12.97 L20.6688479,12.8795832 C18.9447007,11.7349996 17.8964867,9.99440579 17.7728505,8.07916181 L17.769,8.02 L17.7303982,8.0076313 L17.5569925,7.93978635 C17.2272299,7.79972424 16.9597017,7.58979701 16.7583021,7.33756199 L16.674,7.223 L16.4834551,7.21905814 C15.4740827,7.17221246 14.5305738,6.75430407 13.740757,5.94301639 L13.5848689,5.77550718 C13.3089419,5.46552479 13.0659374,5.11395236 12.8555255,4.72530729 L12.822,4.66 Z M10.668158,9.12095274 C10.7963268,9.12095274 10.9209279,9.16316465 11.0227058,9.24106512 L15.3608737,12.5614844 C15.6167035,12.7572958 15.6653582,13.1234233 15.4695468,13.3792532 C15.4382738,13.4201118 15.4017323,13.4566533 15.3608737,13.4879263 L11.0227058,16.8083456 C10.7668759,17.004157 10.4007484,16.9555023 10.2049371,16.6996725 C10.1270366,16.5978946 10.0848247,16.4732934 10.0848247,16.3451247 L10.0848247,9.70428607 C10.0848247,9.38211997 10.3459919,9.12095274 10.668158,9.12095274 Z" id="Combined-Shape" fill="#FFFFFF"></path>
    </g>
</svg>