<?xml version="1.0" encoding="UTF-8"?>
<svg width="24px" height="24px" viewBox="0 0 24 24" version="1.1" xmlns="http://www.w3.org/2000/svg" xmlns:xlink="http://www.w3.org/1999/xlink">
    <title>icon/hash</title>
    <g id="icon/hashtag" stroke="none" stroke-width="1" fill="none" fill-rule="evenodd">
        <path d="M21.3076923,6.18413352 L19.1285564,6.18413352 L19.56902,4.07454448 C19.7544784,3.14725259 19.1517387,2.243143 18.2476291,2.05768463 C17.3203372,1.87222625 16.4162276,2.45178368 16.2307692,3.37907557 L15.6512118,6.16095122 L10.8061117,6.16095122 L11.2465753,4.05136218 C11.4320337,3.1240703 10.829294,2.21996071 9.9251844,2.03450233 C8.99789252,1.84904395 8.09378293,2.42860138 7.90832455,3.35589327 L7.32876712,6.13776893 L4.43097998,6.13776893 C3.4805058,6.13776893 2.71548999,6.90278473 2.71548999,7.85325892 C2.71548999,8.8037331 3.4805058,9.56874891 4.43097998,9.56874891 L6.61011591,9.56874891 L5.61327713,14.4602136 L2.71548999,14.4602136 C1.76501581,14.4602136 1,15.2252294 1,16.1757036 C1,17.1261778 1.76501581,17.8911936 2.71548999,17.8911936 L4.89462592,17.8911936 L4.45416228,20.0007826 C4.2687039,20.9280745 4.87144362,21.8321841 5.77555321,22.0176425 C5.8914647,22.0408248 6.00737619,22.0640071 6.12328767,22.0640071 C6.91148577,22.0640071 7.63013699,21.5076319 7.79241307,20.6962515 L8.3719705,17.9143759 L13.1938883,17.9143759 L12.7534247,20.0239649 C12.5679663,20.9512568 13.170706,21.8553664 14.0748156,22.0408248 C14.1907271,22.0640071 14.3066386,22.0871894 14.4225501,22.0871894 C15.2107482,22.0871894 15.9293994,21.5308142 16.0916754,20.7194338 L16.6712329,17.9375582 L19.56902,17.9375582 C20.5194942,17.9375582 21.28451,17.1725424 21.28451,16.2220682 C21.28451,15.271594 20.5194942,14.5065782 19.56902,14.5065782 L17.3898841,14.5065782 L18.3867229,9.6151135 L21.28451,9.6151135 C22.2349842,9.6151135 23,8.85009769 23,7.89962351 C23,6.94914933 22.2581665,6.18413352 21.3076923,6.18413352 Z M13.9125395,14.4833959 L9.09062171,14.4833959 L10.0874605,9.5919312 L14.9093783,9.5919312 L13.9125395,14.4833959 Z" id="Shape" fill="#FFFFFF"></path>
    </g>
</svg>