<svg width="24" height="24" viewBox="0 0 24 24" fill="none" xmlns="http://www.w3.org/2000/svg">
<path fill-rule="evenodd" clip-rule="evenodd" d="M12.0017 2.99615C10.9672 2.19807 9.65391 1.54264 8.16319 1.40147C6.13262 1.20919 4.00072 1.99279 2.06605 4.1696C-0.438399 6.98751 -0.0176185 11.0956 1.81063 14.5946C3.66908 18.1514 7.1494 21.4928 11.5561 23.1684L12.0004 23.3373L12.4446 23.1684C16.8513 21.4928 20.3317 18.1514 22.1901 14.5946C24.0184 11.0956 24.4391 6.9875 21.9347 4.16959C19.9963 1.98857 17.8543 1.21659 15.823 1.41352C14.3373 1.55756 13.0283 2.20827 12.0017 2.99615ZM7.9275 3.89034C6.80578 3.78412 5.4221 4.1568 3.9347 5.83037C2.43951 7.5127 2.40939 10.3421 4.02639 13.4368C5.55102 16.3547 8.39832 19.1541 12.0004 20.6546C15.6024 19.1541 18.4497 16.3547 19.9744 13.4368C21.5914 10.3421 21.5612 7.51269 20.0661 5.83037C18.5824 4.16101 17.1931 3.79241 16.0642 3.90185C14.8593 4.01868 13.7193 4.70504 12.8843 5.54011L12.0004 6.42399L11.1165 5.54011C10.2636 4.68726 9.12463 4.0037 7.9275 3.89034Z" fill="#EFEFEF"/>
</svg>
