<svg width="24" height="24" viewBox="0 0 24 24" fill="none" xmlns="http://www.w3.org/2000/svg">
<path fill-rule="evenodd" clip-rule="evenodd" d="M10.1686 2.24659L2.42077 9.14863C1.83502 9.67043 1.5 10.4176 1.5 11.202V20.3511C1.5 21.8699 2.73122 23.1011 4.25 23.1011H8.00402L10.754 23.0961C10.754 23.0961 10.754 21.8136 10.754 20.3511L10.754 18.1199H13.249L13.2498 20.3511C13.2498 21.8699 13.249 23.1011 13.249 23.1011H19.75C21.2688 23.1011 22.5 21.8699 22.5 20.3511V11.202C22.5 10.4173 22.1648 9.66994 21.5787 9.14813L13.8265 2.24609C12.7839 1.31776 11.2111 1.31798 10.1686 2.24659ZM11.9979 4.29999L19.75 11.202V20.3511H15.9998V15.3704H8.00402V20.3511H4.25V11.202L11.9979 4.29999Z" fill="#EFEFEF"/>
</svg>
