<svg width="24" height="24" viewBox="0 0 24 24" fill="none" xmlns="http://www.w3.org/2000/svg">
<path fill-rule="evenodd" clip-rule="evenodd" d="M1 2.5C0.447715 2.5 0 2.94772 0 3.5V11.5H11.5V2.5H1ZM24 12.5H12.5V21.5H23C23.5523 21.5 24 21.0523 24 20.5V12.5ZM12.5 2.5H17.75V6.5H12.5V2.5ZM5.25 12.5H0V16.5H5.25V12.5ZM12.5 7.5H17.75V11.5H12.5V7.5ZM5.25 17.5H0V20.5C0 21.0523 0.447715 21.5 1 21.5H5.25V17.5ZM18.75 2.5H23C23.5523 2.5 24 2.94772 24 3.5V6.5H18.75V2.5ZM24 7.5H18.75V11.5H24V7.5ZM6.25 17.5H11.5V21.5H6.25V17.5ZM11.5 12.5H6.25V16.5H11.5V12.5Z" fill="#EFEFEF"/>
</svg>
