<svg width="24" height="24" viewBox="0 0 24 24" fill="none" xmlns="http://www.w3.org/2000/svg">
<path d="M21.875 17.875C22.4963 17.875 23 18.3787 23 19V20.5C23 21.1213 22.4963 21.625 21.875 21.625H2.125C1.50368 21.625 1 21.1213 1 20.5V19C1 18.3787 1.50368 17.875 2.125 17.875H21.875ZM21.875 10.125C22.4963 10.125 23 10.6287 23 11.25V12.75C23 13.3713 22.4963 13.875 21.875 13.875H2.125C1.50368 13.875 1 13.3713 1 12.75V11.25C1 10.6287 1.50368 10.125 2.125 10.125H21.875ZM21.875 2.375C22.4963 2.375 23 2.87868 23 3.5V5C23 5.62132 22.4963 6.125 21.875 6.125H2.125C1.50368 6.125 1 5.62132 1 5V3.5C1 2.87868 1.50368 2.375 2.125 2.375H21.875Z" fill="#EFEFEF"/>
</svg>
