<?xml version="1.0" encoding="UTF-8"?>
<svg width="24px" height="24px" viewBox="0 0 24 24" version="1.1" xmlns="http://www.w3.org/2000/svg" xmlns:xlink="http://www.w3.org/1999/xlink">
    <title>icon/link</title>
    <g id="icon/link" stroke="none" stroke-width="1" fill="none" fill-rule="evenodd">
        <path d="M18.9560184,9.45149728 C19.7428928,8.66447961 20.0501258,7.51745281 19.7619857,6.44249079 C19.4738455,5.36752876 18.6341077,4.5279438 17.5590932,4.23999945 C16.4840787,3.95205509 15.3371079,4.25949693 14.5502335,5.0465146 L11.3338643,8.2625683 C10.1192739,9.47963655 10.1192739,11.4502672 11.3338643,12.6673354 C11.6033926,12.9368606 11.7086572,13.3297039 11.6100057,13.6978849 C11.5113542,14.0660659 11.2237742,14.3536492 10.8555944,14.4523051 C10.4874145,14.5509609 10.0945701,14.445701 9.82504169,14.1761758 C7.77843709,12.1252619 7.77843709,8.80464181 9.82504169,6.75372794 L13.0414109,3.53767423 C14.3673425,2.21160617 16.3000026,1.69364479 18.111377,2.17890113 C19.9227513,2.66415747 21.3376491,4.07890954 21.823092,5.89023394 C22.3085349,7.70155835 21.7907725,9.6342718 20.464841,10.9603399 L18.8716884,12.5531725 C18.4549333,12.9692374 17.7798849,12.9689559 17.3634769,12.5525436 C16.9470689,12.1361313 16.9467944,11.4610829 17.3628636,11.0443321 L18.9560184,9.45149728 Z M3.53491242,20.4656895 C5.58636756,22.511997 8.90700765,22.5118976 10.9583403,20.4654673 L14.1746029,17.2496358 C15.1590202,16.2654321 15.712078,14.9304372 15.712078,13.5384119 C15.712078,12.1463866 15.1590202,10.8113917 14.1746029,9.82718794 C13.7578472,9.41112366 13.0827987,9.41140611 12.6663913,9.827819 C12.249984,10.2442319 12.2497105,10.9192804 12.6657803,11.3360305 C13.2499958,11.9201259 13.5782148,12.7124013 13.5782148,13.5385219 C13.5782148,14.3646424 13.2499958,15.1569179 12.6657803,15.7410132 L9.44951768,18.9568425 C8.66264451,19.7438598 7.51567499,20.0513019 6.44066145,19.7633583 C5.36564791,19.4754148 4.52591048,18.6358311 4.23777011,17.5608703 C3.94962975,16.4859095 4.25686184,15.3388837 5.04373501,14.5518665 L6.63678095,12.9590316 C7.05285014,12.5422808 7.05257564,11.8672324 6.63616765,11.4508201 C6.21975967,11.0344078 5.54471123,11.0341264 5.12795614,11.4501913 L3.53491242,13.0430261 C1.48836253,15.0940467 1.48836253,18.4146689 3.53491242,20.4656895 L3.53491242,20.4656895 Z" id="Shape" fill="#FFFFFF"></path>
    </g>
</svg>