<svg width="24" height="24" viewBox="0 0 24 24" fill="none" xmlns="http://www.w3.org/2000/svg">
<path fill-rule="evenodd" clip-rule="evenodd" d="M4 3C2.89543 3 2 3.89543 2 5C2 6.10457 2.89543 7 4 7C5.10457 7 6 6.10457 6 5C6 3.89543 5.10457 3 4 3ZM9.5 3.5C8.67157 3.5 8 4.17157 8 5C8 5.82843 8.67157 6.5 9.5 6.5H20.5C21.3284 6.5 22 5.82843 22 5C22 4.17157 21.3284 3.5 20.5 3.5H9.5ZM8 12C8 11.1716 8.67157 10.5 9.5 10.5H20.5C21.3284 10.5 22 11.1716 22 12C22 12.8284 21.3284 13.5 20.5 13.5H9.5C8.67157 13.5 8 12.8284 8 12ZM4 10C2.89543 10 2 10.8954 2 12C2 13.1046 2.89543 14 4 14C5.10457 14 6 13.1046 6 12C6 10.8954 5.10457 10 4 10ZM8 19C8 18.1716 8.67157 17.5 9.5 17.5H20.5C21.3284 17.5 22 18.1716 22 19C22 19.8284 21.3284 20.5 20.5 20.5H9.5C8.67157 20.5 8 19.8284 8 19ZM4 17C2.89543 17 2 17.8954 2 19C2 20.1046 2.89543 21 4 21C5.10457 21 6 20.1046 6 19C6 17.8954 5.10457 17 4 17Z" fill="#EFEFEF"/>
</svg>
