<svg width="24" height="24" viewBox="0 0 24 24" fill="none" xmlns="http://www.w3.org/2000/svg">
<path fill-rule="evenodd" clip-rule="evenodd" d="M20.5909 22.9091V10.9091C20.5909 10.3066 20.1025 9.81818 19.5 9.81818H17.5V5.45455C17.5 2.44208 15.0579 0 12.0455 0C9.03299 0 6.59091 2.44208 6.59091 5.45455C6.59139 5.46978 6.59218 5.48493 6.59326 5.5H6.575V9.81818H4.59091C3.98842 9.81818 3.5 10.3066 3.5 10.9091V22.9091C3.5 23.5116 3.98842 24 4.59091 24H19.5C20.1025 24 20.5909 23.5116 20.5909 22.9091ZM8.775 5.5H8.7718C8.77242 5.48493 8.77273 5.46977 8.77273 5.45455C8.77273 3.64707 10.238 2.18182 12.0455 2.18182C13.8529 2.18182 15.3182 3.64707 15.3182 5.45455V9.81818H8.775V5.5ZM10.5714 19.6957V18.1739C9.60162 17.6837 8.99985 16.7513 9 15.7391C9 14.2264 10.3431 13 12 13C13.6569 13 15 14.2264 15 15.7391C15.0002 16.7513 14.3984 17.6837 13.4286 18.1739V19.6957C13.4286 20.416 12.789 21 12 21C11.211 21 10.5714 20.416 10.5714 19.6957Z" fill="#EFEFEF"/>
</svg>
