<svg width="24" height="24" viewBox="0 0 24 24" fill="none" xmlns="http://www.w3.org/2000/svg">
<path fill-rule="evenodd" clip-rule="evenodd" d="M5.21381 18.755C5.21381 20.3352 6.50132 21.6227 8.08145 21.6227H19.6924C21.2725 21.6227 22.5601 20.3352 22.5601 18.755V4.86764C22.5601 3.28751 21.2725 2 19.6924 2H8.08145C6.50132 2 5.21381 3.28751 5.21381 4.86764V6.03957C5.21381 6.68333 5.74052 7.21004 6.38428 7.21004C7.02803 7.21004 7.55474 6.68333 7.55474 6.03957V4.86764C7.55474 4.57503 7.78884 4.34093 8.08145 4.34093H19.6924C19.985 4.34093 20.2191 4.57503 20.2191 4.86764V18.755C20.2191 19.0477 19.985 19.2817 19.6924 19.2817H8.08145C7.78884 19.2817 7.55474 19.0477 7.55474 18.755V17.5831C7.55474 16.9394 7.02803 16.4126 6.38428 16.4126C5.74052 16.4126 5.21381 16.9394 5.21381 17.5831V18.755ZM3.30816 10.6409H13.7268L11.3566 8.29994C10.8884 7.83175 10.8884 7.10021 11.3566 6.63202C11.8248 6.16384 12.5563 6.16384 13.0245 6.63202L17.3164 11.125L17.3552 11.1676C17.4723 11.3432 17.5601 11.5772 17.5601 11.8406C17.5601 12.104 17.5015 12.3088 17.3552 12.5136L17.3164 12.5547L13.0245 16.9907C12.7904 17.2247 12.4978 17.3418 12.2052 17.3418C11.9126 17.3418 11.6199 17.2247 11.3858 16.9907C10.9177 16.5225 10.9177 15.7909 11.3858 15.3227L13.7268 12.9818H3.30816C2.66441 12.9818 2.1377 12.4551 2.1377 11.8113C2.1377 11.1676 2.66441 10.6409 3.30816 10.6409Z" fill="#EFEFEF"/>
</svg>
