<svg width="24" height="24" viewBox="0 0 24 24" fill="none" xmlns="http://www.w3.org/2000/svg">
<path fill-rule="evenodd" clip-rule="evenodd" d="M14.3462 18.755C14.3462 20.3352 13.0587 21.6227 11.4786 21.6227H3.86764C2.28751 21.6227 1 20.3352 1 18.755V4.86764C1 3.28751 2.28751 2 3.86764 2H11.4786C13.0587 2 14.3462 3.28751 14.3462 4.86764V6.03957C14.3462 6.68333 13.8195 7.21004 13.1758 7.21004C12.532 7.21004 12.0053 6.68333 12.0053 6.03957V4.86764C12.0053 4.57503 11.7712 4.34093 11.4786 4.34093H3.86764C3.57503 4.34093 3.34093 4.57503 3.34093 4.86764V18.755C3.34093 19.0477 3.57503 19.2817 3.86764 19.2817H11.4786C11.7712 19.2817 12.0053 19.0477 12.0053 18.755V17.5831C12.0053 16.9394 12.532 16.4126 13.1758 16.4126C13.8195 16.4126 14.3462 16.9394 14.3462 17.5831V18.755ZM8.30817 10.6409H18.7268L16.3566 8.29995C15.8884 7.83176 15.8884 7.10022 16.3566 6.63203C16.8248 6.16385 17.5563 6.16385 18.0245 6.63203L22.3164 11.125L22.3552 11.1676C22.4723 11.3432 22.5601 11.5773 22.5601 11.8406C22.5601 12.104 22.5015 12.3088 22.3552 12.5136L22.3164 12.5547L18.0245 16.9907C17.7904 17.2248 17.4978 17.3418 17.2052 17.3418C16.9126 17.3418 16.62 17.2248 16.3859 16.9907C15.9177 16.5225 15.9177 15.7909 16.3859 15.3228L18.7268 12.9818H8.30817C7.66442 12.9818 7.13771 12.4551 7.13771 11.8113C7.13771 11.1676 7.66442 10.6409 8.30817 10.6409Z" fill="#EFEFEF"/>
</svg>
