<svg width="24" height="24" viewBox="0 0 24 24" fill="none" xmlns="http://www.w3.org/2000/svg">
<rect y="3.5" width="24" height="18" rx="2" fill="white"/>
<path d="M14.4723 8.04724H9.51172V16.9606H14.4723V8.04724Z" fill="#FF5F00"/>
<path d="M9.82669 12.5039C9.82669 10.7717 10.6298 9.11812 11.9842 8.04725C9.52748 6.11024 5.95267 6.53544 4.01567 9.00788C2.09441 11.4646 2.5196 15.0236 4.99204 16.9606C7.05504 18.5827 9.93693 18.5827 11.9999 16.9606C10.6298 15.8898 9.82669 14.2362 9.82669 12.5039Z" fill="#EB001B"/>
<path d="M21.1654 12.5039C21.1654 15.6378 18.6299 18.1732 15.4961 18.1732C14.2205 18.1732 12.9921 17.748 12 16.9606C14.4567 15.0236 14.8819 11.4646 12.9449 8.99214C12.6614 8.64568 12.3465 8.31497 12 8.04725C14.4567 6.11024 18.0315 6.53544 19.9528 9.00788C20.7402 10 21.1654 11.2284 21.1654 12.5039Z" fill="#F79E1B"/>
</svg>
