<svg width="24" height="24" viewBox="0 0 24 24" fill="none" xmlns="http://www.w3.org/2000/svg">
<path fill-rule="evenodd" clip-rule="evenodd" d="M1.125 5C0.50368 5 0 5.50368 0 6.125V7.625C0 8.24632 0.50368 8.75 1.125 8.75H22.875C23.4963 8.75 24 8.24632 24 7.625V6.125C24 5.50368 23.4963 5 22.875 5H1.125ZM10.125 14.75C9.50368 14.75 9 15.2537 9 15.875V17.375C9 17.9963 9.50368 18.5 10.125 18.5H22.875C23.4963 18.5 24 17.9963 24 17.375V15.875C24 15.2537 23.4963 14.75 22.875 14.75H10.125Z" fill="#EFEFEF"/>
</svg>
