<svg width="24" height="24" viewBox="0 0 24 24" fill="none" xmlns="http://www.w3.org/2000/svg">
<path d="M16 0.75C20.0041 0.75 23.25 3.99594 23.25 8V16C23.25 20.0041 20.0041 23.25 16 23.25H8C3.99594 23.25 0.75 20.0041 0.75 16V8C0.75 3.99594 3.99594 0.75 8 0.75H16ZM11.6143 13.333C10.9931 13.333 10.4894 13.8369 10.4893 14.458V14.875C10.4893 15.4963 10.993 16 11.6143 16H16.9199C17.541 15.9997 18.0449 15.4961 18.0449 14.875V14.458C18.0448 13.837 17.5409 13.3333 16.9199 13.333H11.6143ZM7.08105 8C6.45973 8 5.95605 8.50368 5.95605 9.125V9.54199C5.95623 10.1632 6.45984 10.667 7.08105 10.667H16.9199C17.5409 10.6667 18.0447 10.163 18.0449 9.54199V9.125C18.0449 8.50384 17.541 8.00026 16.9199 8H7.08105Z" fill="#EFEFEF"/>
</svg>
