<?xml version="1.0" encoding="UTF-8"?>
<svg width="24px" height="24px" viewBox="0 0 24 24" version="1.1" xmlns="http://www.w3.org/2000/svg" xmlns:xlink="http://www.w3.org/1999/xlink">
    <title>icon/message</title>
    <g id="icon/message" stroke="none" stroke-width="1" fill="none" fill-rule="evenodd">
        <path d="M11.9999842,3 L11.2653238,3.00634078 L10.5153061,3.02737156 C10.1288884,3.04255821 9.7729623,3.06311822 9.43147497,3.08975089 L8.77771202,3.15021737 C3.52103733,3.71989218 1.24922353,6.09792637 1.0207725,11.1899761 L1.00266005,11.8105908 L1,12.151097 C1,17.9283352 3.18416118,20.5524648 8.71447112,21.163629 L9.30271709,21.2203313 L9.93545391,21.2650416 L10.5934665,21.2961771 L11.2776629,21.314457 L11.988928,21.3205382 L13.0449181,21.314457 L16.1472859,23.0001914 L16.5971351,20.806426 C21.1403654,20.0928453 23,17.1223276 23,12.1602919 L22.9982368,11.870826 L22.9837092,11.3004626 C22.7804477,6.22869693 20.5974331,3.81577519 15.5531775,3.18836966 L14.9230106,3.12021799 C14.6822602,3.09782273 14.4558745,3.08018569 14.2230636,3.06519414 L13.5294245,3.02916118 C13.0365447,3.00937366 12.5330295,3 11.9999842,3 Z M11.303964,5.57088455 L11.9999701,5.56504167 C12.5064861,5.56504167 12.9820235,5.57389449 13.4292186,5.59176291 L14.1009055,5.62664822 C14.2955833,5.63929192 14.5004712,5.65525412 14.6987221,5.67356534 L15.2962029,5.73817365 C19.0666719,6.20732773 20.2837802,7.55261751 20.4366069,11.3634118 L20.4503007,11.8968021 L20.4516343,12.1556167 C20.4516343,16.2925215 19.4183016,17.8160982 16.131718,18.4268985 L15.1704356,18.5843583 L14.9827297,20.3748886 L13.296149,18.7225133 L12.7469594,18.7225133 L11.9873276,18.729403 L11.3130477,18.7236364 L10.6702379,18.7065031 L10.0608399,18.6777144 L9.48465832,18.6370513 L8.94152071,18.5843583 C4.85722181,18.1328601 3.60269148,16.7225018 3.55007688,12.4371626 L3.55046576,11.8405713 L3.56753344,11.2616687 C3.73811894,7.46327019 5.0053621,6.1367761 8.99831815,5.70392896 L9.62173914,5.64629684 L9.92437621,5.62500096 L10.583778,5.59124411 L11.303964,5.57088455 Z" id="Path" fill="#FFFFFF" transform="translate(12.000000, 13.000096) scale(-1, 1) translate(-12.000000, -13.000096) "></path>
    </g>
</svg>