<svg width="24" height="24" viewBox="0 0 24 24" fill="none" xmlns="http://www.w3.org/2000/svg">
<path d="M12.0538 24C14.8682 24.0029 17.5947 23.0209 19.7612 21.2243C21.9273 19.4275 23.3965 16.9293 23.9134 14.1628C24.1062 13.2708 23.8852 12.3395 23.3121 11.6293C22.7389 10.9191 21.8753 10.5064 20.9627 10.5064C20.325 10.508 19.7042 10.7114 19.1893 11.0875C18.4287 11.6318 17.5171 11.9248 16.5818 11.9252C15.3809 11.9252 14.2293 11.4481 13.3801 10.599C12.531 9.74973 12.0539 8.59808 12.0539 7.39731C12.0566 6.45482 12.3564 5.53717 12.9104 4.77489C13.3787 4.12034 13.5661 3.30596 13.4311 2.51261C13.2963 1.71936 12.8501 1.01274 12.192 0.549783C11.5338 0.086699 10.7181 -0.0943268 9.92581 0.0467963C6.96411 0.587265 4.31107 2.21461 2.48697 4.60971C0.662936 7.00491 -0.200563 9.99522 0.0659925 12.9938C0.332413 15.9927 1.70947 18.7837 3.92707 20.8197C6.14476 22.8557 9.0431 23.9899 12.0539 23.9997L12.0538 24ZM10.4539 3.02019C9.40694 4.46947 8.91034 6.24452 9.05306 8.02648C9.1958 9.80863 9.96851 11.4819 11.2328 12.746C12.4971 14.0101 14.1703 14.783 15.9523 14.9257C17.7346 15.0685 19.5093 14.5718 20.9586 13.5248C20.5693 15.7083 19.3924 17.6727 17.6509 19.0462C15.9096 20.4194 13.7248 21.1061 11.5108 20.9757C9.29688 20.8453 7.20758 19.9071 5.63944 18.3389C4.07127 16.7708 3.13309 14.6816 3.00266 12.4676C2.87234 10.2536 3.55895 8.06883 4.93219 6.32744C6.30557 4.58607 8.27003 3.4091 10.4535 3.01978L10.4539 3.02019Z" fill="#EFEFEF"/>
</svg>
