<?xml version="1.0" encoding="UTF-8"?>
<svg width="24px" height="24px" viewBox="0 0 24 24" version="1.1" xmlns="http://www.w3.org/2000/svg" xmlns:xlink="http://www.w3.org/1999/xlink">
    <title>icon/music</title>
    <g id="icon/music" stroke="none" stroke-width="1" fill="none" fill-rule="evenodd">
        <path d="M21,16 L20.9644196,16.0009499 C20.7213961,17.6966339 19.2629068,19 17.5,19 C15.5670034,19 14,17.4329966 14,15.5 C14,13.5670034 15.5670034,12 17.5,12 C18.037207,12 18.5461461,12.1210295 19.0010375,12.3373087 L19,9.46182946 L10,11.5378295 L10,19 L9.96441956,19.0009499 C9.72139608,20.6966339 8.26290678,22 6.5,22 C4.56700338,22 3,20.4329966 3,18.5 C3,16.5670034 4.56700338,15 6.5,15 C7.03720704,15 7.54614613,15.1210295 8.00103753,15.3373087 L8,5.79551262 C8,5.32985664 8.3214094,4.9258286 8.77514049,4.82112142 L19.7751405,2.28265989 C20.3132819,2.15847341 20.8502047,2.49405018 20.9743912,3.03219158 C20.9914087,3.10593422 21,3.18137035 21,3.25705108 L21,16 Z M6.5,17 C5.67157288,17 5,17.6715729 5,18.5 C5,19.3284271 5.67157288,20 6.5,20 C7.32842712,20 8,19.3284271 8,18.5 C8,17.6715729 7.32842712,17 6.5,17 Z M17.5,14 C16.6715729,14 16,14.6715729 16,15.5 C16,16.3284271 16.6715729,17 17.5,17 C18.3284271,17 19,16.3284271 19,15.5 C19,14.6715729 18.3284271,14 17.5,14 Z M19,4.513 L10,6.59 L10,9.486 L19,7.409 L19,4.513 Z" id="Combined-Shape" fill="#FFFFFF"></path>
    </g>
</svg>