<svg width="24" height="24" viewBox="0 0 24 24" fill="none" xmlns="http://www.w3.org/2000/svg">
<path fill-rule="evenodd" clip-rule="evenodd" d="M22.9958 1.92866C22.4412 1.51748 21.6584 1.6337 21.2472 2.18825L6.60044 21.9418C6.18926 22.4964 6.30548 23.2793 6.86003 23.6904C7.41457 24.1016 8.19745 23.9854 8.60863 23.4308L10.2304 21.2436H20.7535C21.4334 21.2436 22 20.6771 22 19.9972V5.37035L23.2554 3.67727C23.6666 3.12272 23.5503 2.33984 22.9958 1.92866ZM19.5354 8.69426L15.8947 13.6044L17.3824 15.7762C17.4958 15.9745 17.5241 16.2295 17.4108 16.4278C17.2975 16.6261 17.0708 16.7677 16.8442 16.7677H13.5492L12.0788 18.7507H19.5354V8.69426ZM17.8132 3.00001H3.24646C2.56657 3.00001 2 3.56658 2 4.24647V19.9972C2 20.6771 2.56657 21.2436 3.24646 21.2436H4.28603L6.13447 18.7507H4.49292V5.49293H15.9648L17.8132 3.00001Z" fill="#EFEFEF"/>
</svg>
