<svg width="24" height="26" viewBox="0 0 24 26" fill="none" xmlns="http://www.w3.org/2000/svg">
<path d="M19.9399 0.984985H4.06989C2.86989 0.984985 1.88989 1.96499 1.88989 3.16499V14.855C1.88989 15.545 2.18989 16.215 2.70989 16.685C3.01989 16.955 3.24989 17.115 3.44989 17.235C3.91989 17.525 4.55989 17.785 5.38989 18.025C5.92989 18.185 6.58989 18.345 7.41989 18.515C7.78989 18.585 8.14989 18.655 8.46989 18.715L8.09989 20.755V20.905C8.03989 21.955 8.41989 23.015 9.14989 23.795C9.87989 24.575 10.9099 25.015 11.9899 25.015C13.0699 25.015 14.0999 24.565 14.8299 23.795C15.5699 23.015 15.9499 21.965 15.8899 20.815L15.5299 18.735C15.8499 18.685 16.1999 18.625 16.5699 18.545C17.3499 18.395 18.0299 18.245 18.5999 18.095C19.4599 17.855 20.0699 17.625 20.5299 17.365C20.7399 17.245 20.9699 17.075 21.2399 16.845C21.7899 16.375 22.1099 15.705 22.1099 14.985V3.16499C22.1099 1.96499 21.1299 0.984985 19.9299 0.984985H19.9399ZM12.9999 6.89499C13.6599 6.89499 14.1899 6.36499 14.1899 5.70499V5.64499C14.1899 5.20499 14.5499 4.85499 14.9799 4.85499C15.4099 4.85499 15.7699 5.21499 15.7699 5.64499V7.35499C15.7699 8.01499 16.2999 8.54499 16.9599 8.54499C17.6199 8.54499 18.1499 8.01499 18.1499 7.35499V3.36499H19.7399V11.895H4.26989V3.36499H11.8099V5.70499C11.8099 6.36499 12.3399 6.89499 12.9999 6.89499ZM19.7399 14.275V14.985L19.7199 15.025C19.6299 15.105 19.4699 15.225 19.3199 15.305C19.0599 15.455 18.6099 15.625 17.9699 15.805C17.4999 15.935 16.8999 16.065 16.1199 16.215C15.5099 16.335 14.9399 16.415 14.4899 16.495L12.8499 16.745L13.5099 21.025C13.5399 21.435 13.3899 21.855 13.0999 22.155C12.8199 22.445 12.4199 22.605 11.9899 22.605C11.5599 22.605 11.1599 22.435 10.8899 22.155C10.6099 21.855 10.4499 21.435 10.4799 21.035C10.4799 20.995 10.5099 20.875 10.5399 20.695C10.5799 20.475 10.6299 20.185 10.6899 19.875L11.2499 16.765L9.53989 16.485C9.08989 16.415 8.49989 16.305 7.90989 16.175C7.19989 16.025 6.56989 15.875 6.05989 15.735C5.41989 15.545 4.96989 15.375 4.70989 15.215C4.57989 15.135 4.44989 15.035 4.35989 14.955L4.27989 14.855V14.275H19.7499H19.7399Z" fill="#EFEFEF"/>
</svg>
