<?xml version="1.0" encoding="UTF-8"?>
<svg width="24px" height="24px" viewBox="0 0 24 24" version="1.1" xmlns="http://www.w3.org/2000/svg" xmlns:xlink="http://www.w3.org/1999/xlink">
    <title>icon/creator</title>
    <g id="icon/creator" stroke="none" stroke-width="1" fill="none" fill-rule="evenodd">
        <g id="Group-7" transform="translate(4.000000, 0.000000)" fill="#FFFFFF">
            <path d="M9.48187056,22.2865241 L6.44990237,22.2865241 L3.8398595,22.2865241 C3.69309018,22.2865241 3.5454455,22.2844816 3.3980926,22.2827309 L3.3980926,19.9583484 L3.59183978,19.9583484 L6.09946509,19.9583484 L9.13143328,19.9583484 L11.7414761,19.9583484 C11.8873701,19.9583484 12.0338476,19.9603909 12.1803252,19.9621416 L12.1803252,22.2865241 L11.9894959,22.2865241 L9.48187056,22.2865241 Z M1.75124163,9.97949358 C1.74277978,9.99641728 1.72673144,10.0142163 1.71185026,10.03114 C1.73140005,10.0063381 1.75007448,9.9815361 1.75124163,9.97949358 L1.75124163,9.97949358 Z M5.78900275,6.91630409 C6.18991934,6.21397058 6.57041078,5.4990902 6.93456209,4.77574797 L6.93456209,8.00204691 L6.93456209,10.842894 C6.93456209,11.0821601 6.93251958,11.3223016 6.93135242,11.5627348 C6.63081088,11.6884954 6.35886454,11.8790329 6.15373764,12.1282198 C5.84298351,12.5069605 5.66645183,12.9288858 5.62647688,13.4187977 C5.59525558,13.8348873 5.70905286,14.2821981 5.9229334,14.6384712 C6.13097818,14.9833645 6.44727628,15.2909089 6.81755514,15.4618967 C7.27361965,15.6728593 7.73522812,15.7271319 8.23097578,15.6358022 C9.21692714,15.4563527 9.90642197,14.5074584 9.92071958,13.5387225 C9.90758912,12.6788236 9.4060057,11.9432262 8.64414747,11.5875368 L8.64414747,11.1136732 L8.64414747,8.3980031 L8.64414747,5.0984654 L8.64414747,4.60651098 C9.53468417,6.36890996 10.5042954,8.0939601 11.6104634,9.72884777 C12.2949978,10.742519 13.0364309,11.7243853 13.8566467,12.6338882 C13.7157132,13.5209235 13.468277,14.3968708 13.2374728,15.2626055 C12.9699033,16.2587694 12.6880361,17.2493894 12.3977072,18.2403011 L11.9894959,18.2403011 L9.48187056,18.2403011 L6.44990237,18.2403011 L3.8398595,18.2403011 C3.62189393,18.2403011 3.403053,18.2367997 3.18362849,18.235049 C3.0747916,17.8627276 2.96537113,17.4904062 2.85974391,17.1175013 C2.55190766,16.0262145 2.24990717,14.9320098 1.98496375,13.8293433 C1.8918834,13.4354296 1.79851127,13.0394734 1.73140005,12.639724 C3.30705477,10.9065038 4.63206368,8.94452186 5.78900275,6.91630409 L5.78900275,6.91630409 Z M8.04627404,13.8818651 C8.00484015,13.9072507 7.9601966,13.9279676 7.91701199,13.9507271 C7.88841678,13.9588971 7.8589462,13.967359 7.83005919,13.9740701 C7.78745816,13.9758208 7.74485712,13.9758208 7.70254788,13.9737783 C7.67482802,13.9670672 7.64739996,13.9588971 7.62026368,13.9507271 C7.58233126,13.9305937 7.54381525,13.9125028 7.50559104,13.8912023 C7.49012628,13.8774883 7.4749533,13.8637743 7.45861318,13.8491849 C7.44723345,13.8378051 7.43672909,13.8246747 7.42593294,13.8124196 C7.40054739,13.7709857 7.37983045,13.7266339 7.35736278,13.6834493 C7.34890093,13.6545623 7.34043908,13.6253835 7.33372796,13.5964965 C7.33197723,13.5538955 7.33226902,13.5112945 7.33431153,13.4686934 C7.34073086,13.4412654 7.34890093,13.4138373 7.35707099,13.3864092 C7.37720435,13.3484768 7.3952952,13.3099608 7.41659572,13.2717366 C7.43030975,13.2565636 7.44431557,13.2413906 7.45861318,13.2250505 C7.46999291,13.2136708 7.48312337,13.2028746 7.49537846,13.1923703 C7.53681234,13.1669847 7.5811641,13.1462678 7.62434872,13.1238001 C7.65323572,13.1150465 7.68241451,13.1068764 7.7115933,13.1001653 C7.72764164,13.0995817 7.74398176,13.097831 7.76003009,13.0975392 C7.76995088,13.0975392 7.7792881,13.1001653 7.78920889,13.0998735 C7.79271034,13.0995817 7.79592001,13.0987064 7.79942146,13.0984146 C7.81255192,13.0987064 7.82597416,13.0998735 7.83910462,13.1007489 C7.86653268,13.1068764 7.89425253,13.1150465 7.92138881,13.1235083 C7.95932124,13.1433499 7.99783724,13.1617325 8.03576967,13.1830331 C8.05123443,13.1967471 8.0664074,13.2107529 8.08274752,13.2250505 C8.09412725,13.2364303 8.10463162,13.2492689 8.11542777,13.261524 C8.14081332,13.3032497 8.16182205,13.3476014 8.18428972,13.3907861 C8.19245978,13.4193813 8.20092163,13.4488519 8.20763275,13.4780306 C8.20850811,13.498164 8.21113421,13.5185892 8.21113421,13.5387225 C8.21113421,13.5606066 8.20850811,13.5830743 8.20734096,13.6052502 C8.20062984,13.63297 8.19275157,13.6606899 8.18458151,13.6875344 C8.16415635,13.7254668 8.14635729,13.7639828 8.12505677,13.802207 C8.11105095,13.8176718 8.09733692,13.8328447 8.08274752,13.8491849 C8.0713678,13.8605646 8.05852913,13.871069 8.04627404,13.8818651 L8.04627404,13.8818651 Z M15.5061238,11.9782408 C15.4670242,11.895373 15.4168367,11.8151313 15.3488501,11.7433515 C14.9870331,11.358775 14.6450577,10.959901 14.314462,10.5493554 C14.2292599,10.4440199 14.1463921,10.3386845 14.0638161,10.2304312 C14.0807398,10.2514399 14.091536,10.2651539 14.1029157,10.2797433 C14.0827824,10.2537742 14.06119,10.2260544 14.0495185,10.2102978 C14.0098354,10.1563171 13.9669426,10.1020445 13.9269676,10.0480637 C13.7588978,9.82280347 13.5937458,9.59491712 13.4312199,9.36411288 C12.7986238,8.46657326 12.2144644,7.53752055 11.661818,6.59154414 C10.7555248,5.03864887 9.93209931,3.43702503 9.17987007,1.80709775 C8.98320502,1.37992025 8.78945785,0.949533081 8.6070904,0.51651982 C8.62313874,0.554160461 8.6386035,0.592384677 8.65465183,0.630317105 C8.58170485,0.454952571 8.50759072,0.314894373 8.35060883,0.194385965 C8.28437297,0.143323081 8.21142599,0.103056349 8.13439398,0.0721268305 C8.0278914,0.0228146734 7.91117623,-0.00461339027 7.78920889,0.000638792141 C7.71042615,0.00384845917 7.63514487,0.0201885822 7.56219789,0.0420726756 C7.52864228,0.0508263129 7.49567025,0.0610388899 7.46444894,0.073877558 C7.46007212,0.0756282854 7.45598709,0.0776708008 7.45161027,0.0797133162 C7.40842566,0.0983877425 7.36757535,0.120563624 7.32876756,0.145949172 C7.3182632,0.152952082 7.30834241,0.159954992 7.29812983,0.166957902 C7.27449501,0.184173389 7.25173555,0.202264239 7.23014325,0.221814029 C7.1466919,0.293302068 7.07782996,0.379671289 7.02735065,0.478587391 C7.01976416,0.492593211 7.01130231,0.505723667 7.00400761,0.520021275 C7.00342404,0.521772002 7.00254868,0.52352273 7.0019651,0.524981669 C6.98358246,0.562038734 6.96636697,0.599679375 6.95148579,0.639070743 C6.87678809,0.834860432 6.79567105,1.02802403 6.71572116,1.22031226 C6.25732235,2.29905217 5.75603072,3.35649156 5.21914096,4.39729904 C4.41263917,5.95603007 3.5235614,7.47216006 2.52331244,8.91388413 C2.25545114,9.2984606 1.97912799,9.67457521 1.69696908,10.0480637 C1.65991201,10.0935827 1.62577283,10.1391016 1.58871576,10.1875384 C1.51197554,10.284412 1.43494353,10.3812855 1.35499365,10.4781591 C1.20705717,10.6605266 1.05591104,10.8399761 0.904764898,11.0167996 C0.748074789,11.1991671 0.588466801,11.3786166 0.426232723,11.5554401 C0.292302071,11.7007505 0.14990957,11.8346811 0.0728775616,12.0225925 C0.01860501,12.1536053 -0.00707232619,12.2904538 0.00168131115,12.4302203 C0.0159789188,12.6724042 0.0556620748,12.9145882 0.0985548978,13.1538543 C0.30922577,14.3449325 0.645657232,15.5161692 0.964873208,16.6815701 C1.19771996,17.5277551 1.42910777,18.379484 1.68850723,19.2210003 L1.68850723,22.6369614 L1.68850723,23.1414627 C1.68850723,23.6030712 2.07891945,23.9961095 2.54344581,23.9961095 L3.58921368,23.9961095 L6.09654721,23.9961095 L9.1285154,23.9961095 L11.7385583,23.9961095 C12.1631097,23.9961095 12.590579,24.0048631 13.0180483,23.9961095 L13.0352637,23.9961095 C13.4825746,23.9961095 13.9100439,23.6030712 13.8899105,23.1414627 L13.8899105,19.5994492 L13.8899105,19.233839 C14.0789891,18.6024099 14.2613566,17.9709809 14.4428486,17.3369258 C14.7734443,16.1715249 15.0982043,15.0032061 15.3631477,13.8235075 C15.4687749,13.3476014 15.5968698,12.8404741 15.5998034,12.3502704 C15.6006631,12.2204247 15.5647732,12.0940806 15.5061238,11.9782408 L15.5061238,11.9782408 Z" id="Fill-3"></path>
        </g>
    </g>
</svg>