<svg width="24" height="24" viewBox="0 0 24 24" fill="none" xmlns="http://www.w3.org/2000/svg">
<path fill-rule="evenodd" clip-rule="evenodd" d="M1.28571 8.92857C1.28571 10.9477 2.21659 12.7494 3.67259 13.928C1.46894 15.2861 0 17.7215 0 20.5H2.57143C2.57143 17.6597 4.87396 15.3571 7.71429 15.3571C10.5546 15.3571 12.8571 17.6597 12.8571 20.5H15.4286C15.4286 17.7215 13.9596 15.2861 11.756 13.928C13.212 12.7494 14.1429 10.9477 14.1429 8.92857C14.1429 5.37817 11.2647 2.5 7.71429 2.5C4.16388 2.5 1.28571 5.37817 1.28571 8.92857ZM11.5714 8.92857C11.5714 11.0588 9.84453 12.7857 7.71429 12.7857C5.58404 12.7857 3.85714 11.0588 3.85714 8.92857C3.85714 6.79833 5.58404 5.07143 7.71429 5.07143C9.84453 5.07143 11.5714 6.79833 11.5714 8.92857ZM24.0029 13.9502C24.0029 13.3628 23.5517 12.8807 22.977 12.8316L22.8802 12.8275H20.9879V10.9352L20.9837 10.8383C20.9346 10.2636 20.4526 9.8125 19.8652 9.8125C19.2451 9.8125 18.7425 10.3152 18.7425 10.9352V12.8275H16.8502C16.2302 12.8275 15.7275 13.3302 15.7275 13.9502C15.7275 14.5376 16.1787 15.0197 16.7534 15.0688L16.8502 15.0729H18.7425V16.9651L18.7466 17.062C18.7957 17.6367 19.2777 18.0878 19.8652 18.0878C20.4852 18.0878 20.9879 17.5852 20.9879 16.9651V15.0729H22.8802C23.5002 15.0729 24.0029 14.5703 24.0029 13.9502Z" fill="#EFEFEF"/>
</svg>
