<?xml version="1.0" encoding="UTF-8"?>
<svg width="24px" height="24px" viewBox="0 0 24 24" version="1.1" xmlns="http://www.w3.org/2000/svg" xmlns:xlink="http://www.w3.org/1999/xlink">
    <title>icon/person</title>
    <g id="icon/person" stroke="none" stroke-width="1" fill="none" fill-rule="evenodd">
        <g id="元" transform="translate(2.111895, 2.000000)" fill="#FFFFFF">
            <path d="M9.88810494,0 C13.7540982,0 16.8881049,3.13400675 16.8881049,7 C16.8881049,9.33570425 15.7441381,11.4042207 13.985925,12.6758287 L13.8109596,12.7987687 C16.942629,14.1356416 19.2532244,17.024577 19.7762099,20.4990387 L16.9826011,20.4993171 C16.2914107,17.2153529 13.3776648,14.75 9.88810494,14.75 C6.39854507,14.75 3.4847992,17.2153529 2.79360882,20.4993171 L2.2759572e-15,20.4990387 C0.52298547,17.024577 2.83358092,14.1356416 5.96525024,12.7987687 L5.79028486,12.6758287 C4.03207181,11.4042207 2.88810494,9.33570425 2.88810494,7 C2.88810494,3.13400675 6.02211169,0 9.88810494,0 Z M9.88810494,2.75 C7.54089475,2.75 5.63810494,4.65278981 5.63810494,7 C5.63810494,9.34721019 7.54089475,11.25 9.88810494,11.25 C12.2353151,11.25 14.1381049,9.34721019 14.1381049,7 C14.1381049,4.65278981 12.2353151,2.75 9.88810494,2.75 Z" id="Combined-Shape"></path>
        </g>
    </g>
</svg>