<svg width="24" height="24" viewBox="0 0 24 24" fill="none" xmlns="http://www.w3.org/2000/svg">
<path fill-rule="evenodd" clip-rule="evenodd" d="M7.85572 1.75528C9.96216 1.75528 11.7951 2.9264 12.7389 4.65306C12.0738 4.9835 11.4636 5.40772 10.9255 5.90841C10.3918 4.74669 9.21795 3.94 7.85574 3.94C5.99097 3.94 4.47927 5.4517 4.47927 7.31647C4.47927 9.18124 5.99097 10.6929 7.85574 10.6929C8.0877 10.6929 8.3142 10.6695 8.53301 10.625C8.4989 10.9184 8.48136 11.2169 8.48136 11.5195C8.48136 12.2199 8.57547 12.8984 8.75157 13.5428C8.45965 13.4973 8.16047 13.4736 7.85577 13.4736C5.08325 13.4736 2.76826 15.4325 2.21934 18.0418H0C0.415341 15.281 2.25128 12.9855 4.73965 11.9234C3.26414 10.9234 2.29449 9.23322 2.29449 7.31652C2.29449 4.24513 4.78434 1.75528 7.85572 1.75528ZM10.5828 11.5195C10.5828 9.4533 11.7096 7.6503 13.3822 6.69143C14.196 6.22494 15.1389 5.95824 16.1441 5.95824C19.2155 5.95824 21.7053 8.44809 21.7053 11.5195C21.7053 13.4361 20.7357 15.1263 19.2602 16.1263C21.7487 17.1884 23.5847 19.4839 24 22.2447H21.7806C21.2316 19.6355 18.9166 17.6765 16.1441 17.6765C15.9784 17.6765 15.8142 17.6836 15.652 17.6973C15.1177 17.7425 14.6041 17.8606 14.1213 18.0418C12.2993 18.7253 10.9157 20.3054 10.5077 22.2447H8.28836C8.6896 19.5777 10.4166 17.3449 12.7769 16.2388C12.8598 16.1999 12.9435 16.1624 13.028 16.1264C12.4098 15.7074 11.8805 15.1674 11.474 14.5402C10.9102 13.6704 10.5828 12.6332 10.5828 11.5195ZM12.7676 11.5194C12.7676 9.65465 14.2793 8.14295 16.1441 8.14295C18.0089 8.14295 19.5206 9.65465 19.5206 11.5194C19.5206 13.3842 18.0089 14.8959 16.1441 14.8959C14.2793 14.8959 12.7676 13.3842 12.7676 11.5194Z" fill="white"/>
</svg>
