<svg width="24" height="24" viewBox="0 0 24 24" fill="none" xmlns="http://www.w3.org/2000/svg">
<path fill-rule="evenodd" clip-rule="evenodd" d="M2.28571 8.92857C2.28571 10.9477 3.21659 12.7494 4.67259 13.928C2.46894 15.2861 1 17.7215 1 20.5H3.57143C3.57143 17.6597 5.87396 15.3571 8.71429 15.3571C11.5546 15.3571 13.8571 17.6597 13.8571 20.5H16.4286C16.4286 17.7215 14.9596 15.2861 12.756 13.928C14.212 12.7494 15.1429 10.9477 15.1429 8.92857C15.1429 5.37817 12.2647 2.5 8.71429 2.5C5.16388 2.5 2.28571 5.37817 2.28571 8.92857ZM12.5714 8.92857C12.5714 11.0588 10.8445 12.7857 8.71429 12.7857C6.58404 12.7857 4.85714 11.0588 4.85714 8.92857C4.85714 6.79833 6.58404 5.07143 8.71429 5.07143C10.8445 5.07143 12.5714 6.79833 12.5714 8.92857ZM16.4143 14.0607C16.4115 14.3201 16.5091 14.5805 16.7071 14.7784C16.7491 14.8204 16.7938 14.8578 16.8408 14.8908L18.8284 16.8784C19.219 17.269 19.8521 17.269 20.2426 16.8784C20.6332 16.4879 20.6332 15.8547 20.2426 15.4642L19.8142 15.0358H22C22.5523 15.0358 23 14.5881 23 14.0358C23 13.4835 22.5523 13.0358 22 13.0358H19.864L20.2426 12.6571C20.6332 12.2666 20.6332 11.6334 20.2426 11.2429C19.8521 10.8524 19.219 10.8524 18.8284 11.2429L16.8408 13.2306C16.7938 13.2635 16.7491 13.3009 16.7071 13.3429C16.5091 13.5409 16.4115 13.8012 16.4143 14.0607Z" fill="#EFEFEF"/>
</svg>
