<?xml version="1.0" encoding="UTF-8"?>
<svg width="24px" height="24px" viewBox="0 0 24 24" version="1.1" xmlns="http://www.w3.org/2000/svg" xmlns:xlink="http://www.w3.org/1999/xlink">
    <title>icon/pin</title>
    <g id="icon/pin" stroke="none" stroke-width="1" fill="none" fill-rule="evenodd">
        <path d="M3.22233015,16.3925873 L9.4599952,16.3925873 L10.1771599,24.9485289 L11.7198979,24.9485289 L12.4370626,16.3925873 L18.6747277,16.3925873 L18.6747277,15.6170487 C18.6747277,13.7490848 17.3488069,12.1896686 15.5892516,11.8310862 L15.5892516,5.57674294 L17.1319896,5.57674294 L17.1319896,4.8095435 C17.1319896,2.68306678 15.3974518,0.948528903 13.270975,0.948528903 L8.63442188,0.948528903 C6.50794516,0.948528903 4.77340729,2.68306678 4.77340729,4.8095435 L4.77340729,5.58508206 L6.3161453,5.58508206 L6.3161453,11.8394254 C4.55659006,12.1980077 3.23066928,13.757424 3.23066928,15.6253878 L3.23066928,16.3925873 L3.22233015,16.3925873 Z M7.08334475,13.2987721 L7.85888332,13.2987721 L7.85888332,4.03400493 L6.44123217,4.03400493 C6.7581189,3.13337949 7.61704871,2.49126692 8.62608276,2.49126692 L13.2626359,2.49126692 C14.27167,2.49126692 15.1305998,3.13337949 15.4474865,4.03400493 L14.0298354,4.03400493 L14.0298354,13.2987721 L14.8053739,13.2987721 C15.814408,13.2987721 16.6733378,13.9408847 16.9902245,14.8415101 L4.89849416,14.8415101 C5.21538088,13.9492238 6.0743107,13.2987721 7.08334475,13.2987721 Z" id="Shape" fill="#FFFFFF" transform="translate(10.948529, 12.948529) rotate(45.000000) translate(-10.948529, -12.948529) "></path>
    </g>
</svg>