<svg width="24" height="24" viewBox="0 0 24 24" fill="none" xmlns="http://www.w3.org/2000/svg">
<path d="M20.75 8C20.75 5.37665 18.6234 3.25 16 3.25H8C5.37665 3.25 3.25 5.37665 3.25 8V16C3.25 18.6234 5.37665 20.75 8 20.75H16C18.6234 20.75 20.75 18.6234 20.75 16V8ZM23.25 16C23.25 20.0041 20.0041 23.25 16 23.25H8C3.99594 23.25 0.75 20.0041 0.75 16V8C0.75 3.99594 3.99594 0.75 8 0.75H16C20.0041 0.75 23.25 3.99594 23.25 8V16Z" fill="#EFEFEF"/>
<path d="M16.1219 11.1672C16.7172 11.5628 16.7172 12.4372 16.1219 12.8328L10.866 16.326C10.2014 16.7678 9.3125 16.2912 9.3125 15.4932V8.50681C9.3125 7.70875 10.2014 7.23223 10.866 7.67398L16.1219 11.1672Z" fill="#EFEFEF"/>
</svg>
