<svg width="48" height="48" viewBox="0 0 48 48" fill="none" xmlns="http://www.w3.org/2000/svg">
<g id="plus">
<path id="Combined Shape" fill-rule="evenodd" clip-rule="evenodd" d="M40.1441 20.0147C42.1917 20.1896 43.799 21.9071 43.799 24C43.799 26.2091 42.0081 28 39.799 28H28L28 39.799C28 42.0081 26.2091 43.799 24 43.799C21.9071 43.799 20.1897 42.1917 20.0147 40.1441L20 39.799L20 28L8.20101 28L7.85587 27.9853C5.80832 27.8103 4.20101 26.0928 4.20101 24C4.20101 21.7908 5.99187 20 8.20101 20H20L20 8.20098C20 5.99184 21.7909 4.20098 24 4.20098C26.0929 4.20098 27.8103 5.80829 27.9853 7.85585L28 8.20098L28 20L39.799 20L40.1441 20.0147Z" fill="white"/>
</g>
</svg>
