<svg width="24" height="24" viewBox="0 0 24 24" fill="none" xmlns="http://www.w3.org/2000/svg">
<path fill-rule="evenodd" clip-rule="evenodd" d="M2.225 4.2375H21.775C21.9338 4.2375 22.0625 4.36622 22.0625 4.525V19.475C22.0625 19.6338 21.9338 19.7625 21.775 19.7625H2.225C2.06622 19.7625 1.9375 19.6338 1.9375 19.475V4.525C1.9375 4.36622 2.06622 4.2375 2.225 4.2375ZM0.5 4.525C0.5 3.57231 1.27231 2.8 2.225 2.8H21.775C22.7277 2.8 23.5 3.57231 23.5 4.525V19.475C23.5 20.4277 22.7277 21.2 21.775 21.2H2.225C1.27231 21.2 0.5 20.4277 0.5 19.475V4.525ZM19.475 6.825H4.52499V17.175H19.475V6.825Z" fill="#EFEFEF"/>
</svg>
