<svg width="48" height="48" viewBox="0 0 48 48" fill="none" xmlns="http://www.w3.org/2000/svg">
<g id="profile">
<g id="Subtract">
<path fill-rule="evenodd" clip-rule="evenodd" d="M4.45059 18.2529C4.45059 22.1014 6.22485 25.5355 9 27.7818C4.79982 30.3704 2.00001 35.0123 2 40.3082H6.90119C6.90119 34.8972 11.2856 30.5102 16.6956 30.5059L16.7181 30.5059C22.1251 30.5137 26.5059 34.8994 26.5059 40.3082L31.407 40.3082C31.407 35.0123 28.6072 30.3704 24.407 27.7818C27.1822 25.5355 28.9565 22.1014 28.9565 18.2529C28.9565 11.4858 23.4706 6 16.7035 6C9.93642 6 4.45059 11.4858 4.45059 18.2529ZM16.7035 25.6047C20.7638 25.6047 24.0553 22.3132 24.0553 18.2529C24.0553 14.1927 20.7638 10.9012 16.7035 10.9012C12.6433 10.9012 9.35178 14.1927 9.35178 18.2529C9.35178 22.3132 12.6433 25.6047 16.7035 25.6047Z" fill="#FAFAFB"/>
<path d="M33.4071 10.9012C32.3025 10.9012 31.4071 11.7966 31.4071 12.9012V13.8024C31.4071 14.9069 32.3025 15.8024 33.4071 15.8024H44.1106C45.2152 15.8024 46.1106 14.9069 46.1106 13.8024V12.9012C46.1106 11.7966 45.2152 10.9012 44.1106 10.9012H33.4071Z" fill="#FAFAFB"/>
<path d="M33.4071 20.7035C32.3025 20.7035 31.4071 21.599 31.4071 22.7035V23.6047C31.4071 24.7093 32.3025 25.6047 33.4071 25.6047H44.1106C45.2152 25.6047 46.1106 24.7093 46.1106 23.6047V22.7035C46.1106 21.599 45.2152 20.7035 44.1106 20.7035H33.4071Z" fill="#FAFAFB"/>
<path d="M35.8577 30.5059C34.7531 30.5059 33.8577 31.4013 33.8577 32.5059V33.407C33.8577 34.5116 34.7531 35.407 35.8577 35.407H44.1106C45.2152 35.407 46.1106 34.5116 46.1106 33.407V32.5059C46.1106 31.4013 45.2152 30.5059 44.1106 30.5059H35.8577Z" fill="#FAFAFB"/>
</g>
</g>
</svg>
