<svg width="24" height="24" viewBox="0 0 24 24" fill="none" xmlns="http://www.w3.org/2000/svg">
<path fill-rule="evenodd" clip-rule="evenodd" d="M21.5 12C21.5 17.2467 17.2467 21.5 12 21.5C9.76786 21.5 7.71552 20.7302 6.09401 19.4415L19.4415 6.09401C20.7302 7.71552 21.5 9.76786 21.5 12ZM4.3569 17.6431L17.6431 4.3569C16.0652 3.18996 14.1132 2.5 12 2.5C6.75329 2.5 2.5 6.75329 2.5 12C2.5 14.1132 3.18996 16.0652 4.3569 17.6431ZM24 12C24 18.6274 18.6274 24 12 24C5.37258 24 0 18.6274 0 12C0 5.37258 5.37258 0 12 0C18.6274 0 24 5.37258 24 12Z" fill="#EFEFEF"/>
</svg>
