<svg width="24" height="24" viewBox="0 0 24 24" fill="none" xmlns="http://www.w3.org/2000/svg">
<path fill-rule="evenodd" clip-rule="evenodd" d="M4 0.500671C2.34315 0.500671 1 1.84382 1 3.50067V12.5007H3V3.50067C3 2.94839 3.44772 2.50067 4 2.50067H20C20.5523 2.50067 21 2.94839 21 3.50067V12.5007H23V3.50067C23 1.84382 21.6569 0.500671 20 0.500671H4ZM13.832 8.31432L11.5705 9.93882C11.3248 10.1009 11 9.92194 11 9.6245V6.3755C11 6.07806 11.3248 5.89908 11.5705 6.06118L13.832 7.68568C14.056 7.83351 14.056 8.16649 13.832 8.31432ZM12.0018 12.25C14.3034 12.25 16.1692 14.1158 16.1692 16.4174C16.1692 17.7268 15.5653 18.8952 14.6208 19.6592C15.9784 20.4939 16.9062 21.9608 16.9956 23.6502L17.0027 23.9188H15.3357C15.3357 22.0775 13.8431 20.5848 12.0018 20.5848C10.2263 20.5848 8.77492 21.9728 8.67352 23.7229L8.66786 23.9188H7.00089C7.00089 22.117 7.95372 20.5378 9.38297 19.6576C8.43827 18.8952 7.83437 17.7268 7.83437 16.4174C7.83437 14.1158 9.70019 12.25 12.0018 12.25ZM6.28648 13.917C6.5814 13.917 6.86797 13.9527 7.1421 14.0201C6.88031 14.5502 6.70299 15.1273 6.62661 15.7359C6.51726 15.7142 6.40318 15.703 6.28648 15.703C5.30008 15.703 4.50045 16.5026 4.50045 17.489C4.50045 18.4754 5.30008 19.2751 6.28648 19.2751C6.6372 19.2751 6.96431 19.174 7.24026 18.9993C7.30895 19.1299 7.38567 19.2583 7.46778 19.3836L7.56099 19.5188L7.44803 19.636C6.95342 20.1621 6.55694 20.7651 6.27195 21.4177L6.28648 21.4183C4.96306 21.4183 3.87978 22.4464 3.7918 23.7476L3.78603 23.9188H2C2 22.3747 2.81644 21.0213 4.04117 20.2667C3.23142 19.6116 2.71441 18.6107 2.71441 17.489C2.71441 15.5162 4.31368 13.917 6.28648 13.917ZM17.7135 13.917C19.6863 13.917 21.2856 15.5162 21.2856 17.489C21.2856 18.6112 20.7681 19.6126 19.9587 20.2674C21.1155 20.9793 21.908 22.2261 21.9925 23.6632L22 23.9188H20.214C20.214 22.5434 19.1035 21.4274 17.7303 21.4184C17.4505 20.7769 17.0655 20.1866 16.5882 19.6714L16.4409 19.5196L16.5328 19.3875C16.6156 19.2612 16.6929 19.1319 16.7646 18.9999C17.0366 19.1742 17.3633 19.2751 17.7135 19.2751C18.6999 19.2751 19.4996 18.4754 19.4996 17.489C19.4996 16.5026 18.6999 15.703 17.7135 15.703C17.5984 15.703 17.4857 15.7139 17.3767 15.7347C17.3003 15.1262 17.1229 14.5491 16.8618 14.0206C17.1336 13.9525 17.4194 13.917 17.7135 13.917ZM12.0018 13.917C10.6208 13.917 9.50134 15.0365 9.50134 16.4174C9.50134 17.7984 10.6208 18.9179 12.0018 18.9179C13.3827 18.9179 14.5022 17.7984 14.5022 16.4174C14.5022 15.0365 13.3827 13.917 12.0018 13.917Z" fill="white"/>
</svg>
