<?xml version="1.0" encoding="UTF-8"?>
<svg width="24px" height="24px" viewBox="0 0 24 24" version="1.1" xmlns="http://www.w3.org/2000/svg" xmlns:xlink="http://www.w3.org/1999/xlink">
    <title>icon/question</title>
    <g id="icon/question" stroke="none" stroke-width="1" fill="none" fill-rule="evenodd">
        <path d="M12,0 C5.3725145,0 0,5.3725145 0,12 C0,18.6272454 5.3725145,24 12,24 C18.6274855,24 24,18.6272454 24,12 C24,5.3725145 18.6274855,0 12,0 Z M13.274895,17.5160632 C13.274895,18.4877776 12.5261852,19.2362472 11.5141428,19.2362472 C10.5018604,19.2362472 9.75315063,18.4877776 9.75315063,17.5160632 L9.75315063,17.4754951 C9.75315063,16.5037808 10.5018604,15.754831 11.5141428,15.754831 C12.5261852,15.754831 13.274895,16.5037808 13.274895,17.4754951 L13.274895,17.5160632 Z M16.8177636,8.99387878 C16.8177636,11.5645529 15.0363673,12.6176435 12.8303261,13.0629326 L12.7695939,13.7974795 C12.6882176,14.3234247 12.2630926,14.7891178 11.6761752,14.7891178 L10.9980396,14.7891178 C10.4108822,14.7891178 9.98575715,14.3440688 9.90510102,13.7974795 L9.90510102,12.0506501 C9.80380076,11.3825965 10.5018604,10.9166633 11.15023,10.8357672 C12.9109822,10.6134827 13.7206641,10.0668934 13.7206641,9.075015 L13.7206641,9.03444689 C13.7206641,8.12370474 13.0324465,7.59727946 11.8581316,7.59727946 C10.9879576,7.59727946 10.2390078,7.86061212 9.51046209,8.40696139 C9.26729346,8.58915783 8.94346869,8.73102621 8.59923985,8.73102621 C7.83012603,8.73102621 7.18223645,8.08289658 7.18223645,7.31426285 C7.18223645,6.92922585 7.34426885,6.5245049 7.70890178,6.22084417 C8.78167634,5.3305061 10.1377075,4.76327265 11.9188638,4.76327265 C14.8340068,4.76327265 16.8177636,6.26117223 16.8177636,8.95331066 L16.8177636,8.99387878 Z" id="Shape" fill="#FFFFFF"></path>
    </g>
</svg>