<svg width="24" height="24" viewBox="0 0 24 24" fill="none" xmlns="http://www.w3.org/2000/svg">
<path d="M12 0C18.6274 0 24 5.37258 24 12C24 18.6274 18.6274 24 12 24C5.37258 24 0 18.6274 0 12C0 5.37258 5.37258 0 12 0ZM12 2C6.47715 2 2 6.47715 2 12C2 17.5228 6.47715 22 12 22C17.5228 22 22 17.5228 22 12C22 6.47715 17.5228 2 12 2ZM11.5479 15.4951C12.4897 15.4951 13.1865 16.1923 13.1865 17.0967V17.1338C13.1865 18.0382 12.4897 18.7353 11.5479 18.7354C10.6057 18.7354 9.90918 18.0382 9.90918 17.1338V17.0967C9.90918 16.1923 10.6057 15.4951 11.5479 15.4951ZM11.9248 5.26465C14.6378 5.26475 16.4844 6.65956 16.4844 9.16504V9.20215C16.4844 11.5947 14.8256 12.5748 12.7725 12.9893L12.7158 13.6729C12.6401 14.1623 12.2445 14.5957 11.6982 14.5957H11.0674C10.521 14.5957 10.1249 14.1815 10.0498 13.6729V12.0479C9.95553 11.4262 10.6056 10.9923 11.209 10.917C12.8475 10.7101 13.6014 10.2012 13.6016 9.27832V9.24023C13.6016 8.39266 12.961 7.9024 11.8682 7.90234C11.0583 7.90234 10.3607 8.14776 9.68262 8.65625C9.45634 8.82572 9.15519 8.958 8.83496 8.95801C8.11929 8.95801 7.51685 8.35482 7.5166 7.63965C7.5166 7.2813 7.66651 6.90371 8.00586 6.62109C9.00429 5.79246 10.2671 5.26465 11.9248 5.26465Z" fill="#EFEFEF"/>
</svg>
