<svg width="24" height="24" viewBox="0 0 24 24" fill="none" xmlns="http://www.w3.org/2000/svg">
<path d="M10.8604 2.02023C7.29279 1.72294 1 4.69591 1 11.3355C1 15.6959 3.72523 17.5292 6.2027 17.5292C8.92793 17.5292 11.0586 15.3491 11.0586 12.7725C11.0586 10.1959 8.82883 8.01573 6.4009 8.01573C4.61712 7.96618 7.14415 3.65537 10.8604 3.75447V2.02023ZM22.8018 2.02023C19.1847 1.72294 12.9414 4.69591 12.9414 11.3355C12.9414 15.6959 15.6171 17.5292 18.1441 17.5292C20.8694 17.5292 23 15.3491 23 12.7725C23 10.1959 20.7703 8.01573 18.2928 8.01573C16.5586 7.96618 19.0856 3.65537 22.8018 3.75447V2.02023Z" fill="#FAFAFB"/>
</svg>
