<?xml version="1.0" encoding="UTF-8"?>
<svg width="24px" height="24px" viewBox="0 0 24 24" version="1.1" xmlns="http://www.w3.org/2000/svg" xmlns:xlink="http://www.w3.org/1999/xlink">
    <title>icon/reply</title>
    <g id="icon/reply" stroke="none" stroke-width="1" fill="none" fill-rule="evenodd">
        <path d="M20.3490405,10.945585 C17.913305,8.42085913 14.4326829,7.09500309 9.99816441,7.00401297 L9.99816441,1.49950206 C9.99816441,1.29752399 9.87617766,1.11454386 9.68919796,1.03755222 C9.50221826,0.961560473 9.28824149,1.00255602 9.14525702,1.1455405 L0.146234122,10.1445634 C-0.0487447074,10.3395422 -0.0487447074,10.6565078 0.146234122,10.8514866 L9.14525702,19.8505095 C9.28824149,19.9944939 9.50421804,20.0374892 9.69019785,19.9584978 C9.87717755,19.8815062 9.9991643,19.698526 9.9991643,19.496548 L9.9991643,14.0010361 C21.0270739,14.1612904 23.0437479,19.7145243 23.0727448,19.7595194 C23.1657347,19.9095031 23.3277171,19.9964937 23.4976987,19.9964937 C23.5396941,19.9964937 23.5826894,19.9904943 23.6256848,19.9794955 C23.8386616,19.9225017 23.9896452,19.7345221 23.9976444,19.5135461 C24.0046436,19.2875707 24.1536274,14.8901567 20.3490405,10.945585 Z" id="Path" fill="#FFFFFF" transform="translate(12.000000, 10.498802) scale(-1, 1) translate(-12.000000, -10.498802) "></path>
    </g>
</svg>