<?xml version="1.0" encoding="UTF-8"?>
<svg width="24px" height="24px" viewBox="0 0 24 24" version="1.1" xmlns="http://www.w3.org/2000/svg" xmlns:xlink="http://www.w3.org/1999/xlink">
    <title>icon/replay</title>
    <g id="icon/replay" stroke="none" stroke-width="1" fill="none" fill-rule="evenodd">
        <path d="M21.9092567,12.9559563 C21.6315412,8.28107879 17.8360961,4.46249074 13.1612186,4.11534637 L13.1612186,1.47704918 C13.1612186,1.08361889 12.6983595,0.852189314 12.397501,1.10676185 L7.02833479,5.3650661 C6.79690521,5.55020976 6.79690521,5.92049709 7.02833479,6.10564075 L12.397501,10.340802 C12.6983595,10.5953746 13.1612186,10.363945 13.1612186,9.97051472 L13.1612186,7.42478935 C16.4475186,7.79507668 18.9469581,10.7805182 18.5766708,14.228819 C18.2758123,17.0522598 15.9846595,19.3434127 13.1612186,19.6442711 C9.64348902,20.0377014 6.61176154,17.4456901 6.31090309,14.0668183 C6.28776013,13.7659598 6.0331876,13.5345302 5.73232914,13.5345302 L3.58003406,13.5345302 C3.23288969,13.5345302 2.97831716,13.8122457 3.00146011,14.1593901 C3.34860448,19.0888401 7.44490803,23 12.4669299,23 C17.8592391,23 22.2332581,18.4408373 21.9092567,12.9559563 Z" id="Path" fill="#FFFFFF"></path>
    </g>
</svg>