<?xml version="1.0" encoding="UTF-8"?>
<svg width="24px" height="24px" viewBox="0 0 24 24" version="1.1" xmlns="http://www.w3.org/2000/svg" xmlns:xlink="http://www.w3.org/1999/xlink">
    <title>icon/rookieR</title>
    <g id="icon/rookieR" stroke="none" stroke-width="1" fill="none" fill-rule="evenodd">
        <path d="M10.5766423,22 C10.7810219,22 10.9270073,21.8540146 10.9270073,21.649635 L10.9270073,16.9781022 C10.9270073,16.8029197 11.0729927,16.6277372 11.2481752,16.6277372 L11.6861314,16.6277372 C11.9781022,16.6277372 12.0656934,16.7737226 12.1824818,17.0072993 L14.5766423,21.7080292 C14.6642336,21.8540146 14.8686131,22 15.0437956,22 L20.5036496,22 C20.6788321,22 20.7664234,21.8540146 20.6788321,21.7080292 L17.379562,15.1970803 C17.350365,15.1386861 17.379562,15.0510949 17.4379562,14.9927007 C19.5109489,13.4452555 20.2116788,11.5182482 20.2116788,8.45255474 C20.2116788,5.64963504 18.1970803,2 13.0875912,2 L5.35036496,2 C5.1459854,2 5,2.1459854 5,2.32116788 L5,21.649635 C5,21.8540146 5.1459854,22 5.35036496,22 L10.5766423,22 Z M12.2116788,11.080292 L11.0729927,11.080292 C10.9854015,11.080292 10.9270073,11.0218978 10.9270073,10.9051095 L10.9270073,7.72262774 C10.9270073,7.6350365 10.9854015,7.54741674 11.0729927,7.54741674 L12.2116788,7.54741674 C12.3868613,7.54741674 14.3138686,7.51824818 14.3138686,9.32846715 C14.3138686,11.1386861 12.3868613,11.080292 12.2116788,11.080292 Z" id="ROOKIE" fill="#FFFFFF" fill-rule="nonzero"></path>
    </g>
</svg>