<svg width="24" height="24" viewBox="0 0 24 24" fill="none" xmlns="http://www.w3.org/2000/svg">
<path fill-rule="evenodd" clip-rule="evenodd" d="M11.2716 4.47939C14.7574 4.47939 17.5832 7.3052 17.5832 10.791C17.5832 14.2768 14.7574 17.1026 11.2716 17.1026C7.78579 17.1026 4.95998 14.2768 4.95998 10.791C4.95998 7.3052 7.78579 4.47939 11.2716 4.47939ZM11.2716 2.07654C16.0845 2.07654 19.9861 5.97814 19.9861 10.791C19.9861 13.0212 19.1483 15.0557 17.7704 16.597L21.2053 20.0319C21.6744 20.5011 21.6744 21.2618 21.2053 21.731C20.7361 22.2002 19.9754 22.2002 19.5062 21.731L15.9315 18.1563C14.5838 19.0107 12.9855 19.5055 11.2716 19.5055C6.45873 19.5055 2.55713 15.6039 2.55713 10.791C2.55713 5.97814 6.45873 2.07654 11.2716 2.07654Z" fill="#EFEFEF"/>
</svg>
