<?xml version="1.0" encoding="UTF-8"?>
<svg width="24px" height="24px" viewBox="0 0 24 24" version="1.1" xmlns="http://www.w3.org/2000/svg" xmlns:xlink="http://www.w3.org/1999/xlink">
    <title>icon/setting</title>
    <g id="icon/setting" stroke="none" stroke-width="1" fill="none" fill-rule="evenodd">
        <path d="M12.0001163,1 C11.8652397,1 11.8043142,1.01029862 11.8185911,1.01029862 C11.418969,1.01383605 11.0697249,1.28091737 10.9616237,1.66565679 C10.809326,2.22229575 10.6101872,2.77040065 10.3869221,3.14779224 C10.1636248,3.52515175 9.95129995,3.68428312 9.84244254,3.71241986 C9.73474012,3.74033202 9.47374543,3.70247415 9.09635383,3.48049231 C8.71893016,3.25838213 8.2803564,2.88522548 7.87636806,2.47225391 C7.59837584,2.18284894 7.1621665,2.11289727 6.80762125,2.30086686 C5.79829203,2.84210602 4.87776839,3.53779243 4.08535192,4.3576719 C3.80937961,4.64536861 3.75600302,5.08051978 3.95426104,5.42638662 C4.24066542,5.92729753 4.47949081,6.45573559 4.58947112,6.87826787 C4.69948351,7.30083224 4.65530531,7.55996613 4.59941683,7.65464288 C4.54279045,7.75082752 4.34647495,7.90642977 3.92391058,8.01759715 C3.50134621,8.12879661 2.91644218,8.17445063 2.34093845,8.16883611 C1.94039153,8.16659711 1.58674682,8.42979253 1.47389707,8.81412023 C1.16849959,9.82232654 1,10.8886671 1,12.0001709 C1,12.1342455 1.01026654,12.2001759 1.00994571,12.1917381 C1.01347304,12.5913811 1.2805725,12.9406449 1.66533596,13.0487375 C2.22162201,13.2006181 2.77178022,13.4030294 3.14743933,13.6234713 C3.52316261,13.843881 3.67443366,14.0516501 3.7019929,14.1578447 C3.72958423,14.2640392 3.69236802,14.5162111 3.47009743,14.8938593 C3.24776268,15.2715076 2.87473436,15.7194496 2.46182696,16.1239191 C2.17723725,16.4002724 2.10757801,16.8305636 2.29043991,17.1825919 C2.83219239,18.1952257 3.52726923,19.1117069 4.34727702,19.9048292 C4.63257344,20.1841486 5.06797763,20.2416718 5.41602384,20.0460262 C5.91799347,19.7595897 6.45156481,19.5110111 6.87801121,19.400742 C7.30439345,19.2904409 7.56022279,19.3351966 7.65432205,19.3904755 C7.74986503,19.4467169 7.91753046,19.6522081 8.02738244,20.0760879 C8.13723442,20.4999676 8.17589436,21.0819521 8.16854737,21.65906 C8.16498445,22.0568186 8.4234032,22.4095697 8.80372536,22.5261014 C9.81189959,22.8314989 10.8883463,23 11.9998918,23 C12.1395167,23 12.1853632,22.9894111 12.1511307,22.9900527 C12.5507737,22.9865254 12.9000375,22.719426 13.0081301,22.3346625 C13.1618395,21.7786331 13.3679082,21.2305603 13.5929058,20.8525591 C13.8179035,20.4745259 14.0283996,20.3262706 14.1373854,20.2980056 C14.2450236,20.2700934 14.5064033,20.2980056 14.883442,20.519827 C15.2605128,20.7431884 15.6986694,21.1227937 16.1034599,21.5381715 C16.3814521,21.8275765 16.8176614,21.8975281 17.1722067,21.7095585 C18.1896208,21.166234 19.1100803,20.4642914 19.90455,19.6426474 C20.1805428,19.354932 20.2339077,18.9197438 20.0356088,18.5738685 C19.747087,18.0722197 19.5016846,17.53775 19.3903247,17.1119453 C19.2789969,16.6861085 19.3242659,16.4308887 19.380379,16.3356024 C19.438032,16.2374286 19.6390637,16.0735169 20.0659914,15.962542 C20.4928549,15.851535 21.0792989,15.8041806 21.6589734,15.811303 C22.060483,15.8194217 22.4186154,15.5600894 22.5361851,15.1760929 C22.8383742,14.1717045 22.999976,13.1031181 22.999976,12.0001067 C22.999976,11.8641071 22.9897095,11.8081224 22.9897095,11.8287197 C22.986182,11.4290893 22.7190986,11.0798334 22.3343513,10.9717299 C21.7793165,10.8191113 21.2279712,10.6202934 20.8522158,10.3969961 C20.4764926,10.173731 20.3263123,9.96256106 20.2976943,9.85254867 C20.2694614,9.74349876 20.2976943,9.48330614 20.5195158,9.10645996 C20.7399897,8.72961378 21.115713,8.2903342 21.5277542,7.88647418 C21.8171437,7.60848713 21.8870944,7.17229674 21.6991412,6.81775945 C21.157485,5.80605611 20.4625044,4.88845201 19.6423362,4.09545805 C19.3546319,3.81949628 18.9194814,3.76613284 18.5736215,3.96439925 C18.0714272,4.25134904 17.5353855,4.48943652 17.1116341,4.59960933 C16.6878826,4.70971797 16.4318929,4.66656642 16.3352591,4.60955504 C16.2355453,4.5507791 16.0832155,4.34868867 15.9723048,3.92394267 C15.8613941,3.49916457 15.8140718,2.91997131 15.8210658,2.34100262 C15.8278926,1.9367113 15.5637943,1.57767322 15.1758138,1.46379094 C14.1675113,1.15951636 13.1045073,1 11.9998276,1 L12.0001163,1 Z M12.4235469,2.8248454 C12.9807313,2.85064008 13.521008,2.92677289 14.0468473,3.04676307 C14.0705887,3.49476921 14.1143177,3.94101079 14.2283405,4.37765957 C14.4045721,5.05252415 14.7345451,5.75382508 15.4281782,6.16227296 C16.1221963,6.57104166 16.8921547,6.51877856 17.5656397,6.34376614 C17.9950698,6.2321496 18.3793914,6.01254189 18.7755515,5.81946677 C19.159103,6.24061949 19.5027112,6.6924435 19.8039379,7.18061748 C19.5112774,7.50837676 19.1903838,7.81727129 18.9670866,8.19892991 C18.6162918,8.79852793 18.3616174,9.51878987 18.5638041,10.2960953 C18.5637857,10.2994105 18.5637857,10.3027258 18.5638041,10.306041 C18.7656378,11.0818064 19.3377087,11.5845043 19.9350288,11.9394058 C20.3214678,12.1689913 20.7529191,12.2870886 21.1751627,12.4334509 C21.1491755,12.9814917 21.0712781,13.5178542 20.9533733,14.0365712 C20.5045651,14.0599917 20.0501745,14.1143081 19.6123707,14.2281063 C18.9358378,14.404017 18.2368469,14.7317763 17.8277573,15.4279119 C17.4189245,16.123855 17.47985,16.8902522 17.6563703,17.5654055 C17.768436,17.9940336 17.9872737,18.3796705 18.1806696,18.7753173 C17.7579128,19.1614033 17.2986455,19.5013862 16.8094449,19.8037358 C16.4843485,19.5115886 16.1797531,19.2012183 15.8012065,18.9769585 C15.2022501,18.6221854 14.4746733,18.3511167 13.6939671,18.5535279 C12.9159559,18.7551692 12.4068317,19.336127 12.0505186,19.9347946 C11.8214465,20.3197257 11.703285,20.7544816 11.5565056,21.1749606 C10.9869051,21.1470484 10.4316778,21.0607132 9.89287692,20.9329911 C9.86913555,20.4928452 9.8729855,20.0515123 9.76178604,19.6222426 C9.58725486,18.9487897 9.26533466,18.2458205 8.57208655,17.8376613 C7.8772343,17.4285718 7.09947973,17.4916469 6.42448681,17.6662743 C5.99326005,17.7777946 5.61272432,17.9970494 5.21460715,18.1905416 C4.82954774,17.7685868 4.48818529,17.3084533 4.1861886,16.8193489 C4.47929831,16.4918463 4.79852354,16.1823101 5.02303994,15.8009723 C5.37572767,15.2019197 5.63858317,14.4831336 5.4363965,13.703839 C5.23469107,12.9262769 4.65309158,12.4213236 4.0551298,12.0704646 C3.67132162,11.8453065 3.24295024,11.7300646 2.82503789,11.5865256 C2.85198756,11.0059944 2.93668652,10.4413027 3.06700741,9.89265234 C3.50619074,9.86730682 3.94996193,9.87404424 4.37775582,9.76159354 C5.0492517,9.5849128 5.74541935,9.25272607 6.15229517,8.56178793 C6.56042221,7.86860399 6.50870452,7.10640964 6.33372418,6.43436835 C6.22220389,6.00586864 6.00221118,5.61975049 5.8094569,5.22445662 C6.23054545,4.84122593 6.68227321,4.49761767 7.1706076,4.19607014 C7.49801398,4.48937235 7.80755016,4.80843717 8.18892003,5.03292148 C8.78806889,5.38551296 9.50714376,5.64759848 10.2860533,5.44631013 C11.0648987,5.24502178 11.5749212,4.66428853 11.9295339,4.06497926 C12.158991,3.67725696 12.2776337,3.24814767 12.4235469,2.8248454 L12.4235469,2.8248454 Z M12.0001163,7.28142206 C9.40451045,7.28142206 7.28151831,9.40447836 7.28151831,12.0000105 C7.28151831,14.5955843 9.40451045,16.7186085 12.0001163,16.7186085 C14.5956581,16.7186085 16.7187143,14.5955843 16.7187143,12.0000105 C16.7187143,9.40447836 14.5956581,7.28142206 12.0001163,7.28142206 L12.0001163,7.28142206 Z M12.0001163,9.07614158 C13.6246679,9.07614158 14.9239948,10.3754685 14.9239948,12.0000105 C14.9239948,13.6245942 13.6246679,14.9239531 12.0001163,14.9239531 C10.3755005,14.9239531 9.07617367,13.6245942 9.07617367,12.0000105 C9.07617367,10.3754685 10.3755005,9.07614158 12.0001163,9.07614158 Z" id="Shape" fill="#FFFFFF" transform="translate(11.999988, 11.999999) rotate(-8.000000) translate(-11.999988, -11.999999) "></path>
    </g>
</svg>