<?xml version="1.0" encoding="UTF-8"?>
<svg width="24px" height="24px" viewBox="0 0 24 24" version="1.1" xmlns="http://www.w3.org/2000/svg" xmlns:xlink="http://www.w3.org/1999/xlink">
    <title>icon/shakehands</title>
    <g id="icon/shakehands" stroke="none" stroke-width="1" fill="none" fill-rule="evenodd">
        <g id="noun-hand-shake-1018983" transform="translate(0.000000, 5.000000)" fill="#FFFFFF" fill-rule="nonzero">
            <path d="M4.29016803,0.00810058763 C4.09512904,0.0222270343 3.91612075,0.121252897 3.80051596,0.278971944 L0.122916388,5.27967392 C-0.0777692523,5.56266623 -0.0279370985,5.95226307 0.237515808,6.17563302 L3.58173525,8.99894601 C3.03217511,9.35717463 2.66493989,9.97765773 2.66493989,10.6762648 C2.66493989,11.7730854 3.56839338,12.6765456 4.66522068,12.6765456 C4.82434602,12.6765456 4.97480147,12.6498998 5.12361836,12.6140368 C5.36856174,13.2313905 5.96614029,13.676686 6.66550147,13.676686 C6.67615563,13.676686 6.68614603,13.6768903 6.69675585,13.676686 C6.85339251,14.432282 7.53378435,15.0102065 8.33240212,15.0102065 C8.48870307,15.0102065 8.63642013,14.978474 8.78038168,14.9372796 C9.02217362,15.5609505 9.62875843,16.0103469 10.3326829,16.0103469 C10.6666961,16.0103469 10.976877,15.9017006 11.2390601,15.7290574 C11.5785431,15.9129259 11.9469118,16.0103469 12.3329637,16.0103469 C12.8872365,16.0103469 13.3531112,15.7477267 13.7081567,15.3956773 C13.9278279,15.1778804 14.1182973,14.916719 14.2290632,14.6143176 C14.3710318,14.6513925 14.5156784,14.6768264 14.6666246,14.6768264 C15.3872558,14.6768264 16.0129656,14.2485406 16.312689,13.6350135 C16.4294717,13.6597533 16.5446276,13.676686 16.6669054,13.676686 C17.4184622,13.676686 18.0610431,13.2071354 18.3442242,12.551528 C18.5979035,12.6527836 18.8418641,12.6765456 19.0943295,12.6765456 C19.5717355,12.6765456 20.0612169,12.5193569 20.42785,12.1764754 C20.7944832,11.8337606 21.0008471,11.3070867 21.0008471,10.7387736 C21.0008742,10.7353009 21.0008742,10.7318281 21.0008471,10.7283554 C20.9877886,10.0441594 20.596553,9.54133881 20.104888,9.1760542 L23.7512332,6.18605115 C24.0262971,5.9646716 24.0811139,5.56725029 23.8762508,5.27967392 L20.1986512,0.278971944 C20.0519138,0.0737695676 19.8019388,-0.0310586431 19.5527272,0.00810058763 C19.5136737,0.0150888445 19.4753217,0.0255484617 19.4381278,0.0393549749 C17.4558978,0.717730202 16.3367127,0.67486085 13.9998644,0.67486085 C13.2641858,0.67486085 12.6085887,0.872078201 11.9995836,1.22702169 C11.3905784,0.872078201 10.7349814,0.67486085 9.99930278,0.67486085 C7.66245441,0.67486085 6.54326931,0.717713533 4.56103939,0.0393549749 C4.47386548,0.0103909163 4.38164743,-0.00024962883 4.29016803,0.00810058763 Z M4.6027119,1.43538428 C6.48392331,2.00513759 7.86338729,2.00838138 9.99930278,2.00838138 C10.3698275,2.00838138 10.661279,2.06414687 10.9473525,2.17507144 L8.49909219,4.89420314 C8.33930214,5.07276001 8.28759899,5.32332144 8.36365651,5.55054527 C8.585598,6.21636874 9.07131718,6.65084639 9.5409051,6.84239328 C10.010493,7.03395351 10.4440622,7.02533563 10.7285718,6.99866522 C11.1269041,6.96129331 11.3841222,6.81099887 11.6974578,6.6340307 C12.0107935,6.45706252 12.3334658,6.2417823 12.6350894,6.02977921 C13.0072874,5.76817249 13.1193638,5.66744835 13.322686,5.50887276 L19.2506014,10.1970309 C19.2608218,10.2042684 19.2712441,10.2112166 19.2818558,10.2178671 C19.4926004,10.3669214 19.6624119,10.7076192 19.6673266,10.7491917 C19.6645262,11.0074279 19.5931405,11.1203938 19.5110547,11.1971712 C19.4272626,11.2755489 19.2936918,11.3430251 19.0943295,11.3430251 C18.9988108,11.3430251 18.7454855,11.2533291 18.7713675,11.2700982 C18.8588114,11.3268061 18.7046318,11.2263587 18.573423,11.1242443 C18.4422143,11.0220967 18.2629588,10.8736092 18.0525166,10.7075192 C17.6316325,10.3753059 17.091356,9.94864599 16.552306,9.51985246 C15.474206,8.66233209 14.4165895,7.82169742 14.4165895,7.82169742 C14.1289008,7.59154648 13.7091089,7.63819004 13.4789579,7.92587873 C13.248807,8.21356741 13.2954505,8.63335937 13.5831392,8.86351033 C13.5831392,8.86351033 14.6393921,9.70304484 15.7188557,10.5616654 C16.2399135,10.9761382 16.7604959,11.3888738 17.1773937,11.7180777 C17.1717117,11.7490469 17.1682303,11.7803797 17.1669756,11.8118409 C17.1669756,12.1209176 16.9398974,12.3431655 16.6669054,12.3431655 C16.5623601,12.3431655 16.4766334,12.306777 16.3960341,12.2494023 C16.4549997,12.2913748 16.3498986,12.2174311 16.2605984,12.145221 C16.1712982,12.0731776 16.0497494,11.9703631 15.906382,11.8535134 C15.6196474,11.6198806 15.2423904,11.321072 14.8749872,11.0200631 C14.1401807,10.4180786 13.4268673,9.82197821 13.4268673,9.82197821 C13.2884789,9.70384333 13.1078265,9.64738946 12.9267971,9.66570627 C12.6546561,9.68983718 12.4247663,9.87753202 12.3466819,10.1393446 C12.2685974,10.4011571 12.3581173,10.6841145 12.5725807,10.853373 C12.5725807,10.853373 13.2953601,11.4486732 14.0311187,12.0514578 C14.3989981,12.3528335 14.7740177,12.6498418 15.0625135,12.8849082 C15.0973114,12.9132655 15.1141401,12.9316631 15.1458586,12.9578351 C15.0879671,13.189904 14.8951614,13.3433058 14.6666246,13.3433058 C14.5620793,13.3433058 14.4763866,13.3069507 14.3957533,13.2495427 C14.391266,13.2462089 12.9197611,12.1670074 12.0933467,11.4888789 C11.9549584,11.370744 11.774306,11.3142901 11.5932765,11.3326069 C11.3211356,11.3567378 11.0912458,11.5444327 11.0131613,11.8062452 C10.9350769,12.0680577 11.0245968,12.3510151 11.2390601,12.5202736 C11.8259699,13.0018719 12.4922761,13.4985526 12.999724,13.8746304 L12.999724,14.0100661 C12.999724,14.1075465 12.9215073,14.2979399 12.7705251,14.4476275 C12.6195429,14.5973152 12.4216211,14.6768265 12.3329637,14.6768265 C12.1246198,14.6768265 12.0516959,14.6771754 11.9683292,14.6351539 C11.9856463,14.5397238 11.9995836,14.4434916 11.9995836,14.3434462 C11.9995836,13.4307181 11.245389,12.6765456 10.3326829,12.6765456 C10.176382,12.6765456 10.0286649,12.7082794 9.88470336,12.7494725 C9.64291142,12.1257953 9.0363266,11.6764052 8.33240212,11.6764052 C8.32174796,11.6764052 8.31175756,11.6762008 8.30114774,11.6764052 C8.14451108,10.9207931 7.46411924,10.3428847 6.66550147,10.3428847 C6.65484731,10.3428847 6.6448569,10.3426803 6.63424708,10.3428847 C6.51707463,9.6620851 6.04769974,9.09358129 5.4257441,8.83225594 L1.57103633,5.57138153 L4.6027119,1.43538428 Z M19.3964552,1.43538428 L22.4281308,5.5609634 L19.0422388,8.32176762 L13.7498293,4.14409784 C13.5038002,3.9521206 13.1575325,3.95644895 12.9163789,4.15451597 C12.9163789,4.15451597 12.4343473,4.54242376 11.874566,4.93587566 C11.5946754,5.13260327 11.2917849,5.32562703 11.0411157,5.46720024 C10.7904465,5.60877345 10.5462066,5.68094358 10.6035543,5.67556282 C10.4420909,5.69069828 10.2099994,5.68199706 10.0409753,5.61305405 C9.95137272,5.57650558 9.87208926,5.52563511 9.80135833,5.44636398 L12.2912912,2.68555977 C12.4457054,2.63285284 12.5754368,2.52536114 12.6559257,2.38343402 C13.0817962,2.12340386 13.4617058,2.00838138 13.9998644,2.00838138 C16.1357799,2.00838138 17.5152438,2.00504757 19.3964552,1.43538428 Z M4.66522068,10.0095045 C5.04136015,10.0095045 5.33198094,10.300112 5.33198094,10.6762648 C5.33198094,11.0523843 5.04136015,11.3430251 4.66522068,11.3430251 C4.28908121,11.3430251 3.99846042,11.0523843 3.99846042,10.6762648 C3.99846042,10.300112 4.28908121,10.0095045 4.66522068,10.0095045 Z M6.66550147,11.6764052 C6.85751942,11.6764052 6.9988816,11.8177584 6.9988816,12.0097853 C6.9988816,12.2018123 6.85751942,12.3431655 6.66550147,12.3431655 C6.47348351,12.3431655 6.33212134,12.2018123 6.33212134,12.0097853 C6.33212134,11.8177584 6.47348351,11.6764052 6.66550147,11.6764052 Z M8.33240212,13.0099257 C8.52442008,13.0099257 8.66578226,13.1512789 8.66578226,13.3433058 C8.66578226,13.5353328 8.52442008,13.676686 8.33240212,13.676686 C8.14038417,13.676686 7.99902199,13.5353328 7.99902199,13.3433058 C7.99902199,13.1512789 8.14038417,13.0099257 8.33240212,13.0099257 Z M10.3326829,14.0100661 C10.5247009,14.0100661 10.666063,14.1514193 10.666063,14.3434462 C10.666063,14.5354732 10.5247009,14.6768264 10.3326829,14.6768264 C10.140665,14.6768264 9.99930278,14.5354732 9.99930278,14.3434462 C9.99930278,14.1514193 10.140665,14.0100661 10.3326829,14.0100661 Z" id="Shape"></path>
        </g>
    </g>
</svg>