<svg width="24" height="24" viewBox="0 0 24 24" fill="none" xmlns="http://www.w3.org/2000/svg">
<path d="M22.349 1.64371C22.9833 2.27808 23.2293 3.20402 22.9932 4.06955L18.2092 21.6105C17.9649 22.5062 17.2443 23.1927 16.3379 23.3935C15.4316 23.5941 14.4889 23.2761 13.8892 22.5676L8.17714 15.8155L1.42579 10.1041C0.717066 9.50444 0.398431 8.56123 0.599222 7.65481C0.800003 6.74844 1.48659 6.02779 2.38218 5.78346L19.9231 0.99944C20.7886 0.763402 21.7146 1.00942 22.349 1.64371ZM3.04026 8.19549L9.95043 14.0422L15.7972 20.9524L20.5812 3.41148L3.04026 8.19549Z" fill="#EFEFEF"/>
<path d="M22.2036 3.55719L10.2415 15.5193L8.47375 13.7515L20.4359 1.78943L22.2036 3.55719Z" fill="#EFEFEF"/>
</svg>
