<svg width="24" height="24" viewBox="0 0 24 24" fill="none" xmlns="http://www.w3.org/2000/svg">
<path fill-rule="evenodd" clip-rule="evenodd" d="M20.9095 7.01397C21.1564 7.23864 21.3101 7.54766 21.3401 7.88013L22.2454 17.8973C22.3387 18.9324 22.142 19.9731 21.6776 20.9029C21.213 21.8327 20.499 22.6148 19.6151 23.1618C18.7312 23.7088 17.7126 23.999 16.6733 24H7.33993C6.30002 24 5.28057 23.7104 4.39593 23.1636C3.5113 22.6169 2.79636 21.8345 2.33126 20.9045C1.86615 19.9745 1.66927 18.9331 1.76259 17.8974L2.67326 7.88013C2.7033 7.54766 2.85695 7.23862 3.10381 7.01397C3.35068 6.78931 3.67281 6.66536 4.00659 6.66675H6.67326V5.33341C6.67326 3.91874 7.23515 2.56234 8.23533 1.56207C9.23556 0.56189 10.592 0 12.0067 0C13.4213 0 14.7777 0.56189 15.778 1.56207C16.7782 2.56229 17.3401 3.91892 17.3401 5.33341V6.66675H20.0068C20.3405 6.66535 20.6627 6.7893 20.9095 7.01397ZM10.6734 3.02412C9.84831 3.50038 9.34007 4.38076 9.34007 5.33345V6.66679H14.6734V5.33345C14.6734 4.38081 14.1652 3.50043 13.3401 3.02412C12.515 2.54772 11.4985 2.54772 10.6734 3.02412ZM16.6734 21.3334C17.4965 21.3373 18.2825 20.9907 18.8347 20.3801L18.8348 20.3801C19.395 19.7729 19.6695 18.9557 19.5894 18.1334L18.7894 9.33342H5.22404L4.42404 18.1334C4.34913 18.9535 4.62239 19.7672 5.17708 20.3759C5.73168 20.9845 6.51657 21.332 7.34002 21.3334H16.6734ZM13.3399 14.0001H14.6732C15.1496 14.0001 15.5897 14.2543 15.8279 14.6668C16.0661 15.0793 16.0661 15.5877 15.8279 16.0001C15.5897 16.4126 15.1496 16.6668 14.6732 16.6668H13.3399V18.0002C13.3399 18.4766 13.0857 18.9166 12.6732 19.1548C12.2607 19.393 11.7524 19.393 11.3399 19.1548C10.9274 18.9166 10.6732 18.4766 10.6732 18.0002V16.6668H9.33989C8.86349 16.6668 8.4234 16.4126 8.1852 16.0001C7.947 15.5877 7.947 15.0793 8.1852 14.6668C8.4234 14.2543 8.86349 14.0001 9.33989 14.0001H10.6732V12.6668C10.6732 12.1904 10.9274 11.7503 11.3399 11.5121C11.7524 11.2739 12.2607 11.2739 12.6732 11.5121C13.0857 11.7503 13.3399 12.1904 13.3399 12.6668V14.0001Z" fill="#EFEFEF"/>
</svg>
