<svg width="24" height="24" viewBox="0 0 24 24" fill="none" xmlns="http://www.w3.org/2000/svg">
<path d="M21.096 7.88013C21.0667 7.54766 20.917 7.23863 20.6765 7.01397C20.436 6.7893 20.1221 6.66535 19.7969 6.66675H17.1989V5.33341C17.1989 3.91892 16.6514 2.56229 15.677 1.56207C14.7024 0.56189 13.3809 0 12.0026 0C10.6243 0 9.30278 0.56189 8.32828 1.56207C7.35383 2.56234 6.80639 3.91874 6.80639 5.33341V6.66675H4.2083C3.88311 6.66536 3.56926 6.78931 3.32874 7.01397C3.08823 7.23862 2.93853 7.54766 2.90926 7.88013L2.02202 17.8975V17.8974C1.9311 18.9331 2.12291 19.9745 2.57606 20.9045C3.0292 21.8345 3.72575 22.6169 4.58762 23.1636C5.44952 23.7104 6.44274 24 7.45591 24H16.5492C17.5618 23.999 18.5542 23.7088 19.4153 23.1618C20.2765 22.6148 20.9721 21.8327 21.4248 20.9029C21.8773 19.9731 22.0689 18.9324 21.978 17.8973L21.096 7.88013ZM9.4046 5.33345C9.4046 4.38076 9.89977 3.50038 10.7036 3.02412C11.5075 2.54772 12.4979 2.54772 13.3017 3.02412C14.1056 3.50043 14.6008 4.38081 14.6008 5.33345V6.66679H9.4046V5.33345ZM18.6551 20.3801C18.117 20.9907 17.3513 21.3373 16.5493 21.3334H7.456C6.65373 21.332 5.88903 20.9845 5.34869 20.3759C4.80827 19.7672 4.54203 18.9535 4.61501 18.1334L5.39444 9.33342H18.6109L19.3903 18.1334C19.4684 18.9557 19.2009 19.7729 18.6551 20.3801L18.6551 20.3801Z" fill="#EFEFEF"/>
</svg>
