<svg width="24" height="24" viewBox="0 0 24 24" fill="none" xmlns="http://www.w3.org/2000/svg">
<path d="M12 19.5C12.1689 19.5012 12.3366 19.5315 12.4951 19.5898C12.6923 19.6605 12.8728 19.7716 13.0244 19.916L13.0615 19.9463C13.3436 20.2332 13.5009 20.6201 13.5 21.0225V22.4775C13.506 22.879 13.3511 23.2666 13.0693 23.5527C12.7874 23.8389 12.4017 24 12 24C11.8309 23.9975 11.6632 23.9659 11.5049 23.9062C11.2919 23.8317 11.0979 23.7105 10.9385 23.5508C10.6564 23.2637 10.499 22.8761 10.5 22.4736V21.0225C10.4941 20.621 10.6497 20.2333 10.9316 19.9473C11.2136 19.6613 11.5984 19.5 12 19.5ZM4.56348 17.3135C4.94263 16.9344 5.49578 16.787 6.01367 16.9258C6.53136 17.0646 6.93635 17.4686 7.0752 17.9863C7.21396 18.5042 7.06559 19.0574 6.68652 19.4365L5.56152 20.5615C5.28015 20.8431 4.89806 21.0018 4.5 21.002C4.10203 21.0019 3.72079 20.8429 3.43945 20.5615C3.15808 20.2799 2.99963 19.8981 3 19.5C2.99969 19.1021 3.15728 18.72 3.43848 18.4385L4.56348 17.3135ZM17.9863 16.9258C18.5043 16.787 19.0574 16.9343 19.4365 17.3135L20.5615 18.4385C20.9407 18.8176 21.088 19.3707 20.9492 19.8887C20.8104 20.4065 20.4064 20.8113 19.8887 20.9502C19.3707 21.089 18.8176 20.9407 18.4385 20.5615L17.3135 19.4365C16.9344 19.0574 16.786 18.5042 16.9248 17.9863C17.0637 17.4686 17.4686 17.0646 17.9863 16.9258ZM12 6.625C13.4254 6.625 14.7926 7.19123 15.8008 8.19922C16.8088 9.20721 17.375 10.5744 17.375 12C17.375 13.4254 16.8088 14.7926 15.8008 15.8008C14.7928 16.8088 13.4254 17.375 12 17.375C10.5746 17.375 9.20736 16.8088 8.19922 15.8008C7.19123 14.7928 6.625 13.4254 6.625 12C6.625 10.5746 7.19123 9.20736 8.19922 8.19922C9.20721 7.19123 10.5746 6.625 12 6.625ZM2.97754 10.5C3.37912 10.494 3.76661 10.6497 4.05273 10.9316C4.33875 11.2135 4.49991 11.5984 4.5 12C4.49756 12.1691 4.46589 12.3369 4.40625 12.4951C4.33558 12.6923 4.22461 12.8728 4.08008 13.0244L4.0498 13.0615C3.76272 13.3436 3.37608 13.501 2.97363 13.5H1.52246C1.12094 13.506 0.733382 13.3512 0.447266 13.0693C0.161148 12.7874 0 12.4017 0 12C0.00125857 11.8312 0.0315314 11.6634 0.0898438 11.5049C0.164397 11.292 0.286566 11.0989 0.446289 10.9395C0.733288 10.6573 1.11999 10.499 1.52246 10.5H2.97754ZM22.4775 10.5C22.8791 10.494 23.2666 10.6497 23.5527 10.9316C23.8387 11.2135 23.9999 11.5984 24 12C23.9976 12.1691 23.9659 12.3369 23.9062 12.4951C23.8317 12.7082 23.7096 12.902 23.5498 13.0615C23.2627 13.3436 22.8761 13.501 22.4736 13.5H21.0225C20.6209 13.506 20.2334 13.3512 19.9473 13.0693C19.6611 12.7874 19.5 12.4017 19.5 12C19.5013 11.8312 19.5315 11.6634 19.5898 11.5049C19.6605 11.3079 19.7718 11.1281 19.916 10.9766L19.9463 10.9395C20.2333 10.6573 20.62 10.499 21.0225 10.5H22.4775ZM4.11133 3.0498C4.62927 2.91103 5.18237 3.05935 5.56152 3.43848L6.68652 4.56348C7.06568 4.94264 7.21399 5.49573 7.0752 6.01367C6.93638 6.53156 6.53156 6.93641 6.01367 7.0752C5.49571 7.21397 4.94263 7.06568 4.56348 6.68652L3.43848 5.56152C3.05937 5.18236 2.912 4.62924 3.05078 4.11133C3.18961 3.5936 3.5936 3.18864 4.11133 3.0498ZM19.5 2.99902C19.8978 2.99909 20.2793 3.15723 20.5605 3.43848C20.8419 3.72004 21.0003 4.10204 21 4.5C21.0004 4.89784 20.8426 5.27992 20.5615 5.56152L19.4365 6.68652C19.0574 7.06569 18.5043 7.21399 17.9863 7.0752C17.4684 6.93639 17.0636 6.5316 16.9248 6.01367C16.7861 5.49587 16.9346 4.94357 17.3135 4.56445L18.4385 3.43945C18.7199 3.15784 19.1019 2.99915 19.5 2.99902ZM12 0C12.1689 0.00122169 12.3366 0.0315116 12.4951 0.0898438C12.7082 0.16442 12.902 0.286374 13.0615 0.446289C13.3436 0.733282 13.501 1.12002 13.5 1.52246V2.97754C13.506 3.37902 13.3512 3.76662 13.0693 4.05273C12.7874 4.33886 12.4017 4.5 12 4.5C11.8311 4.49876 11.6634 4.46849 11.5049 4.41016C11.3568 4.35628 11.2185 4.27924 11.0947 4.18262L10.9766 4.08008L10.9385 4.0498C10.6566 3.76274 10.499 3.37595 10.5 2.97363V1.52246C10.494 1.12086 10.6497 0.733401 10.9316 0.447266C11.2136 0.161238 11.5984 4.31432e-05 12 0Z" fill="#EFEFEF"/>
</svg>
