<svg width="24" height="24" viewBox="0 0 24 24" fill="none" xmlns="http://www.w3.org/2000/svg">
<path d="M17.7078 6.40825C16.7021 5.75273 15.9768 4.70344 15.7502 3.48091C15.7015 3.21683 15.6743 2.9448 15.6743 2.66667H12.4651L12.46 15.5278C12.4061 16.9681 11.2206 18.1241 9.7677 18.1241C9.31587 18.1241 8.89072 18.0113 8.51614 17.8142C7.65742 17.3623 7.0698 16.4624 7.0698 15.4267C7.0698 13.9392 8.28016 12.7288 9.76723 12.7288C10.0449 12.7288 10.3113 12.7747 10.5632 12.8533V9.57718C10.3024 9.5416 10.0374 9.51959 9.76723 9.51959C6.51027 9.51959 3.8606 12.1693 3.8606 15.4267C3.8606 17.4251 4.85885 19.1936 6.38245 20.263C7.34184 20.9368 8.50912 21.3333 9.7677 21.3333C13.0247 21.3333 15.6743 18.6837 15.6743 15.4267V8.90481C16.9329 9.80802 18.4753 10.3404 20.1393 10.3404V7.13118C19.2431 7.13118 18.4083 6.86476 17.7078 6.40825Z" fill="#EFEFEF"/>
</svg>
