<svg width="24" height="24" viewBox="0 0 24 24" fill="none" xmlns="http://www.w3.org/2000/svg">
<path fill-rule="evenodd" clip-rule="evenodd" d="M20.5 2H3.5C1.84315 2 0.5 3.34315 0.5 5V19C0.5 20.6569 1.84314 22 3.5 22H20.5C22.1569 22 23.5 20.6569 23.5 19V5C23.5 3.34315 22.1569 2 20.5 2ZM2.5 5C2.5 4.44772 2.94772 4 3.5 4H20.5C21.0523 4 21.5 4.44772 21.5 5V19C21.5 19.5523 21.0523 20 20.5 20H3.5C2.94771 20 2.5 19.5523 2.5 19V5ZM8 7C7.44772 7 7 7.44772 7 8V9C7 9.55228 7.44772 10 8 10C8.55229 10 9 9.55228 9 9H11V15C10.4477 15 10 15.4477 10 16C10 16.5523 10.4477 17 11 17H12H13C13.5523 17 14 16.5523 14 16C14 15.4477 13.5523 15 13 15V9H15C15 9.55228 15.4477 10 16 10C16.5523 10 17 9.55228 17 9V8C17 7.44772 16.5523 7 16 7H12H8Z" fill="#EFEFEF"/>
</svg>
