<svg width="24" height="24" viewBox="0 0 24 24" fill="none" xmlns="http://www.w3.org/2000/svg">
<path fill-rule="evenodd" clip-rule="evenodd" d="M6.4078 12.1919C6.83685 11.8184 6.88193 11.1678 6.50844 10.7387C5.71153 9.82321 5.22999 8.62928 5.22999 7.32013C5.22999 4.44266 7.56265 2.1102 10.4399 2.1102C13.3174 2.1102 15.6499 4.44266 15.6499 7.32013C15.6499 8.62927 15.1684 9.82324 14.3715 10.7387C13.998 11.1678 14.0431 11.8184 14.4721 12.1919C14.9012 12.5654 15.5518 12.5203 15.9253 12.0913C17.0362 10.815 17.7098 9.14493 17.7098 7.31996C17.7098 3.30503 14.4551 0.0500488 10.4399 0.0500488C6.42499 0.0500488 3.17001 3.30503 3.17001 7.31996C3.17001 9.14488 3.84378 10.8149 4.95466 12.0913C5.32815 12.5203 5.97874 12.5654 6.4078 12.1919ZM14.6365 12.0033C14.3116 11.7205 14.2775 11.2278 14.5603 10.9029C15.3953 9.94361 15.9001 8.69186 15.9001 7.32013C15.9001 4.30458 13.4557 1.8602 10.4402 1.8602C10.4401 1.8602 10.4402 1.8602 10.4402 1.8602C13.4557 1.8602 15.9001 4.30458 15.9001 7.32013C15.9001 8.69186 15.3953 9.94361 14.5603 10.9029C14.2775 11.2278 14.3116 11.7205 14.6365 12.0033Z" fill="#383739"/>
<path fill-rule="evenodd" clip-rule="evenodd" d="M5.15804 23.383C5.41371 23.891 6.03295 24.0957 6.54109 23.84C7.04926 23.5843 7.25381 22.965 6.99817 22.4569L4.87212 18.2325C4.85606 18.2006 4.84645 18.1791 4.84077 18.1652C4.85223 18.0011 5.00813 17.7996 5.29199 17.7996C5.73625 17.7996 6.29904 18.1135 6.91392 18.6788C7.19792 18.9399 7.45025 19.214 7.66404 19.4536C7.70084 19.4949 7.73838 19.5372 7.77471 19.5783L7.78563 19.5906L7.7866 19.5917C7.8465 19.6592 7.90519 19.7253 7.95512 19.7803C8.02322 19.8552 8.1457 19.9897 8.27433 20.0883C8.58547 20.3272 9.00519 20.3685 9.35689 20.195C9.70865 20.0216 9.93136 19.6634 9.93136 19.2712V10.4195C9.93136 10.1785 10.1502 9.91004 10.5122 9.91004C10.8742 9.91004 11.093 10.1785 11.093 10.4195V15.0379C11.093 15.5146 11.4202 15.9291 11.884 16.0397L16.9558 17.2495C18.248 17.5578 19.1598 18.7126 19.1598 20.0413V22.9199C19.1598 23.4888 19.6209 23.9499 20.1897 23.9499C20.7587 23.9499 21.2197 23.4888 21.2197 22.9199V20.0413C21.2197 17.7592 19.6535 15.7754 17.4338 15.2458L13.153 14.2247V10.4196C13.153 8.95603 11.9251 7.85013 10.5122 7.85013C9.09934 7.85013 7.8713 8.95599 7.8713 10.4195V16.7871C7.21112 16.261 6.31845 15.7396 5.29191 15.7396C3.88835 15.7396 2.72537 16.8735 2.78201 18.2781C2.79762 18.6654 2.94171 18.9792 3.0321 19.1588L5.15804 23.383ZM5.29191 15.9896C4.02086 15.9896 2.98127 17.0147 3.03181 18.268C3.04522 18.6007 3.16945 18.8756 3.25541 19.0464L3.88381 20.295L5.38135 23.2706L3.88451 20.296L3.25541 19.0464C3.16945 18.8756 3.04522 18.6007 3.03181 18.268C2.98127 17.0147 4.02086 15.9896 5.29191 15.9896C5.29199 15.9896 5.29184 15.9896 5.29191 15.9896ZM8.1213 17.33C8.12123 17.3299 8.12138 17.3301 8.1213 17.33L8.12153 10.4195C8.12153 9.10567 9.22573 8.10013 10.5125 8.10013C10.5124 8.10013 10.5125 8.10013 10.5125 8.10013C9.22573 8.10013 8.12153 9.10567 8.12153 10.4195L8.1213 17.33Z" fill="#383739"/>
</svg>
