<?xml version="1.0" encoding="UTF-8"?>
<svg width="24px" height="24px" viewBox="0 0 24 24" version="1.1" xmlns="http://www.w3.org/2000/svg" xmlns:xlink="http://www.w3.org/1999/xlink">
    <title>icon/trush</title>
    <g id="icon/trush" stroke="none" stroke-width="1" fill="none" fill-rule="evenodd">
        <path d="M6.63157895,4.47368421 L6.63157895,3.31578947 C6.63157895,2.03681426 7.66839321,1 8.94736842,1 L15.8947368,1 C17.1737121,1 18.2105263,2.03681426 18.2105263,3.31578947 L18.2105263,4.47368421 L22.8421053,4.47368421 L22.8421053,6.78947368 L20.5263158,6.78947368 L20.5263158,20.6842105 C20.5263158,21.9631857 19.3166992,23 17.8245614,23 L7.01754386,23 C5.52540612,23 4.31578947,21.9631857 4.31578947,20.6842105 L4.31578947,6.78947368 L2,6.78947368 L2,4.47368421 L6.63157895,4.47368421 Z M6.63157895,6.78947368 L6.63157895,20.6842105 L18.2105263,20.6842105 L18.2105263,6.78947368 L6.63157895,6.78947368 Z M8.94736842,9.10526316 L11.2631579,9.10526316 L11.2631579,18.3684211 L8.94736842,18.3684211 L8.94736842,9.10526316 Z M13.5789474,9.10526316 L15.8947368,9.10526316 L15.8947368,18.3684211 L13.5789474,18.3684211 L13.5789474,9.10526316 Z M8.94736842,4.47368421 L15.8947368,4.47368421 L15.8947368,3.31578947 L8.94736842,3.31578947 L8.94736842,4.47368421 Z" id="a" fill="#FFFFFF"></path>
    </g>
</svg>