<svg width="24" height="25" viewBox="0 0 24 25" fill="none" xmlns="http://www.w3.org/2000/svg">
<path fill-rule="evenodd" clip-rule="evenodd" d="M18.9999 0.924988C16.7493 0.924988 14.9249 2.74943 14.9249 4.99999L14.9249 9.46873H5.59082C4.48625 9.46873 3.59082 10.3642 3.59082 11.4687V23C3.59082 24.1046 4.48625 25 5.59082 25H18.5908C19.6954 25 20.5908 24.1046 20.5908 23V11.4687C20.5908 10.3642 19.6954 9.46873 18.5908 9.46873H17.0749L17.0749 4.99999C17.0749 3.93684 17.9367 3.07499 18.9999 3.07499C20.063 3.07499 20.9249 3.93684 20.9249 4.99999V6.24999C20.9249 6.84369 21.4062 7.32499 21.9999 7.32499C22.5936 7.32499 23.0749 6.84369 23.0749 6.24999V4.99999C23.0749 2.74943 21.2505 0.924988 18.9999 0.924988ZM5.74082 22.85V11.6187H18.4408V22.85H5.74082Z" fill="#EFEFEF"/>
</svg>
