<?xml version="1.0" encoding="UTF-8"?>
<svg width="24px" height="24px" viewBox="0 0 24 24" version="1.1" xmlns="http://www.w3.org/2000/svg" xmlns:xlink="http://www.w3.org/1999/xlink">
    <title>icon/vector</title>
    <g id="icon/vector" stroke="none" stroke-width="1" fill="none" fill-rule="evenodd">
        <path d="M8.65997432,0.978225082 L8.51820682,0.984258554 C7.67713941,1.05616646 7.01663668,1.76191386 7.01663668,2.62156272 L7.016,10.978 L2.66509135,10.9782251 C2.00038839,10.9782251 1.40135382,11.3785113 1.14684133,11.9926253 C0.892642713,12.6071437 1.03329487,13.3136592 1.50314486,13.7835092 L10.8706762,22.5211066 C11.4867029,23.138813 12.5284429,23.138813 13.1699722,22.4964612 L22.4721916,13.8071414 C22.9669266,13.3140453 23.1077563,12.6066381 22.8527636,11.992188 L22.7880798,11.8544434 C22.5058847,11.3192973 21.9482669,10.9782251 21.3346949,10.9782251 L16.966,10.978 L16.966399,2.62156272 C16.966399,1.71415559 16.2304685,0.978225082 15.3230614,0.978225082 L8.65997432,0.978225082 Z M14.966,2.978 L14.966399,12.9782251 L20.43,12.978 L12.006,20.847 L3.571,12.978 L9.01663668,12.9782251 L9.016,2.978 L14.966,2.978 Z" id="Path" fill="#FFFFFF" transform="translate(11.999613, 11.979788) rotate(-90.000000) translate(-11.999613, -11.979788) "></path>
    </g>
</svg>