<svg width="24" height="24" viewBox="0 0 24 24" fill="none" xmlns="http://www.w3.org/2000/svg">
<path fill-rule="evenodd" clip-rule="evenodd" d="M0.998047 15.3194L1.00408 15.4612C1.07599 16.3023 1.78174 16.9628 2.64138 16.9628L10.9978 16.9634L10.998 21.3143C10.998 21.979 11.3983 22.578 12.0124 22.8326C12.627 23.0868 13.3335 22.9461 13.8033 22.4763L22.5409 13.1087C23.1586 12.4927 23.1586 11.451 22.5163 10.8094L13.827 1.50721C13.3339 1.01248 12.6265 0.871645 12.012 1.12664L11.8743 1.19132C11.3391 1.47352 10.998 2.03114 10.998 2.64471L10.9978 7.0134L2.64138 7.013C1.73398 7.013 0.998047 7.74893 0.998047 8.65634L0.998047 15.3194ZM2.99782 9.0134L12.998 9.013L12.9978 3.5494L20.8668 11.9734L12.9978 20.4084L12.998 14.9628L2.99782 14.9634L2.99782 9.0134Z" fill="#EFEFEF"/>
</svg>
