<svg width="24" height="24" viewBox="0 0 24 24" fill="none" xmlns="http://www.w3.org/2000/svg">
<rect y="3" width="24" height="18" rx="2" fill="white"/>
<path d="M8.93567 9.11931L6.19933 15.6479H4.41408L3.06752 10.4378C2.98577 10.1169 2.91468 9.99931 2.66606 9.86411C2.26013 9.64389 1.58979 9.43728 1 9.30904L1.04006 9.11931H3.91377C4.28008 9.11931 4.60937 9.36315 4.69254 9.78497L5.4037 13.5627L7.1613 9.1192H8.93567V9.11931ZM15.9306 13.5164C15.9378 11.7933 13.5479 11.6983 13.5644 10.9286C13.5695 10.6944 13.7925 10.4453 14.2808 10.3817C14.5228 10.35 15.1895 10.3259 15.9457 10.6739L16.2424 9.28945C15.836 9.14195 15.3132 9 14.6626 9C12.9933 9 11.8185 9.8874 11.8086 11.1581C11.7978 12.098 12.6471 12.6224 13.287 12.9347C13.9453 13.2546 14.1661 13.4601 14.1636 13.7462C14.159 14.1841 13.6386 14.3774 13.1524 14.385C12.3035 14.3981 11.8109 14.1554 11.4183 13.9728L11.1122 15.4031C11.5068 15.5841 12.2351 15.7421 12.9903 15.75C14.7645 15.75 15.9252 14.8736 15.9306 13.5164ZM20.3387 15.6479H21.9006L20.5372 9.11931H19.0955C18.7713 9.11931 18.4979 9.30807 18.3768 9.59828L15.8425 15.6479H17.6159L17.968 14.6728H20.1348L20.3387 15.6479ZM18.4542 13.3347L19.3432 10.8834L19.8548 13.3347H18.4542ZM11.3487 9.11931L9.95218 15.6479H8.26337L9.66044 9.11931H11.3487Z" fill="#1434CB"/>
</svg>
