<svg width="24" height="24" viewBox="0 0 24 24" fill="none" xmlns="http://www.w3.org/2000/svg">
<path fill-rule="evenodd" clip-rule="evenodd" d="M9.9741 18.1183C9.80816 18.0151 9.61692 17.9598 9.42098 17.9598H5.96258C5.13196 17.9598 4.33508 17.6298 3.74818 17.043C3.16128 16.4561 2.8313 15.6592 2.8313 14.8296V9.17075C2.8313 8.34107 3.1613 7.54419 3.74818 6.95735C4.33506 6.37051 5.13194 6.04047 5.96258 6.04047H9.42098C9.61692 6.04047 9.80816 5.98516 9.9741 5.88203L16.1053 2.05043C17.0709 1.44667 18.2869 1.41481 19.2825 1.96699C20.2781 2.51824 20.895 3.56731 20.895 4.7044V19.2956C20.895 20.4328 20.2781 21.4818 19.2825 22.033C18.2869 22.5852 17.0709 22.5533 16.1053 21.9496L9.9741 18.1183ZM8.73286 8.12827H5.96246C5.68496 8.12827 5.41964 8.23796 5.2237 8.43389C5.0287 8.62889 4.91808 8.89421 4.91808 9.17077V14.8296C4.91808 15.1061 5.0287 15.3714 5.2237 15.5664C5.41964 15.7624 5.68494 15.8721 5.96246 15.8721H8.73286V8.12827ZM10.8197 16.2021C10.9087 16.2471 10.9959 16.2958 11.0803 16.3483L17.2115 20.1809C17.533 20.3815 17.939 20.3919 18.2709 20.209C18.6018 20.0244 18.808 19.6756 18.808 19.2959V4.70472C18.808 4.32504 18.6018 3.97628 18.2709 3.7916C17.939 3.60879 17.533 3.6191 17.2115 3.82067L11.0803 7.65227C10.9959 7.70477 10.9087 7.75352 10.8197 7.79852V16.2021Z" fill="#EFEFEF"/>
</svg>
