<svg width="24" height="24" viewBox="0 0 24 24" fill="none" xmlns="http://www.w3.org/2000/svg">
<path fill-rule="evenodd" clip-rule="evenodd" d="M4.5 2.125C2.63604 2.125 1.125 3.63604 1.125 5.5V18.5C1.125 20.364 2.63604 21.875 4.5 21.875H19.5C21.364 21.875 22.875 20.364 22.875 18.5V5.5C22.875 3.63604 21.364 2.125 19.5 2.125H4.5ZM2.875 5.5C2.875 4.60254 3.60254 3.875 4.5 3.875H19.5C20.3975 3.875 21.125 4.60254 21.125 5.5V18.5C21.125 19.3975 20.3975 20.125 19.5 20.125H4.5C3.60254 20.125 2.875 19.3975 2.875 18.5V5.5ZM4.5315 7H19.4685C19.4891 6.92009 19.5 6.83632 19.5 6.75V6.5C19.5 5.94772 19.0523 5.5 18.5 5.5H5.5C4.94772 5.5 4.5 5.94772 4.5 6.5V6.75C4.5 6.83632 4.51094 6.92009 4.5315 7ZM4.5315 10H19.4685C19.4891 9.92009 19.5 9.83632 19.5 9.75V9.5C19.5 8.94772 19.0523 8.5 18.5 8.5H5.5C4.94772 8.5 4.5 8.94772 4.5 9.5V9.75C4.5 9.83632 4.51094 9.92009 4.5315 10ZM19.4685 13H4.5315C4.51094 12.9201 4.5 12.8363 4.5 12.75V12.5C4.5 11.9477 4.94772 11.5 5.5 11.5H18.5C19.0523 11.5 19.5 11.9477 19.5 12.5V12.75C19.5 12.8363 19.4891 12.9201 19.4685 13Z" fill="#EFEFEF"/>
</svg>
