<svg width="24" height="24" viewBox="0 0 24 24" fill="none" xmlns="http://www.w3.org/2000/svg">
<path d="M11.9678 2.06209C12.357 2.0602 12.729 2.22363 12.9912 2.51131C13.2531 2.79881 13.3806 3.18375 13.3428 3.57088C13.2995 3.91832 13.129 4.23723 12.8643 4.46639C12.5997 4.69546 12.26 4.81894 11.9102 4.81209H6.12402C5.75964 4.81221 5.41014 4.9569 5.15234 5.21444C4.89452 5.47233 4.74902 5.82245 4.74902 6.18709V17.8736C4.74902 18.2383 4.89453 18.5884 5.15234 18.8463C5.41014 19.104 5.75954 19.2485 6.12402 19.2486H18.1553C18.5199 19.2486 18.87 19.1041 19.1279 18.8463C19.3858 18.5884 19.5303 18.2383 19.5303 17.8736V11.7457C19.5233 11.3957 19.6469 11.0552 19.876 10.7906C20.1051 10.5259 20.4241 10.3554 20.7715 10.3121C21.1588 10.2742 21.5445 10.4016 21.832 10.6637C22.1197 10.9258 22.2832 11.2979 22.2812 11.6871V17.8746C22.2811 18.9683 21.8457 20.0171 21.0723 20.7906C20.2988 21.564 19.2501 21.9985 18.1562 21.9986H6.12402C5.03035 21.9985 3.98156 21.5639 3.20801 20.7906C2.43445 20.0171 2 18.9676 2 17.8736V6.18709C2 5.09324 2.43445 4.04374 3.20801 3.2701C3.98144 2.49682 5.03026 2.0622 6.12402 2.06209H11.9678ZM15.749 13.4058C16.2402 13.4058 16.6948 13.6679 16.9404 14.0933C17.1857 14.5186 17.1857 15.0421 16.9404 15.4674C16.6948 15.8928 16.2402 16.1549 15.749 16.1549H8.53027C8.03923 16.1547 7.58538 15.8927 7.33984 15.4674C7.09452 15.0421 7.09452 14.5186 7.33984 14.0933C7.58538 13.6681 8.03923 13.406 8.53027 13.4058H15.749ZM21.707 0.0308446C22.3348 -0.0829573 22.9785 0.117771 23.4297 0.568931C23.8811 1.0202 24.0827 1.66461 23.9688 2.29256C23.8908 2.69698 23.6902 3.06738 23.3945 3.35409L17.2451 9.50741C16.7289 10.0229 16.0284 10.3127 15.2988 10.3121H14.375C14.1927 10.3121 14.0176 10.239 13.8887 10.1099C13.7598 9.98114 13.6876 9.80669 13.6875 9.62459V8.69979C13.6878 7.97149 13.9765 7.27267 14.4912 6.75741L20.6445 0.605063C20.9313 0.309214 21.3024 0.108724 21.707 0.0308446Z" fill="#EFEFEF"/>
</svg>
