<svg width="24" height="24" viewBox="0 0 24 24" fill="none" xmlns="http://www.w3.org/2000/svg">
<path d="M23.4982 6.59413C23.2227 5.57309 22.4086 4.76912 21.3764 4.49577C19.5055 3.99998 12 3.99998 12 3.99998C12 3.99998 4.49455 3.99998 2.62364 4.49577C1.59136 4.76912 0.777273 5.57309 0.501818 6.59413C0 8.44594 0 12.3077 0 12.3077C0 12.3077 0 16.1694 0.501818 18.0212C0.777273 19.0423 1.59136 19.8462 2.62364 20.1196C4.49591 20.6154 12 20.6154 12 20.6154C12 20.6154 19.5055 20.6154 21.3764 20.1196C22.4086 19.8462 23.2227 19.0423 23.4982 18.0212C24 16.1708 24 12.3077 24 12.3077C24 12.3077 24 8.44594 23.4982 6.59413ZM9.54545 15.8143V8.80103L15.8182 12.3077L9.54545 15.8143Z" fill="#FF0000"/>
</svg>
