<?xml version="1.0" encoding="UTF-8"?>
<svg width="24px" height="24px" viewBox="0 0 24 24" version="1.1" xmlns="http://www.w3.org/2000/svg" xmlns:xlink="http://www.w3.org/1999/xlink">
    <title>icon/zoomIn</title>
    <g id="icon/zoomIn" stroke="none" stroke-width="1" fill="none" fill-rule="evenodd">
        <path d="M11,0 C17.0751322,0 22,4.92486775 22,11 C22,13.754687 20.987424,16.2728742 19.3141734,18.2026603 L22.0672994,20.9902542 C22.649396,21.5797074 22.6434323,22.5294361 22.0539791,23.1115327 C21.5013668,23.6572483 20.632106,23.686114 20.0459742,23.201896 L19.9327006,23.0982124 L17.055511,20.1846364 C15.3187164,21.3320306 13.2373645,22 11,22 C4.92486775,22 0,17.0751322 0,11 C0,4.92486775 4.92486775,0 11,0 Z M11,3 C6.581722,3 3,6.581722 3,11 C3,15.418278 6.581722,19 11,19 C15.418278,19 19,15.418278 19,11 C19,6.581722 15.418278,3 11,3 Z M11,6 C11.8284271,6 12.5,6.67157288 12.5,7.5 L12.5,9.5 L14.5,9.5 C15.3284271,9.5 16,10.1715729 16,11 C16,11.8284271 15.3284271,12.5 14.5,12.5 L12.5,12.5 L12.5,14.5 C12.5,15.3284271 11.8284271,16 11,16 C10.1715729,16 9.5,15.3284271 9.5,14.5 L9.5,12.5 L7.5,12.5 C6.67157288,12.5 6,11.8284271 6,11 C6,10.1715729 6.67157288,9.5 7.5,9.5 L9.5,9.5 L9.5,7.5 C9.5,6.67157288 10.1715729,6 11,6 Z" id="Combined-Shape" fill="#FFFFFF"></path>
    </g>
</svg>