<svg width="24" height="24" viewBox="0 0 24 24" fill="none" xmlns="http://www.w3.org/2000/svg">
<path fill-rule="evenodd" clip-rule="evenodd" d="M19 2.98095H18V1.99048C18 1.39619 17.6 1 17 1C16.4 1 16 1.39619 16 1.99048V2.98095H8V1.99048C8 1.39619 7.6 1 7 1C6.4 1 6 1.39619 6 1.99048V2.98095H5C3.3 2.98095 2 4.26857 2 5.95238V18.8286C2 20.5124 3.3 21.8 5 21.8H19C20.7 21.8 22 20.5124 22 18.8286V5.95238C22 4.26857 20.7 2.98095 19 2.98095ZM5 4.9619H6V5.95238C6 6.54667 6.4 6.94286 7 6.94286C7.6 6.94286 8 6.54667 8 5.95238V4.9619H16V5.95238C16 6.54667 16.4 6.94286 17 6.94286C17.6 6.94286 18 6.54667 18 5.95238V4.9619H19C19.6 4.9619 20 5.3581 20 5.95238V8.92381H4V5.95238C4 5.3581 4.4 4.9619 5 4.9619ZM19 19.819H5C4.4 19.819 4 19.4229 4 18.8286V10.9048H20V18.8286C20 19.4229 19.6 19.819 19 19.819Z" fill="#3E3A39"/>
</svg>
