<svg width="24" height="24" viewBox="0 0 24 24" fill="none" xmlns="http://www.w3.org/2000/svg">
<path fill-rule="evenodd" clip-rule="evenodd" d="M23.7656 5.57932C23.8594 6.07804 23.9167 6.57674 23.9375 7.07545C23.9792 7.71962 24 8.29625 24 8.80535V12.0314C24 13.6522 23.9948 14.7172 23.9844 15.2263C23.974 15.7354 23.9583 16.312 23.9375 16.9562C23.9167 17.4549 23.8594 17.9484 23.7656 18.4367C23.6719 18.925 23.5417 19.3978 23.375 19.8549C23.0625 20.6653 22.599 21.377 21.9844 21.99C21.3698 22.603 20.6667 23.0654 19.875 23.3771C19.3958 23.5433 18.9115 23.6732 18.4219 23.7667C17.9323 23.8602 17.4375 23.9069 16.9375 23.9069C16.3125 23.9485 15.7396 23.9745 15.2188 23.9849C14.6979 23.9952 13.625 24.0004 12 24.0004C10.375 24.0004 9.30729 23.9952 8.79688 23.9849C8.28646 23.9745 7.70833 23.9485 7.0625 23.9069C6.5625 23.9069 6.06771 23.855 5.57812 23.7511C5.08854 23.6472 4.61459 23.5017 4.15625 23.3147C3.34375 23.003 2.63021 22.5459 2.01562 21.9433C1.40104 21.3407 0.937501 20.6341 0.625 19.8237C0.458333 19.3458 0.328125 18.8679 0.234375 18.3899C0.140625 17.912 0.0833334 17.4237 0.0625 16.925C0.0208331 16.2808 0 15.699 0 15.1795V11.9691C0 10.3482 0.00520828 9.28329 0.015625 8.77419C0.0260417 8.26509 0.0416666 7.68846 0.0625 7.04428C0.0833334 6.54557 0.140625 6.05206 0.234375 5.56374C0.328125 5.07541 0.458333 4.60268 0.625 4.14553C0.937501 3.33512 1.40104 2.62342 2.01562 2.01043C2.63021 1.39742 3.33333 0.93508 4.125 0.623387C4.60417 0.457148 5.08854 0.327278 5.57812 0.233768C6.06771 0.140258 6.5625 0.0935054 7.0625 0.0935054C7.6875 0.0519489 8.26042 0.0259723 8.78125 0.0155842C9.30208 0.00519191 10.375 0 12 0C13.625 0 14.6927 0.00519191 15.2031 0.0155842C15.7135 0.0259723 16.2917 0.0519489 16.9375 0.0935054C17.4375 0.0935054 17.9323 0.140258 18.4219 0.233768C18.9115 0.327278 19.3958 0.457148 19.875 0.623387C20.6667 0.93508 21.3698 1.39742 21.9844 2.01043C22.599 2.62342 23.0625 3.33512 23.375 4.14553C23.5417 4.60268 23.6719 5.08061 23.7656 5.57932ZM18.4062 7.04429C18.0104 7.04429 17.6719 6.90402 17.3906 6.6235C17.1094 6.34297 16.9688 6.00531 16.9688 5.61049C16.9688 5.1949 17.1094 4.85204 17.3906 4.5819C17.6719 4.31177 18.0104 4.1767 18.4062 4.1767C18.8021 4.1767 19.1406 4.31177 19.4219 4.5819C19.7031 4.85204 19.8438 5.1949 19.8438 5.61049C19.8438 6.00531 19.7031 6.34297 19.4219 6.6235C19.1406 6.90402 18.8021 7.04429 18.4062 7.04429ZM9.59375 17.6423C10.3438 17.954 11.1458 18.1099 12 18.1099C12.8542 18.1099 13.6458 17.954 14.375 17.6423C15.125 17.3099 15.7812 16.8683 16.3437 16.3176C16.9063 15.767 17.3437 15.1176 17.6562 14.3695C17.9896 13.6215 18.1562 12.8215 18.1562 11.9695C18.1562 11.1175 17.9896 10.3175 17.6562 9.56946C17.3437 8.82139 16.9063 8.17203 16.3437 7.62137C15.7812 7.07071 15.125 6.62914 14.375 6.29667C13.6458 5.98497 12.8542 5.82912 12 5.82912C11.1458 5.82912 10.3438 5.98497 9.59375 6.29667C8.84374 6.62914 8.1875 7.07071 7.625 7.62137C7.0625 8.17203 6.625 8.82139 6.3125 9.56946C5.97916 10.3175 5.8125 11.1175 5.8125 11.9695C5.8125 12.8215 5.97916 13.6215 6.3125 14.3695C6.625 15.1176 7.0625 15.767 7.625 16.3176C8.1875 16.8683 8.84374 17.3099 9.59375 17.6423ZM14.8281 9.14867C15.6094 9.92791 16 10.8682 16 11.9695C16 13.0708 15.6094 14.0111 14.8281 14.7903C14.0469 15.5696 13.1042 15.9592 12 15.9592C10.8958 15.9592 9.95313 15.5696 9.17187 14.7903C8.39062 14.0111 8 13.0708 8 11.9695C8 10.8682 8.39062 9.92791 9.17187 9.14867C9.95313 8.36943 10.8958 7.97982 12 7.97982C13.1042 7.97982 14.0469 8.36943 14.8281 9.14867Z" fill="#3E3A39"/>
</svg>
