<svg width="24" height="24" viewBox="0 0 24 24" fill="none" xmlns="http://www.w3.org/2000/svg">
<path fill-rule="evenodd" clip-rule="evenodd" d="M13.7196 22.6669H13.7118C12.0543 22.6629 10.6571 21.5536 9.98797 20.9143C10.6637 20.3166 12.0569 19.301 13.7107 19.2971H13.7198C14.9255 19.2971 16.0896 19.8401 17.1848 20.913C16.0858 22.077 14.9231 22.6669 13.7198 22.6669M6.78491 14.9756C7.61823 14.6449 9.26534 14.1657 10.8293 14.7282C11.9699 15.137 12.8827 16.0485 13.548 17.4378C12.1144 18.1578 10.8176 18.3128 9.68473 17.8974C8.12875 17.3271 7.19387 15.8037 6.78504 14.9755M7.64181 7.1384C8.49597 7.42614 10.0741 8.12405 10.9034 9.55503C11.5102 10.6006 11.6222 11.8818 11.2407 13.37C9.6795 13.0002 8.58577 12.2854 7.98544 11.2398C7.15993 9.8023 7.42165 8.03677 7.6417 7.13817M12.4086 1.60436C13.0049 2.28013 14.0218 3.67333 14.0257 5.32709C14.0284 6.53671 13.4854 7.70205 12.4099 8.79982C11.2432 7.69958 10.6534 6.53424 10.656 5.32709C10.6599 3.67086 11.7693 2.27241 12.4086 1.60436ZM14.9502 18.1069C15.0739 17.9285 15.1078 17.6955 15.0218 17.4832C14.3994 15.9247 13.5283 14.7749 12.4281 14.0483C12.8292 12.6915 12.8955 11.4494 12.6273 10.3372C12.7159 10.3099 12.7992 10.2656 12.8708 10.2005C14.5296 8.71874 15.3669 7.07415 15.3591 5.31251C15.346 2.37894 12.9685 0.255356 12.8669 0.165635C12.6221 -0.0492064 12.2575 -0.0557174 12.0049 0.15001C11.8956 0.239853 9.33439 2.36612 9.32269 5.31383C9.32139 5.70574 9.36696 6.09246 9.4542 6.47267C8.35527 5.88154 7.39173 5.67841 7.31882 5.6641C7.0011 5.6003 6.6808 5.77738 6.56491 6.08207C6.51543 6.21358 5.36051 9.33452 6.82402 11.8948C7.12218 12.4156 7.5089 12.8661 7.97245 13.258C6.63133 13.4976 5.65998 14.0171 5.59098 14.0549C5.30582 14.2111 5.17432 14.551 5.2824 14.8596C5.32797 14.9924 6.45036 18.1251 9.21735 19.1459C9.42177 19.2214 9.6314 19.2787 9.84234 19.3269C9.06371 19.8829 8.59105 20.4089 8.55069 20.4558C8.33455 20.7006 8.32934 21.0652 8.53506 21.3178C8.62361 21.4271 10.7499 23.987 13.6989 24H13.7197C15.4827 24 17.1247 23.099 18.6013 21.3216C18.8122 21.0677 18.8057 20.698 18.5857 20.4519C17.4607 19.1928 16.242 18.4089 14.9505 18.1069" fill="#3E3A39"/>
</svg>
