<svg width="24" height="24" viewBox="0 0 24 24" fill="none" xmlns="http://www.w3.org/2000/svg">
<path fill-rule="evenodd" clip-rule="evenodd" d="M20.4844 3.51563C18.1406 1.17186 15.3125 0 12 0C8.68748 0 5.85939 1.17186 3.51563 3.51563C1.17186 5.85939 0 8.68748 0 12C0 15.3125 1.17186 18.1406 3.51563 20.4844C5.85939 22.8281 8.68748 24 12 24C15.3125 24 18.1406 22.8281 20.4844 20.4844C22.8281 18.1406 24 15.3125 24 12C24 8.68748 22.8281 5.85939 20.4844 3.51563ZM17.9531 9.32812C17.9844 9.45313 18 9.57812 18 9.70313C18 11.8281 17.2344 13.7578 15.7031 15.4922C14.1719 17.2266 12.125 18.0938 9.5625 18.0938C7.93749 18.0938 6.43751 17.6563 5.0625 16.7813C5.28125 16.8125 5.51562 16.8281 5.76563 16.8281C7.10938 16.8281 8.32812 16.4063 9.42188 15.5625C8.76562 15.5313 8.1875 15.3281 7.6875 14.9531C7.1875 14.5781 6.84375 14.0938 6.65625 13.5C6.84375 13.5313 7.03125 13.5469 7.21875 13.5469C7.46875 13.5469 7.73437 13.5156 8.01562 13.4531C7.32812 13.2969 6.75781 12.9531 6.30469 12.4219C5.85156 11.8906 5.625 11.2656 5.625 10.5469V10.5C6.03125 10.75 6.48437 10.875 6.98437 10.875C6.07812 10.2812 5.625 9.46875 5.625 8.4375C5.625 7.90625 5.76562 7.40625 6.04687 6.9375C7.60938 8.87501 9.64061 9.90625 12.1406 10.0313C12.0781 9.8125 12.0469 9.57812 12.0469 9.32812C12.0469 8.51562 12.3359 7.82032 12.9141 7.24219C13.4922 6.66406 14.1875 6.375 15 6.375C15.875 6.375 16.5937 6.6875 17.1562 7.3125C17.8438 7.1875 18.4687 6.95313 19.0312 6.60938C18.8125 7.32813 18.3906 7.875 17.7656 8.25C18.3281 8.1875 18.8906 8.03125 19.4531 7.78125C19.0469 8.375 18.5469 8.89062 17.9531 9.32812Z" fill="#3E3A39"/>
</svg>
