<svg width="24" height="24" viewBox="0 0 24 24" fill="none" xmlns="http://www.w3.org/2000/svg">
<path fill-rule="evenodd" clip-rule="evenodd" d="M12 24C18.6274 24 24 18.6274 24 12C24 5.37258 18.6274 0 12 0C5.37258 0 0 5.37258 0 12C0 18.6274 5.37258 24 12 24ZM10.6443 15.6413C10.9068 15.9038 11.3324 15.9038 11.5949 15.6413C11.8575 15.3787 11.8575 14.9531 11.5949 14.6906L9.57521 12.6708L16.3278 12.6708C16.699 12.6708 17 12.3699 17 11.9986C17 11.6273 16.699 11.3264 16.3278 11.3264L9.57801 11.3264L11.595 9.30942C11.8575 9.0469 11.8575 8.62126 11.595 8.35874C11.3324 8.09622 10.9068 8.09622 10.6443 8.35874L7.9537 11.0493L7.95067 11.0463L6.99999 11.997L7.00301 12L7 12.003L7.95068 12.9537L7.9537 12.9507L10.6443 15.6413Z" fill="#3E3A39"/>
</svg>
