<svg width="24" height="24" viewBox="0 0 24 24" fill="none" xmlns="http://www.w3.org/2000/svg">
<path fill-rule="evenodd" clip-rule="evenodd" d="M12 24C18.6274 24 24 18.6274 24 12C24 5.37258 18.6274 0 12 0C5.37258 0 0 5.37258 0 12C0 18.6274 5.37258 24 12 24ZM15.6413 13.3557C15.9038 13.0932 15.9038 12.6676 15.6413 12.405C15.3787 12.1425 14.9531 12.1425 14.6906 12.405L12.6708 14.4248V7.67223C12.6708 7.30097 12.3699 7 11.9986 7C11.6273 7 11.3264 7.30097 11.3264 7.67223V14.422L9.30942 12.405C9.0469 12.1425 8.62126 12.1425 8.35874 12.405C8.09621 12.6676 8.09621 13.0932 8.35874 13.3557L11.0493 16.0463L11.0463 16.0493L11.997 17L12 16.997L12.003 17L12.9537 16.0493L12.9507 16.0463L15.6413 13.3557Z" fill="#3E3A39"/>
</svg>
