<svg width="24" height="24" viewBox="0 0 24 24" fill="none" xmlns="http://www.w3.org/2000/svg">
<path fill-rule="evenodd" clip-rule="evenodd" d="M20.739 12.9721C21.3691 13.6022 21.3691 14.6237 20.739 15.2537L14.2816 21.7111L14.2889 21.7184L12.0072 24L12 23.9928L11.9927 24L9.71111 21.7184L9.71836 21.7111L3.26097 15.2537C2.63091 14.6237 2.63091 13.6022 3.26097 12.9721C3.89102 12.342 4.91254 12.342 5.5426 12.9721L10.3833 17.8128L10.3833 1.61335C10.3833 0.722318 11.1056 -8.46256e-06 11.9966 -8.47318e-06C12.8877 -8.48381e-06 13.61 0.722317 13.61 1.61335L13.61 17.8195L18.4574 12.9721C19.0874 12.3421 20.1089 12.3421 20.739 12.9721Z" fill="#3E3A39"/>
</svg>
