<svg width="196" height="52" viewBox="0 0 196 52" fill="none" xmlns="http://www.w3.org/2000/svg">
<path fill-rule="evenodd" clip-rule="evenodd" d="M172.917 26.9084C172.917 26.9084 173.238 23.3996 179.134 19.9925C183.496 17.4718 183.984 16.6288 183.984 16.6288C183.984 16.6288 179.927 17.4718 171.619 18.6184C164.638 19.582 162 21.9683 159.764 24.7912C159.764 24.7912 159.764 17.249 167.624 12.4752C175.917 7.43917 187.653 12.1025 192.499 6.93628C192.499 6.93628 194.171 15.0849 189.686 19.9849C185.2 24.8845 176.825 21.8486 172.917 26.9084ZM193.838 29.5604C193.485 31.5382 191.765 33.0425 189.686 33.0425C187.351 33.0425 185.459 31.15 185.459 28.8153C185.459 27.0735 186.513 25.5812 188.018 24.9349C188.263 24.8226 188.489 24.7097 188.704 24.5971C188.698 24.5968 188.693 24.5968 188.687 24.5965C196.418 20.4584 197.38 8.25993 192.43 0.567841C191.888 5.60881 188.369 6.90021 184.625 7.19989L183.874 7.2474L183.122 7.2732L182.002 7.28259L179.184 7.25033L178.237 7.26411L177.652 7.29431L177.376 7.31748L175.935 7.46967C171.897 7.93972 168.207 8.79303 164.643 11.4799C159.16 15.6142 157.311 21.0645 157.152 25.7484L157.152 25.7478C157.152 25.7478 156.733 32.101 159.944 36.0913C159.944 36.0913 157.628 28.7478 164.29 23.9655C166.692 22.2688 169.999 21.1399 174.388 20.6575L174.09 20.8839L173.831 21.1006L173.513 21.3894L173.149 21.7495C171.713 23.2371 169.59 26.2369 169.994 30.7025H169.993C170.002 30.7969 170.013 30.8928 170.024 30.9884C170.03 31.0389 170.034 31.0881 170.04 31.1386C170.059 31.2887 170.081 31.4406 170.105 31.594C170.139 31.8042 170.165 32.0098 170.187 32.2127C170.204 32.376 170.215 32.5352 170.224 32.6939C170.229 32.7555 170.235 32.8191 170.238 32.8801C170.248 33.0977 170.251 33.3108 170.248 33.5193C170.247 33.5613 170.243 33.6011 170.242 33.6431C170.237 33.8079 170.23 33.9718 170.217 34.131C170.211 34.2037 170.201 34.2735 170.194 34.3451C170.181 34.47 170.168 34.5949 170.15 34.7157C170.139 34.7937 170.124 34.8691 170.111 34.9456C170.092 35.0559 170.073 35.1664 170.051 35.2734C170.034 35.3514 170.015 35.4274 169.997 35.5036C169.972 35.6051 169.947 35.7068 169.92 35.8057C169.899 35.8816 169.876 35.9555 169.853 36.0294C169.825 36.1194 169.797 36.2089 169.767 36.2968C169.482 37.0792 168.489 39.1849 165.923 39.725C163.76 40.1804 162.192 38.9981 162.192 38.9981C162.192 38.9981 163.239 40.3713 165.409 41.8213C165.44 41.843 165.47 41.8653 165.502 41.8867C165.555 41.9228 165.611 41.9574 165.665 41.9929C165.774 42.0647 165.882 42.1363 165.994 42.2058C166.061 42.248 166.131 42.2882 166.2 42.3295C166.301 42.3908 166.402 42.4524 166.506 42.5119C166.58 42.5541 166.656 42.5952 166.73 42.6371C166.831 42.6931 166.933 42.7494 167.036 42.804C167.114 42.8462 167.195 42.8861 167.275 42.9271C167.377 42.979 167.478 43.0309 167.582 43.0811C167.665 43.1218 167.75 43.1611 167.834 43.2007C167.937 43.2491 168.04 43.2972 168.145 43.3438C168.232 43.3822 168.319 43.4198 168.406 43.4573C168.512 43.5021 168.617 43.5467 168.723 43.5904C168.813 43.6268 168.903 43.662 168.994 43.6971C169.101 43.7388 169.208 43.7801 169.317 43.8203C169.409 43.8543 169.501 43.8875 169.594 43.9203C169.703 43.9587 169.813 43.9962 169.924 44.0332C170.018 44.0649 170.112 44.0954 170.207 44.1256C170.319 44.161 170.432 44.1954 170.545 44.2288C170.641 44.2572 170.736 44.2857 170.833 44.3129C170.947 44.3449 171.063 44.3757 171.178 44.4062C171.275 44.4317 171.372 44.4572 171.47 44.4813C171.587 44.5103 171.706 44.5376 171.824 44.5648C171.922 44.5871 172.019 44.6097 172.117 44.6308C172.238 44.6563 172.36 44.6801 172.481 44.7038C172.579 44.7229 172.676 44.7422 172.775 44.7601C172.9 44.7827 173.026 44.8026 173.152 44.8232C173.248 44.8384 173.344 44.8548 173.441 44.8692C173.572 44.8883 173.705 44.905 173.837 44.922C173.93 44.9337 174.022 44.9466 174.115 44.9572C174.131 44.9589 174.145 44.9613 174.161 44.963L174.173 44.9627C175.799 45.1434 177.488 45.1363 179.187 44.905L179.2 44.9047C179.26 44.8968 179.319 44.885 179.378 44.8762C179.577 44.8472 179.776 44.8158 179.974 44.7806C180.072 44.7636 180.169 44.7446 180.266 44.7261C180.45 44.6906 180.633 44.6522 180.817 44.6112C180.914 44.5898 181.01 44.5683 181.107 44.5452C181.308 44.4968 181.509 44.4446 181.71 44.3895C181.784 44.3692 181.859 44.3508 181.933 44.3297C182.206 44.2517 182.479 44.1675 182.751 44.0766C182.805 44.0581 182.859 44.0373 182.914 44.0185C183.132 43.9435 183.349 43.8646 183.566 43.781C183.658 43.7455 183.749 43.7077 183.841 43.6708C184.023 43.5972 184.205 43.5209 184.386 43.4412C184.482 43.3986 184.579 43.3558 184.675 43.3115C184.86 43.2259 185.045 43.1365 185.229 43.0441C185.313 43.0025 185.398 42.9617 185.482 42.9183C185.747 42.7808 186.011 42.6383 186.273 42.4864C188.497 41.244 190.682 39.1122 192.192 36.6467L192.194 36.6464C192.194 36.6464 193.436 34.9394 193.977 32.3094C193.987 32.2608 193.998 32.2121 194.007 32.1634C194.018 32.1065 194.028 32.0476 194.038 31.9895C194.054 31.9007 194.07 31.8118 194.084 31.723C194.362 29.9328 194.285 27.7778 193.322 25.4704C193.322 25.4704 194.126 27.555 193.838 29.5604ZM110.365 9.24783V40.3305C110.365 40.3995 110.355 40.4651 110.34 40.5294C110.092 43.2133 107.836 45.3155 105.087 45.3155C103.607 45.3155 102.272 44.705 101.314 43.7244L101.245 43.7769L89.5168 28.4927V43.8493C89.5168 44.3335 89.1209 44.729 88.6371 44.729H79.8401C79.3562 44.729 78.9604 44.3335 78.9604 43.8493V12.7666C78.9604 12.6983 78.9703 12.632 78.9853 12.5678C79.2337 9.88386 81.4895 7.78167 84.2386 7.78167C85.7895 7.78167 87.1797 8.45464 88.1453 9.51995L88.2201 9.46219L99.809 24.5649V9.24783C99.809 8.76429 100.205 8.36813 100.689 8.36813H109.486C109.969 8.36813 110.365 8.76429 110.365 9.24783ZM32.1692 9.24783V21.2704V31.8268V43.8493C32.1692 44.3335 31.7733 44.729 31.2895 44.729H22.4925C22.0086 44.729 21.6128 44.3335 21.6128 43.8493V31.8268H11.0564V43.8493C11.0564 44.3335 10.6605 44.729 10.1767 44.729H1.3797C0.895865 44.729 0.5 44.3335 0.5 43.8493V31.8268V21.2704V9.24783C0.5 8.76429 0.895865 8.36813 1.3797 8.36813H10.1767C10.6605 8.36813 11.0564 8.76429 11.0564 9.24783V21.2704H21.6128V9.24783C21.6128 8.76429 22.0086 8.36813 22.4925 8.36813H31.2895C31.7733 8.36813 32.1692 8.76429 32.1692 9.24783ZM133.878 34.5928C129.343 34.5928 125.667 30.9169 125.667 26.3823C125.667 21.8478 129.343 18.1718 133.878 18.1718C138.413 18.1718 142.088 21.8478 142.088 26.3823C142.088 30.9169 138.413 34.5928 133.878 34.5928ZM133.878 7.6154C123.53 7.6154 115.111 16.0344 115.111 26.3823C115.111 36.7305 123.53 45.1492 133.878 45.1492C144.226 45.1492 152.645 36.7305 152.645 26.3823C152.645 16.0344 144.226 7.6154 133.878 7.6154ZM55.3932 34.5928C50.8587 34.5928 47.1827 30.9169 47.1827 26.3823C47.1827 21.8478 50.8587 18.1718 55.3932 18.1718C59.9278 18.1718 63.6038 21.8478 63.6038 26.3823C63.6038 30.9169 59.9278 34.5928 55.3932 34.5928ZM55.3932 7.6154C45.045 7.6154 36.6263 16.0344 36.6263 26.3823C36.6263 36.7305 45.045 45.1492 55.3932 45.1492C65.7411 45.1492 74.1602 36.7305 74.1602 26.3823C74.1602 16.0344 65.7411 7.6154 55.3932 7.6154Z" fill="#202021"/>
</svg>
