<svg width="24" height="24" viewBox="0 0 24 24" fill="none" xmlns="http://www.w3.org/2000/svg">
<path fill-rule="evenodd" clip-rule="evenodd" d="M6.287 3.46895C5.50121 2.8069 4.32573 2.84585 3.58579 3.58579C2.80474 4.36684 2.80474 5.63317 3.58579 6.41421L9.17157 12L3.58579 17.5858C2.80474 18.3668 2.80474 19.6332 3.58579 20.4142C4.32573 21.1542 5.50121 21.1931 6.287 20.531L6.41421 20.4142L12 14.8284L17.5858 20.4142L17.713 20.531C18.4988 21.1931 19.6743 21.1542 20.4142 20.4142C21.1953 19.6332 21.1953 18.3668 20.4142 17.5858L14.8284 12L20.4142 6.41421C21.1953 5.63317 21.1953 4.36684 20.4142 3.58579C19.6743 2.84585 18.4988 2.8069 17.713 3.46895L17.5858 3.58579L12 9.17157L6.41421 3.58579L6.287 3.46895Z" fill="#3E3A39"/>
</svg>
