<svg width="24" height="24" viewBox="0 0 24 24" fill="none" xmlns="http://www.w3.org/2000/svg">
<path fill-rule="evenodd" clip-rule="evenodd" d="M12 0C10.3513 0 8.79626 0.320374 7.33489 0.961133C5.87353 1.58304 4.59954 2.44051 3.51288 3.53357C2.42622 4.62663 1.57377 5.90812 0.955503 7.37809C0.318498 8.84807 0 10.4122 0 12.0707C0 13.5783 0.262292 15.0012 0.786885 16.3392C1.31148 17.6961 2.02341 18.9022 2.92272 19.9576C3.82202 21.013 4.88992 21.8893 6.12646 22.5866C7.363 23.2839 8.6932 23.755 10.1171 24V15.5477H7.08197V12.0707H10.1171V9.41343C10.1171 7.90576 10.5293 6.74676 11.3536 5.9364C12.178 5.12603 13.2834 4.72085 14.6698 4.72085C15.3255 4.72085 15.9344 4.75854 16.4965 4.83392C17.0586 4.90931 17.3396 4.947 17.3396 4.947V7.9152H15.822C15.0726 7.9152 14.5621 8.11307 14.2904 8.50883C14.0187 8.9046 13.8829 9.33804 13.8829 9.80919V12.0707H17.1991L16.6651 15.5477H13.8829V23.9717C15.3068 23.7456 16.637 23.2839 17.8735 22.5866C19.1101 21.8893 20.1827 21.013 21.0913 19.9576C22 18.9022 22.7073 17.6961 23.2131 16.3392C23.7377 15.0012 24 13.5783 24 12.0707C24 10.4122 23.6815 8.84807 23.0445 7.37809C22.4262 5.90812 21.5738 4.62663 20.4871 3.53357C19.4005 2.44051 18.1265 1.58304 16.6651 0.961133C15.2037 0.320374 13.6487 0 12 0Z" fill="#3E3A39"/>
</svg>
