<?xml version="1.0" encoding="UTF-8"?>
<svg width="24px" height="24px" viewBox="0 0 24 24" version="1.1" xmlns="http://www.w3.org/2000/svg" xmlns:xlink="http://www.w3.org/1999/xlink">
    <title>icon/image</title>
    <g id="icon/image" stroke="none" stroke-width="1" fill="none" fill-rule="evenodd">
        <path d="M20.7535411,3 C21.4617564,3 22,3.56657224 22,4.24645892 L22,19.9971671 C22,20.6770538 21.4334278,21.2436261 20.7535411,21.2436261 L3.24645892,21.2436261 C2.56657224,21.2436261 2,20.6770538 2,19.9971671 L2,4.24645892 C2,3.56657224 2.56657224,3 3.24645892,3 Z M19.5354108,5.49291785 L4.49291785,5.49291785 L4.49291785,18.7507082 L19.5354108,18.7507082 L19.5354108,5.49291785 Z M9.93201133,10.9036827 C10.1586402,10.5637394 10.7535411,10.5637394 10.98017,10.9036827 L12.8498584,13.6232295 L13.8696884,12.1784703 C14.0963173,11.8385269 14.6912181,11.8385269 14.917847,12.1784703 L17.3824363,15.776204 C17.4957507,15.9745042 17.5240793,16.2294618 17.4107649,16.427762 C17.2974504,16.6260623 17.0708215,16.7677054 16.8441926,16.7677054 L7.15580737,16.7677054 C6.92917847,16.7677054 6.70254958,16.6260623 6.58923513,16.3994334 C6.47592068,16.2011331 6.47592068,15.9461756 6.61756374,15.7478754 Z M13.9546742,7.2776204 C14.8777564,7.2776204 15.6260623,8.02592634 15.6260623,8.9490085 C15.6260623,9.87209066 14.8777564,10.6203966 13.9546742,10.6203966 C13.0315921,10.6203966 12.2832861,9.87209066 12.2832861,8.9490085 C12.2832861,8.02592634 13.0315921,7.2776204 13.9546742,7.2776204 Z" id="Combined-Shape" fill="#FFFFFF"></path>
    </g>
</svg>