<svg width="24" height="24" viewBox="0 0 24 24" fill="none" xmlns="http://www.w3.org/2000/svg">
<g clip-path="url(#clip0_8068_37269)">
<path fill-rule="evenodd" clip-rule="evenodd" d="M22 12C22 17.5228 17.5228 22 12 22C6.47715 22 2 17.5228 2 12C2 6.47715 6.47715 2 12 2C17.5228 2 22 6.47715 22 12ZM24 12C24 18.6274 18.6274 24 12 24C5.37258 24 0 18.6274 0 12C0 5.37258 5.37258 0 12 0C18.6274 0 24 5.37258 24 12ZM13.75 6.75C13.75 7.7165 12.9665 8.5 12 8.5C11.0335 8.5 10.25 7.7165 10.25 6.75C10.25 5.7835 11.0335 5 12 5C12.9665 5 13.75 5.7835 13.75 6.75ZM12.5 10.375C12.7761 10.375 13 10.5989 13 10.875V11.875V16.375H14C14.2761 16.375 14.5 16.5989 14.5 16.875V17.875C14.5 18.1511 14.2761 18.375 14 18.375H12.5H11.5H10C9.72386 18.375 9.5 18.1511 9.5 17.875V16.875C9.5 16.5989 9.72386 16.375 10 16.375H11V12.375H10C9.72386 12.375 9.5 12.1511 9.5 11.875V10.875C9.5 10.5989 9.72386 10.375 10 10.375H11.5H12.5Z" fill="#EFEFEF"/>
</g>
<defs>
<clipPath id="clip0_8068_37269">
<rect width="24" height="24" fill="white"/>
</clipPath>
</defs>
</svg>
