<svg width="24" height="24" viewBox="0 0 24 24" fill="none" xmlns="http://www.w3.org/2000/svg">
<path fill-rule="evenodd" clip-rule="evenodd" d="M10.2804 22.6669H10.2882C11.9457 22.6629 13.3429 21.5536 14.012 20.9143C13.3363 20.3166 11.9431 19.301 10.2893 19.2971H10.2802C9.07448 19.2971 7.91045 19.8401 6.81524 20.913C7.91417 22.077 9.07693 22.6669 10.2802 22.6669M17.2151 14.9756C16.3818 14.6449 14.7347 14.1657 13.1707 14.7282C12.0301 15.137 11.1173 16.0485 10.452 17.4378C11.8856 18.1578 13.1824 18.3128 14.3153 17.8974C15.8713 17.3271 16.8061 15.8037 17.215 14.9755M16.3582 7.1384C15.504 7.42614 13.9259 8.12405 13.0966 9.55503C12.4898 10.6006 12.3778 11.8818 12.7593 13.37C14.3205 13.0002 15.4142 12.2854 16.0146 11.2398C16.8401 9.8023 16.5784 8.03677 16.3583 7.13817M11.5914 1.60436C10.9951 2.28013 9.97817 3.67333 9.97425 5.32709C9.97165 6.53671 10.5146 7.70205 11.5901 8.79982C12.7568 7.69958 13.3466 6.53424 13.344 5.32709C13.3401 3.67086 12.2307 2.27241 11.5914 1.60436ZM9.04979 18.1069C8.9261 17.9285 8.89224 17.6955 8.97818 17.4832C9.60056 15.9247 10.4717 14.7749 11.5719 14.0483C11.1708 12.6915 11.1045 11.4494 11.3727 10.3372C11.2841 10.3099 11.2008 10.2656 11.1292 10.2005C9.47035 8.71874 8.63314 7.07415 8.64095 5.31251C8.65397 2.37894 11.0315 0.255356 11.1331 0.165635C11.3779 -0.0492064 11.7425 -0.0557174 11.9951 0.15001C12.1044 0.239853 14.6656 2.36612 14.6773 5.31383C14.6786 5.70574 14.633 6.09246 14.5458 6.47267C15.6447 5.88154 16.6083 5.67841 16.6812 5.6641C16.9989 5.6003 17.3192 5.77738 17.4351 6.08207C17.4846 6.21358 18.6395 9.33452 17.176 11.8948C16.8778 12.4156 16.4911 12.8661 16.0276 13.258C17.3687 13.4976 18.34 14.0171 18.409 14.0549C18.6942 14.2111 18.8257 14.551 18.7176 14.8596C18.672 14.9924 17.5496 18.1251 14.7827 19.1459C14.5782 19.2214 14.3686 19.2787 14.1577 19.3269C14.9363 19.8829 15.4089 20.4089 15.4493 20.4558C15.6655 20.7006 15.6707 21.0652 15.4649 21.3178C15.3764 21.4271 13.2501 23.987 10.3011 24H10.2803C8.51728 24 6.87533 23.099 5.39869 21.3216C5.18775 21.0677 5.19426 20.698 5.41431 20.4519C6.5393 19.1928 7.75803 18.4089 9.04954 18.1069" fill="#3E3A39"/>
</svg>
