<svg width="24" height="24" viewBox="0 0 24 24" fill="none" xmlns="http://www.w3.org/2000/svg">
<path fill-rule="evenodd" clip-rule="evenodd" d="M4.57407 22H19.3889C21.6389 22 23.463 20.176 23.463 17.9259V6.07407C23.463 3.82403 21.6389 2 19.3889 2H4.57407C2.32403 2 0.5 3.82403 0.5 6.07407V17.9259C0.5 20.176 2.32403 22 4.57407 22ZM19.3889 19.7778H4.57407C3.55132 19.7778 2.72222 18.9487 2.72222 17.9259V9.29259L8.64815 13.5259C10.642 14.9507 13.321 14.9507 15.3148 13.5259L21.2407 9.29259V17.9259C21.2407 18.9487 20.4116 19.7778 19.3889 19.7778ZM19.3889 4.22222H4.57407C3.55132 4.22222 2.72222 5.05132 2.72222 6.07407V6.55926L9.94815 11.7148C11.1673 12.5832 12.803 12.5832 14.0222 11.7148L21.2407 6.55926V6.07407C21.2407 5.05132 20.4116 4.22222 19.3889 4.22222Z" fill="#3E3A39"/>
</svg>
