<svg width="24" height="24" viewBox="0 0 24 24" fill="none" xmlns="http://www.w3.org/2000/svg">
<path fill-rule="evenodd" clip-rule="evenodd" d="M19.3994 10.1734C20.3379 10.2536 21.0745 11.0408 21.0745 12C21.0745 13.0125 20.2537 13.8333 19.2412 13.8333H13.8333V19.2412C13.8333 20.2537 13.0125 21.0745 12 21.0745C11.0408 21.0745 10.2536 20.3379 10.1734 19.3994L10.1667 19.2412V13.8333H4.75879L4.6006 13.8266C3.66214 13.7464 2.92546 12.9592 2.92546 12C2.92546 10.9874 3.74627 10.1667 4.75879 10.1667H10.1667V4.75878C10.1667 3.74626 10.9875 2.92545 12 2.92545C12.9592 2.92545 13.7464 3.66213 13.8266 4.6006L13.8333 4.75878V10.1667H19.2412L19.3994 10.1734Z" fill="#3E3A39"/>
</svg>
