<svg width="24" height="24" viewBox="0 0 24 24" fill="none" xmlns="http://www.w3.org/2000/svg">
<path d="M1.00655 7.01796C0.968642 7.40502 1.09646 7.79005 1.35837 8.07745C1.62039 8.36497 1.99178 8.52801 2.38074 8.52612H3.41137C3.41093 8.63281 3.41663 8.7395 3.4286 8.84562L4.73064 19.9181H4.73052C4.82827 20.7549 5.23018 21.5267 5.85979 22.0866C6.48939 22.6466 7.30285 22.9557 8.1454 22.955H15.8546C16.696 22.9549 17.5082 22.646 18.1369 22.0869C18.7658 21.5277 19.1675 20.7572 19.266 19.9215L20.5681 8.84897V8.84908C20.5812 8.74195 20.5881 8.63403 20.5886 8.52612H21.6193C22.0082 8.52802 22.3796 8.36497 22.6416 8.07745C22.9035 7.79004 23.0314 7.40502 22.9935 7.01795C22.9502 6.67071 22.7799 6.35176 22.5153 6.12273C22.2508 5.8937 21.9107 5.7708 21.5609 5.77772H17.136C17.0305 4.48808 16.4437 3.28533 15.4921 2.40868C14.5405 1.53181 13.2939 1.04501 11.9999 1.04501C10.706 1.04501 9.45948 1.53181 8.5078 2.40868C7.55624 3.28544 6.96946 4.4882 6.86388 5.77772H2.43901C2.08919 5.77079 1.74911 5.89369 1.48464 6.12273C1.22004 6.35176 1.04974 6.67071 1.00645 7.01795L1.00655 7.01796ZM12 3.71648C12.5779 3.71715 13.136 3.92583 13.5726 4.30437C14.0092 4.68282 14.2948 5.20584 14.3773 5.77775H9.62266C9.70519 5.20584 9.99079 4.68282 10.4274 4.30437C10.864 3.92581 11.4221 3.71714 12 3.71648H12ZM17.8403 8.52612L16.5383 19.5986C16.5188 19.7668 16.438 19.9219 16.3111 20.0341C16.1843 20.1464 16.0205 20.2078 15.8512 20.2066H8.14545C7.97614 20.2078 7.8123 20.1464 7.68561 20.0341C7.5588 19.9219 7.47783 19.7668 7.45837 19.5986L6.1598 8.52612H17.8403Z" fill="#3E3A39"/>
</svg>
