<svg width="24" height="24" viewBox="0 0 24 24" fill="none" xmlns="http://www.w3.org/2000/svg">
<path d="M22.667 14.3335C23.4037 14.3337 23.9998 14.9299 24 15.6666V18.4898C24 21.1603 21.8266 23.3335 19.1572 23.3335H4.84375C2.17324 23.3335 0 21.1604 0 18.4898V15.6666C0.00022556 14.9299 0.596322 14.3337 1.33301 14.3335C2.06986 14.3335 2.66677 14.9298 2.66699 15.6666V18.4898C2.66699 19.6903 3.64325 20.6665 4.84375 20.6666H19.1572C20.3577 20.6664 21.334 19.6903 21.334 18.4898V15.6666C21.3342 14.9757 21.8585 14.4085 22.5312 14.3404L22.667 14.3335ZM11.9951 1.99957C12.3349 1.99957 12.6791 2.1299 12.9434 2.3941L17.6895 7.14117C18.2088 7.66464 18.2089 8.5084 17.6895 9.02789C17.166 9.54715 16.3222 9.54719 15.8027 9.02789L13.3291 6.55328V16.3335C13.3291 17.0705 12.7321 17.6675 11.9951 17.6675C11.2582 17.6674 10.6621 17.0705 10.6621 16.3335V6.55328L8.19336 9.02398C7.67 9.54333 6.82618 9.54318 6.30664 9.02398C5.78713 8.50055 5.78719 7.65681 6.30664 7.13726L11.0527 2.39019C11.3118 2.13003 11.6555 1.99963 11.9951 1.99957Z" fill="#EFEFEF"/>
</svg>
