<svg width="24" height="24" viewBox="0 0 24 24" fill="none" xmlns="http://www.w3.org/2000/svg">
<path fill-rule="evenodd" clip-rule="evenodd" d="M11.0279 20.739C10.3978 21.3691 9.3763 21.3691 8.74624 20.739L2.28886 14.2816L2.28164 14.2889L2.71202e-06 12.0072L0.00723347 12L-1.63602e-05 11.9928L2.28162 9.71113L2.28887 9.71838L8.74626 3.26098C9.37632 2.63093 10.3978 2.63092 11.0279 3.26098C11.658 3.89104 11.6579 4.91256 11.0279 5.54261L6.18722 10.3833L22.3866 10.3833C23.2777 10.3833 24 11.1056 24 11.9966C24 12.8877 23.2777 13.61 22.3866 13.61L6.18049 13.61L11.0279 18.4574C11.6579 19.0874 11.6579 20.109 11.0279 20.739Z" fill="#3E3A39"/>
</svg>
