<svg width="24" height="24" viewBox="0 0 24 24" fill="none" xmlns="http://www.w3.org/2000/svg">
<path fill-rule="evenodd" clip-rule="evenodd" d="M3.26096 11.0279C2.63091 10.3978 2.63091 9.3763 3.26096 8.74625L9.71834 2.28887L9.71111 2.28164L11.9927 9.13441e-06L12 0.00723989L12.0072 -9.93971e-06L14.2889 2.28162L14.2816 2.28887L20.739 8.74627C21.3691 9.37632 21.3691 10.3978 20.739 11.0279C20.1089 11.658 19.0874 11.658 18.4574 11.0279L13.6167 6.18723L13.6167 22.3866C13.6167 23.2777 12.8944 24 12.0033 24C11.1123 24 10.39 23.2777 10.39 22.3866L10.39 6.1805L5.5426 11.0279C4.91254 11.6579 3.89102 11.6579 3.26096 11.0279Z" fill="#3E3A39"/>
</svg>
