<svg width="24" height="24" viewBox="0 0 24 24" fill="none" xmlns="http://www.w3.org/2000/svg">
<path fill-rule="evenodd" clip-rule="evenodd" d="M12.9721 3.26098C13.6021 2.63093 14.6237 2.63093 15.2537 3.26098L21.7111 9.71836L21.7183 9.71113L24 11.9928L23.9927 12L24 12.0072L21.7184 14.2889L21.7111 14.2816L15.2537 20.739C14.6237 21.3691 13.6021 21.3691 12.9721 20.739C12.342 20.109 12.342 19.0874 12.9721 18.4574L17.8127 13.6167L1.61333 13.6167C0.722296 13.6167 -3.05176e-05 12.8944 -3.05176e-05 12.0034C-3.05176e-05 11.1123 0.722295 10.39 1.61333 10.39L17.8195 10.39L12.9721 5.54262C12.342 4.91256 12.342 3.89104 12.9721 3.26098Z" fill="#3E3A39"/>
</svg>
