<svg width="24" height="24" viewBox="0 0 24 24" fill="none" xmlns="http://www.w3.org/2000/svg">
<path fill-rule="evenodd" clip-rule="evenodd" d="M12 24C18.6274 24 24 18.6274 24 12C24 5.37258 18.6274 0 12 0C5.37258 0 0 5.37258 0 12C0 18.6274 5.37258 24 12 24ZM8.35874 10.6443C8.09622 10.9068 8.09622 11.3324 8.35874 11.595C8.62126 11.8575 9.0469 11.8575 9.30942 11.595L11.3292 9.57521V16.3278C11.3292 16.699 11.6301 17 12.0014 17C12.3727 17 12.6736 16.699 12.6736 16.3278V9.57801L14.6906 11.595C14.9531 11.8575 15.3787 11.8575 15.6413 11.595C15.9038 11.3324 15.9038 10.9068 15.6413 10.6443L12.9507 7.9537L12.9537 7.95068L12.003 7L12 7.00302L11.997 7.00001L11.0463 7.95069L11.0493 7.9537L8.35874 10.6443Z" fill="#3E3A39"/>
</svg>
