<svg width="24" height="24" viewBox="0 0 24 24" fill="none" xmlns="http://www.w3.org/2000/svg">
<path fill-rule="evenodd" clip-rule="evenodd" d="M12 24C18.6274 24 24 18.6274 24 12C24 5.37258 18.6274 0 12 0C5.37258 0 0 5.37258 0 12C0 18.6274 5.37258 24 12 24ZM13.3557 8.35874C13.0932 8.09622 12.6676 8.09622 12.405 8.35874C12.1425 8.62127 12.1425 9.0469 12.405 9.30942L14.4248 11.3292H7.67223C7.30096 11.3292 6.99999 11.6301 6.99999 12.0014C6.99999 12.3727 7.30096 12.6736 7.67223 12.6736H14.422L12.405 14.6906C12.1425 14.9531 12.1425 15.3787 12.405 15.6413C12.6676 15.9038 13.0932 15.9038 13.3557 15.6413L16.0463 12.9507L16.0493 12.9537L17 12.003L16.997 12L17 11.997L16.0493 11.0463L16.0463 11.0493L13.3557 8.35874Z" fill="#3E3A39"/>
</svg>
