<svg width="24" height="24" viewBox="0 0 24 24" fill="none" xmlns="http://www.w3.org/2000/svg">
<path fill-rule="evenodd" clip-rule="evenodd" d="M19.6237 3.63937L20.6756 2.77593C21.12 2.40937 21.7791 2.47405 22.1447 2.91937C22.5094 3.36375 22.4456 4.02187 22.0003 4.38843L3.2183 19.8216C2.77298 20.1873 2.11486 20.1235 1.74924 19.6782C1.38362 19.2329 1.4483 18.5748 1.89268 18.2101L3.30174 17.0513C3.2558 17.011 3.21173 16.9688 3.16767 16.9248C2.59111 16.3491 2.26767 15.5673 2.26767 14.7516V9.24835C2.26767 8.43273 2.59111 7.65085 3.16767 7.07515C3.74423 6.49859 4.52611 6.17421 5.34087 6.17421H8.70567C8.8913 6.17421 9.07223 6.12265 9.22879 6.02515L15.1932 2.29675C16.141 1.70519 17.3354 1.67331 18.3122 2.21519C18.901 2.54237 19.3556 3.04581 19.6238 3.63925L19.6237 3.63937ZM4.98173 15.6714L17.8291 5.11417C17.816 5.04574 17.8085 4.97542 17.8085 4.90417C17.8085 4.54511 17.6135 4.21511 17.3004 4.04073C16.9863 3.8673 16.6029 3.87667 16.2991 4.06698L10.3347 7.79438C9.84631 8.1 9.28193 8.2622 8.70537 8.2622H5.34057C5.07901 8.2622 4.82869 8.36533 4.64307 8.55096C4.45838 8.73565 4.35431 8.9869 4.35431 9.24846V14.7517C4.35431 15.0132 4.45837 15.2645 4.64307 15.4492C4.74057 15.5467 4.85589 15.6217 4.98151 15.6713L4.98173 15.6714ZM17.8085 9.73037C17.8085 9.15475 18.2764 8.68693 18.852 8.68693C19.4276 8.68693 19.8954 9.15475 19.8954 9.73037V19.096C19.8954 20.2144 19.2889 21.2428 18.312 21.7848C17.3351 22.3268 16.1408 22.2948 15.193 21.7032L9.38877 18.0752C8.90033 17.7705 8.75127 17.1255 9.05689 16.6371C9.36251 16.1496 10.0066 16.0005 10.495 16.3062L16.2992 19.9334C16.603 20.1237 16.9864 20.133 17.3005 19.9596C17.6136 19.7852 17.8086 19.4552 17.8086 19.0962L17.8085 9.73037Z" fill="#EFEFEF"/>
</svg>
