<svg width="222" height="38" viewBox="0 0 222 38" fill="none" xmlns="http://www.w3.org/2000/svg">
<mask id="path-1-outside-1_909_2467" maskUnits="userSpaceOnUse" x="50.9528" y="29.8468" width="103" height="8" fill="black">
<rect fill="white" x="50.9528" y="29.8468" width="103" height="8"/>
<path d="M56.3494 35.483C56.3494 35.5435 56.3149 35.5737 56.2458 35.5737H54.6788C54.6141 35.5737 54.5817 35.5413 54.5817 35.4766C54.5817 35.4204 54.6162 35.3924 54.6853 35.3924C54.9616 35.3794 55.0997 35.3233 55.0997 35.224C55.0997 35.1765 55.022 35.0557 54.8666 34.8614L53.5198 33.2102L53.0859 33.6246V34.8873C53.0859 35.0988 53.1442 35.237 53.2608 35.3017C53.3341 35.3449 53.4701 35.373 53.6687 35.3859C53.7378 35.3945 53.7723 35.4312 53.7723 35.496C53.7723 35.5478 53.7378 35.5737 53.6687 35.5737H52.0823C52.0175 35.5737 51.9851 35.5413 51.9851 35.4766C51.9851 35.4248 52.0175 35.3945 52.0823 35.3859C52.2636 35.373 52.3888 35.3492 52.4578 35.3147C52.583 35.2629 52.6456 35.1204 52.6456 34.8873V31.7209C52.6456 31.5008 52.583 31.3583 52.4578 31.2936C52.3801 31.2547 52.2441 31.2223 52.0499 31.1964C51.9851 31.1921 51.9528 31.1576 51.9528 31.0928C51.9528 31.0367 51.9851 31.0087 52.0499 31.0087H53.6687C53.7378 31.0087 53.7723 31.0432 53.7723 31.1123C53.7723 31.1597 53.7378 31.1878 53.6687 31.1964C53.4917 31.218 53.3622 31.2439 53.2802 31.2741C53.1507 31.3346 53.0859 31.4813 53.0859 31.7145V33.3333L54.8925 31.5914C54.9788 31.5094 55.022 31.4382 55.022 31.3777C55.022 31.2741 54.8947 31.2115 54.64 31.19C54.5709 31.19 54.5364 31.1576 54.5364 31.0928C54.5364 31.0367 54.5687 31.0087 54.6335 31.0087H56.0192C56.0883 31.0087 56.1228 31.0432 56.1228 31.1123C56.1228 31.1597 56.0904 31.19 56.0257 31.2029C55.8875 31.2245 55.7516 31.2698 55.6177 31.3389C55.4882 31.4036 55.3652 31.4921 55.2486 31.6044L53.837 32.9383L55.5336 34.978C55.6285 35.0988 55.7364 35.1916 55.8573 35.2564C55.9782 35.3211 56.1099 35.3643 56.2523 35.3859C56.3171 35.3945 56.3494 35.4269 56.3494 35.483Z"/>
<path d="M59.2937 31.0734C58.7671 31.0734 58.3484 31.2914 58.0375 31.7274C57.7526 32.1245 57.6102 32.6382 57.6102 33.2685C57.6102 33.8297 57.7203 34.3045 57.9404 34.6931C58.2469 35.2283 58.698 35.496 59.2937 35.496C59.8074 35.496 60.2219 35.2801 60.537 34.8485C60.8262 34.4643 60.9708 33.9462 60.9708 33.2944C60.9708 32.5994 60.8089 32.0512 60.4852 31.6497C60.1787 31.2655 59.7815 31.0734 59.2937 31.0734ZM59.2937 30.8468C59.8938 30.8468 60.3988 31.0518 60.8089 31.4619C61.2752 31.9368 61.5083 32.539 61.5083 33.2685C61.5083 34.0455 61.273 34.6672 60.8025 35.1334C60.3967 35.5391 59.8938 35.742 59.2937 35.742C58.6937 35.742 58.1886 35.537 57.7785 35.1269C57.308 34.6607 57.0727 34.0455 57.0727 33.2815C57.0727 32.5433 57.3058 31.9368 57.7721 31.4619C58.1822 31.0518 58.6894 30.8468 59.2937 30.8468Z"/>
<path d="M66.9784 35.483C66.9784 35.5435 66.9439 35.5737 66.8748 35.5737H65.3078C65.243 35.5737 65.2107 35.5413 65.2107 35.4766C65.2107 35.4204 65.2452 35.3924 65.3143 35.3924C65.5905 35.3794 65.7287 35.3233 65.7287 35.224C65.7287 35.1765 65.651 35.0557 65.4956 34.8614L64.1487 33.2102L63.7149 33.6246V34.8873C63.7149 35.0988 63.7732 35.237 63.8897 35.3017C63.9631 35.3449 64.0991 35.373 64.2977 35.3859C64.3667 35.3945 64.4013 35.4312 64.4013 35.496C64.4013 35.5478 64.3667 35.5737 64.2977 35.5737H62.7112C62.6465 35.5737 62.6141 35.5413 62.6141 35.4766C62.6141 35.4248 62.6465 35.3945 62.7112 35.3859C62.8925 35.373 63.0177 35.3492 63.0868 35.3147C63.212 35.2629 63.2746 35.1204 63.2746 34.8873V31.7209C63.2746 31.5008 63.212 31.3583 63.0868 31.2936C63.0091 31.2547 62.8731 31.2223 62.6789 31.1964C62.6141 31.1921 62.5817 31.1576 62.5817 31.0928C62.5817 31.0367 62.6141 31.0087 62.6789 31.0087H64.2977C64.3667 31.0087 64.4013 31.0432 64.4013 31.1123C64.4013 31.1597 64.3667 31.1878 64.2977 31.1964C64.1207 31.218 63.9912 31.2439 63.9092 31.2741C63.7796 31.3346 63.7149 31.4813 63.7149 31.7145V33.3333L65.5215 31.5914C65.6078 31.5094 65.651 31.4382 65.651 31.3777C65.651 31.2741 65.5236 31.2115 65.2689 31.19C65.1999 31.19 65.1653 31.1576 65.1653 31.0928C65.1653 31.0367 65.1977 31.0087 65.2625 31.0087H66.6482C66.7172 31.0087 66.7518 31.0432 66.7518 31.1123C66.7518 31.1597 66.7194 31.19 66.6546 31.2029C66.5165 31.2245 66.3805 31.2698 66.2467 31.3389C66.1172 31.4036 65.9942 31.4921 65.8776 31.6044L64.466 32.9383L66.1625 34.978C66.2575 35.0988 66.3654 35.1916 66.4863 35.2564C66.6072 35.3211 66.7388 35.3643 66.8813 35.3859C66.946 35.3945 66.9784 35.4269 66.9784 35.483Z"/>
<path d="M72.3574 31.0993C72.3574 31.1597 72.325 31.1921 72.2603 31.1964C72.1178 31.2094 72.0013 31.2331 71.9106 31.2677C71.7768 31.3238 71.7099 31.4706 71.7099 31.708V33.7412C71.7099 35.0621 71.1228 35.7226 69.9486 35.7226C68.7356 35.7226 68.1291 35.0751 68.1291 33.78V31.7145C68.1291 31.4943 68.0665 31.3518 67.9413 31.2871C67.8981 31.2655 67.842 31.2482 67.7729 31.2353C67.7082 31.218 67.6305 31.2051 67.5398 31.1964C67.4751 31.1921 67.4427 31.1576 67.4427 31.0928C67.4427 31.0367 67.4772 31.0087 67.5463 31.0087H69.1522C69.2212 31.0087 69.2558 31.0432 69.2558 31.1123C69.2558 31.1597 69.2234 31.1878 69.1586 31.1964C69.0637 31.2051 68.9816 31.218 68.9126 31.2353C68.8478 31.2526 68.7917 31.272 68.7442 31.2936C68.6363 31.3497 68.5823 31.49 68.5823 31.7145V33.7153C68.5823 34.8377 69.0529 35.3989 69.9939 35.3989C70.9264 35.3989 71.3926 34.8377 71.3926 33.7153V31.708C71.3926 31.4792 71.3365 31.3367 71.2242 31.2806C71.1422 31.2374 71.0192 31.2094 70.8551 31.1964C70.7861 31.1878 70.7515 31.1533 70.7515 31.0928C70.7515 31.0367 70.7861 31.0087 70.8551 31.0087H72.2603C72.325 31.0087 72.3574 31.0389 72.3574 31.0993Z"/>
<path d="M77.8224 35.483C77.8224 35.5435 77.79 35.5737 77.7253 35.5737H76.1453C76.0806 35.5737 76.0482 35.5413 76.0482 35.4766C76.0482 35.4248 76.0806 35.3945 76.1453 35.3859C76.3266 35.373 76.4475 35.3492 76.508 35.3147C76.6375 35.2586 76.7022 35.1161 76.7022 34.8873V33.3397H74.2611V34.8873C74.2611 35.1075 74.315 35.2456 74.4229 35.3017C74.4618 35.3233 74.5136 35.3406 74.5783 35.3535C74.6431 35.3665 74.7251 35.3773 74.8244 35.3859C74.8892 35.3945 74.9215 35.4312 74.9215 35.496C74.9215 35.5478 74.8892 35.5737 74.8244 35.5737H73.2574C73.1883 35.5737 73.1538 35.5413 73.1538 35.4766C73.1538 35.4248 73.1862 35.3945 73.2509 35.3859C73.4279 35.373 73.5509 35.3492 73.62 35.3147C73.7495 35.2586 73.8143 35.1161 73.8143 34.8873V31.708C73.8143 31.4835 73.7581 31.3432 73.6459 31.2871C73.5855 31.2526 73.4538 31.2223 73.2509 31.1964C73.1862 31.1878 73.1538 31.1533 73.1538 31.0928C73.1538 31.0367 73.1883 31.0087 73.2574 31.0087H74.8244C74.8892 31.0087 74.9215 31.0432 74.9215 31.1123C74.9215 31.1641 74.8892 31.1921 74.8244 31.1964C74.6604 31.218 74.5373 31.2439 74.4553 31.2741C74.3258 31.3259 74.2611 31.4706 74.2611 31.708V33.0807H76.7022V31.7145C76.7022 31.5029 76.6353 31.3626 76.5015 31.2936C76.4238 31.2547 76.2943 31.2223 76.113 31.1964C76.0482 31.1921 76.0158 31.1576 76.0158 31.0928C76.0158 31.0367 76.0482 31.0087 76.113 31.0087H77.7253C77.79 31.0087 77.8224 31.0432 77.8224 31.1123C77.8224 31.1641 77.79 31.1921 77.7253 31.1964C77.5267 31.2223 77.3864 31.2547 77.3044 31.2936C77.2008 31.354 77.149 31.4943 77.149 31.7145V34.8873C77.149 35.0988 77.2073 35.237 77.3238 35.3017C77.3972 35.3449 77.531 35.373 77.7253 35.3859C77.79 35.3945 77.8224 35.4269 77.8224 35.483Z"/>
<path d="M83.5681 31.0993C83.5681 31.1597 83.5357 31.1921 83.471 31.1964C83.3285 31.2094 83.212 31.2331 83.1213 31.2677C82.9875 31.3238 82.9206 31.4706 82.9206 31.708V33.7412C82.9206 35.0621 82.3335 35.7226 81.1593 35.7226C79.9463 35.7226 79.3398 35.0751 79.3398 33.78V31.7145C79.3398 31.4943 79.2772 31.3518 79.152 31.2871C79.1089 31.2655 79.0527 31.2482 78.9837 31.2353C78.9189 31.218 78.8412 31.2051 78.7506 31.1964C78.6858 31.1921 78.6534 31.1576 78.6534 31.0928C78.6534 31.0367 78.688 31.0087 78.757 31.0087H80.3629C80.432 31.0087 80.4665 31.0432 80.4665 31.1123C80.4665 31.1597 80.4341 31.1878 80.3694 31.1964C80.2744 31.2051 80.1924 31.218 80.1233 31.2353C80.0586 31.2526 80.0024 31.272 79.9549 31.2936C79.847 31.3497 79.7931 31.49 79.7931 31.7145V33.7153C79.7931 34.8377 80.2636 35.3989 81.2047 35.3989C82.1371 35.3989 82.6033 34.8377 82.6033 33.7153V31.708C82.6033 31.4792 82.5472 31.3367 82.435 31.2806C82.3529 31.2374 82.2299 31.2094 82.0659 31.1964C81.9968 31.1878 81.9623 31.1533 81.9623 31.0928C81.9623 31.0367 81.9968 31.0087 82.0659 31.0087H83.471C83.5357 31.0087 83.5681 31.0389 83.5681 31.0993Z"/>
<path d="M92.0895 34.1038C92.1499 34.1297 92.1736 34.1729 92.1607 34.2333C92.0139 34.7082 91.7851 35.0729 91.4743 35.3276C91.1376 35.5996 90.734 35.7356 90.2634 35.7356C89.6505 35.7356 89.1432 35.5348 88.7418 35.1334C88.2842 34.6887 88.0554 34.0822 88.0554 33.3138C88.0554 32.5541 88.2885 31.9368 88.7547 31.4619C89.1648 31.0518 89.6699 30.8468 90.2699 30.8468C90.7448 30.8468 91.1613 30.9741 91.5196 31.2288C91.606 31.2892 91.6664 31.3195 91.7009 31.3195C91.7527 31.3195 91.7873 31.2655 91.8046 31.1576C91.8089 31.0885 91.8434 31.054 91.9082 31.054C91.9772 31.054 92.0118 31.0885 92.0118 31.1576V32.2584C92.0118 32.3231 91.9772 32.3555 91.9082 32.3555C91.8477 32.3555 91.811 32.3253 91.7981 32.2648C91.7333 31.9886 91.6146 31.7555 91.4419 31.5655C91.157 31.2418 90.7771 31.0799 90.3023 31.0799C89.672 31.0799 89.2058 31.3518 88.9037 31.8958C88.6878 32.2843 88.5799 32.7397 88.5799 33.262C88.5799 33.8836 88.7418 34.3909 89.0655 34.7837C89.3936 35.1938 89.821 35.3989 90.3476 35.3989C91.1203 35.3989 91.6427 34.9844 91.9146 34.1556C91.9405 34.0909 91.9837 34.0693 92.0441 34.0909L92.0895 34.1038Z"/>
<path d="M94.6891 32.5562C94.3653 32.5562 94.1084 32.6901 93.9185 32.9577C93.7286 33.2253 93.6336 33.5728 93.6336 34.0002C93.6336 34.4535 93.7372 34.8096 93.9444 35.0686C94.13 35.3104 94.3782 35.4312 94.6891 35.4312C95.0733 35.4312 95.356 35.2629 95.5373 34.9262C95.6798 34.6628 95.751 34.3563 95.751 34.0067C95.751 33.5534 95.6474 33.193 95.4402 32.9253C95.2502 32.6793 94.9999 32.5562 94.6891 32.5562ZM94.6891 32.3296C95.1207 32.3296 95.479 32.4742 95.7639 32.7634C96.0748 33.0742 96.2302 33.4822 96.2302 33.9873C96.2302 34.5182 96.0748 34.9391 95.7639 35.2499C95.4704 35.5348 95.1121 35.6773 94.6891 35.6773C94.2617 35.6773 93.9056 35.5348 93.6206 35.2499C93.3098 34.9391 93.1544 34.5225 93.1544 34.0002C93.1544 33.7412 93.1933 33.5102 93.271 33.3074C93.353 33.1001 93.4717 32.9167 93.6271 32.757C93.912 32.4721 94.266 32.3296 94.6891 32.3296Z"/>
<path d="M102.698 35.483C102.698 35.5435 102.664 35.5737 102.594 35.5737H101.235C101.166 35.5737 101.131 35.5413 101.131 35.4766C101.131 35.4204 101.166 35.3924 101.235 35.3924C101.295 35.3881 101.349 35.3816 101.397 35.373C101.444 35.3643 101.489 35.3557 101.533 35.347C101.645 35.3082 101.701 35.1873 101.701 34.9844V33.6376C101.701 33.2922 101.664 33.0548 101.591 32.9253C101.479 32.7354 101.306 32.6404 101.073 32.6404C100.65 32.6404 100.352 32.9016 100.179 33.4239V34.9844C100.179 35.1787 100.227 35.2974 100.322 35.3406C100.408 35.3708 100.516 35.3881 100.645 35.3924C100.714 35.3924 100.749 35.4269 100.749 35.496C100.749 35.5478 100.714 35.5737 100.645 35.5737H99.2791C99.2101 35.5737 99.1755 35.5413 99.1755 35.4766C99.1755 35.4204 99.2101 35.3924 99.2791 35.3924C99.3784 35.3881 99.4647 35.3751 99.5381 35.3535C99.6763 35.3147 99.7453 35.1916 99.7453 34.9844V33.6311C99.7453 33.2685 99.7108 33.0311 99.6417 32.9188C99.5381 32.7332 99.3698 32.6404 99.1367 32.6404C98.7093 32.6404 98.4093 32.8994 98.2366 33.4174V34.9844C98.2366 35.1787 98.2841 35.2974 98.3791 35.3406C98.4654 35.3708 98.5712 35.3881 98.6964 35.3924C98.7654 35.3924 98.8 35.4269 98.8 35.496C98.8 35.5478 98.7654 35.5737 98.6964 35.5737H97.3366C97.2675 35.5737 97.233 35.5413 97.233 35.4766C97.233 35.4204 97.2675 35.3924 97.3366 35.3924C97.4402 35.3881 97.5243 35.3751 97.5891 35.3535C97.7316 35.3147 97.8028 35.1916 97.8028 34.9844V33.0483C97.8028 32.8455 97.751 32.7246 97.6474 32.6857C97.5869 32.6685 97.4833 32.6555 97.3366 32.6469C97.2675 32.6469 97.233 32.6123 97.233 32.5433C97.233 32.4828 97.2675 32.4505 97.3366 32.4462C97.6215 32.4418 97.8783 32.4159 98.1071 32.3684C98.1805 32.3555 98.2172 32.3857 98.2172 32.4591V33.003C98.4633 32.58 98.7935 32.3684 99.2079 32.3684C99.7216 32.3684 100.019 32.6037 100.101 33.0742C100.339 32.6037 100.693 32.3684 101.163 32.3684C101.811 32.3684 102.135 32.757 102.135 33.534V34.9844C102.135 35.1873 102.195 35.3082 102.316 35.347C102.359 35.36 102.411 35.3708 102.471 35.3794C102.532 35.3881 102.605 35.3924 102.692 35.3924V35.4183C102.692 35.4269 102.692 35.4377 102.692 35.4507C102.696 35.4593 102.698 35.4701 102.698 35.483Z"/>
<path d="M108.898 35.483C108.898 35.5435 108.863 35.5737 108.794 35.5737H107.434C107.365 35.5737 107.331 35.5413 107.331 35.4766C107.331 35.4204 107.365 35.3924 107.434 35.3924C107.495 35.3881 107.549 35.3816 107.596 35.373C107.644 35.3643 107.689 35.3557 107.732 35.347C107.845 35.3082 107.901 35.1873 107.901 34.9844V33.6376C107.901 33.2922 107.864 33.0548 107.791 32.9253C107.678 32.7354 107.506 32.6404 107.273 32.6404C106.849 32.6404 106.552 32.9016 106.379 33.4239V34.9844C106.379 35.1787 106.426 35.2974 106.521 35.3406C106.608 35.3708 106.716 35.3881 106.845 35.3924C106.914 35.3924 106.949 35.4269 106.949 35.496C106.949 35.5478 106.914 35.5737 106.845 35.5737H105.479C105.41 35.5737 105.375 35.5413 105.375 35.4766C105.375 35.4204 105.41 35.3924 105.479 35.3924C105.578 35.3881 105.665 35.3751 105.738 35.3535C105.876 35.3147 105.945 35.1916 105.945 34.9844V33.6311C105.945 33.2685 105.911 33.0311 105.842 32.9188C105.738 32.7332 105.57 32.6404 105.336 32.6404C104.909 32.6404 104.609 32.8994 104.436 33.4174V34.9844C104.436 35.1787 104.484 35.2974 104.579 35.3406C104.665 35.3708 104.771 35.3881 104.896 35.3924C104.965 35.3924 105 35.4269 105 35.496C105 35.5478 104.965 35.5737 104.896 35.5737H103.536C103.467 35.5737 103.433 35.5413 103.433 35.4766C103.433 35.4204 103.467 35.3924 103.536 35.3924C103.64 35.3881 103.724 35.3751 103.789 35.3535C103.931 35.3147 104.003 35.1916 104.003 34.9844V33.0483C104.003 32.8455 103.951 32.7246 103.847 32.6857C103.787 32.6685 103.683 32.6555 103.536 32.6469C103.467 32.6469 103.433 32.6123 103.433 32.5433C103.433 32.4828 103.467 32.4505 103.536 32.4462C103.821 32.4418 104.078 32.4159 104.307 32.3684C104.38 32.3555 104.417 32.3857 104.417 32.4591V33.003C104.663 32.58 104.993 32.3684 105.408 32.3684C105.921 32.3684 106.219 32.6037 106.301 33.0742C106.539 32.6037 106.893 32.3684 107.363 32.3684C108.011 32.3684 108.334 32.757 108.334 33.534V34.9844C108.334 35.1873 108.395 35.3082 108.516 35.347C108.559 35.36 108.611 35.3708 108.671 35.3794C108.732 35.3881 108.805 35.3924 108.891 35.3924V35.4183C108.891 35.4269 108.891 35.4377 108.891 35.4507C108.896 35.4593 108.898 35.4701 108.898 35.483Z"/>
<path d="M113.233 35.483C113.233 35.5435 113.198 35.5737 113.129 35.5737H112.372C112.302 35.5737 112.268 35.5413 112.268 35.4766L112.242 35.0492C111.983 35.4852 111.618 35.7032 111.148 35.7032C110.435 35.7032 110.079 35.3168 110.079 34.5441V33.0483C110.079 32.8325 110.032 32.7116 109.937 32.6857C109.907 32.6771 109.866 32.6706 109.814 32.6663C109.762 32.662 109.699 32.6577 109.626 32.6534C109.557 32.649 109.522 32.6145 109.522 32.5498C109.522 32.485 109.557 32.4505 109.626 32.4462C109.907 32.4375 110.163 32.4116 110.397 32.3684C110.47 32.3555 110.507 32.3857 110.507 32.4591V34.447C110.507 35.1031 110.746 35.4312 111.225 35.4312C111.338 35.4312 111.446 35.414 111.549 35.3794C111.653 35.3406 111.752 35.2823 111.847 35.2046C112.033 35.0578 112.162 34.8463 112.236 34.57V33.0419C112.236 32.8519 112.184 32.7332 112.08 32.6857C112.028 32.6641 111.927 32.6512 111.776 32.6469C111.707 32.6469 111.672 32.6123 111.672 32.5433C111.672 32.4828 111.707 32.4505 111.776 32.4462C112.03 32.4375 112.287 32.4116 112.546 32.3684C112.62 32.3555 112.656 32.3857 112.656 32.4591V34.9844C112.656 35.1787 112.719 35.2996 112.844 35.347C112.9 35.3686 112.995 35.3837 113.129 35.3924C113.198 35.3924 113.233 35.4226 113.233 35.483Z"/>
<path d="M117.671 35.483C117.671 35.5435 117.636 35.5737 117.567 35.5737H116.214C116.145 35.5737 116.11 35.5413 116.11 35.4766C116.11 35.4204 116.145 35.3924 116.214 35.3924C116.261 35.3881 116.304 35.3837 116.343 35.3794C116.386 35.3751 116.425 35.3686 116.46 35.36C116.602 35.3298 116.673 35.2046 116.673 34.9844V33.6246C116.673 32.9728 116.434 32.6469 115.955 32.6469C115.484 32.6469 115.156 32.9059 114.971 33.4239V34.9844C114.971 35.183 115.029 35.3039 115.145 35.347C115.18 35.36 115.219 35.3708 115.262 35.3794C115.309 35.3837 115.363 35.3881 115.424 35.3924C115.493 35.3924 115.527 35.4269 115.527 35.496C115.527 35.5478 115.493 35.5737 115.424 35.5737H114.07C114.001 35.5737 113.967 35.5413 113.967 35.4766C113.967 35.4204 114.001 35.3924 114.07 35.3924C114.174 35.3881 114.258 35.3751 114.323 35.3535C114.465 35.3147 114.537 35.1916 114.537 34.9844V33.0483C114.537 32.8455 114.485 32.7246 114.381 32.6857C114.321 32.6685 114.217 32.6555 114.07 32.6469C114.001 32.6469 113.967 32.6123 113.967 32.5433C113.967 32.4828 114.001 32.4505 114.07 32.4462C114.355 32.4375 114.61 32.4116 114.835 32.3684C114.908 32.3555 114.945 32.3857 114.945 32.4591V33.0289C115.208 32.5886 115.575 32.3684 116.045 32.3684C116.753 32.3684 117.107 32.757 117.107 33.534V34.9844C117.107 35.1787 117.17 35.2996 117.295 35.347C117.356 35.3686 117.446 35.3837 117.567 35.3924C117.636 35.3924 117.671 35.4226 117.671 35.483Z"/>
<path d="M119.962 35.483C119.962 35.5435 119.928 35.5737 119.859 35.5737H118.525C118.456 35.5737 118.421 35.5413 118.421 35.4766C118.421 35.4204 118.456 35.3924 118.525 35.3924C118.62 35.3837 118.702 35.3708 118.771 35.3535C118.913 35.3147 118.985 35.1916 118.985 34.9844V33.0483C118.985 32.8455 118.933 32.7246 118.829 32.6857C118.777 32.6685 118.676 32.6555 118.525 32.6469C118.456 32.6469 118.421 32.6123 118.421 32.5433C118.421 32.4828 118.456 32.4505 118.525 32.4462C118.797 32.4418 119.056 32.4159 119.302 32.3684C119.375 32.3555 119.412 32.3857 119.412 32.4591V34.9844C119.412 35.1744 119.462 35.2931 119.561 35.3406C119.647 35.3708 119.747 35.3881 119.859 35.3924C119.928 35.3924 119.962 35.4226 119.962 35.483ZM119.198 30.9892C119.289 30.9892 119.367 31.0216 119.431 31.0864C119.496 31.1597 119.529 31.2374 119.529 31.3195C119.529 31.5353 119.419 31.6432 119.198 31.6432C118.983 31.6432 118.875 31.5353 118.875 31.3195C118.875 31.0993 118.983 30.9892 119.198 30.9892Z"/>
<path d="M122.603 35.2175C122.65 35.2564 122.653 35.3039 122.609 35.36C122.402 35.5974 122.165 35.7161 121.897 35.7161C121.418 35.7161 121.178 35.4442 121.178 34.9003V32.6922H120.732C120.663 32.6922 120.628 32.6577 120.628 32.5886C120.628 32.5282 120.66 32.4936 120.725 32.485C120.937 32.4677 121.092 32.3879 121.191 32.2454C121.234 32.185 121.271 32.1073 121.301 32.0123C121.336 31.913 121.368 31.7965 121.399 31.6626C121.403 31.6022 121.437 31.572 121.502 31.572C121.571 31.572 121.606 31.6044 121.606 31.6691V32.4526H122.46C122.53 32.4526 122.564 32.485 122.564 32.5498V32.5886C122.564 32.6577 122.53 32.6922 122.46 32.6922H121.606V34.7772C121.606 35.2175 121.74 35.4377 122.007 35.4377C122.167 35.4377 122.316 35.3665 122.454 35.224C122.506 35.1722 122.555 35.1701 122.603 35.2175Z"/>
<path d="M126.547 32.5368C126.547 32.6016 126.514 32.6361 126.449 32.6404C126.234 32.6749 126.082 32.7958 125.996 33.003L124.656 36.3378C124.505 36.7133 124.28 36.9011 123.982 36.9011C123.672 36.9011 123.516 36.7781 123.516 36.532C123.516 36.3248 123.62 36.2212 123.827 36.2212C124.013 36.2212 124.105 36.314 124.105 36.4996C124.105 36.5342 124.103 36.5558 124.099 36.5644L124.086 36.6227C124.233 36.6184 124.356 36.4867 124.455 36.2277L124.708 35.5478L123.607 33.0742C123.525 32.8929 123.449 32.7764 123.38 32.7246C123.333 32.6814 123.253 32.6534 123.141 32.6404C123.076 32.6361 123.043 32.6016 123.043 32.5368C123.043 32.4807 123.078 32.4526 123.147 32.4526H124.313C124.382 32.4526 124.416 32.485 124.416 32.5498C124.416 32.6059 124.382 32.6361 124.313 32.6404C124.101 32.6577 123.995 32.7267 123.995 32.8476C123.995 32.8951 124.013 32.9599 124.047 33.0419L124.908 35.0686L125.698 33.0548C125.728 32.9814 125.744 32.921 125.744 32.8735C125.744 32.7397 125.629 32.662 125.4 32.6404C125.331 32.6318 125.297 32.5972 125.297 32.5368C125.297 32.4807 125.331 32.4526 125.4 32.4526H126.443C126.512 32.4526 126.547 32.4807 126.547 32.5368Z"/>
<path d="M134.946 34.1038C135.006 34.1297 135.03 34.1729 135.017 34.2333C134.871 34.7082 134.642 35.0729 134.331 35.3276C133.994 35.5996 133.591 35.7356 133.12 35.7356C132.507 35.7356 132 35.5348 131.598 35.1334C131.141 34.6887 130.912 34.0822 130.912 33.3138C130.912 32.5541 131.145 31.9368 131.611 31.4619C132.021 31.0518 132.526 30.8468 133.127 30.8468C133.601 30.8468 134.018 30.9741 134.376 31.2288C134.463 31.2892 134.523 31.3195 134.558 31.3195C134.609 31.3195 134.644 31.2655 134.661 31.1576C134.665 31.0885 134.7 31.054 134.765 31.054C134.834 31.054 134.868 31.0885 134.868 31.1576V32.2584C134.868 32.3231 134.834 32.3555 134.765 32.3555C134.704 32.3555 134.668 32.3253 134.655 32.2648C134.59 31.9886 134.471 31.7555 134.299 31.5655C134.014 31.2418 133.634 31.0799 133.159 31.0799C132.529 31.0799 132.062 31.3518 131.76 31.8958C131.544 32.2843 131.436 32.7397 131.436 33.262C131.436 33.8836 131.598 34.3909 131.922 34.7837C132.25 35.1938 132.678 35.3989 133.204 35.3989C133.977 35.3989 134.499 34.9844 134.771 34.1556C134.797 34.0909 134.84 34.0693 134.901 34.0909L134.946 34.1038Z"/>
<path d="M138.465 33.6764C138.452 33.3009 138.344 33.0117 138.141 32.8088C137.977 32.6447 137.764 32.5627 137.5 32.5627C137.198 32.5627 136.948 32.6922 136.749 32.9512C136.602 33.1412 136.514 33.3829 136.484 33.6764H138.465ZM138.905 33.8642C138.905 33.9031 138.871 33.9225 138.802 33.9225H136.464V34.0326C136.464 34.4686 136.594 34.8139 136.853 35.0686C137.064 35.2845 137.328 35.3924 137.643 35.3924C138.074 35.3924 138.413 35.1981 138.659 34.8096C138.698 34.7535 138.746 34.7449 138.802 34.7837L138.815 34.7967C138.867 34.8355 138.877 34.883 138.847 34.9391C138.567 35.4312 138.139 35.6773 137.565 35.6773C137.116 35.6773 136.745 35.5305 136.451 35.237C136.158 34.9434 136.011 34.5398 136.011 34.0261C136.011 33.4995 136.166 33.0764 136.477 32.757C136.754 32.4807 137.097 32.3425 137.507 32.3425C137.908 32.3425 138.236 32.4721 138.491 32.7311C138.625 32.8692 138.726 33.0289 138.795 33.2102C138.869 33.3872 138.905 33.5858 138.905 33.8059V33.8642Z"/>
<path d="M143.591 35.483C143.591 35.5435 143.556 35.5737 143.487 35.5737H142.134C142.065 35.5737 142.031 35.5413 142.031 35.4766C142.031 35.4204 142.065 35.3924 142.134 35.3924C142.182 35.3881 142.225 35.3837 142.264 35.3794C142.307 35.3751 142.346 35.3686 142.38 35.36C142.523 35.3298 142.594 35.2046 142.594 34.9844V33.6246C142.594 32.9728 142.354 32.6469 141.875 32.6469C141.405 32.6469 141.076 32.9059 140.891 33.4239V34.9844C140.891 35.183 140.949 35.3039 141.066 35.347C141.1 35.36 141.139 35.3708 141.182 35.3794C141.23 35.3837 141.284 35.3881 141.344 35.3924C141.413 35.3924 141.448 35.4269 141.448 35.496C141.448 35.5478 141.413 35.5737 141.344 35.5737H139.991C139.922 35.5737 139.887 35.5413 139.887 35.4766C139.887 35.4204 139.922 35.3924 139.991 35.3924C140.094 35.3881 140.179 35.3751 140.243 35.3535C140.386 35.3147 140.457 35.1916 140.457 34.9844V33.0483C140.457 32.8455 140.405 32.7246 140.302 32.6857C140.241 32.6685 140.138 32.6555 139.991 32.6469C139.922 32.6469 139.887 32.6123 139.887 32.5433C139.887 32.4828 139.922 32.4505 139.991 32.4462C140.276 32.4375 140.53 32.4116 140.755 32.3684C140.828 32.3555 140.865 32.3857 140.865 32.4591V33.0289C141.128 32.5886 141.495 32.3684 141.966 32.3684C142.674 32.3684 143.028 32.757 143.028 33.534V34.9844C143.028 35.1787 143.09 35.2996 143.215 35.347C143.276 35.3686 143.367 35.3837 143.487 35.3924C143.556 35.3924 143.591 35.4226 143.591 35.483Z"/>
<path d="M146.187 35.2175C146.235 35.2564 146.237 35.3039 146.194 35.36C145.986 35.5974 145.749 35.7161 145.481 35.7161C145.002 35.7161 144.763 35.4442 144.763 34.9003V32.6922H144.316C144.247 32.6922 144.212 32.6577 144.212 32.5886C144.212 32.5282 144.245 32.4936 144.309 32.485C144.521 32.4677 144.676 32.3879 144.776 32.2454C144.819 32.185 144.855 32.1073 144.886 32.0123C144.92 31.913 144.953 31.7965 144.983 31.6626C144.987 31.6022 145.022 31.572 145.086 31.572C145.155 31.572 145.19 31.6044 145.19 31.6691V32.4526H146.045C146.114 32.4526 146.148 32.485 146.148 32.5498V32.5886C146.148 32.6577 146.114 32.6922 146.045 32.6922H145.19V34.7772C145.19 35.2175 145.324 35.4377 145.591 35.4377C145.751 35.4377 145.9 35.3665 146.038 35.224C146.09 35.1722 146.14 35.1701 146.187 35.2175Z"/>
<path d="M149.457 33.6764C149.444 33.3009 149.336 33.0117 149.134 32.8088C148.97 32.6447 148.756 32.5627 148.493 32.5627C148.19 32.5627 147.94 32.6922 147.741 32.9512C147.595 33.1412 147.506 33.3829 147.476 33.6764H149.457ZM149.898 33.8642C149.898 33.9031 149.863 33.9225 149.794 33.9225H147.456V34.0326C147.456 34.4686 147.586 34.8139 147.845 35.0686C148.057 35.2845 148.32 35.3924 148.635 35.3924C149.067 35.3924 149.406 35.1981 149.652 34.8096C149.69 34.7535 149.738 34.7449 149.794 34.7837L149.807 34.7967C149.859 34.8355 149.87 34.883 149.839 34.9391C149.559 35.4312 149.131 35.6773 148.557 35.6773C148.108 35.6773 147.737 35.5305 147.444 35.237C147.15 34.9434 147.003 34.5398 147.003 34.0261C147.003 33.4995 147.159 33.0764 147.469 32.757C147.746 32.4807 148.089 32.3425 148.499 32.3425C148.9 32.3425 149.229 32.4721 149.483 32.7311C149.617 32.8692 149.718 33.0289 149.788 33.2102C149.861 33.3872 149.898 33.5858 149.898 33.8059V33.8642Z"/>
<path d="M151.851 33.1714C151.95 32.9296 152.101 32.7267 152.304 32.5627C152.472 32.4202 152.664 32.349 152.88 32.349C153.126 32.349 153.249 32.4591 153.249 32.6793C153.249 32.8778 153.159 32.9771 152.977 32.9771C152.796 32.9771 152.705 32.8886 152.705 32.7116C152.705 32.703 152.705 32.6922 152.705 32.6793C152.705 32.6663 152.71 32.6469 152.718 32.621C152.55 32.6339 152.377 32.7419 152.2 32.9447C152.062 33.1045 151.956 33.3052 151.883 33.5469V34.9844C151.883 35.1787 151.931 35.2974 152.026 35.3406C152.112 35.3708 152.224 35.3881 152.362 35.3924C152.431 35.3924 152.466 35.4269 152.466 35.496C152.466 35.5478 152.431 35.5737 152.362 35.5737H150.983C150.914 35.5737 150.879 35.5413 150.879 35.4766C150.879 35.4204 150.914 35.3924 150.983 35.3924C151.087 35.3881 151.171 35.3751 151.236 35.3535C151.378 35.3147 151.449 35.1916 151.449 34.9844V33.0483C151.449 32.8455 151.397 32.7246 151.294 32.6857C151.238 32.6685 151.136 32.6555 150.989 32.6469C150.92 32.6469 150.886 32.6123 150.886 32.5433C150.886 32.4828 150.92 32.4505 150.989 32.4462C151.27 32.4375 151.52 32.4116 151.741 32.3684C151.814 32.3555 151.851 32.3857 151.851 32.4591V33.1714Z"/>
</mask>
<path d="M56.3494 35.483C56.3494 35.5435 56.3149 35.5737 56.2458 35.5737H54.6788C54.6141 35.5737 54.5817 35.5413 54.5817 35.4766C54.5817 35.4204 54.6162 35.3924 54.6853 35.3924C54.9616 35.3794 55.0997 35.3233 55.0997 35.224C55.0997 35.1765 55.022 35.0557 54.8666 34.8614L53.5198 33.2102L53.0859 33.6246V34.8873C53.0859 35.0988 53.1442 35.237 53.2608 35.3017C53.3341 35.3449 53.4701 35.373 53.6687 35.3859C53.7378 35.3945 53.7723 35.4312 53.7723 35.496C53.7723 35.5478 53.7378 35.5737 53.6687 35.5737H52.0823C52.0175 35.5737 51.9851 35.5413 51.9851 35.4766C51.9851 35.4248 52.0175 35.3945 52.0823 35.3859C52.2636 35.373 52.3888 35.3492 52.4578 35.3147C52.583 35.2629 52.6456 35.1204 52.6456 34.8873V31.7209C52.6456 31.5008 52.583 31.3583 52.4578 31.2936C52.3801 31.2547 52.2441 31.2223 52.0499 31.1964C51.9851 31.1921 51.9528 31.1576 51.9528 31.0928C51.9528 31.0367 51.9851 31.0087 52.0499 31.0087H53.6687C53.7378 31.0087 53.7723 31.0432 53.7723 31.1123C53.7723 31.1597 53.7378 31.1878 53.6687 31.1964C53.4917 31.218 53.3622 31.2439 53.2802 31.2741C53.1507 31.3346 53.0859 31.4813 53.0859 31.7145V33.3333L54.8925 31.5914C54.9788 31.5094 55.022 31.4382 55.022 31.3777C55.022 31.2741 54.8947 31.2115 54.64 31.19C54.5709 31.19 54.5364 31.1576 54.5364 31.0928C54.5364 31.0367 54.5687 31.0087 54.6335 31.0087H56.0192C56.0883 31.0087 56.1228 31.0432 56.1228 31.1123C56.1228 31.1597 56.0904 31.19 56.0257 31.2029C55.8875 31.2245 55.7516 31.2698 55.6177 31.3389C55.4882 31.4036 55.3652 31.4921 55.2486 31.6044L53.837 32.9383L55.5336 34.978C55.6285 35.0988 55.7364 35.1916 55.8573 35.2564C55.9782 35.3211 56.1099 35.3643 56.2523 35.3859C56.3171 35.3945 56.3494 35.4269 56.3494 35.483Z" fill="#3E3A39"/>
<path d="M59.2937 31.0734C58.7671 31.0734 58.3484 31.2914 58.0375 31.7274C57.7526 32.1245 57.6102 32.6382 57.6102 33.2685C57.6102 33.8297 57.7203 34.3045 57.9404 34.6931C58.2469 35.2283 58.698 35.496 59.2937 35.496C59.8074 35.496 60.2219 35.2801 60.537 34.8485C60.8262 34.4643 60.9708 33.9462 60.9708 33.2944C60.9708 32.5994 60.8089 32.0512 60.4852 31.6497C60.1787 31.2655 59.7815 31.0734 59.2937 31.0734ZM59.2937 30.8468C59.8938 30.8468 60.3988 31.0518 60.8089 31.4619C61.2752 31.9368 61.5083 32.539 61.5083 33.2685C61.5083 34.0455 61.273 34.6672 60.8025 35.1334C60.3967 35.5391 59.8938 35.742 59.2937 35.742C58.6937 35.742 58.1886 35.537 57.7785 35.1269C57.308 34.6607 57.0727 34.0455 57.0727 33.2815C57.0727 32.5433 57.3058 31.9368 57.7721 31.4619C58.1822 31.0518 58.6894 30.8468 59.2937 30.8468Z" fill="#3E3A39"/>
<path d="M66.9784 35.483C66.9784 35.5435 66.9439 35.5737 66.8748 35.5737H65.3078C65.243 35.5737 65.2107 35.5413 65.2107 35.4766C65.2107 35.4204 65.2452 35.3924 65.3143 35.3924C65.5905 35.3794 65.7287 35.3233 65.7287 35.224C65.7287 35.1765 65.651 35.0557 65.4956 34.8614L64.1487 33.2102L63.7149 33.6246V34.8873C63.7149 35.0988 63.7732 35.237 63.8897 35.3017C63.9631 35.3449 64.0991 35.373 64.2977 35.3859C64.3667 35.3945 64.4013 35.4312 64.4013 35.496C64.4013 35.5478 64.3667 35.5737 64.2977 35.5737H62.7112C62.6465 35.5737 62.6141 35.5413 62.6141 35.4766C62.6141 35.4248 62.6465 35.3945 62.7112 35.3859C62.8925 35.373 63.0177 35.3492 63.0868 35.3147C63.212 35.2629 63.2746 35.1204 63.2746 34.8873V31.7209C63.2746 31.5008 63.212 31.3583 63.0868 31.2936C63.0091 31.2547 62.8731 31.2223 62.6789 31.1964C62.6141 31.1921 62.5817 31.1576 62.5817 31.0928C62.5817 31.0367 62.6141 31.0087 62.6789 31.0087H64.2977C64.3667 31.0087 64.4013 31.0432 64.4013 31.1123C64.4013 31.1597 64.3667 31.1878 64.2977 31.1964C64.1207 31.218 63.9912 31.2439 63.9092 31.2741C63.7796 31.3346 63.7149 31.4813 63.7149 31.7145V33.3333L65.5215 31.5914C65.6078 31.5094 65.651 31.4382 65.651 31.3777C65.651 31.2741 65.5236 31.2115 65.2689 31.19C65.1999 31.19 65.1653 31.1576 65.1653 31.0928C65.1653 31.0367 65.1977 31.0087 65.2625 31.0087H66.6482C66.7172 31.0087 66.7518 31.0432 66.7518 31.1123C66.7518 31.1597 66.7194 31.19 66.6546 31.2029C66.5165 31.2245 66.3805 31.2698 66.2467 31.3389C66.1172 31.4036 65.9942 31.4921 65.8776 31.6044L64.466 32.9383L66.1625 34.978C66.2575 35.0988 66.3654 35.1916 66.4863 35.2564C66.6072 35.3211 66.7388 35.3643 66.8813 35.3859C66.946 35.3945 66.9784 35.4269 66.9784 35.483Z" fill="#3E3A39"/>
<path d="M72.3574 31.0993C72.3574 31.1597 72.325 31.1921 72.2603 31.1964C72.1178 31.2094 72.0013 31.2331 71.9106 31.2677C71.7768 31.3238 71.7099 31.4706 71.7099 31.708V33.7412C71.7099 35.0621 71.1228 35.7226 69.9486 35.7226C68.7356 35.7226 68.1291 35.0751 68.1291 33.78V31.7145C68.1291 31.4943 68.0665 31.3518 67.9413 31.2871C67.8981 31.2655 67.842 31.2482 67.7729 31.2353C67.7082 31.218 67.6305 31.2051 67.5398 31.1964C67.4751 31.1921 67.4427 31.1576 67.4427 31.0928C67.4427 31.0367 67.4772 31.0087 67.5463 31.0087H69.1522C69.2212 31.0087 69.2558 31.0432 69.2558 31.1123C69.2558 31.1597 69.2234 31.1878 69.1586 31.1964C69.0637 31.2051 68.9816 31.218 68.9126 31.2353C68.8478 31.2526 68.7917 31.272 68.7442 31.2936C68.6363 31.3497 68.5823 31.49 68.5823 31.7145V33.7153C68.5823 34.8377 69.0529 35.3989 69.9939 35.3989C70.9264 35.3989 71.3926 34.8377 71.3926 33.7153V31.708C71.3926 31.4792 71.3365 31.3367 71.2242 31.2806C71.1422 31.2374 71.0192 31.2094 70.8551 31.1964C70.7861 31.1878 70.7515 31.1533 70.7515 31.0928C70.7515 31.0367 70.7861 31.0087 70.8551 31.0087H72.2603C72.325 31.0087 72.3574 31.0389 72.3574 31.0993Z" fill="#3E3A39"/>
<path d="M77.8224 35.483C77.8224 35.5435 77.79 35.5737 77.7253 35.5737H76.1453C76.0806 35.5737 76.0482 35.5413 76.0482 35.4766C76.0482 35.4248 76.0806 35.3945 76.1453 35.3859C76.3266 35.373 76.4475 35.3492 76.508 35.3147C76.6375 35.2586 76.7022 35.1161 76.7022 34.8873V33.3397H74.2611V34.8873C74.2611 35.1075 74.315 35.2456 74.4229 35.3017C74.4618 35.3233 74.5136 35.3406 74.5783 35.3535C74.6431 35.3665 74.7251 35.3773 74.8244 35.3859C74.8892 35.3945 74.9215 35.4312 74.9215 35.496C74.9215 35.5478 74.8892 35.5737 74.8244 35.5737H73.2574C73.1883 35.5737 73.1538 35.5413 73.1538 35.4766C73.1538 35.4248 73.1862 35.3945 73.2509 35.3859C73.4279 35.373 73.5509 35.3492 73.62 35.3147C73.7495 35.2586 73.8143 35.1161 73.8143 34.8873V31.708C73.8143 31.4835 73.7581 31.3432 73.6459 31.2871C73.5855 31.2526 73.4538 31.2223 73.2509 31.1964C73.1862 31.1878 73.1538 31.1533 73.1538 31.0928C73.1538 31.0367 73.1883 31.0087 73.2574 31.0087H74.8244C74.8892 31.0087 74.9215 31.0432 74.9215 31.1123C74.9215 31.1641 74.8892 31.1921 74.8244 31.1964C74.6604 31.218 74.5373 31.2439 74.4553 31.2741C74.3258 31.3259 74.2611 31.4706 74.2611 31.708V33.0807H76.7022V31.7145C76.7022 31.5029 76.6353 31.3626 76.5015 31.2936C76.4238 31.2547 76.2943 31.2223 76.113 31.1964C76.0482 31.1921 76.0158 31.1576 76.0158 31.0928C76.0158 31.0367 76.0482 31.0087 76.113 31.0087H77.7253C77.79 31.0087 77.8224 31.0432 77.8224 31.1123C77.8224 31.1641 77.79 31.1921 77.7253 31.1964C77.5267 31.2223 77.3864 31.2547 77.3044 31.2936C77.2008 31.354 77.149 31.4943 77.149 31.7145V34.8873C77.149 35.0988 77.2073 35.237 77.3238 35.3017C77.3972 35.3449 77.531 35.373 77.7253 35.3859C77.79 35.3945 77.8224 35.4269 77.8224 35.483Z" fill="#3E3A39"/>
<path d="M83.5681 31.0993C83.5681 31.1597 83.5357 31.1921 83.471 31.1964C83.3285 31.2094 83.212 31.2331 83.1213 31.2677C82.9875 31.3238 82.9206 31.4706 82.9206 31.708V33.7412C82.9206 35.0621 82.3335 35.7226 81.1593 35.7226C79.9463 35.7226 79.3398 35.0751 79.3398 33.78V31.7145C79.3398 31.4943 79.2772 31.3518 79.152 31.2871C79.1089 31.2655 79.0527 31.2482 78.9837 31.2353C78.9189 31.218 78.8412 31.2051 78.7506 31.1964C78.6858 31.1921 78.6534 31.1576 78.6534 31.0928C78.6534 31.0367 78.688 31.0087 78.757 31.0087H80.3629C80.432 31.0087 80.4665 31.0432 80.4665 31.1123C80.4665 31.1597 80.4341 31.1878 80.3694 31.1964C80.2744 31.2051 80.1924 31.218 80.1233 31.2353C80.0586 31.2526 80.0024 31.272 79.9549 31.2936C79.847 31.3497 79.7931 31.49 79.7931 31.7145V33.7153C79.7931 34.8377 80.2636 35.3989 81.2047 35.3989C82.1371 35.3989 82.6033 34.8377 82.6033 33.7153V31.708C82.6033 31.4792 82.5472 31.3367 82.435 31.2806C82.3529 31.2374 82.2299 31.2094 82.0659 31.1964C81.9968 31.1878 81.9623 31.1533 81.9623 31.0928C81.9623 31.0367 81.9968 31.0087 82.0659 31.0087H83.471C83.5357 31.0087 83.5681 31.0389 83.5681 31.0993Z" fill="#3E3A39"/>
<path d="M92.0895 34.1038C92.1499 34.1297 92.1736 34.1729 92.1607 34.2333C92.0139 34.7082 91.7851 35.0729 91.4743 35.3276C91.1376 35.5996 90.734 35.7356 90.2634 35.7356C89.6505 35.7356 89.1432 35.5348 88.7418 35.1334C88.2842 34.6887 88.0554 34.0822 88.0554 33.3138C88.0554 32.5541 88.2885 31.9368 88.7547 31.4619C89.1648 31.0518 89.6699 30.8468 90.2699 30.8468C90.7448 30.8468 91.1613 30.9741 91.5196 31.2288C91.606 31.2892 91.6664 31.3195 91.7009 31.3195C91.7527 31.3195 91.7873 31.2655 91.8046 31.1576C91.8089 31.0885 91.8434 31.054 91.9082 31.054C91.9772 31.054 92.0118 31.0885 92.0118 31.1576V32.2584C92.0118 32.3231 91.9772 32.3555 91.9082 32.3555C91.8477 32.3555 91.811 32.3253 91.7981 32.2648C91.7333 31.9886 91.6146 31.7555 91.4419 31.5655C91.157 31.2418 90.7771 31.0799 90.3023 31.0799C89.672 31.0799 89.2058 31.3518 88.9037 31.8958C88.6878 32.2843 88.5799 32.7397 88.5799 33.262C88.5799 33.8836 88.7418 34.3909 89.0655 34.7837C89.3936 35.1938 89.821 35.3989 90.3476 35.3989C91.1203 35.3989 91.6427 34.9844 91.9146 34.1556C91.9405 34.0909 91.9837 34.0693 92.0441 34.0909L92.0895 34.1038Z" fill="#3E3A39"/>
<path d="M94.6891 32.5562C94.3653 32.5562 94.1084 32.6901 93.9185 32.9577C93.7286 33.2253 93.6336 33.5728 93.6336 34.0002C93.6336 34.4535 93.7372 34.8096 93.9444 35.0686C94.13 35.3104 94.3782 35.4312 94.6891 35.4312C95.0733 35.4312 95.356 35.2629 95.5373 34.9262C95.6798 34.6628 95.751 34.3563 95.751 34.0067C95.751 33.5534 95.6474 33.193 95.4402 32.9253C95.2502 32.6793 94.9999 32.5562 94.6891 32.5562ZM94.6891 32.3296C95.1207 32.3296 95.479 32.4742 95.7639 32.7634C96.0748 33.0742 96.2302 33.4822 96.2302 33.9873C96.2302 34.5182 96.0748 34.9391 95.7639 35.2499C95.4704 35.5348 95.1121 35.6773 94.6891 35.6773C94.2617 35.6773 93.9056 35.5348 93.6206 35.2499C93.3098 34.9391 93.1544 34.5225 93.1544 34.0002C93.1544 33.7412 93.1933 33.5102 93.271 33.3074C93.353 33.1001 93.4717 32.9167 93.6271 32.757C93.912 32.4721 94.266 32.3296 94.6891 32.3296Z" fill="#3E3A39"/>
<path d="M102.698 35.483C102.698 35.5435 102.664 35.5737 102.594 35.5737H101.235C101.166 35.5737 101.131 35.5413 101.131 35.4766C101.131 35.4204 101.166 35.3924 101.235 35.3924C101.295 35.3881 101.349 35.3816 101.397 35.373C101.444 35.3643 101.489 35.3557 101.533 35.347C101.645 35.3082 101.701 35.1873 101.701 34.9844V33.6376C101.701 33.2922 101.664 33.0548 101.591 32.9253C101.479 32.7354 101.306 32.6404 101.073 32.6404C100.65 32.6404 100.352 32.9016 100.179 33.4239V34.9844C100.179 35.1787 100.227 35.2974 100.322 35.3406C100.408 35.3708 100.516 35.3881 100.645 35.3924C100.714 35.3924 100.749 35.4269 100.749 35.496C100.749 35.5478 100.714 35.5737 100.645 35.5737H99.2791C99.2101 35.5737 99.1755 35.5413 99.1755 35.4766C99.1755 35.4204 99.2101 35.3924 99.2791 35.3924C99.3784 35.3881 99.4647 35.3751 99.5381 35.3535C99.6763 35.3147 99.7453 35.1916 99.7453 34.9844V33.6311C99.7453 33.2685 99.7108 33.0311 99.6417 32.9188C99.5381 32.7332 99.3698 32.6404 99.1367 32.6404C98.7093 32.6404 98.4093 32.8994 98.2366 33.4174V34.9844C98.2366 35.1787 98.2841 35.2974 98.3791 35.3406C98.4654 35.3708 98.5712 35.3881 98.6964 35.3924C98.7654 35.3924 98.8 35.4269 98.8 35.496C98.8 35.5478 98.7654 35.5737 98.6964 35.5737H97.3366C97.2675 35.5737 97.233 35.5413 97.233 35.4766C97.233 35.4204 97.2675 35.3924 97.3366 35.3924C97.4402 35.3881 97.5243 35.3751 97.5891 35.3535C97.7316 35.3147 97.8028 35.1916 97.8028 34.9844V33.0483C97.8028 32.8455 97.751 32.7246 97.6474 32.6857C97.5869 32.6685 97.4833 32.6555 97.3366 32.6469C97.2675 32.6469 97.233 32.6123 97.233 32.5433C97.233 32.4828 97.2675 32.4505 97.3366 32.4462C97.6215 32.4418 97.8783 32.4159 98.1071 32.3684C98.1805 32.3555 98.2172 32.3857 98.2172 32.4591V33.003C98.4633 32.58 98.7935 32.3684 99.2079 32.3684C99.7216 32.3684 100.019 32.6037 100.101 33.0742C100.339 32.6037 100.693 32.3684 101.163 32.3684C101.811 32.3684 102.135 32.757 102.135 33.534V34.9844C102.135 35.1873 102.195 35.3082 102.316 35.347C102.359 35.36 102.411 35.3708 102.471 35.3794C102.532 35.3881 102.605 35.3924 102.692 35.3924V35.4183C102.692 35.4269 102.692 35.4377 102.692 35.4507C102.696 35.4593 102.698 35.4701 102.698 35.483Z" fill="#3E3A39"/>
<path d="M108.898 35.483C108.898 35.5435 108.863 35.5737 108.794 35.5737H107.434C107.365 35.5737 107.331 35.5413 107.331 35.4766C107.331 35.4204 107.365 35.3924 107.434 35.3924C107.495 35.3881 107.549 35.3816 107.596 35.373C107.644 35.3643 107.689 35.3557 107.732 35.347C107.845 35.3082 107.901 35.1873 107.901 34.9844V33.6376C107.901 33.2922 107.864 33.0548 107.791 32.9253C107.678 32.7354 107.506 32.6404 107.273 32.6404C106.849 32.6404 106.552 32.9016 106.379 33.4239V34.9844C106.379 35.1787 106.426 35.2974 106.521 35.3406C106.608 35.3708 106.716 35.3881 106.845 35.3924C106.914 35.3924 106.949 35.4269 106.949 35.496C106.949 35.5478 106.914 35.5737 106.845 35.5737H105.479C105.41 35.5737 105.375 35.5413 105.375 35.4766C105.375 35.4204 105.41 35.3924 105.479 35.3924C105.578 35.3881 105.665 35.3751 105.738 35.3535C105.876 35.3147 105.945 35.1916 105.945 34.9844V33.6311C105.945 33.2685 105.911 33.0311 105.842 32.9188C105.738 32.7332 105.57 32.6404 105.336 32.6404C104.909 32.6404 104.609 32.8994 104.436 33.4174V34.9844C104.436 35.1787 104.484 35.2974 104.579 35.3406C104.665 35.3708 104.771 35.3881 104.896 35.3924C104.965 35.3924 105 35.4269 105 35.496C105 35.5478 104.965 35.5737 104.896 35.5737H103.536C103.467 35.5737 103.433 35.5413 103.433 35.4766C103.433 35.4204 103.467 35.3924 103.536 35.3924C103.64 35.3881 103.724 35.3751 103.789 35.3535C103.931 35.3147 104.003 35.1916 104.003 34.9844V33.0483C104.003 32.8455 103.951 32.7246 103.847 32.6857C103.787 32.6685 103.683 32.6555 103.536 32.6469C103.467 32.6469 103.433 32.6123 103.433 32.5433C103.433 32.4828 103.467 32.4505 103.536 32.4462C103.821 32.4418 104.078 32.4159 104.307 32.3684C104.38 32.3555 104.417 32.3857 104.417 32.4591V33.003C104.663 32.58 104.993 32.3684 105.408 32.3684C105.921 32.3684 106.219 32.6037 106.301 33.0742C106.539 32.6037 106.893 32.3684 107.363 32.3684C108.011 32.3684 108.334 32.757 108.334 33.534V34.9844C108.334 35.1873 108.395 35.3082 108.516 35.347C108.559 35.36 108.611 35.3708 108.671 35.3794C108.732 35.3881 108.805 35.3924 108.891 35.3924V35.4183C108.891 35.4269 108.891 35.4377 108.891 35.4507C108.896 35.4593 108.898 35.4701 108.898 35.483Z" fill="#3E3A39"/>
<path d="M113.233 35.483C113.233 35.5435 113.198 35.5737 113.129 35.5737H112.372C112.302 35.5737 112.268 35.5413 112.268 35.4766L112.242 35.0492C111.983 35.4852 111.618 35.7032 111.148 35.7032C110.435 35.7032 110.079 35.3168 110.079 34.5441V33.0483C110.079 32.8325 110.032 32.7116 109.937 32.6857C109.907 32.6771 109.866 32.6706 109.814 32.6663C109.762 32.662 109.699 32.6577 109.626 32.6534C109.557 32.649 109.522 32.6145 109.522 32.5498C109.522 32.485 109.557 32.4505 109.626 32.4462C109.907 32.4375 110.163 32.4116 110.397 32.3684C110.47 32.3555 110.507 32.3857 110.507 32.4591V34.447C110.507 35.1031 110.746 35.4312 111.225 35.4312C111.338 35.4312 111.446 35.414 111.549 35.3794C111.653 35.3406 111.752 35.2823 111.847 35.2046C112.033 35.0578 112.162 34.8463 112.236 34.57V33.0419C112.236 32.8519 112.184 32.7332 112.08 32.6857C112.028 32.6641 111.927 32.6512 111.776 32.6469C111.707 32.6469 111.672 32.6123 111.672 32.5433C111.672 32.4828 111.707 32.4505 111.776 32.4462C112.03 32.4375 112.287 32.4116 112.546 32.3684C112.62 32.3555 112.656 32.3857 112.656 32.4591V34.9844C112.656 35.1787 112.719 35.2996 112.844 35.347C112.9 35.3686 112.995 35.3837 113.129 35.3924C113.198 35.3924 113.233 35.4226 113.233 35.483Z" fill="#3E3A39"/>
<path d="M117.671 35.483C117.671 35.5435 117.636 35.5737 117.567 35.5737H116.214C116.145 35.5737 116.11 35.5413 116.11 35.4766C116.11 35.4204 116.145 35.3924 116.214 35.3924C116.261 35.3881 116.304 35.3837 116.343 35.3794C116.386 35.3751 116.425 35.3686 116.46 35.36C116.602 35.3298 116.673 35.2046 116.673 34.9844V33.6246C116.673 32.9728 116.434 32.6469 115.955 32.6469C115.484 32.6469 115.156 32.9059 114.971 33.4239V34.9844C114.971 35.183 115.029 35.3039 115.145 35.347C115.18 35.36 115.219 35.3708 115.262 35.3794C115.309 35.3837 115.363 35.3881 115.424 35.3924C115.493 35.3924 115.527 35.4269 115.527 35.496C115.527 35.5478 115.493 35.5737 115.424 35.5737H114.07C114.001 35.5737 113.967 35.5413 113.967 35.4766C113.967 35.4204 114.001 35.3924 114.07 35.3924C114.174 35.3881 114.258 35.3751 114.323 35.3535C114.465 35.3147 114.537 35.1916 114.537 34.9844V33.0483C114.537 32.8455 114.485 32.7246 114.381 32.6857C114.321 32.6685 114.217 32.6555 114.07 32.6469C114.001 32.6469 113.967 32.6123 113.967 32.5433C113.967 32.4828 114.001 32.4505 114.07 32.4462C114.355 32.4375 114.61 32.4116 114.835 32.3684C114.908 32.3555 114.945 32.3857 114.945 32.4591V33.0289C115.208 32.5886 115.575 32.3684 116.045 32.3684C116.753 32.3684 117.107 32.757 117.107 33.534V34.9844C117.107 35.1787 117.17 35.2996 117.295 35.347C117.356 35.3686 117.446 35.3837 117.567 35.3924C117.636 35.3924 117.671 35.4226 117.671 35.483Z" fill="#3E3A39"/>
<path d="M119.962 35.483C119.962 35.5435 119.928 35.5737 119.859 35.5737H118.525C118.456 35.5737 118.421 35.5413 118.421 35.4766C118.421 35.4204 118.456 35.3924 118.525 35.3924C118.62 35.3837 118.702 35.3708 118.771 35.3535C118.913 35.3147 118.985 35.1916 118.985 34.9844V33.0483C118.985 32.8455 118.933 32.7246 118.829 32.6857C118.777 32.6685 118.676 32.6555 118.525 32.6469C118.456 32.6469 118.421 32.6123 118.421 32.5433C118.421 32.4828 118.456 32.4505 118.525 32.4462C118.797 32.4418 119.056 32.4159 119.302 32.3684C119.375 32.3555 119.412 32.3857 119.412 32.4591V34.9844C119.412 35.1744 119.462 35.2931 119.561 35.3406C119.647 35.3708 119.747 35.3881 119.859 35.3924C119.928 35.3924 119.962 35.4226 119.962 35.483ZM119.198 30.9892C119.289 30.9892 119.367 31.0216 119.431 31.0864C119.496 31.1597 119.529 31.2374 119.529 31.3195C119.529 31.5353 119.419 31.6432 119.198 31.6432C118.983 31.6432 118.875 31.5353 118.875 31.3195C118.875 31.0993 118.983 30.9892 119.198 30.9892Z" fill="#3E3A39"/>
<path d="M122.603 35.2175C122.65 35.2564 122.653 35.3039 122.609 35.36C122.402 35.5974 122.165 35.7161 121.897 35.7161C121.418 35.7161 121.178 35.4442 121.178 34.9003V32.6922H120.732C120.663 32.6922 120.628 32.6577 120.628 32.5886C120.628 32.5282 120.66 32.4936 120.725 32.485C120.937 32.4677 121.092 32.3879 121.191 32.2454C121.234 32.185 121.271 32.1073 121.301 32.0123C121.336 31.913 121.368 31.7965 121.399 31.6626C121.403 31.6022 121.437 31.572 121.502 31.572C121.571 31.572 121.606 31.6044 121.606 31.6691V32.4526H122.46C122.53 32.4526 122.564 32.485 122.564 32.5498V32.5886C122.564 32.6577 122.53 32.6922 122.46 32.6922H121.606V34.7772C121.606 35.2175 121.74 35.4377 122.007 35.4377C122.167 35.4377 122.316 35.3665 122.454 35.224C122.506 35.1722 122.555 35.1701 122.603 35.2175Z" fill="#3E3A39"/>
<path d="M126.547 32.5368C126.547 32.6016 126.514 32.6361 126.449 32.6404C126.234 32.6749 126.082 32.7958 125.996 33.003L124.656 36.3378C124.505 36.7133 124.28 36.9011 123.982 36.9011C123.672 36.9011 123.516 36.7781 123.516 36.532C123.516 36.3248 123.62 36.2212 123.827 36.2212C124.013 36.2212 124.105 36.314 124.105 36.4996C124.105 36.5342 124.103 36.5558 124.099 36.5644L124.086 36.6227C124.233 36.6184 124.356 36.4867 124.455 36.2277L124.708 35.5478L123.607 33.0742C123.525 32.8929 123.449 32.7764 123.38 32.7246C123.333 32.6814 123.253 32.6534 123.141 32.6404C123.076 32.6361 123.043 32.6016 123.043 32.5368C123.043 32.4807 123.078 32.4526 123.147 32.4526H124.313C124.382 32.4526 124.416 32.485 124.416 32.5498C124.416 32.6059 124.382 32.6361 124.313 32.6404C124.101 32.6577 123.995 32.7267 123.995 32.8476C123.995 32.8951 124.013 32.9599 124.047 33.0419L124.908 35.0686L125.698 33.0548C125.728 32.9814 125.744 32.921 125.744 32.8735C125.744 32.7397 125.629 32.662 125.4 32.6404C125.331 32.6318 125.297 32.5972 125.297 32.5368C125.297 32.4807 125.331 32.4526 125.4 32.4526H126.443C126.512 32.4526 126.547 32.4807 126.547 32.5368Z" fill="#3E3A39"/>
<path d="M134.946 34.1038C135.006 34.1297 135.03 34.1729 135.017 34.2333C134.871 34.7082 134.642 35.0729 134.331 35.3276C133.994 35.5996 133.591 35.7356 133.12 35.7356C132.507 35.7356 132 35.5348 131.598 35.1334C131.141 34.6887 130.912 34.0822 130.912 33.3138C130.912 32.5541 131.145 31.9368 131.611 31.4619C132.021 31.0518 132.526 30.8468 133.127 30.8468C133.601 30.8468 134.018 30.9741 134.376 31.2288C134.463 31.2892 134.523 31.3195 134.558 31.3195C134.609 31.3195 134.644 31.2655 134.661 31.1576C134.665 31.0885 134.7 31.054 134.765 31.054C134.834 31.054 134.868 31.0885 134.868 31.1576V32.2584C134.868 32.3231 134.834 32.3555 134.765 32.3555C134.704 32.3555 134.668 32.3253 134.655 32.2648C134.59 31.9886 134.471 31.7555 134.299 31.5655C134.014 31.2418 133.634 31.0799 133.159 31.0799C132.529 31.0799 132.062 31.3518 131.76 31.8958C131.544 32.2843 131.436 32.7397 131.436 33.262C131.436 33.8836 131.598 34.3909 131.922 34.7837C132.25 35.1938 132.678 35.3989 133.204 35.3989C133.977 35.3989 134.499 34.9844 134.771 34.1556C134.797 34.0909 134.84 34.0693 134.901 34.0909L134.946 34.1038Z" fill="#3E3A39"/>
<path d="M138.465 33.6764C138.452 33.3009 138.344 33.0117 138.141 32.8088C137.977 32.6447 137.764 32.5627 137.5 32.5627C137.198 32.5627 136.948 32.6922 136.749 32.9512C136.602 33.1412 136.514 33.3829 136.484 33.6764H138.465ZM138.905 33.8642C138.905 33.9031 138.871 33.9225 138.802 33.9225H136.464V34.0326C136.464 34.4686 136.594 34.8139 136.853 35.0686C137.064 35.2845 137.328 35.3924 137.643 35.3924C138.074 35.3924 138.413 35.1981 138.659 34.8096C138.698 34.7535 138.746 34.7449 138.802 34.7837L138.815 34.7967C138.867 34.8355 138.877 34.883 138.847 34.9391C138.567 35.4312 138.139 35.6773 137.565 35.6773C137.116 35.6773 136.745 35.5305 136.451 35.237C136.158 34.9434 136.011 34.5398 136.011 34.0261C136.011 33.4995 136.166 33.0764 136.477 32.757C136.754 32.4807 137.097 32.3425 137.507 32.3425C137.908 32.3425 138.236 32.4721 138.491 32.7311C138.625 32.8692 138.726 33.0289 138.795 33.2102C138.869 33.3872 138.905 33.5858 138.905 33.8059V33.8642Z" fill="#3E3A39"/>
<path d="M143.591 35.483C143.591 35.5435 143.556 35.5737 143.487 35.5737H142.134C142.065 35.5737 142.031 35.5413 142.031 35.4766C142.031 35.4204 142.065 35.3924 142.134 35.3924C142.182 35.3881 142.225 35.3837 142.264 35.3794C142.307 35.3751 142.346 35.3686 142.38 35.36C142.523 35.3298 142.594 35.2046 142.594 34.9844V33.6246C142.594 32.9728 142.354 32.6469 141.875 32.6469C141.405 32.6469 141.076 32.9059 140.891 33.4239V34.9844C140.891 35.183 140.949 35.3039 141.066 35.347C141.1 35.36 141.139 35.3708 141.182 35.3794C141.23 35.3837 141.284 35.3881 141.344 35.3924C141.413 35.3924 141.448 35.4269 141.448 35.496C141.448 35.5478 141.413 35.5737 141.344 35.5737H139.991C139.922 35.5737 139.887 35.5413 139.887 35.4766C139.887 35.4204 139.922 35.3924 139.991 35.3924C140.094 35.3881 140.179 35.3751 140.243 35.3535C140.386 35.3147 140.457 35.1916 140.457 34.9844V33.0483C140.457 32.8455 140.405 32.7246 140.302 32.6857C140.241 32.6685 140.138 32.6555 139.991 32.6469C139.922 32.6469 139.887 32.6123 139.887 32.5433C139.887 32.4828 139.922 32.4505 139.991 32.4462C140.276 32.4375 140.53 32.4116 140.755 32.3684C140.828 32.3555 140.865 32.3857 140.865 32.4591V33.0289C141.128 32.5886 141.495 32.3684 141.966 32.3684C142.674 32.3684 143.028 32.757 143.028 33.534V34.9844C143.028 35.1787 143.09 35.2996 143.215 35.347C143.276 35.3686 143.367 35.3837 143.487 35.3924C143.556 35.3924 143.591 35.4226 143.591 35.483Z" fill="#3E3A39"/>
<path d="M146.187 35.2175C146.235 35.2564 146.237 35.3039 146.194 35.36C145.986 35.5974 145.749 35.7161 145.481 35.7161C145.002 35.7161 144.763 35.4442 144.763 34.9003V32.6922H144.316C144.247 32.6922 144.212 32.6577 144.212 32.5886C144.212 32.5282 144.245 32.4936 144.309 32.485C144.521 32.4677 144.676 32.3879 144.776 32.2454C144.819 32.185 144.855 32.1073 144.886 32.0123C144.92 31.913 144.953 31.7965 144.983 31.6626C144.987 31.6022 145.022 31.572 145.086 31.572C145.155 31.572 145.19 31.6044 145.19 31.6691V32.4526H146.045C146.114 32.4526 146.148 32.485 146.148 32.5498V32.5886C146.148 32.6577 146.114 32.6922 146.045 32.6922H145.19V34.7772C145.19 35.2175 145.324 35.4377 145.591 35.4377C145.751 35.4377 145.9 35.3665 146.038 35.224C146.09 35.1722 146.14 35.1701 146.187 35.2175Z" fill="#3E3A39"/>
<path d="M149.457 33.6764C149.444 33.3009 149.336 33.0117 149.134 32.8088C148.97 32.6447 148.756 32.5627 148.493 32.5627C148.19 32.5627 147.94 32.6922 147.741 32.9512C147.595 33.1412 147.506 33.3829 147.476 33.6764H149.457ZM149.898 33.8642C149.898 33.9031 149.863 33.9225 149.794 33.9225H147.456V34.0326C147.456 34.4686 147.586 34.8139 147.845 35.0686C148.057 35.2845 148.32 35.3924 148.635 35.3924C149.067 35.3924 149.406 35.1981 149.652 34.8096C149.69 34.7535 149.738 34.7449 149.794 34.7837L149.807 34.7967C149.859 34.8355 149.87 34.883 149.839 34.9391C149.559 35.4312 149.131 35.6773 148.557 35.6773C148.108 35.6773 147.737 35.5305 147.444 35.237C147.15 34.9434 147.003 34.5398 147.003 34.0261C147.003 33.4995 147.159 33.0764 147.469 32.757C147.746 32.4807 148.089 32.3425 148.499 32.3425C148.9 32.3425 149.229 32.4721 149.483 32.7311C149.617 32.8692 149.718 33.0289 149.788 33.2102C149.861 33.3872 149.898 33.5858 149.898 33.8059V33.8642Z" fill="#3E3A39"/>
<path d="M151.851 33.1714C151.95 32.9296 152.101 32.7267 152.304 32.5627C152.472 32.4202 152.664 32.349 152.88 32.349C153.126 32.349 153.249 32.4591 153.249 32.6793C153.249 32.8778 153.159 32.9771 152.977 32.9771C152.796 32.9771 152.705 32.8886 152.705 32.7116C152.705 32.703 152.705 32.6922 152.705 32.6793C152.705 32.6663 152.71 32.6469 152.718 32.621C152.55 32.6339 152.377 32.7419 152.2 32.9447C152.062 33.1045 151.956 33.3052 151.883 33.5469V34.9844C151.883 35.1787 151.931 35.2974 152.026 35.3406C152.112 35.3708 152.224 35.3881 152.362 35.3924C152.431 35.3924 152.466 35.4269 152.466 35.496C152.466 35.5478 152.431 35.5737 152.362 35.5737H150.983C150.914 35.5737 150.879 35.5413 150.879 35.4766C150.879 35.4204 150.914 35.3924 150.983 35.3924C151.087 35.3881 151.171 35.3751 151.236 35.3535C151.378 35.3147 151.449 35.1916 151.449 34.9844V33.0483C151.449 32.8455 151.397 32.7246 151.294 32.6857C151.238 32.6685 151.136 32.6555 150.989 32.6469C150.92 32.6469 150.886 32.6123 150.886 32.5433C150.886 32.4828 150.92 32.4505 150.989 32.4462C151.27 32.4375 151.52 32.4116 151.741 32.3684C151.814 32.3555 151.851 32.3857 151.851 32.4591V33.1714Z" fill="#3E3A39"/>
<path d="M56.3494 35.483C56.3494 35.5435 56.3149 35.5737 56.2458 35.5737H54.6788C54.6141 35.5737 54.5817 35.5413 54.5817 35.4766C54.5817 35.4204 54.6162 35.3924 54.6853 35.3924C54.9616 35.3794 55.0997 35.3233 55.0997 35.224C55.0997 35.1765 55.022 35.0557 54.8666 34.8614L53.5198 33.2102L53.0859 33.6246V34.8873C53.0859 35.0988 53.1442 35.237 53.2608 35.3017C53.3341 35.3449 53.4701 35.373 53.6687 35.3859C53.7378 35.3945 53.7723 35.4312 53.7723 35.496C53.7723 35.5478 53.7378 35.5737 53.6687 35.5737H52.0823C52.0175 35.5737 51.9851 35.5413 51.9851 35.4766C51.9851 35.4248 52.0175 35.3945 52.0823 35.3859C52.2636 35.373 52.3888 35.3492 52.4578 35.3147C52.583 35.2629 52.6456 35.1204 52.6456 34.8873V31.7209C52.6456 31.5008 52.583 31.3583 52.4578 31.2936C52.3801 31.2547 52.2441 31.2223 52.0499 31.1964C51.9851 31.1921 51.9528 31.1576 51.9528 31.0928C51.9528 31.0367 51.9851 31.0087 52.0499 31.0087H53.6687C53.7378 31.0087 53.7723 31.0432 53.7723 31.1123C53.7723 31.1597 53.7378 31.1878 53.6687 31.1964C53.4917 31.218 53.3622 31.2439 53.2802 31.2741C53.1507 31.3346 53.0859 31.4813 53.0859 31.7145V33.3333L54.8925 31.5914C54.9788 31.5094 55.022 31.4382 55.022 31.3777C55.022 31.2741 54.8947 31.2115 54.64 31.19C54.5709 31.19 54.5364 31.1576 54.5364 31.0928C54.5364 31.0367 54.5687 31.0087 54.6335 31.0087H56.0192C56.0883 31.0087 56.1228 31.0432 56.1228 31.1123C56.1228 31.1597 56.0904 31.19 56.0257 31.2029C55.8875 31.2245 55.7516 31.2698 55.6177 31.3389C55.4882 31.4036 55.3652 31.4921 55.2486 31.6044L53.837 32.9383L55.5336 34.978C55.6285 35.0988 55.7364 35.1916 55.8573 35.2564C55.9782 35.3211 56.1099 35.3643 56.2523 35.3859C56.3171 35.3945 56.3494 35.4269 56.3494 35.483Z" stroke="#3E3A39" stroke-width="0.280321" mask="url(#path-1-outside-1_909_2467)"/>
<path d="M59.2937 31.0734C58.7671 31.0734 58.3484 31.2914 58.0375 31.7274C57.7526 32.1245 57.6102 32.6382 57.6102 33.2685C57.6102 33.8297 57.7203 34.3045 57.9404 34.6931C58.2469 35.2283 58.698 35.496 59.2937 35.496C59.8074 35.496 60.2219 35.2801 60.537 34.8485C60.8262 34.4643 60.9708 33.9462 60.9708 33.2944C60.9708 32.5994 60.8089 32.0512 60.4852 31.6497C60.1787 31.2655 59.7815 31.0734 59.2937 31.0734ZM59.2937 30.8468C59.8938 30.8468 60.3988 31.0518 60.8089 31.4619C61.2752 31.9368 61.5083 32.539 61.5083 33.2685C61.5083 34.0455 61.273 34.6672 60.8025 35.1334C60.3967 35.5391 59.8938 35.742 59.2937 35.742C58.6937 35.742 58.1886 35.537 57.7785 35.1269C57.308 34.6607 57.0727 34.0455 57.0727 33.2815C57.0727 32.5433 57.3058 31.9368 57.7721 31.4619C58.1822 31.0518 58.6894 30.8468 59.2937 30.8468Z" stroke="#3E3A39" stroke-width="0.280321" mask="url(#path-1-outside-1_909_2467)"/>
<path d="M66.9784 35.483C66.9784 35.5435 66.9439 35.5737 66.8748 35.5737H65.3078C65.243 35.5737 65.2107 35.5413 65.2107 35.4766C65.2107 35.4204 65.2452 35.3924 65.3143 35.3924C65.5905 35.3794 65.7287 35.3233 65.7287 35.224C65.7287 35.1765 65.651 35.0557 65.4956 34.8614L64.1487 33.2102L63.7149 33.6246V34.8873C63.7149 35.0988 63.7732 35.237 63.8897 35.3017C63.9631 35.3449 64.0991 35.373 64.2977 35.3859C64.3667 35.3945 64.4013 35.4312 64.4013 35.496C64.4013 35.5478 64.3667 35.5737 64.2977 35.5737H62.7112C62.6465 35.5737 62.6141 35.5413 62.6141 35.4766C62.6141 35.4248 62.6465 35.3945 62.7112 35.3859C62.8925 35.373 63.0177 35.3492 63.0868 35.3147C63.212 35.2629 63.2746 35.1204 63.2746 34.8873V31.7209C63.2746 31.5008 63.212 31.3583 63.0868 31.2936C63.0091 31.2547 62.8731 31.2223 62.6789 31.1964C62.6141 31.1921 62.5817 31.1576 62.5817 31.0928C62.5817 31.0367 62.6141 31.0087 62.6789 31.0087H64.2977C64.3667 31.0087 64.4013 31.0432 64.4013 31.1123C64.4013 31.1597 64.3667 31.1878 64.2977 31.1964C64.1207 31.218 63.9912 31.2439 63.9092 31.2741C63.7796 31.3346 63.7149 31.4813 63.7149 31.7145V33.3333L65.5215 31.5914C65.6078 31.5094 65.651 31.4382 65.651 31.3777C65.651 31.2741 65.5236 31.2115 65.2689 31.19C65.1999 31.19 65.1653 31.1576 65.1653 31.0928C65.1653 31.0367 65.1977 31.0087 65.2625 31.0087H66.6482C66.7172 31.0087 66.7518 31.0432 66.7518 31.1123C66.7518 31.1597 66.7194 31.19 66.6546 31.2029C66.5165 31.2245 66.3805 31.2698 66.2467 31.3389C66.1172 31.4036 65.9942 31.4921 65.8776 31.6044L64.466 32.9383L66.1625 34.978C66.2575 35.0988 66.3654 35.1916 66.4863 35.2564C66.6072 35.3211 66.7388 35.3643 66.8813 35.3859C66.946 35.3945 66.9784 35.4269 66.9784 35.483Z" stroke="#3E3A39" stroke-width="0.280321" mask="url(#path-1-outside-1_909_2467)"/>
<path d="M72.3574 31.0993C72.3574 31.1597 72.325 31.1921 72.2603 31.1964C72.1178 31.2094 72.0013 31.2331 71.9106 31.2677C71.7768 31.3238 71.7099 31.4706 71.7099 31.708V33.7412C71.7099 35.0621 71.1228 35.7226 69.9486 35.7226C68.7356 35.7226 68.1291 35.0751 68.1291 33.78V31.7145C68.1291 31.4943 68.0665 31.3518 67.9413 31.2871C67.8981 31.2655 67.842 31.2482 67.7729 31.2353C67.7082 31.218 67.6305 31.2051 67.5398 31.1964C67.4751 31.1921 67.4427 31.1576 67.4427 31.0928C67.4427 31.0367 67.4772 31.0087 67.5463 31.0087H69.1522C69.2212 31.0087 69.2558 31.0432 69.2558 31.1123C69.2558 31.1597 69.2234 31.1878 69.1586 31.1964C69.0637 31.2051 68.9816 31.218 68.9126 31.2353C68.8478 31.2526 68.7917 31.272 68.7442 31.2936C68.6363 31.3497 68.5823 31.49 68.5823 31.7145V33.7153C68.5823 34.8377 69.0529 35.3989 69.9939 35.3989C70.9264 35.3989 71.3926 34.8377 71.3926 33.7153V31.708C71.3926 31.4792 71.3365 31.3367 71.2242 31.2806C71.1422 31.2374 71.0192 31.2094 70.8551 31.1964C70.7861 31.1878 70.7515 31.1533 70.7515 31.0928C70.7515 31.0367 70.7861 31.0087 70.8551 31.0087H72.2603C72.325 31.0087 72.3574 31.0389 72.3574 31.0993Z" stroke="#3E3A39" stroke-width="0.280321" mask="url(#path-1-outside-1_909_2467)"/>
<path d="M77.8224 35.483C77.8224 35.5435 77.79 35.5737 77.7253 35.5737H76.1453C76.0806 35.5737 76.0482 35.5413 76.0482 35.4766C76.0482 35.4248 76.0806 35.3945 76.1453 35.3859C76.3266 35.373 76.4475 35.3492 76.508 35.3147C76.6375 35.2586 76.7022 35.1161 76.7022 34.8873V33.3397H74.2611V34.8873C74.2611 35.1075 74.315 35.2456 74.4229 35.3017C74.4618 35.3233 74.5136 35.3406 74.5783 35.3535C74.6431 35.3665 74.7251 35.3773 74.8244 35.3859C74.8892 35.3945 74.9215 35.4312 74.9215 35.496C74.9215 35.5478 74.8892 35.5737 74.8244 35.5737H73.2574C73.1883 35.5737 73.1538 35.5413 73.1538 35.4766C73.1538 35.4248 73.1862 35.3945 73.2509 35.3859C73.4279 35.373 73.5509 35.3492 73.62 35.3147C73.7495 35.2586 73.8143 35.1161 73.8143 34.8873V31.708C73.8143 31.4835 73.7581 31.3432 73.6459 31.2871C73.5855 31.2526 73.4538 31.2223 73.2509 31.1964C73.1862 31.1878 73.1538 31.1533 73.1538 31.0928C73.1538 31.0367 73.1883 31.0087 73.2574 31.0087H74.8244C74.8892 31.0087 74.9215 31.0432 74.9215 31.1123C74.9215 31.1641 74.8892 31.1921 74.8244 31.1964C74.6604 31.218 74.5373 31.2439 74.4553 31.2741C74.3258 31.3259 74.2611 31.4706 74.2611 31.708V33.0807H76.7022V31.7145C76.7022 31.5029 76.6353 31.3626 76.5015 31.2936C76.4238 31.2547 76.2943 31.2223 76.113 31.1964C76.0482 31.1921 76.0158 31.1576 76.0158 31.0928C76.0158 31.0367 76.0482 31.0087 76.113 31.0087H77.7253C77.79 31.0087 77.8224 31.0432 77.8224 31.1123C77.8224 31.1641 77.79 31.1921 77.7253 31.1964C77.5267 31.2223 77.3864 31.2547 77.3044 31.2936C77.2008 31.354 77.149 31.4943 77.149 31.7145V34.8873C77.149 35.0988 77.2073 35.237 77.3238 35.3017C77.3972 35.3449 77.531 35.373 77.7253 35.3859C77.79 35.3945 77.8224 35.4269 77.8224 35.483Z" stroke="#3E3A39" stroke-width="0.280321" mask="url(#path-1-outside-1_909_2467)"/>
<path d="M83.5681 31.0993C83.5681 31.1597 83.5357 31.1921 83.471 31.1964C83.3285 31.2094 83.212 31.2331 83.1213 31.2677C82.9875 31.3238 82.9206 31.4706 82.9206 31.708V33.7412C82.9206 35.0621 82.3335 35.7226 81.1593 35.7226C79.9463 35.7226 79.3398 35.0751 79.3398 33.78V31.7145C79.3398 31.4943 79.2772 31.3518 79.152 31.2871C79.1089 31.2655 79.0527 31.2482 78.9837 31.2353C78.9189 31.218 78.8412 31.2051 78.7506 31.1964C78.6858 31.1921 78.6534 31.1576 78.6534 31.0928C78.6534 31.0367 78.688 31.0087 78.757 31.0087H80.3629C80.432 31.0087 80.4665 31.0432 80.4665 31.1123C80.4665 31.1597 80.4341 31.1878 80.3694 31.1964C80.2744 31.2051 80.1924 31.218 80.1233 31.2353C80.0586 31.2526 80.0024 31.272 79.9549 31.2936C79.847 31.3497 79.7931 31.49 79.7931 31.7145V33.7153C79.7931 34.8377 80.2636 35.3989 81.2047 35.3989C82.1371 35.3989 82.6033 34.8377 82.6033 33.7153V31.708C82.6033 31.4792 82.5472 31.3367 82.435 31.2806C82.3529 31.2374 82.2299 31.2094 82.0659 31.1964C81.9968 31.1878 81.9623 31.1533 81.9623 31.0928C81.9623 31.0367 81.9968 31.0087 82.0659 31.0087H83.471C83.5357 31.0087 83.5681 31.0389 83.5681 31.0993Z" stroke="#3E3A39" stroke-width="0.280321" mask="url(#path-1-outside-1_909_2467)"/>
<path d="M92.0895 34.1038C92.1499 34.1297 92.1736 34.1729 92.1607 34.2333C92.0139 34.7082 91.7851 35.0729 91.4743 35.3276C91.1376 35.5996 90.734 35.7356 90.2634 35.7356C89.6505 35.7356 89.1432 35.5348 88.7418 35.1334C88.2842 34.6887 88.0554 34.0822 88.0554 33.3138C88.0554 32.5541 88.2885 31.9368 88.7547 31.4619C89.1648 31.0518 89.6699 30.8468 90.2699 30.8468C90.7448 30.8468 91.1613 30.9741 91.5196 31.2288C91.606 31.2892 91.6664 31.3195 91.7009 31.3195C91.7527 31.3195 91.7873 31.2655 91.8046 31.1576C91.8089 31.0885 91.8434 31.054 91.9082 31.054C91.9772 31.054 92.0118 31.0885 92.0118 31.1576V32.2584C92.0118 32.3231 91.9772 32.3555 91.9082 32.3555C91.8477 32.3555 91.811 32.3253 91.7981 32.2648C91.7333 31.9886 91.6146 31.7555 91.4419 31.5655C91.157 31.2418 90.7771 31.0799 90.3023 31.0799C89.672 31.0799 89.2058 31.3518 88.9037 31.8958C88.6878 32.2843 88.5799 32.7397 88.5799 33.262C88.5799 33.8836 88.7418 34.3909 89.0655 34.7837C89.3936 35.1938 89.821 35.3989 90.3476 35.3989C91.1203 35.3989 91.6427 34.9844 91.9146 34.1556C91.9405 34.0909 91.9837 34.0693 92.0441 34.0909L92.0895 34.1038Z" stroke="#3E3A39" stroke-width="0.280321" mask="url(#path-1-outside-1_909_2467)"/>
<path d="M94.6891 32.5562C94.3653 32.5562 94.1084 32.6901 93.9185 32.9577C93.7286 33.2253 93.6336 33.5728 93.6336 34.0002C93.6336 34.4535 93.7372 34.8096 93.9444 35.0686C94.13 35.3104 94.3782 35.4312 94.6891 35.4312C95.0733 35.4312 95.356 35.2629 95.5373 34.9262C95.6798 34.6628 95.751 34.3563 95.751 34.0067C95.751 33.5534 95.6474 33.193 95.4402 32.9253C95.2502 32.6793 94.9999 32.5562 94.6891 32.5562ZM94.6891 32.3296C95.1207 32.3296 95.479 32.4742 95.7639 32.7634C96.0748 33.0742 96.2302 33.4822 96.2302 33.9873C96.2302 34.5182 96.0748 34.9391 95.7639 35.2499C95.4704 35.5348 95.1121 35.6773 94.6891 35.6773C94.2617 35.6773 93.9056 35.5348 93.6206 35.2499C93.3098 34.9391 93.1544 34.5225 93.1544 34.0002C93.1544 33.7412 93.1933 33.5102 93.271 33.3074C93.353 33.1001 93.4717 32.9167 93.6271 32.757C93.912 32.4721 94.266 32.3296 94.6891 32.3296Z" stroke="#3E3A39" stroke-width="0.280321" mask="url(#path-1-outside-1_909_2467)"/>
<path d="M102.698 35.483C102.698 35.5435 102.664 35.5737 102.594 35.5737H101.235C101.166 35.5737 101.131 35.5413 101.131 35.4766C101.131 35.4204 101.166 35.3924 101.235 35.3924C101.295 35.3881 101.349 35.3816 101.397 35.373C101.444 35.3643 101.489 35.3557 101.533 35.347C101.645 35.3082 101.701 35.1873 101.701 34.9844V33.6376C101.701 33.2922 101.664 33.0548 101.591 32.9253C101.479 32.7354 101.306 32.6404 101.073 32.6404C100.65 32.6404 100.352 32.9016 100.179 33.4239V34.9844C100.179 35.1787 100.227 35.2974 100.322 35.3406C100.408 35.3708 100.516 35.3881 100.645 35.3924C100.714 35.3924 100.749 35.4269 100.749 35.496C100.749 35.5478 100.714 35.5737 100.645 35.5737H99.2791C99.2101 35.5737 99.1755 35.5413 99.1755 35.4766C99.1755 35.4204 99.2101 35.3924 99.2791 35.3924C99.3784 35.3881 99.4647 35.3751 99.5381 35.3535C99.6763 35.3147 99.7453 35.1916 99.7453 34.9844V33.6311C99.7453 33.2685 99.7108 33.0311 99.6417 32.9188C99.5381 32.7332 99.3698 32.6404 99.1367 32.6404C98.7093 32.6404 98.4093 32.8994 98.2366 33.4174V34.9844C98.2366 35.1787 98.2841 35.2974 98.3791 35.3406C98.4654 35.3708 98.5712 35.3881 98.6964 35.3924C98.7654 35.3924 98.8 35.4269 98.8 35.496C98.8 35.5478 98.7654 35.5737 98.6964 35.5737H97.3366C97.2675 35.5737 97.233 35.5413 97.233 35.4766C97.233 35.4204 97.2675 35.3924 97.3366 35.3924C97.4402 35.3881 97.5243 35.3751 97.5891 35.3535C97.7316 35.3147 97.8028 35.1916 97.8028 34.9844V33.0483C97.8028 32.8455 97.751 32.7246 97.6474 32.6857C97.5869 32.6685 97.4833 32.6555 97.3366 32.6469C97.2675 32.6469 97.233 32.6123 97.233 32.5433C97.233 32.4828 97.2675 32.4505 97.3366 32.4462C97.6215 32.4418 97.8783 32.4159 98.1071 32.3684C98.1805 32.3555 98.2172 32.3857 98.2172 32.4591V33.003C98.4633 32.58 98.7935 32.3684 99.2079 32.3684C99.7216 32.3684 100.019 32.6037 100.101 33.0742C100.339 32.6037 100.693 32.3684 101.163 32.3684C101.811 32.3684 102.135 32.757 102.135 33.534V34.9844C102.135 35.1873 102.195 35.3082 102.316 35.347C102.359 35.36 102.411 35.3708 102.471 35.3794C102.532 35.3881 102.605 35.3924 102.692 35.3924V35.4183C102.692 35.4269 102.692 35.4377 102.692 35.4507C102.696 35.4593 102.698 35.4701 102.698 35.483Z" stroke="#3E3A39" stroke-width="0.280321" mask="url(#path-1-outside-1_909_2467)"/>
<path d="M108.898 35.483C108.898 35.5435 108.863 35.5737 108.794 35.5737H107.434C107.365 35.5737 107.331 35.5413 107.331 35.4766C107.331 35.4204 107.365 35.3924 107.434 35.3924C107.495 35.3881 107.549 35.3816 107.596 35.373C107.644 35.3643 107.689 35.3557 107.732 35.347C107.845 35.3082 107.901 35.1873 107.901 34.9844V33.6376C107.901 33.2922 107.864 33.0548 107.791 32.9253C107.678 32.7354 107.506 32.6404 107.273 32.6404C106.849 32.6404 106.552 32.9016 106.379 33.4239V34.9844C106.379 35.1787 106.426 35.2974 106.521 35.3406C106.608 35.3708 106.716 35.3881 106.845 35.3924C106.914 35.3924 106.949 35.4269 106.949 35.496C106.949 35.5478 106.914 35.5737 106.845 35.5737H105.479C105.41 35.5737 105.375 35.5413 105.375 35.4766C105.375 35.4204 105.41 35.3924 105.479 35.3924C105.578 35.3881 105.665 35.3751 105.738 35.3535C105.876 35.3147 105.945 35.1916 105.945 34.9844V33.6311C105.945 33.2685 105.911 33.0311 105.842 32.9188C105.738 32.7332 105.57 32.6404 105.336 32.6404C104.909 32.6404 104.609 32.8994 104.436 33.4174V34.9844C104.436 35.1787 104.484 35.2974 104.579 35.3406C104.665 35.3708 104.771 35.3881 104.896 35.3924C104.965 35.3924 105 35.4269 105 35.496C105 35.5478 104.965 35.5737 104.896 35.5737H103.536C103.467 35.5737 103.433 35.5413 103.433 35.4766C103.433 35.4204 103.467 35.3924 103.536 35.3924C103.64 35.3881 103.724 35.3751 103.789 35.3535C103.931 35.3147 104.003 35.1916 104.003 34.9844V33.0483C104.003 32.8455 103.951 32.7246 103.847 32.6857C103.787 32.6685 103.683 32.6555 103.536 32.6469C103.467 32.6469 103.433 32.6123 103.433 32.5433C103.433 32.4828 103.467 32.4505 103.536 32.4462C103.821 32.4418 104.078 32.4159 104.307 32.3684C104.38 32.3555 104.417 32.3857 104.417 32.4591V33.003C104.663 32.58 104.993 32.3684 105.408 32.3684C105.921 32.3684 106.219 32.6037 106.301 33.0742C106.539 32.6037 106.893 32.3684 107.363 32.3684C108.011 32.3684 108.334 32.757 108.334 33.534V34.9844C108.334 35.1873 108.395 35.3082 108.516 35.347C108.559 35.36 108.611 35.3708 108.671 35.3794C108.732 35.3881 108.805 35.3924 108.891 35.3924V35.4183C108.891 35.4269 108.891 35.4377 108.891 35.4507C108.896 35.4593 108.898 35.4701 108.898 35.483Z" stroke="#3E3A39" stroke-width="0.280321" mask="url(#path-1-outside-1_909_2467)"/>
<path d="M113.233 35.483C113.233 35.5435 113.198 35.5737 113.129 35.5737H112.372C112.302 35.5737 112.268 35.5413 112.268 35.4766L112.242 35.0492C111.983 35.4852 111.618 35.7032 111.148 35.7032C110.435 35.7032 110.079 35.3168 110.079 34.5441V33.0483C110.079 32.8325 110.032 32.7116 109.937 32.6857C109.907 32.6771 109.866 32.6706 109.814 32.6663C109.762 32.662 109.699 32.6577 109.626 32.6534C109.557 32.649 109.522 32.6145 109.522 32.5498C109.522 32.485 109.557 32.4505 109.626 32.4462C109.907 32.4375 110.163 32.4116 110.397 32.3684C110.47 32.3555 110.507 32.3857 110.507 32.4591V34.447C110.507 35.1031 110.746 35.4312 111.225 35.4312C111.338 35.4312 111.446 35.414 111.549 35.3794C111.653 35.3406 111.752 35.2823 111.847 35.2046C112.033 35.0578 112.162 34.8463 112.236 34.57V33.0419C112.236 32.8519 112.184 32.7332 112.08 32.6857C112.028 32.6641 111.927 32.6512 111.776 32.6469C111.707 32.6469 111.672 32.6123 111.672 32.5433C111.672 32.4828 111.707 32.4505 111.776 32.4462C112.03 32.4375 112.287 32.4116 112.546 32.3684C112.62 32.3555 112.656 32.3857 112.656 32.4591V34.9844C112.656 35.1787 112.719 35.2996 112.844 35.347C112.9 35.3686 112.995 35.3837 113.129 35.3924C113.198 35.3924 113.233 35.4226 113.233 35.483Z" stroke="#3E3A39" stroke-width="0.280321" mask="url(#path-1-outside-1_909_2467)"/>
<path d="M117.671 35.483C117.671 35.5435 117.636 35.5737 117.567 35.5737H116.214C116.145 35.5737 116.11 35.5413 116.11 35.4766C116.11 35.4204 116.145 35.3924 116.214 35.3924C116.261 35.3881 116.304 35.3837 116.343 35.3794C116.386 35.3751 116.425 35.3686 116.46 35.36C116.602 35.3298 116.673 35.2046 116.673 34.9844V33.6246C116.673 32.9728 116.434 32.6469 115.955 32.6469C115.484 32.6469 115.156 32.9059 114.971 33.4239V34.9844C114.971 35.183 115.029 35.3039 115.145 35.347C115.18 35.36 115.219 35.3708 115.262 35.3794C115.309 35.3837 115.363 35.3881 115.424 35.3924C115.493 35.3924 115.527 35.4269 115.527 35.496C115.527 35.5478 115.493 35.5737 115.424 35.5737H114.07C114.001 35.5737 113.967 35.5413 113.967 35.4766C113.967 35.4204 114.001 35.3924 114.07 35.3924C114.174 35.3881 114.258 35.3751 114.323 35.3535C114.465 35.3147 114.537 35.1916 114.537 34.9844V33.0483C114.537 32.8455 114.485 32.7246 114.381 32.6857C114.321 32.6685 114.217 32.6555 114.07 32.6469C114.001 32.6469 113.967 32.6123 113.967 32.5433C113.967 32.4828 114.001 32.4505 114.07 32.4462C114.355 32.4375 114.61 32.4116 114.835 32.3684C114.908 32.3555 114.945 32.3857 114.945 32.4591V33.0289C115.208 32.5886 115.575 32.3684 116.045 32.3684C116.753 32.3684 117.107 32.757 117.107 33.534V34.9844C117.107 35.1787 117.17 35.2996 117.295 35.347C117.356 35.3686 117.446 35.3837 117.567 35.3924C117.636 35.3924 117.671 35.4226 117.671 35.483Z" stroke="#3E3A39" stroke-width="0.280321" mask="url(#path-1-outside-1_909_2467)"/>
<path d="M119.962 35.483C119.962 35.5435 119.928 35.5737 119.859 35.5737H118.525C118.456 35.5737 118.421 35.5413 118.421 35.4766C118.421 35.4204 118.456 35.3924 118.525 35.3924C118.62 35.3837 118.702 35.3708 118.771 35.3535C118.913 35.3147 118.985 35.1916 118.985 34.9844V33.0483C118.985 32.8455 118.933 32.7246 118.829 32.6857C118.777 32.6685 118.676 32.6555 118.525 32.6469C118.456 32.6469 118.421 32.6123 118.421 32.5433C118.421 32.4828 118.456 32.4505 118.525 32.4462C118.797 32.4418 119.056 32.4159 119.302 32.3684C119.375 32.3555 119.412 32.3857 119.412 32.4591V34.9844C119.412 35.1744 119.462 35.2931 119.561 35.3406C119.647 35.3708 119.747 35.3881 119.859 35.3924C119.928 35.3924 119.962 35.4226 119.962 35.483ZM119.198 30.9892C119.289 30.9892 119.367 31.0216 119.431 31.0864C119.496 31.1597 119.529 31.2374 119.529 31.3195C119.529 31.5353 119.419 31.6432 119.198 31.6432C118.983 31.6432 118.875 31.5353 118.875 31.3195C118.875 31.0993 118.983 30.9892 119.198 30.9892Z" stroke="#3E3A39" stroke-width="0.280321" mask="url(#path-1-outside-1_909_2467)"/>
<path d="M122.603 35.2175C122.65 35.2564 122.653 35.3039 122.609 35.36C122.402 35.5974 122.165 35.7161 121.897 35.7161C121.418 35.7161 121.178 35.4442 121.178 34.9003V32.6922H120.732C120.663 32.6922 120.628 32.6577 120.628 32.5886C120.628 32.5282 120.66 32.4936 120.725 32.485C120.937 32.4677 121.092 32.3879 121.191 32.2454C121.234 32.185 121.271 32.1073 121.301 32.0123C121.336 31.913 121.368 31.7965 121.399 31.6626C121.403 31.6022 121.437 31.572 121.502 31.572C121.571 31.572 121.606 31.6044 121.606 31.6691V32.4526H122.46C122.53 32.4526 122.564 32.485 122.564 32.5498V32.5886C122.564 32.6577 122.53 32.6922 122.46 32.6922H121.606V34.7772C121.606 35.2175 121.74 35.4377 122.007 35.4377C122.167 35.4377 122.316 35.3665 122.454 35.224C122.506 35.1722 122.555 35.1701 122.603 35.2175Z" stroke="#3E3A39" stroke-width="0.280321" mask="url(#path-1-outside-1_909_2467)"/>
<path d="M126.547 32.5368C126.547 32.6016 126.514 32.6361 126.449 32.6404C126.234 32.6749 126.082 32.7958 125.996 33.003L124.656 36.3378C124.505 36.7133 124.28 36.9011 123.982 36.9011C123.672 36.9011 123.516 36.7781 123.516 36.532C123.516 36.3248 123.62 36.2212 123.827 36.2212C124.013 36.2212 124.105 36.314 124.105 36.4996C124.105 36.5342 124.103 36.5558 124.099 36.5644L124.086 36.6227C124.233 36.6184 124.356 36.4867 124.455 36.2277L124.708 35.5478L123.607 33.0742C123.525 32.8929 123.449 32.7764 123.38 32.7246C123.333 32.6814 123.253 32.6534 123.141 32.6404C123.076 32.6361 123.043 32.6016 123.043 32.5368C123.043 32.4807 123.078 32.4526 123.147 32.4526H124.313C124.382 32.4526 124.416 32.485 124.416 32.5498C124.416 32.6059 124.382 32.6361 124.313 32.6404C124.101 32.6577 123.995 32.7267 123.995 32.8476C123.995 32.8951 124.013 32.9599 124.047 33.0419L124.908 35.0686L125.698 33.0548C125.728 32.9814 125.744 32.921 125.744 32.8735C125.744 32.7397 125.629 32.662 125.4 32.6404C125.331 32.6318 125.297 32.5972 125.297 32.5368C125.297 32.4807 125.331 32.4526 125.4 32.4526H126.443C126.512 32.4526 126.547 32.4807 126.547 32.5368Z" stroke="#3E3A39" stroke-width="0.280321" mask="url(#path-1-outside-1_909_2467)"/>
<path d="M134.946 34.1038C135.006 34.1297 135.03 34.1729 135.017 34.2333C134.871 34.7082 134.642 35.0729 134.331 35.3276C133.994 35.5996 133.591 35.7356 133.12 35.7356C132.507 35.7356 132 35.5348 131.598 35.1334C131.141 34.6887 130.912 34.0822 130.912 33.3138C130.912 32.5541 131.145 31.9368 131.611 31.4619C132.021 31.0518 132.526 30.8468 133.127 30.8468C133.601 30.8468 134.018 30.9741 134.376 31.2288C134.463 31.2892 134.523 31.3195 134.558 31.3195C134.609 31.3195 134.644 31.2655 134.661 31.1576C134.665 31.0885 134.7 31.054 134.765 31.054C134.834 31.054 134.868 31.0885 134.868 31.1576V32.2584C134.868 32.3231 134.834 32.3555 134.765 32.3555C134.704 32.3555 134.668 32.3253 134.655 32.2648C134.59 31.9886 134.471 31.7555 134.299 31.5655C134.014 31.2418 133.634 31.0799 133.159 31.0799C132.529 31.0799 132.062 31.3518 131.76 31.8958C131.544 32.2843 131.436 32.7397 131.436 33.262C131.436 33.8836 131.598 34.3909 131.922 34.7837C132.25 35.1938 132.678 35.3989 133.204 35.3989C133.977 35.3989 134.499 34.9844 134.771 34.1556C134.797 34.0909 134.84 34.0693 134.901 34.0909L134.946 34.1038Z" stroke="#3E3A39" stroke-width="0.280321" mask="url(#path-1-outside-1_909_2467)"/>
<path d="M138.465 33.6764C138.452 33.3009 138.344 33.0117 138.141 32.8088C137.977 32.6447 137.764 32.5627 137.5 32.5627C137.198 32.5627 136.948 32.6922 136.749 32.9512C136.602 33.1412 136.514 33.3829 136.484 33.6764H138.465ZM138.905 33.8642C138.905 33.9031 138.871 33.9225 138.802 33.9225H136.464V34.0326C136.464 34.4686 136.594 34.8139 136.853 35.0686C137.064 35.2845 137.328 35.3924 137.643 35.3924C138.074 35.3924 138.413 35.1981 138.659 34.8096C138.698 34.7535 138.746 34.7449 138.802 34.7837L138.815 34.7967C138.867 34.8355 138.877 34.883 138.847 34.9391C138.567 35.4312 138.139 35.6773 137.565 35.6773C137.116 35.6773 136.745 35.5305 136.451 35.237C136.158 34.9434 136.011 34.5398 136.011 34.0261C136.011 33.4995 136.166 33.0764 136.477 32.757C136.754 32.4807 137.097 32.3425 137.507 32.3425C137.908 32.3425 138.236 32.4721 138.491 32.7311C138.625 32.8692 138.726 33.0289 138.795 33.2102C138.869 33.3872 138.905 33.5858 138.905 33.8059V33.8642Z" stroke="#3E3A39" stroke-width="0.280321" mask="url(#path-1-outside-1_909_2467)"/>
<path d="M143.591 35.483C143.591 35.5435 143.556 35.5737 143.487 35.5737H142.134C142.065 35.5737 142.031 35.5413 142.031 35.4766C142.031 35.4204 142.065 35.3924 142.134 35.3924C142.182 35.3881 142.225 35.3837 142.264 35.3794C142.307 35.3751 142.346 35.3686 142.38 35.36C142.523 35.3298 142.594 35.2046 142.594 34.9844V33.6246C142.594 32.9728 142.354 32.6469 141.875 32.6469C141.405 32.6469 141.076 32.9059 140.891 33.4239V34.9844C140.891 35.183 140.949 35.3039 141.066 35.347C141.1 35.36 141.139 35.3708 141.182 35.3794C141.23 35.3837 141.284 35.3881 141.344 35.3924C141.413 35.3924 141.448 35.4269 141.448 35.496C141.448 35.5478 141.413 35.5737 141.344 35.5737H139.991C139.922 35.5737 139.887 35.5413 139.887 35.4766C139.887 35.4204 139.922 35.3924 139.991 35.3924C140.094 35.3881 140.179 35.3751 140.243 35.3535C140.386 35.3147 140.457 35.1916 140.457 34.9844V33.0483C140.457 32.8455 140.405 32.7246 140.302 32.6857C140.241 32.6685 140.138 32.6555 139.991 32.6469C139.922 32.6469 139.887 32.6123 139.887 32.5433C139.887 32.4828 139.922 32.4505 139.991 32.4462C140.276 32.4375 140.53 32.4116 140.755 32.3684C140.828 32.3555 140.865 32.3857 140.865 32.4591V33.0289C141.128 32.5886 141.495 32.3684 141.966 32.3684C142.674 32.3684 143.028 32.757 143.028 33.534V34.9844C143.028 35.1787 143.09 35.2996 143.215 35.347C143.276 35.3686 143.367 35.3837 143.487 35.3924C143.556 35.3924 143.591 35.4226 143.591 35.483Z" stroke="#3E3A39" stroke-width="0.280321" mask="url(#path-1-outside-1_909_2467)"/>
<path d="M146.187 35.2175C146.235 35.2564 146.237 35.3039 146.194 35.36C145.986 35.5974 145.749 35.7161 145.481 35.7161C145.002 35.7161 144.763 35.4442 144.763 34.9003V32.6922H144.316C144.247 32.6922 144.212 32.6577 144.212 32.5886C144.212 32.5282 144.245 32.4936 144.309 32.485C144.521 32.4677 144.676 32.3879 144.776 32.2454C144.819 32.185 144.855 32.1073 144.886 32.0123C144.92 31.913 144.953 31.7965 144.983 31.6626C144.987 31.6022 145.022 31.572 145.086 31.572C145.155 31.572 145.19 31.6044 145.19 31.6691V32.4526H146.045C146.114 32.4526 146.148 32.485 146.148 32.5498V32.5886C146.148 32.6577 146.114 32.6922 146.045 32.6922H145.19V34.7772C145.19 35.2175 145.324 35.4377 145.591 35.4377C145.751 35.4377 145.9 35.3665 146.038 35.224C146.09 35.1722 146.14 35.1701 146.187 35.2175Z" stroke="#3E3A39" stroke-width="0.280321" mask="url(#path-1-outside-1_909_2467)"/>
<path d="M149.457 33.6764C149.444 33.3009 149.336 33.0117 149.134 32.8088C148.97 32.6447 148.756 32.5627 148.493 32.5627C148.19 32.5627 147.94 32.6922 147.741 32.9512C147.595 33.1412 147.506 33.3829 147.476 33.6764H149.457ZM149.898 33.8642C149.898 33.9031 149.863 33.9225 149.794 33.9225H147.456V34.0326C147.456 34.4686 147.586 34.8139 147.845 35.0686C148.057 35.2845 148.32 35.3924 148.635 35.3924C149.067 35.3924 149.406 35.1981 149.652 34.8096C149.69 34.7535 149.738 34.7449 149.794 34.7837L149.807 34.7967C149.859 34.8355 149.87 34.883 149.839 34.9391C149.559 35.4312 149.131 35.6773 148.557 35.6773C148.108 35.6773 147.737 35.5305 147.444 35.237C147.15 34.9434 147.003 34.5398 147.003 34.0261C147.003 33.4995 147.159 33.0764 147.469 32.757C147.746 32.4807 148.089 32.3425 148.499 32.3425C148.9 32.3425 149.229 32.4721 149.483 32.7311C149.617 32.8692 149.718 33.0289 149.788 33.2102C149.861 33.3872 149.898 33.5858 149.898 33.8059V33.8642Z" stroke="#3E3A39" stroke-width="0.280321" mask="url(#path-1-outside-1_909_2467)"/>
<path d="M151.851 33.1714C151.95 32.9296 152.101 32.7267 152.304 32.5627C152.472 32.4202 152.664 32.349 152.88 32.349C153.126 32.349 153.249 32.4591 153.249 32.6793C153.249 32.8778 153.159 32.9771 152.977 32.9771C152.796 32.9771 152.705 32.8886 152.705 32.7116C152.705 32.703 152.705 32.6922 152.705 32.6793C152.705 32.6663 152.71 32.6469 152.718 32.621C152.55 32.6339 152.377 32.7419 152.2 32.9447C152.062 33.1045 151.956 33.3052 151.883 33.5469V34.9844C151.883 35.1787 151.931 35.2974 152.026 35.3406C152.112 35.3708 152.224 35.3881 152.362 35.3924C152.431 35.3924 152.466 35.4269 152.466 35.496C152.466 35.5478 152.431 35.5737 152.362 35.5737H150.983C150.914 35.5737 150.879 35.5413 150.879 35.4766C150.879 35.4204 150.914 35.3924 150.983 35.3924C151.087 35.3881 151.171 35.3751 151.236 35.3535C151.378 35.3147 151.449 35.1916 151.449 34.9844V33.0483C151.449 32.8455 151.397 32.7246 151.294 32.6857C151.238 32.6685 151.136 32.6555 150.989 32.6469C150.92 32.6469 150.886 32.6123 150.886 32.5433C150.886 32.4828 150.92 32.4505 150.989 32.4462C151.27 32.4375 151.52 32.4116 151.741 32.3684C151.814 32.3555 151.851 32.3857 151.851 32.4591V33.1714Z" stroke="#3E3A39" stroke-width="0.280321" mask="url(#path-1-outside-1_909_2467)"/>
<path fill-rule="evenodd" clip-rule="evenodd" d="M122.49 9.6159L115.575 9.57661L108.681 9.6159C108.052 9.6159 107.738 9.16411 107.738 8.71233C107.738 8.28019 108.052 7.8284 108.681 7.8284L114.613 7.84804L114.593 6.35519V6.33554C114.593 5.74626 115.084 5.45161 115.595 5.45161C116.106 5.45161 116.616 5.74626 116.616 6.35519V7.84804L122.49 7.8284C123.079 7.8284 123.373 8.28019 123.373 8.71233C123.373 9.16411 123.079 9.6159 122.49 9.6159ZM121.625 14.3891C121.37 14.3891 121.095 14.2713 120.84 14.0159C119.916 13.073 118.718 12.2677 117.52 11.7177C117.147 11.5409 116.99 11.2463 116.99 10.9713C116.99 10.5195 117.382 10.0677 117.952 10.0677C118.522 10.0677 121.115 11.2855 122.313 12.4838C122.568 12.7391 122.666 13.0141 122.666 13.2891C122.666 13.8588 122.195 14.3891 121.625 14.3891ZM114.063 11.6391C112.982 12.9552 110.37 14.9391 109.447 14.9391C108.818 14.9391 108.386 14.4284 108.386 13.9177C108.386 13.5641 108.582 13.2302 109.054 13.0534C110.409 12.5427 111.686 11.5605 112.59 10.382C112.786 10.1266 113.022 10.0284 113.257 10.0284C113.768 10.0284 114.279 10.5195 114.279 11.0695C114.279 11.2463 114.22 11.4427 114.063 11.6391ZM115.693 19.4373C112.354 22.482 108.484 22.9338 108.366 22.9338C107.659 22.9338 107.227 22.4034 107.227 21.9123C107.227 21.5195 107.502 21.1463 108.111 21.048C110.684 20.6552 112.884 19.5945 114.475 18.1409C113.925 17.473 113.454 16.7659 113.081 16.0195C112.098 17.0605 111.765 17.2177 111.47 17.2177C110.959 17.2177 110.507 16.8052 110.507 16.3338C110.507 16.0588 110.645 15.7838 110.998 15.548C111.725 15.057 112.373 14.3302 112.609 13.8195C112.727 13.5445 113.022 13.4266 113.316 13.4266C113.768 13.4266 114.259 13.7213 114.259 14.173C114.259 14.2516 114.259 14.3302 114.22 14.4088C114.2 14.448 114.181 14.5069 114.161 14.5658L114.161 14.5659C114.515 15.4302 114.986 16.2159 115.595 16.9427C116.282 16.0588 116.773 15.0766 117.048 14.0552C117.186 13.5248 117.559 13.3284 117.932 13.3284C118.443 13.3284 118.973 13.7016 118.973 14.232C118.973 14.5463 118.443 16.2945 116.872 18.1998C118.423 19.4373 120.486 20.3213 123.079 20.7141C123.668 20.8123 123.923 21.1855 123.923 21.5784C123.923 22.1284 123.472 22.698 122.745 22.698C122.647 22.698 118.895 22.3445 115.693 19.4373ZM137.359 9.43911H142.565C143.154 9.43911 143.429 9.02661 143.429 8.63376C143.429 8.22126 143.154 7.8284 142.565 7.8284H138.322L138.341 6.51233V6.49269C138.341 5.9034 137.85 5.58911 137.359 5.58911C136.888 5.58911 136.397 5.88376 136.397 6.49269V6.51233L136.416 7.8284H132.743C132.154 7.8284 131.859 8.2409 131.859 8.63376C131.859 9.04626 132.154 9.43911 132.743 9.43911H135.395C135.14 10.1855 134.707 11.4034 134.511 11.8159C133.941 11.8355 133.372 11.8355 132.822 11.8355H132.822H132.802C132.252 11.8355 131.977 12.2284 131.977 12.6213C131.977 13.0338 132.272 13.4463 132.881 13.4463C132.979 13.4463 136.613 13.407 141.072 12.6605C141.19 12.798 141.268 12.9159 141.366 13.073C141.582 13.4266 141.877 13.5641 142.172 13.5641C142.643 13.5641 143.075 13.1516 143.075 12.6409C143.075 11.5998 140.581 9.91054 139.952 9.91054C139.481 9.91054 139.107 10.2838 139.107 10.657C139.107 10.9713 139.324 11.148 139.795 11.4623C138.715 11.5802 137.556 11.6784 136.377 11.7373C136.75 10.9713 137.202 9.87126 137.359 9.43911ZM142.25 19.5355V19.5552V19.7123C142.25 21.0284 141.897 21.048 141.445 21.048C141.072 21.048 140.915 20.9498 140.915 20.5766V20.2427C140.915 19.7175 140.924 18.7638 140.934 17.8011L140.934 17.7991V17.7988V17.7982V17.7971L140.934 17.7952C140.944 16.8155 140.954 15.8273 140.954 15.273C140.954 14.782 140.954 14.0945 140.07 14.0945C139.618 14.0945 139.186 14.3498 139.186 14.8802C139.186 15.1097 139.177 16.2578 139.168 17.4796L139.168 17.4933L139.168 17.5009C139.158 18.8869 139.147 20.3614 139.147 20.6945C139.147 22.3052 140.05 22.5998 141.268 22.5998C142.722 22.5998 144.038 22.4623 144.038 19.673C144.038 19.0445 143.566 18.7695 143.075 18.7695C142.663 18.7695 142.25 19.0052 142.25 19.5355ZM129.875 9.26233C130.072 9.49804 130.307 9.59626 130.523 9.59626C131.034 9.59626 131.525 9.08554 131.525 8.53554C131.525 7.43554 128.991 6.1784 128.52 6.1784C127.99 6.1784 127.538 6.63019 127.538 7.06233C127.538 7.2784 127.656 7.51411 127.911 7.67126L127.92 7.67712C128.394 7.97316 129.27 8.52082 129.875 9.26233ZM136.259 14.998L136.22 21.2838C136.22 21.8338 136.672 22.1088 137.123 22.1088C137.575 22.1088 138.027 21.8338 138.027 21.2838L137.988 14.998C137.988 14.448 137.556 14.173 137.123 14.173C136.691 14.173 136.259 14.448 136.259 14.998ZM129.09 13.682C129.266 13.8391 129.463 13.898 129.64 13.898C130.131 13.898 130.543 13.3677 130.543 12.8177C130.543 12.523 130.425 12.2088 130.131 11.9927C129.306 11.3641 127.715 10.8338 127.263 10.8338C126.713 10.8338 126.32 11.3248 126.32 11.7766C126.32 12.032 126.457 12.307 126.811 12.4248C127.518 12.6802 128.323 13.0534 129.09 13.682ZM133.47 15.1355V15.1552V15.7052C133.47 17.9641 133.175 20.223 130.602 21.3623C130.307 21.4998 130.17 21.7552 130.17 22.0302C130.17 22.482 130.543 22.973 131.113 22.973C131.27 22.973 131.427 22.9338 131.604 22.8552C133.784 21.8338 135.257 19.8891 135.257 15.1355C135.257 14.5659 134.806 14.2713 134.354 14.2713C133.922 14.2713 133.47 14.5659 133.47 15.1355ZM127.498 22.5213C127.793 22.5213 128.127 22.3838 128.402 22.0695C130.229 19.9873 131.388 17.0802 131.388 16.6088C131.388 16.0588 130.916 15.7052 130.465 15.7052C130.15 15.7052 129.836 15.8623 129.679 16.2159C128.815 18.1802 127.99 19.6141 126.752 20.9105C126.556 21.107 126.477 21.3427 126.477 21.5588C126.477 22.0695 126.948 22.5213 127.498 22.5213ZM195.207 17.0998C193.458 19.2016 191.258 20.9105 187.88 22.207C186.308 22.8159 185.542 20.9695 187.035 20.4784C189.746 19.5748 191.926 17.8855 193.596 15.9998C192.889 15.5677 192.162 15.2338 191.533 15.057C190.433 14.7623 190.944 13.0927 192.319 13.4855C193.046 13.682 193.93 14.0552 194.794 14.507C195.462 13.5641 196.012 12.6016 196.444 11.698C196.817 10.8927 196.739 10.7945 196.228 10.8141C195.442 10.8338 193.419 11.0302 192.751 11.1088C191.376 12.9159 189.569 14.9784 188.253 15.9016C186.937 16.8052 185.778 15.0963 187.114 14.2713C189.019 13.0927 191.651 9.77304 192.358 8.08376C193.046 6.41411 195.069 7.63197 194.382 8.77126C194.283 8.9284 194.166 9.10519 194.028 9.30161C194.193 9.28819 194.361 9.27418 194.531 9.26L194.531 9.25996L194.532 9.25989C195.357 9.19111 196.233 9.1181 197.014 9.08554C199.037 9.02661 199.391 10.4409 198.625 11.8355C197.898 13.1516 197.171 14.3695 196.405 15.4891C196.955 15.882 197.466 16.2945 197.819 16.7266C198.271 17.257 198.133 17.8855 197.78 18.2195C197.426 18.5534 196.837 18.6516 196.385 18.1605C196.091 17.8463 195.678 17.473 195.207 17.0998ZM219.23 15.1355H206.894C206.187 15.1355 205.853 14.6641 205.853 14.1927C205.853 13.7016 206.226 13.1909 206.894 13.1909H219.23C219.898 13.1909 220.232 13.682 220.232 14.173C220.232 14.6445 219.898 15.1355 219.23 15.1355ZM170.674 21.4213C175.191 19.9873 179.257 15.9605 181.693 11.5409C182.557 9.98911 180.534 9.16411 179.906 10.382C177.922 14.232 173.954 18.298 170.006 19.2998C168.375 19.7123 169.004 21.9516 170.674 21.4213ZM171.891 13.3088C172.5 13.8588 173.188 13.5838 173.502 13.132C173.816 12.6802 173.856 11.9338 173.247 11.5016C172.304 10.8338 170.831 10.3034 169.79 10.0088C168.297 9.59626 167.806 11.5802 168.984 11.8552C169.907 12.0713 171.165 12.6409 171.891 13.3088ZM151.738 15.6659C150.107 16.3534 148.752 16.923 148.418 17.0605C147.063 17.6302 146.473 15.7641 147.691 15.3713C147.978 15.2854 148.962 14.8868 150.25 14.3653L150.251 14.3653C150.731 14.1709 151.253 13.9595 151.797 13.7409C151.836 12.1302 151.856 10.4998 151.856 9.32126C151.856 8.00519 153.859 8.22126 153.859 9.24269C153.859 9.98143 153.83 10.8586 153.798 11.7831L153.798 11.7878L153.798 11.7895C153.785 12.1658 153.772 12.5499 153.761 12.9355C155.784 12.1105 157.768 11.3445 158.711 11.0105C160.165 10.4998 161.657 11.5213 161.029 12.8373C160.361 14.2516 159.241 15.8623 158.023 16.9623C156.727 18.1409 155.45 16.648 156.531 15.6463C157.277 14.9588 158.023 14.2713 158.573 13.407C158.927 12.8766 158.672 12.8963 158.298 13.0141C157.611 13.2302 155.666 14.0159 153.682 14.8409C153.654 15.4241 153.63 15.9795 153.608 16.4797L153.608 16.4816C153.585 17.0083 153.565 17.4737 153.545 17.8463C153.506 18.8088 153.997 19.2998 155.175 19.4373C156.216 19.5552 158.004 19.457 159.398 19.0248C161.147 18.4748 162.011 20.6355 159.791 21.1463C158.004 21.5588 156.275 21.5588 154.448 21.3427C152.72 21.1266 151.64 20.0659 151.679 18.4552C151.698 17.7677 151.718 16.7855 151.738 15.6659ZM97.3958 12.1193C97.5858 12.0565 97.7703 11.9955 97.9164 11.973C98.8592 11.8355 99.1342 11.207 99.0949 10.657C99.0513 9.81441 97.9871 8.92887 97.11 8.19899C96.8011 7.94195 96.5154 7.70422 96.3056 7.49447C95.5003 6.68911 94.1646 7.5534 94.8717 8.49626C95.0234 8.69579 95.2496 8.89532 95.4937 9.11066C95.8505 9.42531 96.2455 9.77371 96.5021 10.2052C96.6789 10.4802 96.6199 10.6373 96.2074 10.8534C95.3431 11.3248 95.9128 12.5034 96.9735 12.248C97.1081 12.2144 97.2535 12.1663 97.3958 12.1193ZM102.061 19.4766C102.532 20.8909 104.575 19.9677 103.907 18.4159C103.259 16.8838 102.061 15.9213 100.981 15.273C99.8806 14.6248 98.8788 15.9016 99.8806 16.5891C100.548 17.0409 101.59 18.0623 102.061 19.4766ZM92.8288 20.9105C97.1503 23.032 100.568 19.5945 97.8967 15.9605C97.2899 15.1262 96.2803 14.0904 95.5396 13.3305L95.461 13.2498C94.7342 12.5034 93.0646 13.2695 94.1646 14.5463C94.3135 14.7155 94.5465 14.9478 94.8096 15.2101L94.8096 15.2102L94.8097 15.2102C95.3099 15.7089 95.9188 16.3161 96.2663 16.8052C97.386 18.3766 96.9146 20.6945 93.5949 19.3391C92.4164 18.848 91.7681 20.3802 92.8288 20.9105ZM88.4681 19.1623C87.2306 20.498 88.8217 21.8338 90.0199 20.4195C90.786 19.5159 91.7485 18.1998 92.2199 17.1195C92.6324 16.1766 91.2181 15.1945 90.4521 16.4516C89.9414 17.2963 88.9592 18.632 88.4681 19.1623ZM79.4128 20.8123C80.0217 22.1284 78.1164 23.2873 77.4878 22.0302C76.3485 19.7909 74.6789 17.2373 73.3235 15.6463C72.0271 14.1338 72.0271 12.7391 73.5592 11.148C73.8306 10.8647 74.1092 10.5789 74.3909 10.2901C75.4957 9.15711 76.6469 7.97659 77.586 6.70876C78.4896 5.51054 80.2574 6.90519 79.3342 8.04447C78.7212 8.79234 77.6797 9.73915 76.6873 10.6413L76.6872 10.6414C76.0896 11.1847 75.5098 11.7117 75.0521 12.1695C74.2074 13.0141 74.1681 13.6034 74.8164 14.4088C75.1707 14.8518 75.5156 15.2749 75.8483 15.6834L75.8485 15.6836C77.3602 17.5388 78.624 19.0898 79.4128 20.8123ZM53.6217 11.5016C55.5467 11.1284 57.6289 11.1677 59.4556 11.5605C61.0467 11.8945 61.4789 9.87126 59.8289 9.51769C58.1985 9.16411 55.4289 9.18376 53.5628 9.45876C51.8146 9.71411 52.0699 11.7963 53.6217 11.5016ZM51.4217 19.5159C52.7771 21.4213 57.4914 22.3445 61.3806 21.1266C62.9717 20.6355 62.5003 18.5141 60.8699 18.9659C57.9039 19.8105 54.7217 19.948 53.0521 18.2391C51.9914 17.1588 50.7146 18.5141 51.4217 19.5159Z" fill="#3E3A39"/>
<g clip-path="url(#clip0_909_2467)">
<path d="M13.3417 8.54261C12.671 8.23309 12.052 7.97515 11.3298 7.76881C11.7941 5.49899 13.0837 3.38393 15.1472 1.62997C16.0758 0.856171 17.3654 0.804584 18.3456 1.42363C18.5519 1.57839 18.8614 1.57839 19.0678 1.42363C20.0995 0.804584 21.3376 0.856171 22.2662 1.62997C26.5479 5.18946 27.4764 10.3997 24.7423 15.1973L22.9368 14.1656C25.155 10.245 24.4328 6.06644 20.9765 3.17758C20.7702 3.02282 20.4606 2.97123 20.2027 3.12599C19.3257 3.69345 18.1392 3.69345 17.2623 3.12599C17.0043 2.97123 16.6948 2.97123 16.4885 3.17758C14.7345 4.72518 13.6512 6.58231 13.3417 8.54261ZM5.96475 21.8004C4.15921 20.9234 2.71478 19.3243 1.88939 17.1576C1.78622 16.8997 1.88939 16.5902 2.09574 16.4354C2.92113 15.7648 3.28224 14.6814 3.0243 13.6497C2.97272 13.3918 3.07589 13.0822 3.28224 12.9275C7.04807 10.5545 11.2782 11.122 14.3218 14.4235L15.8694 13.0307C12.1036 8.90372 6.89331 8.1815 2.19891 11.1735C1.21877 11.7926 0.754484 12.9791 1.01242 14.1656C1.06401 14.4235 1.01242 14.6814 0.806071 14.8362C-0.122491 15.61 -0.432012 16.8481 -0.0193173 17.9314C0.960832 20.4592 2.61161 22.3163 4.62349 23.4512C4.9846 22.8322 5.44888 22.3163 5.96475 21.8004ZM36.7621 14.7846C36.5557 14.6299 36.4525 14.3719 36.5557 14.114C36.8652 12.9791 36.4009 11.741 35.3692 11.1219C33.0994 9.67752 30.6748 9.11006 28.3534 9.368C28.3534 10.0902 28.3018 10.8124 28.1987 11.4831C30.1589 11.1735 32.274 11.5862 34.2343 12.8243C34.4406 12.9791 34.5954 13.2886 34.4922 13.5465C34.2343 14.5783 34.5954 15.6616 35.4208 16.3322C35.6271 16.5386 35.7303 16.8481 35.6271 17.0544C33.9764 21.233 30.2105 23.2449 25.8257 22.3163L25.413 24.3282C26.2899 24.4829 27.1153 24.5861 27.9407 24.5861C32.274 24.5861 35.8335 22.1099 37.5874 17.7767C38.0001 16.7965 37.6906 15.5584 36.7621 14.7846ZM30.0042 26.598C30.9327 28.352 31.1391 30.5186 30.5716 32.7368C30.5201 32.9948 30.2621 33.2011 29.9526 33.2011C28.8693 33.2527 27.9407 33.9233 27.5796 34.9551C27.4764 35.213 27.2185 35.4193 26.9606 35.3678C22.4725 35.0582 19.3773 32.1178 18.913 27.6297L16.8496 27.8361C17.4686 33.3559 21.286 37.0185 26.8058 37.3796H26.9606C28.0439 37.3796 29.0756 36.709 29.4883 35.6257C29.5915 35.3678 29.7978 35.213 30.0558 35.213C31.2423 35.1614 32.2224 34.336 32.5319 33.2011C33.2026 30.5702 32.9962 28.094 32.0161 26.0305C31.4486 26.2885 30.7264 26.4948 30.0042 26.598ZM10.556 35.4193C10.298 35.4193 10.0401 35.2646 9.88534 35.0067C9.47265 34.0265 8.54409 33.3559 7.51235 33.2527C7.20283 33.2527 6.99648 33.0464 6.89331 32.7884C5.7584 28.4551 7.66711 24.5861 11.7425 22.729L10.9171 20.8719C5.86158 23.1417 3.54017 27.8877 4.93301 33.2527C5.24253 34.3876 6.22268 35.213 7.40918 35.2646C7.66711 35.2646 7.87346 35.4709 7.97663 35.6773C8.38933 36.709 9.36948 37.4312 10.5044 37.4312H10.6591C13.3417 37.2765 15.6631 36.2963 17.3654 34.6971C16.9527 34.1297 16.54 33.5106 16.2305 32.8916C14.8377 34.3876 12.8774 35.2646 10.556 35.4193Z" fill="#F39486"/>
<path d="M20.0479 16.2806C20.0479 17.0028 19.4805 17.5703 18.7582 17.5703C18.036 17.5703 17.4686 17.0028 17.4686 16.2806C17.4686 15.5584 18.036 14.9909 18.7582 14.9909C19.4805 14.9909 20.0479 15.5584 20.0479 16.2806Z" fill="#3E3A39"/>
<path d="M15.2503 17.8798C15.921 18.0861 16.2821 18.8084 16.0757 19.479C15.8694 20.1496 15.1472 20.5107 14.4249 20.3044C13.7543 20.098 13.3932 19.3758 13.5996 18.7052C13.8059 18.1893 14.3218 17.8282 14.8376 17.8282H14.8376C14.9924 17.8282 15.0956 17.8282 15.2503 17.8798Z" fill="#3E3A39"/>
<path d="M16.54 24.8956C16.2305 24.9988 15.8694 24.8956 15.6114 24.6893C15.3019 24.5345 15.1472 24.225 15.0956 23.7607C15.044 23.4512 15.0956 23.0901 15.3019 22.8321C15.5599 22.5226 15.921 22.3163 16.3337 22.3163C16.5916 22.3163 16.8495 22.4194 17.0559 22.5742C17.6233 22.9869 17.7781 23.8123 17.3654 24.3797C17.159 24.6377 16.9011 24.844 16.54 24.8956Z" fill="#3E3A39"/>
<path d="M21.905 24.7408C21.6471 24.8956 21.3376 24.9988 20.9765 24.9472C20.6154 24.8956 20.3574 24.6893 20.0995 24.4313C19.9447 24.1734 19.8416 23.8639 19.8931 23.5028C19.9447 23.1932 20.1511 22.8837 20.409 22.6774C20.6669 22.5226 20.9249 22.4194 21.1828 22.4194C21.5955 22.4194 21.9566 22.5742 22.2145 22.9353C22.6272 23.5028 22.4725 24.3282 21.905 24.7408Z" fill="#3E3A39"/>
<path d="M23.8653 18.7052C24.0717 19.3758 23.7106 20.098 23.0399 20.3044C22.3693 20.5107 21.6471 20.1496 21.4923 19.479C21.3376 19.1695 21.3892 18.8084 21.5439 18.4988C21.6987 18.1893 21.9566 17.983 22.2661 17.8798C22.4209 17.8282 22.5241 17.8282 22.6788 17.8282C22.8852 17.8282 23.0399 17.8798 23.2463 17.983C23.5558 18.1377 23.7622 18.3957 23.8653 18.7052Z" fill="#3E3A39"/>
</g>
<defs>
<clipPath id="clip0_909_2467">
<rect width="38" height="38" fill="white"/>
</clipPath>
</defs>
</svg>
